G04*
G04 #@! TF.GenerationSoftware,Altium Limited,Altium Designer,22.8.2 (66)*
G04*
G04 Layer_Physical_Order=1*
G04 Layer_Color=255*
%FSLAX25Y25*%
%MOIN*%
G70*
G04*
G04 #@! TF.SameCoordinates,CEF463C0-22AA-4E03-8404-DDFA2DAA14BC*
G04*
G04*
G04 #@! TF.FilePolarity,Positive*
G04*
G01*
G75*
%ADD11C,0.01575*%
%ADD13C,0.01968*%
%ADD14C,0.01181*%
%ADD18C,0.01000*%
%ADD95C,0.08268*%
%ADD103C,0.01500*%
%ADD104C,0.01100*%
%ADD105C,0.02500*%
%ADD106C,0.01378*%
%ADD107R,0.03800X0.03100*%
%ADD108R,0.03100X0.03800*%
%ADD109R,0.02165X0.04134*%
%ADD110R,0.03937X0.01968*%
G04:AMPARAMS|DCode=111|XSize=62.99mil|YSize=49.21mil|CornerRadius=0mil|HoleSize=0mil|Usage=FLASHONLY|Rotation=225.000|XOffset=0mil|YOffset=0mil|HoleType=Round|Shape=Rectangle|*
%AMROTATEDRECTD111*
4,1,4,0.00487,0.03967,0.03967,0.00487,-0.00487,-0.03967,-0.03967,-0.00487,0.00487,0.03967,0.0*
%
%ADD111ROTATEDRECTD111*%

%ADD112R,0.05906X0.01968*%
%ADD113R,0.03543X0.07874*%
%ADD114R,0.07874X0.03543*%
%ADD115R,0.05236X0.05236*%
%ADD116R,0.02362X0.05354*%
%ADD117R,0.04724X0.01181*%
%ADD118R,0.01181X0.04724*%
%ADD119R,0.06299X0.12992*%
%ADD120R,0.06299X0.04724*%
%ADD121R,0.03937X0.03150*%
%ADD122R,0.02756X0.05906*%
%ADD123R,0.04331X0.03150*%
%ADD124R,0.03150X0.04331*%
%ADD125R,0.07480X0.07087*%
%ADD126R,0.08268X0.06299*%
%ADD127R,0.01575X0.05315*%
%ADD128R,0.05118X0.13386*%
%ADD129R,0.07874X0.04331*%
%ADD130R,0.12992X0.17323*%
%ADD131R,0.15354X0.24410*%
%ADD132R,0.24410X0.15354*%
%ADD133R,0.17323X0.12992*%
%ADD134R,0.06299X0.06299*%
%ADD135R,0.02756X0.05118*%
%ADD136R,0.04134X0.02165*%
%ADD137R,0.04803X0.03602*%
%ADD138R,0.06693X0.05512*%
%ADD139R,0.05512X0.06693*%
%ADD140R,0.11811X0.07874*%
%ADD141R,0.06102X0.04724*%
%ADD142C,0.03000*%
%ADD143C,0.00800*%
%ADD144C,0.02200*%
%ADD145C,0.01772*%
%ADD146C,0.02000*%
%ADD147C,0.06000*%
%ADD148C,0.04500*%
%ADD149C,0.07000*%
%ADD150C,0.01181*%
%ADD151C,0.07874*%
%ADD152C,0.03543*%
%ADD153C,0.03937*%
%ADD154C,0.09843*%
%ADD155O,0.06693X0.04724*%
%ADD156C,0.11811*%
%ADD157O,0.15748X0.07874*%
%ADD158O,0.07874X0.15748*%
%ADD159O,0.14173X0.07087*%
%ADD160O,0.07087X0.14173*%
%ADD161C,0.02362*%
%ADD162C,0.01968*%
G36*
X18110Y327953D02*
X22835Y325197D01*
X26378Y264173D01*
X41759Y239689D01*
X41483Y239189D01*
X29240D01*
Y231012D01*
X41945D01*
Y238453D01*
X42445Y238597D01*
X45669Y233465D01*
X73516Y225974D01*
X73761Y225729D01*
X74058Y225530D01*
X74410Y225460D01*
X75424D01*
X85693Y222698D01*
X85618Y222200D01*
X75625Y222570D01*
X75541Y222557D01*
X75455Y222561D01*
X75365Y222529D01*
X75271Y222514D01*
X75199Y222469D01*
X75118Y222440D01*
X67475Y217854D01*
X54752Y218240D01*
X54625Y218219D01*
X54497Y218212D01*
X54450Y218189D01*
X54399Y218181D01*
X54290Y218113D01*
X54174Y218057D01*
X49449Y214514D01*
X49406Y214465D01*
X49351Y214428D01*
X49287Y214333D01*
X49210Y214247D01*
X49189Y214185D01*
X49152Y214131D01*
X49130Y214018D01*
X49092Y213909D01*
X49095Y213844D01*
X49082Y213779D01*
Y198425D01*
X49086Y198405D01*
X49083Y198385D01*
X49121Y198231D01*
X49152Y198074D01*
X49163Y198057D01*
X49168Y198038D01*
X49263Y197909D01*
X49351Y197776D01*
X49368Y197765D01*
X49380Y197749D01*
X54104Y193418D01*
X54245Y193333D01*
X54383Y193243D01*
X54398Y193240D01*
X54410Y193232D01*
X54573Y193207D01*
X54735Y193177D01*
X87804Y193566D01*
X90197Y190711D01*
X89927Y190255D01*
X89764Y190288D01*
X85433D01*
X85082Y190218D01*
X84784Y190019D01*
X83997Y189232D01*
X83946Y189156D01*
X83882Y189092D01*
X83590Y188653D01*
X71260D01*
X70480Y188498D01*
X69818Y188056D01*
X52347Y170585D01*
X48313D01*
Y162275D01*
X18975D01*
X18438Y163206D01*
X17537Y164107D01*
X16434Y164744D01*
X15204Y165073D01*
X13930D01*
X12700Y164744D01*
X11597Y164107D01*
X10696Y163206D01*
X10059Y162103D01*
X9730Y160873D01*
Y159599D01*
X10059Y158369D01*
X10696Y157266D01*
X11597Y156366D01*
X12700Y155729D01*
X13930Y155399D01*
X15204D01*
X16434Y155729D01*
X17537Y156366D01*
X18438Y157266D01*
X18975Y158197D01*
X48313D01*
Y155399D01*
X55231D01*
Y167701D01*
X56118Y168589D01*
X56580Y168397D01*
Y155399D01*
X63498D01*
Y157922D01*
X73141D01*
Y157043D01*
X78040D01*
Y158049D01*
X83613D01*
X85031Y156630D01*
Y156073D01*
X83450D01*
Y150671D01*
X90053D01*
Y151451D01*
X97013D01*
X97480Y150984D01*
X97480Y150984D01*
X97919Y150691D01*
Y150458D01*
X98653D01*
X98839Y150421D01*
X101772D01*
X101957Y150458D01*
X105624D01*
Y154227D01*
X101957D01*
X101772Y154264D01*
X99634D01*
X99248Y154650D01*
X99319Y154964D01*
X99439Y155150D01*
X101772D01*
X102611Y155317D01*
X102822Y155458D01*
X105624D01*
Y159227D01*
X102822D01*
X102611Y159368D01*
X101772Y159535D01*
X97502D01*
X95893Y161144D01*
Y166129D01*
X97461Y167567D01*
X97919Y167365D01*
Y165458D01*
X105624D01*
Y169227D01*
X99962D01*
X99781Y169693D01*
X101060Y170866D01*
X101112Y170937D01*
X101210Y171012D01*
X101955Y171983D01*
X102424Y173114D01*
X102580Y174298D01*
X102586Y174328D01*
X102586D01*
X102586Y174328D01*
X102586Y174328D01*
X102586Y174815D01*
Y189755D01*
X102419Y190594D01*
X101944Y191305D01*
X100479Y192770D01*
X99768Y193245D01*
X98929Y193412D01*
X93654D01*
X91411Y196088D01*
X91814Y196441D01*
X94945D01*
Y200787D01*
Y205134D01*
X92256D01*
Y207071D01*
X94551D01*
Y211417D01*
Y215764D01*
X91868D01*
X86933Y221838D01*
X86909Y221858D01*
X86943Y221959D01*
X87171Y222301D01*
X112992Y215354D01*
X116535Y205512D01*
X147244Y204331D01*
X151326Y206032D01*
X151412Y206043D01*
X152360Y206436D01*
X152437Y206494D01*
X156693Y208268D01*
X162130Y214858D01*
X162230Y214935D01*
X162721Y215575D01*
X169685Y224016D01*
X168504Y248819D01*
X168728Y250408D01*
X183362Y284542D01*
X203216Y297115D01*
X285433Y294094D01*
X301575Y286221D01*
X303015Y156622D01*
X302547Y156445D01*
X300466Y158847D01*
X300372Y158919D01*
X300274Y159047D01*
X299469Y159665D01*
X298532Y160053D01*
X297581Y160178D01*
X297526Y160189D01*
X290897D01*
Y177559D01*
X290898Y177559D01*
X290751Y178294D01*
X290335Y178918D01*
X290335Y178918D01*
X287185Y182067D01*
X286562Y182484D01*
X285827Y182630D01*
X285827Y182630D01*
X282765D01*
Y183509D01*
X277865D01*
Y182901D01*
X276466D01*
Y183509D01*
X276208D01*
Y184109D01*
X276041Y184948D01*
X275566Y185659D01*
X270696Y190529D01*
Y196620D01*
X273341D01*
Y202750D01*
X263667D01*
Y196620D01*
X266312D01*
Y189620D01*
X266479Y188782D01*
X266954Y188070D01*
X271566Y183458D01*
Y182187D01*
X270966D01*
X270765Y182147D01*
X270561Y182131D01*
X270484Y182091D01*
X270400Y182074D01*
X270230Y181961D01*
X270048Y181868D01*
X268034Y180272D01*
X267632Y180034D01*
X261714D01*
X261507Y180534D01*
X262077Y181104D01*
X262084Y181114D01*
X262094Y181121D01*
X262244Y181353D01*
X262398Y181584D01*
X262400Y181595D01*
X262407Y181605D01*
X262456Y181878D01*
X262510Y182149D01*
X262508Y182161D01*
X262510Y182173D01*
X262119Y206834D01*
X263167Y207782D01*
X263667Y207560D01*
Y206620D01*
X273341D01*
Y212750D01*
X263667D01*
Y211163D01*
X263067D01*
X262820Y211114D01*
X262570Y211077D01*
X262538Y211058D01*
X262501Y211051D01*
X262292Y210911D01*
X262075Y210781D01*
X260307Y209182D01*
X259806Y209402D01*
X259782Y212958D01*
X259836Y213087D01*
X259836Y213087D01*
X262681Y218207D01*
X263667D01*
Y216620D01*
X273341D01*
Y222750D01*
X263667D01*
Y221164D01*
X262458D01*
Y221185D01*
X261463Y220987D01*
X260620Y220424D01*
X260319Y219974D01*
X260206Y219840D01*
X258458Y216695D01*
X257975Y216821D01*
Y225175D01*
X261006Y228207D01*
X263667D01*
Y226620D01*
X273341D01*
Y232750D01*
X263667D01*
Y231164D01*
X261330D01*
X260838Y231183D01*
X260838Y231183D01*
X260838Y231183D01*
X259854Y230987D01*
X259018Y230428D01*
X259029Y230416D01*
X259029Y230411D01*
X256270Y227652D01*
X255808Y227844D01*
Y252274D01*
X257058D01*
X258013Y251320D01*
X258310Y251121D01*
X258661Y251051D01*
X262598D01*
X262663Y251064D01*
X262728Y251060D01*
X262837Y251098D01*
X262950Y251121D01*
X263004Y251157D01*
X263066Y251179D01*
X263152Y251256D01*
X263247Y251320D01*
X263284Y251374D01*
X263333Y251418D01*
X264514Y252993D01*
X264563Y253097D01*
X264627Y253192D01*
X264640Y253256D01*
X264668Y253316D01*
X264675Y253430D01*
X264697Y253543D01*
Y262205D01*
X264679Y262294D01*
X264679Y262385D01*
X264645Y262468D01*
X264627Y262556D01*
X264577Y262631D01*
X264542Y262715D01*
X264478Y262779D01*
X264428Y262854D01*
X264353Y262904D01*
X264288Y262968D01*
X263107Y263756D01*
X263024Y263790D01*
X262950Y263840D01*
X262860Y263858D01*
X262776Y263892D01*
X262687Y263892D01*
X262598Y263910D01*
X259891D01*
X259711Y264344D01*
X259585Y265304D01*
X259594Y265354D01*
Y266844D01*
X264660D01*
Y267841D01*
X265260D01*
X265351Y267859D01*
X265444Y267852D01*
X265632Y267915D01*
X265826Y267953D01*
X265903Y268005D01*
X265991Y268034D01*
X270549Y270628D01*
X271049Y270337D01*
Y270289D01*
X276983D01*
Y274255D01*
X271049D01*
Y273750D01*
X270449D01*
X270358Y273732D01*
X270265Y273739D01*
X270077Y273676D01*
X269883Y273638D01*
X269806Y273586D01*
X269718Y273557D01*
X265160Y270963D01*
X264660Y271254D01*
Y271794D01*
X263073D01*
Y272394D01*
X263066Y272428D01*
X263071Y272462D01*
X263010Y272710D01*
X262960Y272960D01*
X262941Y272989D01*
X262933Y273022D01*
X260435Y278344D01*
X261215Y279124D01*
X261852Y280077D01*
X262291Y281137D01*
X262514Y282261D01*
Y283408D01*
X262291Y284533D01*
X261852Y285592D01*
X261215Y286545D01*
X260404Y287356D01*
X259450Y287993D01*
X258391Y288432D01*
X257266Y288656D01*
X256120D01*
X254995Y288432D01*
X253936Y287993D01*
X252982Y287356D01*
X252171Y286545D01*
X251534Y285592D01*
X251095Y284533D01*
X250872Y283408D01*
Y282261D01*
X251095Y281137D01*
X251534Y280077D01*
X252171Y279124D01*
X252982Y278313D01*
X253936Y277676D01*
X254995Y277237D01*
X256120Y277013D01*
X257266D01*
X257748Y277109D01*
X259359Y273677D01*
X258929Y273416D01*
X258626Y273811D01*
X257944Y274334D01*
X257219Y274635D01*
Y275534D01*
X251088D01*
Y270585D01*
X256154D01*
X256153Y268154D01*
X254654D01*
Y265579D01*
X254153D01*
Y265079D01*
X250988D01*
Y263004D01*
X251005D01*
X251431Y262825D01*
Y260775D01*
X254331D01*
Y260275D01*
X254831D01*
Y257725D01*
X256563D01*
Y257174D01*
X251530D01*
Y252274D01*
X252852D01*
Y200710D01*
X252351Y200411D01*
X251835Y200624D01*
X251008D01*
X250492Y200411D01*
X249875Y200593D01*
X249796Y200785D01*
X249210Y201371D01*
X248446Y201687D01*
X247618D01*
X246853Y201371D01*
X246663Y201181D01*
X246164Y201389D01*
Y201881D01*
X246501D01*
Y206781D01*
X240901D01*
Y201881D01*
X243207D01*
Y194971D01*
X242745Y194779D01*
X236205Y201319D01*
X236397Y201781D01*
X236901D01*
Y203831D01*
X234501D01*
Y203676D01*
X234039Y203485D01*
X221951Y215573D01*
Y252274D01*
X223272D01*
X223272Y252274D01*
Y252274D01*
X223740Y252195D01*
X225411Y250858D01*
X225526Y250799D01*
X225633Y250727D01*
X225683Y250717D01*
X225729Y250693D01*
X225857Y250682D01*
X225984Y250657D01*
X228740D01*
X228790Y250667D01*
X228841Y250663D01*
X228965Y250702D01*
X229091Y250727D01*
X229134Y250756D01*
X229183Y250771D01*
X229282Y250854D01*
X229389Y250926D01*
X229417Y250969D01*
X229457Y251002D01*
X231031Y252970D01*
X231091Y253085D01*
X231163Y253192D01*
X231173Y253242D01*
X231196Y253288D01*
X231207Y253417D01*
X231233Y253543D01*
Y262686D01*
X231636Y263225D01*
X231637Y263226D01*
X231638Y263227D01*
X231714Y263387D01*
X231791Y263547D01*
X231791Y263549D01*
X231792Y263550D01*
X232239Y265321D01*
X232240Y265322D01*
X232240Y265324D01*
X232248Y265499D01*
X232258Y265678D01*
X232257Y265680D01*
X232257Y265681D01*
X231970Y267602D01*
X231921Y267739D01*
X231882Y267879D01*
X231861Y267906D01*
X231849Y267939D01*
X231751Y268046D01*
X231662Y268161D01*
X230457Y269199D01*
X230330Y269271D01*
X230209Y269352D01*
X230175Y269358D01*
X230145Y269375D01*
X230001Y269393D01*
X229858Y269422D01*
X225984Y269422D01*
X225633Y269352D01*
X225335Y269153D01*
X223861Y267678D01*
X223361Y267885D01*
Y269191D01*
X224626Y270457D01*
X227236D01*
Y273031D01*
Y275606D01*
X225896D01*
X225689Y276106D01*
X227287Y277704D01*
X228223Y277316D01*
X229348Y277092D01*
X230495D01*
X231619Y277316D01*
X232679Y277755D01*
X233632Y278392D01*
X234443Y279203D01*
X235080Y280156D01*
X235519Y281215D01*
X235742Y282340D01*
Y283487D01*
X235519Y284611D01*
X235080Y285671D01*
X234443Y286624D01*
X233632Y287435D01*
X232679Y288072D01*
X231619Y288511D01*
X230495Y288735D01*
X229348D01*
X228223Y288511D01*
X227164Y288072D01*
X226210Y287435D01*
X225400Y286624D01*
X224763Y285671D01*
X224324Y284611D01*
X224100Y283487D01*
Y282340D01*
X224324Y281215D01*
X224712Y280279D01*
X222234Y277801D01*
X221839Y277210D01*
X221701Y276513D01*
Y272681D01*
X220786Y271766D01*
X217230D01*
Y271766D01*
X216877Y271620D01*
X214937Y273559D01*
X214346Y273954D01*
X213649Y274093D01*
X212809D01*
Y274255D01*
X206876D01*
Y270289D01*
X212809D01*
X212809Y270289D01*
Y270289D01*
X212809Y270289D01*
X213235Y270111D01*
X215342Y268004D01*
X215342Y268004D01*
X215933Y267609D01*
X216630Y267471D01*
X216630Y267471D01*
X217230D01*
Y266817D01*
X222867D01*
X223098Y266535D01*
Y262786D01*
X220972D01*
Y260236D01*
Y257686D01*
X223098D01*
Y257174D01*
X217672D01*
Y252274D01*
X218994D01*
Y214961D01*
X219107Y214395D01*
X219427Y213915D01*
X241238Y192104D01*
Y190524D01*
X240778Y190328D01*
X235546Y195331D01*
Y195690D01*
X235229Y196454D01*
X234643Y197040D01*
X233878Y197357D01*
X233051D01*
X232286Y197040D01*
X231700Y196454D01*
X231383Y195690D01*
Y194862D01*
X231700Y194097D01*
X232286Y193511D01*
X233051Y193194D01*
X233502D01*
X234235Y192494D01*
X234049Y192030D01*
X231687D01*
X229758Y193959D01*
X229278Y194279D01*
X228713Y194392D01*
X227841D01*
Y197160D01*
X220529D01*
Y188667D01*
X221902D01*
Y186933D01*
X221138Y186169D01*
X216985D01*
X215087Y188067D01*
X215294Y188567D01*
X218941D01*
Y192413D01*
X211429D01*
Y188728D01*
X193307D01*
X192649Y188597D01*
X192091Y188224D01*
X168936Y165070D01*
X163164Y170841D01*
X162453Y171317D01*
X161614Y171484D01*
X154461D01*
Y174423D01*
X155767Y175729D01*
X155966Y176027D01*
X156036Y176378D01*
Y180709D01*
X155966Y181060D01*
X155767Y181358D01*
X155231Y181894D01*
Y182790D01*
X154335D01*
X153798Y183326D01*
X153501Y183525D01*
X153150Y183595D01*
X148425D01*
X148074Y183525D01*
X147776Y183326D01*
X147240Y182790D01*
X147132D01*
Y182681D01*
X146202Y181751D01*
X146003Y181454D01*
X145933Y181102D01*
X145933Y177545D01*
X141746Y173359D01*
X136221D01*
X135869Y173289D01*
X135572Y173090D01*
X134024Y171542D01*
X133942D01*
Y171434D01*
X133798Y171217D01*
X133728Y170866D01*
Y166142D01*
X133737Y166097D01*
X133732Y166052D01*
X133772Y165923D01*
X133798Y165791D01*
X133823Y165753D01*
X133836Y165709D01*
X133922Y165605D01*
X133942Y165574D01*
Y164230D01*
X135918D01*
X136236Y164039D01*
X136300Y164016D01*
X136356Y163979D01*
X136983Y163719D01*
X137334Y163649D01*
X152756D01*
X153107Y163719D01*
X153405Y163918D01*
X154192Y164706D01*
X154391Y165003D01*
X154461Y165354D01*
Y167099D01*
X160706D01*
X167052Y160753D01*
X189848Y137957D01*
Y133746D01*
X191902D01*
Y106916D01*
X175211D01*
Y107691D01*
X171246D01*
Y106646D01*
X144383D01*
X143648Y106499D01*
X143025Y106083D01*
X143025Y106083D01*
X141792Y104850D01*
X141779Y104830D01*
X141759Y104816D01*
X141704Y104759D01*
X141691Y104738D01*
X141672Y104724D01*
X133793Y96016D01*
X113779D01*
X113431Y96425D01*
X112598Y116929D01*
X104724Y128740D01*
X54574D01*
X54559Y129240D01*
X56912Y131593D01*
X183465D01*
X184030Y131705D01*
X184510Y132026D01*
X185246Y132761D01*
X185414D01*
X186107Y133048D01*
X186637Y133578D01*
X186924Y134271D01*
Y135020D01*
X186637Y135713D01*
X186107Y136243D01*
X185414Y136530D01*
X184665D01*
X183972Y136243D01*
X183442Y135713D01*
X183155Y135020D01*
Y134852D01*
X182852Y134549D01*
X175024D01*
X174873Y135049D01*
X175061Y135175D01*
X178159Y138273D01*
X178328D01*
X179020Y138560D01*
X179550Y139090D01*
X179837Y139783D01*
Y140532D01*
X179550Y141225D01*
X179020Y141755D01*
X178328Y142042D01*
X177578D01*
X176885Y141755D01*
X176355Y141225D01*
X176068Y140532D01*
Y140364D01*
X173403Y137699D01*
X151701D01*
X151326Y138001D01*
Y140051D01*
X148426D01*
Y140551D01*
X147926D01*
Y143101D01*
X145800D01*
Y144472D01*
X147925D01*
Y148319D01*
X144669D01*
Y146489D01*
X144219Y146273D01*
X143831Y146583D01*
Y151379D01*
X143813Y151468D01*
Y151558D01*
X143779Y151642D01*
X143761Y151730D01*
X143711Y151806D01*
X143676Y151889D01*
X143081Y152780D01*
Y153065D01*
X142890D01*
X142706Y153341D01*
X142642Y153405D01*
X142592Y153481D01*
X142517Y153531D01*
X142453Y153595D01*
X142369Y153629D01*
X142294Y153680D01*
X140576Y154391D01*
X140225Y154461D01*
X135886D01*
X135760Y154630D01*
X136010Y155130D01*
X137689D01*
Y158886D01*
Y162642D01*
X133843D01*
Y161956D01*
X133343Y161804D01*
X133183Y162043D01*
X127992Y167234D01*
X138952Y178194D01*
X139427Y178905D01*
X139594Y179744D01*
Y181366D01*
X144488D01*
X144839Y181436D01*
X145137Y181635D01*
X145924Y182422D01*
X146123Y182720D01*
X146193Y183071D01*
Y190565D01*
X146531Y190903D01*
X147031Y190696D01*
Y188689D01*
X151181D01*
X155331D01*
Y191551D01*
X154920D01*
X154728Y192013D01*
X156161Y193446D01*
X156360Y193743D01*
X156429Y194095D01*
Y198819D01*
X156360Y199170D01*
X156161Y199468D01*
X154586Y201043D01*
X154288Y201241D01*
X153937Y201311D01*
X146457D01*
X146106Y201241D01*
X145808Y201043D01*
X142658Y197893D01*
X142459Y197595D01*
X142390Y197244D01*
Y194868D01*
X141746Y194225D01*
X132283D01*
X131932Y194155D01*
X131635Y193956D01*
X128485Y190806D01*
X128286Y190509D01*
X128216Y190157D01*
Y183858D01*
X128286Y183507D01*
X128485Y183209D01*
X130060Y181635D01*
X130358Y181436D01*
X130709Y181366D01*
X135210D01*
Y180652D01*
X124092Y169535D01*
X123031D01*
X122193Y169368D01*
X121982Y169227D01*
X119179D01*
Y165458D01*
X121982D01*
X122193Y165317D01*
X123031Y165150D01*
X123875D01*
X124337Y164689D01*
X124146Y164227D01*
X119179D01*
Y160458D01*
X126884D01*
Y161488D01*
X127346Y161680D01*
X129441Y159585D01*
Y155375D01*
X129607Y154536D01*
X130083Y153825D01*
X132547Y151361D01*
Y149606D01*
X132547Y149606D01*
Y147244D01*
X132617Y146893D01*
X132816Y146595D01*
X135572Y143839D01*
X135869Y143640D01*
X136221Y143571D01*
X138059D01*
Y138976D01*
X138129Y138625D01*
X138328Y138328D01*
X138494Y138161D01*
X138303Y137699D01*
X53543D01*
X52978Y137586D01*
X52498Y137266D01*
X47025Y131793D01*
X46705Y131314D01*
X46593Y130748D01*
Y128740D01*
X25984D01*
X8661Y142126D01*
X7087Y321654D01*
X10236Y328346D01*
X18110Y327953D01*
D02*
G37*
G36*
X263779Y262205D02*
Y253543D01*
X262598Y251969D01*
X258661D01*
X257480Y253150D01*
Y261024D01*
X257670Y262886D01*
X259449Y262992D01*
X262598D01*
X263779Y262205D01*
D02*
G37*
G36*
X229858Y268504D02*
X231063Y267466D01*
X231350Y265546D01*
X230902Y263775D01*
X230315Y262992D01*
Y253543D01*
X228740Y251575D01*
X225984D01*
X224016Y253150D01*
Y266535D01*
X225984Y268504D01*
X229858Y268504D01*
D02*
G37*
G36*
X45737Y323195D02*
X47155Y273139D01*
X90197Y235433D01*
Y228780D01*
X87795Y226378D01*
X74410Y226378D01*
X29134Y271654D01*
Y323228D01*
X31496Y325590D01*
X37402Y325590D01*
X43273D01*
X45737Y323195D01*
D02*
G37*
G36*
X112205Y233071D02*
X112205Y227165D01*
X109843Y224803D01*
X99213D01*
X96850Y227165D01*
Y233071D01*
X99606Y235827D01*
X109449D01*
X112205Y233071D01*
D02*
G37*
G36*
X86221Y221260D02*
X91339Y214961D01*
Y197244D01*
X88189Y194488D01*
X54724Y194095D01*
X50000Y198425D01*
Y213779D01*
X54724Y217323D01*
X67716Y216929D01*
X75590Y221654D01*
X86221Y221260D01*
D02*
G37*
G36*
X202319Y180621D02*
X207919D01*
Y181643D01*
X208857D01*
X209280Y181221D01*
X206154Y178094D01*
X210906Y173341D01*
X215206Y177641D01*
X216348D01*
X216861Y177217D01*
X216885Y176718D01*
X215424Y175257D01*
X217872Y172810D01*
X217518Y172457D01*
X217872Y172103D01*
X214937Y169169D01*
X216162Y167944D01*
X212340Y164122D01*
X210979D01*
X207705Y167396D01*
X201978Y161669D01*
X203309Y160338D01*
X202119Y159148D01*
X201619Y159355D01*
Y159930D01*
X196019D01*
Y155030D01*
X201619D01*
Y156002D01*
X202542D01*
X203107Y156114D01*
X203587Y156435D01*
X205399Y158247D01*
X206730Y156916D01*
X210979Y161165D01*
X212952D01*
X213518Y161278D01*
X213998Y161598D01*
X215013Y162613D01*
X215474Y162367D01*
X215429Y162143D01*
X215451D01*
X215451Y155600D01*
X214129D01*
Y150700D01*
X215451D01*
Y149226D01*
X214047D01*
Y144839D01*
X213990Y144790D01*
X213547Y144651D01*
X213447Y144766D01*
Y146276D01*
X210547D01*
X207647D01*
Y144460D01*
X207426Y144369D01*
X206812Y143755D01*
X206508Y143020D01*
X210815D01*
X210510Y143755D01*
X210502Y143764D01*
X210693Y144226D01*
X212087D01*
X212295Y143726D01*
X211930Y143361D01*
X211626Y142626D01*
X215933D01*
X215629Y143361D01*
X215164Y143826D01*
X215372Y144326D01*
X219647D01*
Y149226D01*
X218408D01*
Y150700D01*
X219729D01*
Y150743D01*
X220528D01*
Y141832D01*
X220027Y141498D01*
X219666Y141648D01*
X218917D01*
X218224Y141361D01*
X217694Y140831D01*
X217566Y140523D01*
X216710Y139667D01*
X214850D01*
X214751Y140167D01*
X215015Y140277D01*
X215629Y140891D01*
X215933Y141626D01*
X211626D01*
X211930Y140891D01*
X212544Y140277D01*
X212808Y140167D01*
X212709Y139667D01*
X212210D01*
X212091Y139786D01*
X211398Y140073D01*
X210649D01*
X209956Y139786D01*
X209426Y139256D01*
X209139Y138564D01*
Y137814D01*
X209426Y137122D01*
X209956Y136592D01*
X210649Y136305D01*
X211398D01*
X212091Y136592D01*
X212210Y136711D01*
X217323D01*
X217658Y136777D01*
X217932Y136322D01*
X216014Y133961D01*
X215936Y133812D01*
X215777Y133605D01*
X215507Y132955D01*
X215428Y132349D01*
X215409Y132258D01*
Y128785D01*
X214479D01*
Y128708D01*
X213979Y128405D01*
X208812Y131097D01*
X208719Y131125D01*
X208638Y131179D01*
X208311Y131244D01*
X207991Y131337D01*
X207895Y131327D01*
X207799Y131346D01*
X205342D01*
Y132802D01*
X205600D01*
Y138402D01*
X201441D01*
X201374Y138502D01*
X201641Y139002D01*
X202650D01*
Y141402D01*
X200600D01*
Y139480D01*
X200100Y139213D01*
X199780Y139427D01*
X198941Y139594D01*
X198341D01*
Y141058D01*
X192948D01*
X191822Y142184D01*
X192013Y142646D01*
X193595D01*
Y145902D01*
X189748D01*
Y144911D01*
X189286Y144720D01*
X171369Y162637D01*
X194020Y185287D01*
X195919D01*
Y183571D01*
X198819D01*
X201719D01*
Y185287D01*
X202319D01*
Y180621D01*
D02*
G37*
G36*
X230029Y189506D02*
X230509Y189185D01*
X231075Y189073D01*
X234821D01*
X235333Y188561D01*
Y187711D01*
X235320D01*
Y181187D01*
X237189D01*
Y181087D01*
X238280D01*
Y181186D01*
X238302D01*
Y184449D01*
X239257D01*
Y181186D01*
X239280D01*
Y181087D01*
X240370D01*
Y181187D01*
X257327D01*
X257524Y180687D01*
X257296Y180345D01*
X257183Y179779D01*
Y175251D01*
X257296Y174685D01*
X257616Y174205D01*
X258260Y173561D01*
X258740Y173240D01*
X259306Y173128D01*
X261108D01*
Y171147D01*
Y167210D01*
Y163273D01*
Y159336D01*
Y155399D01*
X267632D01*
Y159399D01*
X271215D01*
Y158574D01*
X274337D01*
X274436Y158074D01*
X274412Y158063D01*
X273826Y157478D01*
X273510Y156713D01*
Y155885D01*
X273826Y155120D01*
X274412Y154535D01*
X275177Y154218D01*
X276005D01*
X276769Y154535D01*
X277106Y154872D01*
X279134D01*
X279134Y154872D01*
X279680Y154980D01*
X280143Y155290D01*
X281324Y156471D01*
X281324Y156471D01*
X281634Y156934D01*
X281742Y157480D01*
X281742Y157480D01*
Y157972D01*
X281743Y157974D01*
X281743Y157974D01*
Y158574D01*
X283115D01*
Y163474D01*
X277515D01*
Y158574D01*
X278888D01*
Y158072D01*
X278543Y157727D01*
X277106D01*
X276769Y158063D01*
X276745Y158074D01*
X276815Y158574D01*
X276815D01*
Y163474D01*
X271215D01*
Y162254D01*
X267632D01*
Y167210D01*
Y171147D01*
Y174984D01*
X267732D01*
Y175249D01*
X269357D01*
X271135Y173471D01*
X271466Y173250D01*
Y171509D01*
X273516D01*
Y174409D01*
Y177309D01*
X271466D01*
Y177309D01*
X271169Y177186D01*
X270843Y177512D01*
X270449Y177775D01*
X270408Y177838D01*
X270337Y178324D01*
X271066Y178902D01*
X271566Y178660D01*
Y177909D01*
X276466D01*
Y178516D01*
X277865D01*
Y177909D01*
X282765D01*
Y178788D01*
X285031D01*
X287055Y176763D01*
Y159063D01*
X278394Y150402D01*
X277977Y149778D01*
X277831Y149043D01*
X277831Y149043D01*
Y146372D01*
X276096D01*
Y144047D01*
X272922D01*
Y144532D01*
X268022D01*
Y144039D01*
X261900D01*
X259984Y145391D01*
Y150984D01*
X259955Y151131D01*
Y154246D01*
X258087D01*
Y154347D01*
X256996D01*
Y154247D01*
X256974D01*
Y151131D01*
X256945Y150984D01*
X256018D01*
Y154247D01*
X255996D01*
Y154347D01*
X254906D01*
Y154246D01*
X235320D01*
Y149813D01*
X234909Y149401D01*
X231328Y145979D01*
X231121D01*
X230429Y145692D01*
X229899Y145162D01*
X229612Y144469D01*
Y143720D01*
X229899Y143027D01*
X230429Y142497D01*
X231121Y142210D01*
X231331D01*
X231386Y142177D01*
X231702Y141710D01*
X231643Y141413D01*
X231643Y141413D01*
Y133509D01*
X230621D01*
Y127909D01*
X235521D01*
Y127909D01*
X235739D01*
Y127909D01*
X240639D01*
Y127909D01*
X240857D01*
Y127909D01*
X245757D01*
Y127909D01*
X245975D01*
Y127909D01*
X250875D01*
Y131415D01*
X250936Y131466D01*
X251375Y131637D01*
X252043Y131191D01*
X252047Y131200D01*
X252050Y131201D01*
X260605Y127481D01*
X260609Y127474D01*
X260605Y127466D01*
X260638Y127444D01*
X261069Y127358D01*
X261633Y127246D01*
X261702Y127260D01*
X262199Y127281D01*
X292751Y128035D01*
X296166Y124931D01*
X296546Y87312D01*
X291207Y82974D01*
X279533D01*
X279414Y83093D01*
X278721Y83380D01*
X277972D01*
X277279Y83093D01*
X276749Y82563D01*
X276462Y81871D01*
Y81121D01*
X276749Y80429D01*
X277279Y79899D01*
X277972Y79612D01*
X278721D01*
X279414Y79899D01*
X279533Y80018D01*
X291342D01*
Y79996D01*
X292337Y80194D01*
X292820Y80517D01*
X292968Y80595D01*
X298552Y85132D01*
X298590Y85179D01*
X298765Y85295D01*
X299328Y86138D01*
X299436Y86680D01*
X299526Y87133D01*
X299523Y87151D01*
X299500Y87639D01*
X299121Y125126D01*
X299137Y125126D01*
X298945Y126094D01*
X298584Y126635D01*
X298381Y126938D01*
X298282Y127004D01*
X298277Y127007D01*
X294628Y130325D01*
X294628Y130325D01*
Y130325D01*
X293888Y130819D01*
X293310Y130934D01*
X292893Y131017D01*
X292837Y131006D01*
X292343Y130983D01*
X262106Y130236D01*
X261678Y130260D01*
X261633Y130279D01*
X261622Y130274D01*
X261612Y130268D01*
X253400Y133838D01*
X253386Y133871D01*
X253301Y133906D01*
X252218Y135423D01*
X252475Y135923D01*
X253538D01*
X253657Y135804D01*
X254350Y135517D01*
X255099D01*
X255792Y135804D01*
X256322Y136334D01*
X256526Y136827D01*
X257071Y136972D01*
X261566Y132047D01*
X261566Y132047D01*
X261569Y132044D01*
X261573Y132036D01*
X261634Y131945D01*
X261943Y131738D01*
X262477Y131381D01*
X263037Y131270D01*
X263472Y131183D01*
X263509Y131190D01*
X264003Y131211D01*
X295064Y131585D01*
X300108Y126542D01*
X300870Y84981D01*
X292427Y78649D01*
X292415Y78644D01*
X268076D01*
X268007Y78811D01*
X267484Y79492D01*
X267161Y79740D01*
Y80370D01*
X267555Y80673D01*
X268094Y81375D01*
X268433Y82193D01*
X268483Y82571D01*
X264173D01*
X259864D01*
X259913Y82193D01*
X260252Y81375D01*
X260791Y80673D01*
X261186Y80370D01*
Y79740D01*
X260862Y79492D01*
X260339Y78811D01*
X260011Y78017D01*
X259899Y77165D01*
X260011Y76314D01*
X260339Y75520D01*
X260862Y74839D01*
X261281Y74517D01*
Y73908D01*
X260862Y73586D01*
X260339Y72905D01*
X260011Y72111D01*
X259899Y71260D01*
X260011Y70408D01*
X260339Y69615D01*
X260862Y68933D01*
X261281Y68612D01*
Y68002D01*
X260862Y67681D01*
X260339Y67000D01*
X260011Y66206D01*
X259899Y65354D01*
X260011Y64503D01*
X260339Y63709D01*
X260862Y63028D01*
X261281Y62706D01*
Y62097D01*
X260862Y61775D01*
X260339Y61094D01*
X260011Y60300D01*
X259899Y59449D01*
X260011Y58597D01*
X260339Y57804D01*
X260862Y57122D01*
X261544Y56599D01*
X262337Y56271D01*
X263189Y56159D01*
X265158D01*
X266009Y56271D01*
X266803Y56599D01*
X267484Y57122D01*
X268007Y57804D01*
X268336Y58597D01*
X268448Y59449D01*
X268336Y60300D01*
X268007Y61094D01*
X267484Y61775D01*
X267065Y62097D01*
Y62706D01*
X267484Y63028D01*
X268007Y63709D01*
X268026Y63756D01*
X283871Y63102D01*
X283871Y63100D01*
X283978Y63078D01*
X284345Y63152D01*
X284973Y63276D01*
X285181Y63415D01*
X285263Y63444D01*
X303502Y73966D01*
X303936Y73718D01*
X304331Y38189D01*
X292126Y27953D01*
X232199D01*
Y35939D01*
X222919D01*
Y27953D01*
X202278D01*
Y35939D01*
X192998D01*
Y27953D01*
X133071D01*
X115748Y39370D01*
X115340Y49407D01*
X115830Y49681D01*
X116135Y49477D01*
X116779Y49349D01*
X117423Y49477D01*
X117969Y49841D01*
X118512Y50385D01*
X118877Y50931D01*
X119005Y51575D01*
X118877Y52219D01*
X118512Y52764D01*
X117967Y53129D01*
X117323Y53257D01*
X116679Y53129D01*
X116133Y52764D01*
X115721Y52352D01*
X115214Y52521D01*
X115007Y57610D01*
X146836Y96914D01*
X209586Y98101D01*
X209845Y97842D01*
X210610Y97525D01*
X211438D01*
X212203Y97842D01*
X212788Y98427D01*
X213105Y99192D01*
Y100020D01*
X212788Y100785D01*
X212203Y101371D01*
X211438Y101687D01*
X210610D01*
X209845Y101371D01*
X209531Y101057D01*
X146092Y99857D01*
X146029Y99844D01*
X145965Y99849D01*
X145749Y99782D01*
X145528Y99734D01*
X145476Y99697D01*
X145414Y99678D01*
X145240Y99534D01*
X145055Y99405D01*
X145020Y99351D01*
X144971Y99309D01*
X118587Y66729D01*
X118120Y66947D01*
X118195Y67323D01*
X118009Y68259D01*
X117478Y69053D01*
X116684Y69584D01*
X115748Y69770D01*
X114514D01*
X113621Y91739D01*
X114104Y92173D01*
X134646D01*
X134693Y92183D01*
X134742Y92176D01*
X135059Y92256D01*
X135381Y92320D01*
X135421Y92347D01*
X135469Y92358D01*
X135731Y92554D01*
X136004Y92736D01*
X136031Y92777D01*
X136070Y92806D01*
X144505Y102128D01*
X144526Y102150D01*
X145179Y102803D01*
X171246D01*
Y101758D01*
X175211D01*
Y102532D01*
X202756D01*
X203595Y102699D01*
X204306Y103174D01*
X206025Y104894D01*
X214479D01*
Y104286D01*
X216279D01*
X224580Y95985D01*
Y93988D01*
X222186Y91594D01*
X221987Y91296D01*
X221917Y90945D01*
Y88189D01*
X221987Y87838D01*
X222186Y87540D01*
X224548Y85178D01*
X224846Y84979D01*
X225197Y84909D01*
X227150D01*
Y81827D01*
X231496D01*
X235842D01*
Y84909D01*
X237386D01*
Y81827D01*
X241732D01*
X246079D01*
Y84909D01*
X247622D01*
Y81827D01*
X251969D01*
X256315D01*
Y84909D01*
X259770D01*
X260104Y84409D01*
X259913Y83949D01*
X259864Y83571D01*
X264173D01*
X268483D01*
X268433Y83949D01*
X268236Y84424D01*
X268461Y84979D01*
X268759Y85178D01*
X270334Y86753D01*
X270533Y87050D01*
X270603Y87402D01*
Y91339D01*
X270565Y91531D01*
X270809Y91935D01*
X270910Y92025D01*
X284263Y91786D01*
X284320Y91796D01*
X284323Y91796D01*
X285123Y91901D01*
X285869Y92210D01*
X285879Y92218D01*
X285941Y92241D01*
X292151Y96036D01*
X292153Y96038D01*
X292155Y96038D01*
X292156Y96039D01*
X292313Y96184D01*
X292335Y96201D01*
X292509Y96317D01*
X292532Y96353D01*
X292722Y96498D01*
X293213Y97139D01*
X293522Y97884D01*
X293628Y98684D01*
X293627Y98685D01*
X293637Y98741D01*
X293637Y98745D01*
X293636Y98751D01*
X293637Y98757D01*
X293271Y114511D01*
X293224Y114720D01*
X293156Y115239D01*
X292847Y115985D01*
X292355Y116625D01*
X292344Y116634D01*
X292306Y116688D01*
X292302Y116692D01*
X292298Y116694D01*
X292295Y116699D01*
X291949Y117024D01*
X293899Y121702D01*
X293937Y121889D01*
X294010Y122066D01*
Y122253D01*
X294047Y122437D01*
X294010Y122624D01*
Y122816D01*
X293939Y122988D01*
X293903Y123172D01*
X293797Y123331D01*
X293723Y123508D01*
X293591Y123641D01*
X293488Y123796D01*
X293329Y123903D01*
X293193Y124038D01*
X293021Y124110D01*
X292865Y124214D01*
X292678Y124252D01*
X292501Y124325D01*
X292314D01*
X292130Y124362D01*
X291943Y124325D01*
X291751D01*
X291578Y124254D01*
X291395Y124217D01*
X291235Y124112D01*
X291059Y124038D01*
X290926Y123906D01*
X290771Y123802D01*
X290664Y123644D01*
X290529Y123508D01*
X290457Y123335D01*
X290353Y123180D01*
X288750Y119335D01*
X284164D01*
Y119202D01*
X284152Y118728D01*
X283552D01*
Y119336D01*
X278652D01*
X278652Y119336D01*
X278177Y119397D01*
X277484Y119535D01*
X273031D01*
X272193Y119368D01*
X271982Y119227D01*
X269179D01*
Y115458D01*
X271982D01*
X272193Y115317D01*
X273031Y115150D01*
X276338D01*
X276502Y114986D01*
X276901Y114720D01*
X276748Y114256D01*
X276564Y114227D01*
X276430Y114227D01*
X276430Y114227D01*
X276425Y114227D01*
X269179D01*
Y110458D01*
X276884D01*
Y113775D01*
X276884Y114130D01*
X277027Y114295D01*
X277271Y114499D01*
X277349Y114484D01*
X278052Y114344D01*
X278652D01*
Y113736D01*
X283552D01*
Y114344D01*
X284149D01*
X284153Y114343D01*
X284164D01*
Y113735D01*
X288917D01*
X288958Y113635D01*
X288638Y113144D01*
X288620Y113135D01*
X287114D01*
Y110236D01*
Y107335D01*
X289094D01*
X289164Y107335D01*
X289598Y107176D01*
X289635Y105564D01*
X289286Y105206D01*
X284602D01*
Y100306D01*
X285151D01*
X285332Y99806D01*
X284498Y99111D01*
X246145Y98727D01*
X246124Y98736D01*
X244059Y100211D01*
X243909Y100279D01*
X243556Y100515D01*
X242561Y100713D01*
Y100691D01*
X237292Y100691D01*
X237006Y100977D01*
X236241Y101294D01*
X235413D01*
X234648Y100977D01*
X234063Y100391D01*
X233746Y99626D01*
Y98799D01*
X234063Y98034D01*
X234648Y97448D01*
X235413Y97132D01*
X236241D01*
X237006Y97448D01*
X237292Y97734D01*
X242429Y97734D01*
X242454Y97724D01*
X243379Y97063D01*
X243227Y96587D01*
X228964D01*
Y96893D01*
X228797Y97732D01*
X228322Y98443D01*
X219379Y107386D01*
Y109886D01*
X214479D01*
Y109278D01*
X205117D01*
X204278Y109111D01*
X203567Y108636D01*
X201848Y106916D01*
X196287D01*
Y133746D01*
X198341D01*
X198341Y133746D01*
Y133746D01*
X198841Y133857D01*
X199261Y133576D01*
X200100Y133409D01*
X200700D01*
Y132802D01*
X200957D01*
Y131038D01*
X199494D01*
Y127269D01*
X202297D01*
X202508Y127128D01*
X203346Y126961D01*
X207262D01*
X212866Y124041D01*
X212959Y124014D01*
X213040Y123960D01*
X213367Y123895D01*
X213687Y123801D01*
X213784Y123812D01*
X213879Y123793D01*
X214479D01*
Y123185D01*
X219379D01*
Y128785D01*
X219379Y128785D01*
X219541Y129218D01*
X220060D01*
X220752Y129505D01*
X221282Y130035D01*
X221569Y130728D01*
Y130896D01*
X227030Y136356D01*
X227350Y136836D01*
X227463Y137402D01*
Y154974D01*
X227643Y155399D01*
X234168D01*
Y159336D01*
Y163173D01*
X234268D01*
Y164264D01*
X234168D01*
Y164286D01*
X230906D01*
Y165242D01*
X234168D01*
Y165264D01*
X234268D01*
Y166354D01*
X234168D01*
Y171147D01*
Y175084D01*
Y180034D01*
X227643D01*
Y177053D01*
Y172673D01*
X227143Y172437D01*
X217769Y180170D01*
X217583Y180270D01*
X217407Y180387D01*
X217339Y180401D01*
X217278Y180433D01*
X217068Y180455D01*
X216861Y180496D01*
X215206D01*
X211881Y183821D01*
X211299Y183239D01*
X210458Y184080D01*
X209995Y184390D01*
X209449Y184498D01*
X209449Y184498D01*
X207919D01*
Y185287D01*
X213000D01*
X215055Y183232D01*
X215613Y182859D01*
X216272Y182728D01*
X221850D01*
X222509Y182859D01*
X223067Y183232D01*
X224839Y185004D01*
X225212Y185562D01*
X225342Y186221D01*
Y188667D01*
X227841D01*
Y190987D01*
X228341Y191194D01*
X230029Y189506D01*
D02*
G37*
G36*
X155512Y198819D02*
Y194095D01*
X153543Y192126D01*
X146457Y192126D01*
X145276Y190945D01*
Y183071D01*
X144488Y182283D01*
X130709D01*
X129134Y183858D01*
Y190157D01*
X132283Y193307D01*
X142126D01*
X143307Y194488D01*
Y197244D01*
X146457Y200394D01*
X153937D01*
X155512Y198819D01*
D02*
G37*
G36*
X90945Y188189D02*
Y183071D01*
X91732Y182283D01*
Y178347D01*
X89764Y176378D01*
X85039D01*
Y176378D01*
X83071Y178347D01*
Y186221D01*
X84646Y188583D01*
X85433Y189370D01*
X89764D01*
X90945Y188189D01*
D02*
G37*
G36*
X98202Y188847D02*
Y174328D01*
X98202Y174328D01*
X98207Y174301D01*
X98131Y174118D01*
X98098Y174098D01*
X92220Y168709D01*
X92191Y168670D01*
X92151Y168643D01*
X91939Y168326D01*
X91714Y168019D01*
X91702Y167972D01*
X91676Y167932D01*
X91601Y167558D01*
X91511Y167188D01*
X91518Y167141D01*
X91509Y167093D01*
Y160236D01*
X91676Y159397D01*
X92151Y158686D01*
X95044Y155793D01*
X95044Y155790D01*
X94892Y155293D01*
X90053D01*
Y156073D01*
X88472D01*
Y157343D01*
X88341Y158001D01*
X87968Y158559D01*
X85542Y160986D01*
X84984Y161359D01*
X84325Y161490D01*
X78040D01*
Y162643D01*
X73141D01*
Y161765D01*
X63498D01*
Y170585D01*
X58768D01*
X58577Y171047D01*
X72105Y184575D01*
X82153D01*
Y178347D01*
X82223Y177995D01*
X82422Y177698D01*
X84390Y175729D01*
X84390Y175729D01*
X84688Y175530D01*
X85039Y175460D01*
X86341D01*
X86440Y174960D01*
X85772Y174684D01*
X85159Y174070D01*
X84854Y173335D01*
X89162D01*
X88857Y174070D01*
X88243Y174684D01*
X87576Y174960D01*
X87675Y175460D01*
X89764D01*
X90115Y175530D01*
X90413Y175729D01*
X92381Y177698D01*
X92580Y177995D01*
X92650Y178347D01*
Y182283D01*
X92580Y182635D01*
X92381Y182932D01*
X91862Y183451D01*
Y184064D01*
X93595D01*
Y186614D01*
X94095D01*
Y187114D01*
X96995D01*
Y189027D01*
X98021D01*
X98202Y188847D01*
D02*
G37*
G36*
X155118Y180709D02*
Y176378D01*
X153543Y174803D01*
Y165354D01*
X152756Y164567D01*
X137334D01*
X136707Y164827D01*
X135005Y165847D01*
X134646Y166142D01*
Y170866D01*
X136221Y172441D01*
X142126D01*
X146850Y177165D01*
X146850Y181102D01*
X148425Y182677D01*
X153150D01*
X155118Y180709D01*
D02*
G37*
G36*
X297526Y156336D02*
X297554Y156323D01*
X297890Y155952D01*
X301283Y152037D01*
X301311Y152003D01*
X301612Y151628D01*
X301622Y151618D01*
Y142520D01*
X301659Y142334D01*
Y142145D01*
X301731Y141970D01*
X301768Y141785D01*
X301873Y141627D01*
X301946Y141452D01*
X302080Y141319D01*
X302185Y141161D01*
X302342Y141056D01*
X302476Y140922D01*
X302651Y140850D01*
X302808Y140745D01*
X302994Y140708D01*
X303169Y140635D01*
X303192D01*
X303272Y133500D01*
X302808Y133314D01*
X299835Y136484D01*
X299840Y136488D01*
X299793Y136559D01*
X299462Y136780D01*
X298949Y137123D01*
X298403Y137232D01*
X297954Y137321D01*
X297931Y137316D01*
X297440Y137293D01*
X267800Y136918D01*
X267783Y136925D01*
X262805Y140524D01*
X262959Y141000D01*
X268022D01*
Y138932D01*
X272922D01*
Y140205D01*
X276096D01*
Y137880D01*
X283408D01*
Y146372D01*
X281673D01*
Y148248D01*
X289772Y156347D01*
X297026D01*
X297526Y156336D01*
D02*
G37*
G36*
X141943Y152832D02*
X142913Y151379D01*
Y146142D01*
X144769Y144657D01*
Y144572D01*
X144875D01*
X144882Y144567D01*
Y138976D01*
X143701Y137795D01*
X140157D01*
X138976Y138976D01*
Y144488D01*
X136221D01*
X133465Y147244D01*
Y149606D01*
X133465Y149606D01*
Y152619D01*
X134389Y153543D01*
X140225D01*
X141943Y152832D01*
D02*
G37*
G36*
X219685Y104724D02*
X218898Y103937D01*
X218504D01*
X217323Y105118D01*
Y105512D01*
X218898D01*
X219685Y104724D01*
D02*
G37*
G36*
X269685Y91339D02*
Y87402D01*
X268110Y85827D01*
X266925D01*
X266803Y85920D01*
X266009Y86249D01*
X265158Y86361D01*
X263189D01*
X262337Y86249D01*
X261544Y85920D01*
X261422Y85827D01*
X227165D01*
Y85827D01*
X227165Y85827D01*
X225197D01*
X222835Y88189D01*
Y90945D01*
X227559Y95669D01*
X265354D01*
X269685Y91339D01*
D02*
G37*
G36*
X78740Y93307D02*
X78347Y72835D01*
X70866Y68504D01*
X41339Y68110D01*
X35433Y60630D01*
Y59761D01*
X35094Y59421D01*
X34991Y59268D01*
X33571D01*
Y54331D01*
X33071D01*
Y53831D01*
X30299D01*
Y49394D01*
X32035D01*
X32242Y48894D01*
X32050Y48702D01*
X31402Y48378D01*
X30976Y48641D01*
Y48835D01*
X27720D01*
Y44488D01*
Y40142D01*
X29915D01*
X30259Y39779D01*
X30219Y39062D01*
X30189Y38598D01*
X30189Y38598D01*
X26933D01*
Y34252D01*
Y29906D01*
X29356D01*
X29700Y29542D01*
X29671Y29000D01*
X29666Y28995D01*
X29467Y28698D01*
X29397Y28346D01*
Y26183D01*
X29003Y25591D01*
X22933D01*
X22047Y26772D01*
X22177Y30345D01*
X22677Y30336D01*
Y29906D01*
X25933D01*
Y34252D01*
Y38598D01*
X22978D01*
X22493Y39022D01*
X22835Y48425D01*
X22441Y81102D01*
X39764Y96063D01*
X74410Y96850D01*
X78740Y93307D01*
D02*
G37*
G36*
X40399Y58420D02*
Y49848D01*
X38976Y48425D01*
Y44094D01*
X40945Y42520D01*
X44488D01*
X45669Y41339D01*
Y38647D01*
X44488Y37008D01*
X42913Y35919D01*
X40945Y37008D01*
X38976Y35883D01*
Y27953D01*
X36220Y25197D01*
X31102D01*
X30315Y25984D01*
Y28346D01*
X31496Y29528D01*
Y37402D01*
X32283Y38189D01*
Y47638D01*
X33071Y48425D01*
X34646D01*
X35433Y49213D01*
Y49494D01*
X35743D01*
Y58772D01*
X36812Y59842D01*
X38976D01*
X40399Y58420D01*
D02*
G37*
G36*
X75984Y40945D02*
Y38189D01*
X73622Y35827D01*
X71811D01*
X70866Y34252D01*
X69685D01*
X68425Y35827D01*
X65748D01*
X63779Y37008D01*
Y40551D01*
X64173D01*
X71391Y42520D01*
X74409D01*
X75984Y40945D01*
D02*
G37*
G36*
X410679Y186308D02*
X417766Y179222D01*
X418160D01*
Y33159D01*
X418553Y32765D01*
X415010Y29222D01*
X319735D01*
X315404Y33552D01*
Y176466D01*
X325640Y186702D01*
X410679Y186308D01*
D02*
G37*
%LPC*%
G36*
X16792Y325016D02*
X16642D01*
Y320579D01*
X21079D01*
Y320729D01*
X20742Y321984D01*
X20092Y323110D01*
X19173Y324029D01*
X18047Y324679D01*
X16792Y325016D01*
D02*
G37*
G36*
X15642D02*
X15492D01*
X14236Y324679D01*
X13110Y324029D01*
X12191Y323110D01*
X11541Y321984D01*
X11205Y320729D01*
Y320579D01*
X15642D01*
Y325016D01*
D02*
G37*
G36*
X21079Y319579D02*
X16642D01*
Y315142D01*
X16792D01*
X18047Y315478D01*
X19173Y316128D01*
X20092Y317047D01*
X20742Y318173D01*
X21079Y319429D01*
Y319579D01*
D02*
G37*
G36*
X15642D02*
X11205D01*
Y319429D01*
X11541Y318173D01*
X12191Y317047D01*
X13110Y316128D01*
X14236Y315478D01*
X15492Y315142D01*
X15642D01*
Y319579D01*
D02*
G37*
G36*
X14673Y304122D02*
Y302468D01*
X16327D01*
X16022Y303204D01*
X15409Y303818D01*
X14673Y304122D01*
D02*
G37*
G36*
X13673D02*
X12938Y303818D01*
X12324Y303204D01*
X12020Y302468D01*
X13673D01*
Y304122D01*
D02*
G37*
G36*
X16327Y301468D02*
X14673D01*
Y299815D01*
X15409Y300119D01*
X16022Y300733D01*
X16327Y301468D01*
D02*
G37*
G36*
X13673D02*
X12020D01*
X12324Y300733D01*
X12938Y300119D01*
X13673Y299815D01*
Y301468D01*
D02*
G37*
G36*
X203543Y290288D02*
X197638D01*
X197593Y290279D01*
X197548Y290283D01*
X197419Y290244D01*
X197287Y290218D01*
X197249Y290193D01*
X197205Y290179D01*
X197101Y290094D01*
X196989Y290019D01*
X196964Y289981D01*
X196929Y289952D01*
X195997Y288817D01*
X194202Y286837D01*
X194121Y286702D01*
X194034Y286572D01*
X194030Y286549D01*
X194018Y286530D01*
X193995Y286374D01*
X193964Y286221D01*
Y277953D01*
X194034Y277602D01*
X194233Y277304D01*
X195933Y275604D01*
Y274255D01*
X195852D01*
Y270289D01*
X195933D01*
Y269685D01*
X196003Y269334D01*
X196202Y269036D01*
X196989Y268249D01*
X197287Y268050D01*
X197638Y267980D01*
X200394D01*
X200745Y268050D01*
X201043Y268249D01*
X202617Y269824D01*
X202816Y270121D01*
X202886Y270472D01*
Y277179D01*
X206554Y280847D01*
X206753Y281145D01*
X206823Y281496D01*
Y287008D01*
X206753Y287359D01*
X206554Y287657D01*
X204192Y290019D01*
X203894Y290218D01*
X203543Y290288D01*
D02*
G37*
G36*
X230902Y275606D02*
X228236D01*
Y273532D01*
X230902D01*
Y275606D01*
D02*
G37*
G36*
X17973Y276984D02*
X17823D01*
Y272547D01*
X22260D01*
Y272697D01*
X21923Y273953D01*
X21273Y275079D01*
X20354Y275998D01*
X19228Y276648D01*
X17973Y276984D01*
D02*
G37*
G36*
X16823D02*
X16673D01*
X15417Y276648D01*
X14291Y275998D01*
X13372Y275079D01*
X12722Y273953D01*
X12386Y272697D01*
Y272547D01*
X16823D01*
Y276984D01*
D02*
G37*
G36*
X230902Y272532D02*
X228236D01*
Y270457D01*
X230902D01*
Y272532D01*
D02*
G37*
G36*
X290945Y289107D02*
X283071D01*
X282720Y289037D01*
X282422Y288838D01*
X280453Y286869D01*
X280255Y286572D01*
X280185Y286221D01*
Y279528D01*
X280255Y279176D01*
X280453Y278879D01*
X282941Y276392D01*
Y274933D01*
X282677D01*
X282326Y274864D01*
X282028Y274665D01*
X280847Y273483D01*
X280648Y273186D01*
X280578Y272835D01*
Y271260D01*
X280648Y270909D01*
X280847Y270611D01*
X281635Y269824D01*
X281932Y269625D01*
X282283Y269555D01*
X287008D01*
X287359Y269625D01*
X287657Y269824D01*
X288444Y270611D01*
X288444Y270611D01*
X288643Y270909D01*
X288713Y271260D01*
Y275604D01*
X293956Y280847D01*
X294155Y281145D01*
X294225Y281496D01*
Y285827D01*
X294155Y286178D01*
X293956Y286476D01*
X291594Y288838D01*
X291296Y289037D01*
X290945Y289107D01*
D02*
G37*
G36*
X22260Y271547D02*
X17823D01*
Y267110D01*
X17973D01*
X19228Y267447D01*
X20354Y268097D01*
X21273Y269016D01*
X21923Y270142D01*
X22260Y271397D01*
Y271547D01*
D02*
G37*
G36*
X16823D02*
X12386D01*
Y271397D01*
X12722Y270142D01*
X13372Y269016D01*
X14291Y268097D01*
X15417Y267447D01*
X16673Y267110D01*
X16823D01*
Y271547D01*
D02*
G37*
G36*
X253654Y268154D02*
X250988D01*
Y266079D01*
X253654D01*
Y268154D01*
D02*
G37*
G36*
X293413Y266327D02*
Y264673D01*
X295067D01*
X294762Y265409D01*
X294149Y266022D01*
X293413Y266327D01*
D02*
G37*
G36*
X292413D02*
X291678Y266022D01*
X291064Y265409D01*
X290760Y264673D01*
X292413D01*
Y266327D01*
D02*
G37*
G36*
X279240D02*
Y264673D01*
X280894D01*
X280589Y265409D01*
X279976Y266022D01*
X279240Y266327D01*
D02*
G37*
G36*
X278240D02*
X277505Y266022D01*
X276891Y265409D01*
X276587Y264673D01*
X278240D01*
Y266327D01*
D02*
G37*
G36*
X211917Y265933D02*
Y264280D01*
X213571D01*
X213266Y265015D01*
X212653Y265629D01*
X211917Y265933D01*
D02*
G37*
G36*
X210917D02*
X210182Y265629D01*
X209568Y265015D01*
X209264Y264280D01*
X210917D01*
Y265933D01*
D02*
G37*
G36*
X295067Y263673D02*
X293413D01*
Y262019D01*
X294149Y262324D01*
X294762Y262938D01*
X295067Y263673D01*
D02*
G37*
G36*
X292413D02*
X290760D01*
X291064Y262938D01*
X291678Y262324D01*
X292413Y262019D01*
Y263673D01*
D02*
G37*
G36*
X280894D02*
X279240D01*
Y262019D01*
X279976Y262324D01*
X280589Y262938D01*
X280894Y263673D01*
D02*
G37*
G36*
X278240D02*
X276587D01*
X276891Y262938D01*
X277505Y262324D01*
X278240Y262019D01*
Y263673D01*
D02*
G37*
G36*
X213571Y263280D02*
X211917D01*
Y261626D01*
X212653Y261930D01*
X213266Y262544D01*
X213571Y263280D01*
D02*
G37*
G36*
X210917D02*
X209264D01*
X209568Y262544D01*
X210182Y261930D01*
X210917Y261626D01*
Y263280D01*
D02*
G37*
G36*
X219972Y262786D02*
X217572D01*
Y260736D01*
X219972D01*
Y262786D01*
D02*
G37*
G36*
X253831Y259775D02*
X251431D01*
Y257725D01*
X253831D01*
Y259775D01*
D02*
G37*
G36*
X219972Y259736D02*
X217572D01*
Y257686D01*
X219972D01*
Y259736D01*
D02*
G37*
G36*
X246563Y256878D02*
Y255224D01*
X248217D01*
X247912Y255960D01*
X247299Y256574D01*
X246563Y256878D01*
D02*
G37*
G36*
X245563D02*
X244828Y256574D01*
X244214Y255960D01*
X243909Y255224D01*
X245563D01*
Y256878D01*
D02*
G37*
G36*
X212705Y255697D02*
Y254043D01*
X214358D01*
X214054Y254779D01*
X213440Y255392D01*
X212705Y255697D01*
D02*
G37*
G36*
X211705D02*
X210969Y255392D01*
X210356Y254779D01*
X210051Y254043D01*
X211705D01*
Y255697D01*
D02*
G37*
G36*
X248217Y254224D02*
X246563D01*
Y252571D01*
X247299Y252875D01*
X247912Y253489D01*
X248217Y254224D01*
D02*
G37*
G36*
X245563D02*
X243909D01*
X244214Y253489D01*
X244828Y252875D01*
X245563Y252571D01*
Y254224D01*
D02*
G37*
G36*
X214358Y253043D02*
X212705D01*
Y251390D01*
X213440Y251694D01*
X214054Y252308D01*
X214358Y253043D01*
D02*
G37*
G36*
X211705D02*
X210051D01*
X210356Y252308D01*
X210969Y251694D01*
X211705Y251390D01*
Y253043D01*
D02*
G37*
G36*
X269791Y252547D02*
Y250894D01*
X271445D01*
X271140Y251629D01*
X270527Y252243D01*
X269791Y252547D01*
D02*
G37*
G36*
X268791D02*
X268056Y252243D01*
X267442Y251629D01*
X267138Y250894D01*
X268791D01*
Y252547D01*
D02*
G37*
G36*
X281209Y250973D02*
Y249319D01*
X282862D01*
X282558Y250054D01*
X281944Y250668D01*
X281209Y250973D01*
D02*
G37*
G36*
X280209D02*
X279473Y250668D01*
X278860Y250054D01*
X278555Y249319D01*
X280209D01*
Y250973D01*
D02*
G37*
G36*
X271445Y249894D02*
X269791D01*
Y248240D01*
X270527Y248545D01*
X271140Y249158D01*
X271445Y249894D01*
D02*
G37*
G36*
X268791D02*
X267138D01*
X267442Y249158D01*
X268056Y248545D01*
X268791Y248240D01*
Y249894D01*
D02*
G37*
G36*
X282862Y248319D02*
X281209D01*
Y246665D01*
X281944Y246970D01*
X282558Y247583D01*
X282862Y248319D01*
D02*
G37*
G36*
X280209D02*
X278555D01*
X278860Y247583D01*
X279473Y246970D01*
X280209Y246665D01*
Y248319D01*
D02*
G37*
G36*
X273441Y242850D02*
X269004D01*
Y240185D01*
X273441D01*
Y242850D01*
D02*
G37*
G36*
X268004D02*
X263567D01*
Y240185D01*
X268004D01*
Y242850D01*
D02*
G37*
G36*
X280421Y241130D02*
Y239476D01*
X282075D01*
X281770Y240212D01*
X281157Y240825D01*
X280421Y241130D01*
D02*
G37*
G36*
X279421D02*
X278686Y240825D01*
X278072Y240212D01*
X277768Y239476D01*
X279421D01*
Y241130D01*
D02*
G37*
G36*
X234752Y239162D02*
Y237508D01*
X236406D01*
X236101Y238243D01*
X235488Y238857D01*
X234752Y239162D01*
D02*
G37*
G36*
X233752D02*
X233016Y238857D01*
X232403Y238243D01*
X232098Y237508D01*
X233752D01*
Y239162D01*
D02*
G37*
G36*
X282075Y238476D02*
X280421D01*
Y236823D01*
X281157Y237127D01*
X281770Y237741D01*
X282075Y238476D01*
D02*
G37*
G36*
X279421D02*
X277768D01*
X278072Y237741D01*
X278686Y237127D01*
X279421Y236823D01*
Y238476D01*
D02*
G37*
G36*
X273441Y239185D02*
X269004D01*
Y236520D01*
X273441D01*
Y239185D01*
D02*
G37*
G36*
X268004D02*
X263567D01*
Y236520D01*
X268004D01*
Y239185D01*
D02*
G37*
G36*
X236406Y236508D02*
X234752D01*
Y234854D01*
X235488Y235159D01*
X236101Y235772D01*
X236406Y236508D01*
D02*
G37*
G36*
X233752D02*
X232098D01*
X232403Y235772D01*
X233016Y235159D01*
X233752Y234854D01*
Y236508D01*
D02*
G37*
G36*
X28240Y239189D02*
X15535D01*
Y231012D01*
X28240D01*
Y239189D01*
D02*
G37*
G36*
X281209Y231681D02*
Y230028D01*
X282862D01*
X282558Y230763D01*
X281944Y231377D01*
X281209Y231681D01*
D02*
G37*
G36*
X280209D02*
X279473Y231377D01*
X278860Y230763D01*
X278555Y230028D01*
X280209D01*
Y231681D01*
D02*
G37*
G36*
X282862Y229028D02*
X281209D01*
Y227374D01*
X281944Y227678D01*
X282558Y228292D01*
X282862Y229028D01*
D02*
G37*
G36*
X280209D02*
X278555D01*
X278860Y228292D01*
X279473Y227678D01*
X280209Y227374D01*
Y229028D01*
D02*
G37*
G36*
X281209Y224201D02*
Y222547D01*
X282862D01*
X282558Y223283D01*
X281944Y223896D01*
X281209Y224201D01*
D02*
G37*
G36*
X280209D02*
X279473Y223896D01*
X278860Y223283D01*
X278555Y222547D01*
X280209D01*
Y224201D01*
D02*
G37*
G36*
X41945Y230012D02*
X29240D01*
Y221835D01*
X41945D01*
Y230012D01*
D02*
G37*
G36*
X28240D02*
X15535D01*
Y221835D01*
X28240D01*
Y230012D01*
D02*
G37*
G36*
X282862Y221547D02*
X281209D01*
Y219894D01*
X281944Y220198D01*
X282558Y220812D01*
X282862Y221547D01*
D02*
G37*
G36*
X280209D02*
X278555D01*
X278860Y220812D01*
X279473Y220198D01*
X280209Y219894D01*
Y221547D01*
D02*
G37*
G36*
X98807Y215764D02*
X95551D01*
Y211917D01*
X98807D01*
Y215764D01*
D02*
G37*
G36*
X281209Y212390D02*
Y210736D01*
X282862D01*
X282558Y211472D01*
X281944Y212085D01*
X281209Y212390D01*
D02*
G37*
G36*
X280209D02*
X279473Y212085D01*
X278860Y211472D01*
X278555Y210736D01*
X280209D01*
Y212390D01*
D02*
G37*
G36*
X112713Y213185D02*
X109161D01*
Y210323D01*
X112713D01*
Y213185D01*
D02*
G37*
G36*
X108161D02*
X104610D01*
Y210323D01*
X108161D01*
Y213185D01*
D02*
G37*
G36*
X282862Y209736D02*
X281209D01*
Y208083D01*
X281944Y208387D01*
X282558Y209001D01*
X282862Y209736D01*
D02*
G37*
G36*
X280209D02*
X278555D01*
X278860Y209001D01*
X279473Y208387D01*
X280209Y208083D01*
Y209736D01*
D02*
G37*
G36*
X98807Y210917D02*
X95551D01*
Y207071D01*
X98807D01*
Y210917D01*
D02*
G37*
G36*
X112713Y209323D02*
X109161D01*
Y206461D01*
X112713D01*
Y209323D01*
D02*
G37*
G36*
X108161D02*
X104610D01*
Y206461D01*
X108161D01*
Y209323D01*
D02*
G37*
G36*
X31996Y213969D02*
Y205618D01*
X36476D01*
Y209055D01*
X36306Y210344D01*
X35809Y211545D01*
X35017Y212576D01*
X33986Y213368D01*
X32785Y213865D01*
X31996Y213969D01*
D02*
G37*
G36*
X30996D02*
X30207Y213865D01*
X29006Y213368D01*
X27975Y212576D01*
X27184Y211545D01*
X26686Y210344D01*
X26517Y209055D01*
Y205618D01*
X30996D01*
Y213969D01*
D02*
G37*
G36*
X240301Y206881D02*
X237901D01*
Y204831D01*
X240301D01*
Y206881D01*
D02*
G37*
G36*
X236901D02*
X234501D01*
Y204831D01*
X236901D01*
Y206881D01*
D02*
G37*
G36*
X104437Y204910D02*
Y203256D01*
X106091D01*
X105786Y203991D01*
X105173Y204605D01*
X104437Y204910D01*
D02*
G37*
G36*
X103437D02*
X102701Y204605D01*
X102088Y203991D01*
X101783Y203256D01*
X103437D01*
Y204910D01*
D02*
G37*
G36*
X120579Y204122D02*
Y202468D01*
X122232D01*
X121928Y203204D01*
X121314Y203818D01*
X120579Y204122D01*
D02*
G37*
G36*
X119579D02*
X118843Y203818D01*
X118230Y203204D01*
X117925Y202468D01*
X119579D01*
Y204122D01*
D02*
G37*
G36*
X240301Y203831D02*
X237901D01*
Y201781D01*
X240301D01*
Y203831D01*
D02*
G37*
G36*
X99201Y205134D02*
X95945D01*
Y201287D01*
X99201D01*
Y205134D01*
D02*
G37*
G36*
X106091Y202256D02*
X104437D01*
Y200602D01*
X105173Y200907D01*
X105786Y201520D01*
X106091Y202256D01*
D02*
G37*
G36*
X103437D02*
X101783D01*
X102088Y201520D01*
X102701Y200907D01*
X103437Y200602D01*
Y202256D01*
D02*
G37*
G36*
X14442Y210152D02*
X13117D01*
X11836Y209809D01*
X10689Y209146D01*
X9751Y208209D01*
X9089Y207061D01*
X8746Y205781D01*
Y204455D01*
X9089Y203175D01*
X9751Y202027D01*
X10689Y201090D01*
X11836Y200427D01*
X13117Y200084D01*
X14442D01*
X15722Y200427D01*
X16870Y201090D01*
X17808Y202027D01*
X18470Y203175D01*
X18813Y204455D01*
Y205781D01*
X18470Y207061D01*
X17808Y208209D01*
X16870Y209146D01*
X15722Y209809D01*
X14442Y210152D01*
D02*
G37*
G36*
X122232Y201468D02*
X120579D01*
Y199815D01*
X121314Y200119D01*
X121928Y200733D01*
X122232Y201468D01*
D02*
G37*
G36*
X119579D02*
X117925D01*
X118230Y200733D01*
X118843Y200119D01*
X119579Y199815D01*
Y201468D01*
D02*
G37*
G36*
X105224Y199004D02*
Y197350D01*
X106878D01*
X106573Y198086D01*
X105960Y198699D01*
X105224Y199004D01*
D02*
G37*
G36*
X104224D02*
X103489Y198699D01*
X102875Y198086D01*
X102571Y197350D01*
X104224D01*
Y199004D01*
D02*
G37*
G36*
X99201Y200287D02*
X95945D01*
Y196441D01*
X99201D01*
Y200287D01*
D02*
G37*
G36*
X36476Y204618D02*
X31996D01*
Y196267D01*
X32785Y196371D01*
X33986Y196869D01*
X35017Y197660D01*
X35809Y198691D01*
X36306Y199892D01*
X36476Y201181D01*
Y204618D01*
D02*
G37*
G36*
X30996D02*
X26517D01*
Y201181D01*
X26686Y199892D01*
X27184Y198691D01*
X27975Y197660D01*
X29006Y196869D01*
X30207Y196371D01*
X30996Y196267D01*
Y204618D01*
D02*
G37*
G36*
X166248Y197823D02*
Y196169D01*
X167902D01*
X167597Y196905D01*
X166983Y197518D01*
X166248Y197823D01*
D02*
G37*
G36*
X165248D02*
X164513Y197518D01*
X163899Y196905D01*
X163594Y196169D01*
X165248D01*
Y197823D01*
D02*
G37*
G36*
X280421Y197429D02*
Y195776D01*
X282075D01*
X281770Y196511D01*
X281157Y197125D01*
X280421Y197429D01*
D02*
G37*
G36*
X279421D02*
X278686Y197125D01*
X278072Y196511D01*
X277768Y195776D01*
X279421D01*
Y197429D01*
D02*
G37*
G36*
X121760Y197020D02*
Y195366D01*
X123414D01*
X123109Y196102D01*
X122495Y196715D01*
X121760Y197020D01*
D02*
G37*
G36*
X120760D02*
X120024Y196715D01*
X119411Y196102D01*
X119106Y195366D01*
X120760D01*
Y197020D01*
D02*
G37*
G36*
X106878Y196350D02*
X105224D01*
Y194697D01*
X105960Y195001D01*
X106573Y195615D01*
X106878Y196350D01*
D02*
G37*
G36*
X104224D02*
X102571D01*
X102875Y195615D01*
X103489Y195001D01*
X104224Y194697D01*
Y196350D01*
D02*
G37*
G36*
X206012Y195854D02*
Y194201D01*
X207665D01*
X207361Y194936D01*
X206747Y195550D01*
X206012Y195854D01*
D02*
G37*
G36*
X205012D02*
X204276Y195550D01*
X203663Y194936D01*
X203358Y194201D01*
X205012D01*
Y195854D01*
D02*
G37*
G36*
X167902Y195169D02*
X166248D01*
Y193516D01*
X166983Y193820D01*
X167597Y194434D01*
X167902Y195169D01*
D02*
G37*
G36*
X165248D02*
X163594D01*
X163899Y194434D01*
X164513Y193820D01*
X165248Y193516D01*
Y195169D01*
D02*
G37*
G36*
X218941Y197260D02*
X215685D01*
Y193413D01*
X218941D01*
Y197260D01*
D02*
G37*
G36*
X214685D02*
X211429D01*
Y193413D01*
X214685D01*
Y197260D01*
D02*
G37*
G36*
X185933Y195067D02*
Y193413D01*
X187587D01*
X187282Y194149D01*
X186669Y194762D01*
X185933Y195067D01*
D02*
G37*
G36*
X184933D02*
X184198Y194762D01*
X183584Y194149D01*
X183279Y193413D01*
X184933D01*
Y195067D01*
D02*
G37*
G36*
X282075Y194776D02*
X280421D01*
Y193122D01*
X281157Y193427D01*
X281770Y194040D01*
X282075Y194776D01*
D02*
G37*
G36*
X279421D02*
X277768D01*
X278072Y194040D01*
X278686Y193427D01*
X279421Y193122D01*
Y194776D01*
D02*
G37*
G36*
X123414Y194366D02*
X121760D01*
Y192712D01*
X122495Y193017D01*
X123109Y193631D01*
X123414Y194366D01*
D02*
G37*
G36*
X120760D02*
X119106D01*
X119411Y193631D01*
X120024Y193017D01*
X120760Y192712D01*
Y194366D01*
D02*
G37*
G36*
X187587Y192413D02*
X183279D01*
X183317Y192323D01*
X183279Y192232D01*
X187587D01*
X187549Y192323D01*
X187587Y192413D01*
D02*
G37*
G36*
X207665Y193201D02*
X206012D01*
Y191547D01*
X206747Y191852D01*
X207361Y192465D01*
X207665Y193201D01*
D02*
G37*
G36*
X205012D02*
X203358D01*
X203663Y192465D01*
X204276Y191852D01*
X205012Y191547D01*
Y193201D01*
D02*
G37*
G36*
X187587Y191232D02*
X185933D01*
Y189579D01*
X186669Y189883D01*
X187282Y190497D01*
X187587Y191232D01*
D02*
G37*
G36*
X184933D02*
X183279D01*
X183584Y190497D01*
X184198Y189883D01*
X184933Y189579D01*
Y191232D01*
D02*
G37*
G36*
X289870Y191130D02*
Y189476D01*
X291524D01*
X291219Y190212D01*
X290606Y190825D01*
X289870Y191130D01*
D02*
G37*
G36*
X288870D02*
X288135Y190825D01*
X287521Y190212D01*
X287216Y189476D01*
X288870D01*
Y191130D01*
D02*
G37*
G36*
X66248Y190736D02*
Y189083D01*
X67902D01*
X67597Y189818D01*
X66983Y190432D01*
X66248Y190736D01*
D02*
G37*
G36*
X65248D02*
X64512Y190432D01*
X63899Y189818D01*
X63594Y189083D01*
X65248D01*
Y190736D01*
D02*
G37*
G36*
X180528Y195685D02*
X176878D01*
Y188689D01*
X180528D01*
Y195685D01*
D02*
G37*
G36*
X175878D02*
X172228D01*
Y188689D01*
X175878D01*
Y195685D01*
D02*
G37*
G36*
X119110Y191945D02*
X112705D01*
Y187508D01*
X119110D01*
Y191945D01*
D02*
G37*
G36*
X111705D02*
X105299D01*
Y187508D01*
X111705D01*
Y191945D01*
D02*
G37*
G36*
X291524Y188476D02*
X289870D01*
Y186823D01*
X290606Y187127D01*
X291219Y187741D01*
X291524Y188476D01*
D02*
G37*
G36*
X288870D02*
X287216D01*
X287521Y187741D01*
X288135Y187127D01*
X288870Y186823D01*
Y188476D01*
D02*
G37*
G36*
X48031Y191200D02*
X44594D01*
Y186721D01*
X52945D01*
X52841Y187509D01*
X52344Y188710D01*
X51553Y189742D01*
X50521Y190533D01*
X49320Y191030D01*
X48031Y191200D01*
D02*
G37*
G36*
X165854Y188374D02*
Y186721D01*
X167508D01*
X167203Y187456D01*
X166590Y188069D01*
X165854Y188374D01*
D02*
G37*
G36*
X164854D02*
X164119Y188069D01*
X163505Y187456D01*
X163201Y186721D01*
X164854D01*
Y188374D01*
D02*
G37*
G36*
X67902Y188083D02*
X66248D01*
Y186429D01*
X66983Y186734D01*
X67597Y187347D01*
X67902Y188083D01*
D02*
G37*
G36*
X65248D02*
X63594D01*
X63899Y187347D01*
X64512Y186734D01*
X65248Y186429D01*
Y188083D01*
D02*
G37*
G36*
X155331Y187689D02*
X151681D01*
Y184827D01*
X155331D01*
Y187689D01*
D02*
G37*
G36*
X150681D02*
X147031D01*
Y184827D01*
X150681D01*
Y187689D01*
D02*
G37*
G36*
X61130Y186406D02*
Y184752D01*
X62784D01*
X62479Y185487D01*
X61865Y186101D01*
X61130Y186406D01*
D02*
G37*
G36*
X60130D02*
X59394Y186101D01*
X58781Y185487D01*
X58476Y184752D01*
X60130D01*
Y186406D01*
D02*
G37*
G36*
X167508Y185721D02*
X165854D01*
Y184067D01*
X166590Y184371D01*
X167203Y184985D01*
X167508Y185721D01*
D02*
G37*
G36*
X164854D02*
X163201D01*
X163505Y184985D01*
X164119Y184371D01*
X164854Y184067D01*
Y185721D01*
D02*
G37*
G36*
X62784Y183752D02*
X61130D01*
Y182098D01*
X61865Y182403D01*
X62479Y183017D01*
X62784Y183752D01*
D02*
G37*
G36*
X60130D02*
X58476D01*
X58781Y183017D01*
X59394Y182403D01*
X60130Y182098D01*
Y183752D01*
D02*
G37*
G36*
X119110Y186508D02*
X112705D01*
Y182071D01*
X119110D01*
Y186508D01*
D02*
G37*
G36*
X111705D02*
X105299D01*
Y185549D01*
X104844Y185094D01*
X104539Y184358D01*
X106693D01*
Y183858D01*
X107193D01*
Y181705D01*
X107928Y182009D01*
X107990Y182071D01*
X111705D01*
Y186508D01*
D02*
G37*
G36*
X106193Y183358D02*
X104539D01*
X104844Y182623D01*
X105299Y182167D01*
Y182071D01*
X105396D01*
X105457Y182009D01*
X106193Y181705D01*
Y183358D01*
D02*
G37*
G36*
X52945Y185721D02*
X44594D01*
Y181241D01*
X48031D01*
X49320Y181411D01*
X50521Y181908D01*
X51553Y182699D01*
X52344Y183731D01*
X52841Y184932D01*
X52945Y185721D01*
D02*
G37*
G36*
X166642Y182469D02*
Y180815D01*
X168295D01*
X167991Y181551D01*
X167377Y182164D01*
X166642Y182469D01*
D02*
G37*
G36*
X165642D02*
X164906Y182164D01*
X164293Y181551D01*
X163988Y180815D01*
X165642D01*
Y182469D01*
D02*
G37*
G36*
X180528Y187689D02*
X176878D01*
Y180693D01*
X180528D01*
Y187689D01*
D02*
G37*
G36*
X175878D02*
X172228D01*
Y180693D01*
X175878D01*
Y187689D01*
D02*
G37*
G36*
X43595Y191200D02*
X40157D01*
X38869Y191030D01*
X37668Y190533D01*
X36636Y189742D01*
X35845Y188710D01*
X35717Y188402D01*
X29240D01*
Y180224D01*
X41945D01*
Y181241D01*
X43595D01*
Y186221D01*
Y191200D01*
D02*
G37*
G36*
X28240Y188402D02*
X15535D01*
Y180224D01*
X28240D01*
Y188402D01*
D02*
G37*
G36*
X168295Y179815D02*
X166642D01*
Y178161D01*
X167377Y178466D01*
X167991Y179079D01*
X168295Y179815D01*
D02*
G37*
G36*
X165642D02*
X163988D01*
X164293Y179079D01*
X164906Y178466D01*
X165642Y178161D01*
Y179815D01*
D02*
G37*
G36*
X53256Y178138D02*
Y176484D01*
X54910D01*
X54605Y177220D01*
X53991Y177833D01*
X53256Y178138D01*
D02*
G37*
G36*
X52256D02*
X51520Y177833D01*
X50907Y177220D01*
X50602Y176484D01*
X52256D01*
Y178138D01*
D02*
G37*
G36*
X113098Y176170D02*
Y174516D01*
X114752D01*
X114447Y175251D01*
X113834Y175865D01*
X113098Y176170D01*
D02*
G37*
G36*
X112098D02*
X111363Y175865D01*
X110749Y175251D01*
X110445Y174516D01*
X112098D01*
Y176170D01*
D02*
G37*
G36*
X296563Y175776D02*
Y174122D01*
X298217D01*
X297912Y174857D01*
X297299Y175471D01*
X296563Y175776D01*
D02*
G37*
G36*
X295563D02*
X294828Y175471D01*
X294214Y174857D01*
X293909Y174122D01*
X295563D01*
Y175776D01*
D02*
G37*
G36*
X54910Y175484D02*
X53256D01*
Y173830D01*
X53991Y174135D01*
X54605Y174749D01*
X54910Y175484D01*
D02*
G37*
G36*
X52256D02*
X50602D01*
X50907Y174749D01*
X51520Y174135D01*
X52256Y173830D01*
Y175484D01*
D02*
G37*
G36*
X114752Y173516D02*
X113098D01*
Y171862D01*
X113834Y172167D01*
X114447Y172780D01*
X114752Y173516D01*
D02*
G37*
G36*
X112098D02*
X110445D01*
X110749Y172780D01*
X111363Y172167D01*
X112098Y171862D01*
Y173516D01*
D02*
G37*
G36*
X298217Y173122D02*
X296563D01*
Y171468D01*
X297299Y171773D01*
X297912Y172387D01*
X298217Y173122D01*
D02*
G37*
G36*
X295563D02*
X293909D01*
X294214Y172387D01*
X294828Y171773D01*
X295563Y171468D01*
Y173122D01*
D02*
G37*
G36*
X41945Y179224D02*
X29240D01*
Y171047D01*
X41945D01*
Y179224D01*
D02*
G37*
G36*
X28240D02*
X15535D01*
Y171047D01*
X28240D01*
Y179224D01*
D02*
G37*
G36*
X111524Y165146D02*
Y163492D01*
X113177D01*
X112873Y164228D01*
X112259Y164841D01*
X111524Y165146D01*
D02*
G37*
G36*
X110524D02*
X109788Y164841D01*
X109175Y164228D01*
X108870Y163492D01*
X110524D01*
Y165146D01*
D02*
G37*
G36*
X105724Y164327D02*
X102272D01*
Y162843D01*
X105724D01*
Y164327D01*
D02*
G37*
G36*
X101272D02*
X97819D01*
Y162843D01*
X101272D01*
Y164327D01*
D02*
G37*
G36*
X113177Y162492D02*
X111524D01*
Y160838D01*
X112259Y161143D01*
X112873Y161757D01*
X113177Y162492D01*
D02*
G37*
G36*
X110524D02*
X108870D01*
X109175Y161757D01*
X109788Y161143D01*
X110524Y160838D01*
Y162492D01*
D02*
G37*
G36*
X158374Y162390D02*
Y160736D01*
X160028D01*
X159723Y161472D01*
X159109Y162085D01*
X158374Y162390D01*
D02*
G37*
G36*
X157374D02*
X156639Y162085D01*
X156025Y161472D01*
X155720Y160736D01*
X157374D01*
Y162390D01*
D02*
G37*
G36*
X105724Y161843D02*
X102272D01*
Y160358D01*
X105724D01*
Y161843D01*
D02*
G37*
G36*
X101272D02*
X97819D01*
Y160358D01*
X101272D01*
Y161843D01*
D02*
G37*
G36*
X142535Y162642D02*
X138689D01*
Y159386D01*
X142535D01*
Y162642D01*
D02*
G37*
G36*
X153559D02*
X149713D01*
Y159386D01*
X153559D01*
Y162642D01*
D02*
G37*
G36*
X148713D02*
X144866D01*
Y159386D01*
X148713D01*
Y162642D01*
D02*
G37*
G36*
X160028Y159736D02*
X158374D01*
Y158082D01*
X159109Y158387D01*
X159723Y159001D01*
X160028Y159736D01*
D02*
G37*
G36*
X157374D02*
X155720D01*
X156025Y159001D01*
X156639Y158387D01*
X157374Y158082D01*
Y159736D01*
D02*
G37*
G36*
X126884Y159227D02*
X119179D01*
Y155458D01*
X126884D01*
Y159227D01*
D02*
G37*
G36*
X70185Y156878D02*
Y155224D01*
X71839D01*
X71534Y155960D01*
X70920Y156573D01*
X70185Y156878D01*
D02*
G37*
G36*
X69185D02*
X68449Y156573D01*
X67836Y155960D01*
X67531Y155224D01*
X69185D01*
Y156878D01*
D02*
G37*
G36*
X153559Y158386D02*
X149713D01*
Y155130D01*
X153559D01*
Y158386D01*
D02*
G37*
G36*
X148713D02*
X144866D01*
Y155130D01*
X148713D01*
Y158386D01*
D02*
G37*
G36*
X142535Y158386D02*
X138689D01*
Y155130D01*
X142535D01*
Y158386D01*
D02*
G37*
G36*
X158768Y155303D02*
Y153650D01*
X160421D01*
X160117Y154385D01*
X159503Y154999D01*
X158768Y155303D01*
D02*
G37*
G36*
X157768D02*
X157032Y154999D01*
X156419Y154385D01*
X156114Y153650D01*
X157768D01*
Y155303D01*
D02*
G37*
G36*
X113098Y154516D02*
Y152862D01*
X114752D01*
X114447Y153598D01*
X113834Y154211D01*
X113098Y154516D01*
D02*
G37*
G36*
X112098D02*
X111363Y154211D01*
X110749Y153598D01*
X110445Y152862D01*
X112098D01*
Y154516D01*
D02*
G37*
G36*
X71839Y154224D02*
X70185D01*
Y152571D01*
X70920Y152875D01*
X71534Y153489D01*
X71839Y154224D01*
D02*
G37*
G36*
X69185D02*
X67531D01*
X67836Y153489D01*
X68449Y152875D01*
X69185Y152571D01*
Y154224D01*
D02*
G37*
G36*
X46743Y154115D02*
Y152462D01*
X48397D01*
X48092Y153197D01*
X47479Y153811D01*
X46743Y154115D01*
D02*
G37*
G36*
X45743D02*
X45008Y153811D01*
X44394Y153197D01*
X44089Y152462D01*
X45743D01*
Y154115D01*
D02*
G37*
G36*
X62398Y153165D02*
X59732D01*
Y151091D01*
X62398D01*
Y153165D01*
D02*
G37*
G36*
X58732D02*
X56067D01*
Y151091D01*
X58732D01*
Y153165D01*
D02*
G37*
G36*
X160421Y152650D02*
X158768D01*
Y150996D01*
X159503Y151301D01*
X160117Y151914D01*
X160421Y152650D01*
D02*
G37*
G36*
X157768D02*
X156114D01*
X156419Y151914D01*
X157032Y151301D01*
X157768Y150996D01*
Y152650D01*
D02*
G37*
G36*
X114752Y151862D02*
X113098D01*
Y150208D01*
X113834Y150513D01*
X114447Y151127D01*
X114752Y151862D01*
D02*
G37*
G36*
X112098D02*
X110445D01*
X110749Y151127D01*
X111363Y150513D01*
X112098Y150208D01*
Y151862D01*
D02*
G37*
G36*
X48397Y151462D02*
X46743D01*
Y149808D01*
X47479Y150113D01*
X48092Y150726D01*
X48397Y151462D01*
D02*
G37*
G36*
X45743D02*
X44089D01*
X44394Y150726D01*
X45008Y150113D01*
X45743Y149808D01*
Y151462D01*
D02*
G37*
G36*
X152181Y153165D02*
X148925D01*
Y149319D01*
X152181D01*
Y153165D01*
D02*
G37*
G36*
X147925D02*
X144669D01*
Y149319D01*
X147925D01*
Y153165D01*
D02*
G37*
G36*
X62398Y150091D02*
X59732D01*
Y148016D01*
X62398D01*
Y150091D01*
D02*
G37*
G36*
X58732D02*
X56067D01*
Y148016D01*
X58732D01*
Y150091D01*
D02*
G37*
G36*
X78040Y156343D02*
X73141D01*
Y150743D01*
X74071D01*
Y149213D01*
X74071Y149213D01*
X74186Y148631D01*
X74516Y148138D01*
X75392Y147262D01*
X75745Y146909D01*
X75745Y146909D01*
X75745Y146909D01*
X75746Y146908D01*
X75746Y146908D01*
X75823Y146857D01*
X76307Y146485D01*
X76476Y146416D01*
X76376Y145916D01*
X74115D01*
X69414Y150616D01*
X68951Y150926D01*
X68404Y151034D01*
X68404Y151034D01*
X67804D01*
Y152407D01*
X62904D01*
Y146807D01*
X67804D01*
Y147481D01*
X68304Y147688D01*
X72514Y143479D01*
X72514Y143479D01*
X72977Y143169D01*
X73523Y143061D01*
X73523Y143061D01*
X125256D01*
X125593Y142724D01*
X126358Y142407D01*
X127186D01*
X127951Y142724D01*
X128536Y143309D01*
X128853Y144074D01*
Y144902D01*
X128536Y145667D01*
X127951Y146253D01*
X127186Y146569D01*
X126358D01*
X125593Y146253D01*
X125256Y145916D01*
X122049D01*
X121950Y146416D01*
X122118Y146485D01*
X122602Y146857D01*
X122680Y146909D01*
X124106Y148335D01*
X124106Y148335D01*
X124436Y148828D01*
X124551Y149409D01*
Y150458D01*
X126884D01*
Y154227D01*
X119179D01*
Y150458D01*
X121317D01*
X121431Y149958D01*
X120631Y149158D01*
X77795D01*
X77110Y149842D01*
Y150743D01*
X78040D01*
Y156343D01*
D02*
G37*
G36*
X67804Y146107D02*
X62904D01*
Y145244D01*
X62298D01*
Y145585D01*
X56167D01*
Y140635D01*
X62298D01*
Y141370D01*
X62904D01*
Y140507D01*
X67804D01*
Y146107D01*
D02*
G37*
G36*
X159555Y146248D02*
Y144595D01*
X161209D01*
X160904Y145330D01*
X160291Y145943D01*
X159555Y146248D01*
D02*
G37*
G36*
X158555D02*
X157820Y145943D01*
X157206Y145330D01*
X156901Y144595D01*
X158555D01*
Y146248D01*
D02*
G37*
G36*
X152181Y148319D02*
X148925D01*
Y144472D01*
X152181D01*
Y148319D01*
D02*
G37*
G36*
X29123Y151154D02*
X27850D01*
X26619Y150824D01*
X25516Y150187D01*
X24616Y149287D01*
X23979Y148184D01*
X23649Y146954D01*
Y145680D01*
X23979Y144450D01*
X24616Y143347D01*
X25516Y142446D01*
X26619Y141809D01*
X27850Y141480D01*
X29123D01*
X30353Y141809D01*
X31456Y142446D01*
X32357Y143347D01*
X32994Y144450D01*
X33118Y144913D01*
X48726D01*
Y144376D01*
X54857D01*
Y149325D01*
X48726D01*
Y148788D01*
X32645D01*
X32357Y149287D01*
X31456Y150187D01*
X30353Y150824D01*
X29123Y151154D01*
D02*
G37*
G36*
X161209Y143595D02*
X159555D01*
Y141941D01*
X160291Y142245D01*
X160904Y142859D01*
X161209Y143595D01*
D02*
G37*
G36*
X158555D02*
X156901D01*
X157206Y142859D01*
X157820Y142245D01*
X158555Y141941D01*
Y143595D01*
D02*
G37*
G36*
X151326Y143101D02*
X148926D01*
Y141051D01*
X151326D01*
Y143101D01*
D02*
G37*
G36*
X185939Y131038D02*
X178234D01*
Y130219D01*
X176491D01*
Y130624D01*
X170754D01*
Y126856D01*
X176491D01*
Y127262D01*
X181089D01*
X181126Y127269D01*
X185939D01*
Y131038D01*
D02*
G37*
G36*
X176491Y126294D02*
X170754D01*
Y122525D01*
X176491D01*
Y122931D01*
X178234D01*
Y122269D01*
X185939D01*
Y126038D01*
X178234D01*
Y125888D01*
X176491D01*
Y126294D01*
D02*
G37*
G36*
X182587Y116138D02*
Y114654D01*
X186039D01*
Y116138D01*
X182587D01*
D02*
G37*
G36*
X137062Y130842D02*
X135808Y130621D01*
X134654Y130082D01*
X133678Y129264D01*
X132948Y128220D01*
X132512Y127023D01*
X132401Y125755D01*
X132622Y124501D01*
X133160Y123346D01*
X133979Y122371D01*
X135022Y121640D01*
X136219Y121204D01*
X137488Y121093D01*
X138742Y121315D01*
X139897Y121853D01*
X140872Y122671D01*
X141453Y123501D01*
X170197Y114339D01*
X170423Y114314D01*
X170646Y114270D01*
X171246D01*
Y112781D01*
X175211D01*
Y114270D01*
X175811D01*
X176024Y114312D01*
X176239Y114333D01*
X176304Y114368D01*
X176377Y114382D01*
X176557Y114503D01*
X176748Y114605D01*
X176795Y114662D01*
X176856Y114703D01*
X176977Y114883D01*
X177114Y115050D01*
X177424Y115628D01*
X177727Y115997D01*
X178134Y115895D01*
X178134Y115692D01*
Y114654D01*
X181587D01*
Y116138D01*
X178565D01*
X178264Y116138D01*
X178004Y116443D01*
D01*
X178004Y116443D01*
X178102Y116895D01*
X178302Y117269D01*
X185939D01*
Y121038D01*
X178234D01*
Y120632D01*
X177634D01*
X177421Y120590D01*
X177206Y120569D01*
X177140Y120534D01*
X177068Y120519D01*
X176888Y120399D01*
X176697Y120297D01*
X176650Y120240D01*
X176588Y120199D01*
X176468Y120019D01*
X176330Y119851D01*
X175662Y118602D01*
X175211Y118715D01*
Y118715D01*
X171246D01*
Y117518D01*
X170746Y117268D01*
X142112Y126394D01*
X141928Y127435D01*
X141390Y128589D01*
X140571Y129565D01*
X139528Y130295D01*
X138331Y130731D01*
X137062Y130842D01*
D02*
G37*
G36*
X186039Y113654D02*
X182587D01*
Y112169D01*
X186039D01*
Y113654D01*
D02*
G37*
G36*
X181587D02*
X178134D01*
Y112169D01*
X181587D01*
Y113654D01*
D02*
G37*
G36*
X125767Y114817D02*
X124487Y114592D01*
X123309Y114042D01*
X122313Y113207D01*
X122227Y113084D01*
X125861Y110539D01*
X128406Y114173D01*
X128284Y114260D01*
X127062Y114704D01*
X125767Y114817D01*
D02*
G37*
G36*
X129226Y113600D02*
X126681Y109965D01*
X130315Y107420D01*
X130401Y107543D01*
X130846Y108765D01*
X130959Y110060D01*
X130733Y111340D01*
X130184Y112518D01*
X129348Y113514D01*
X129226Y113600D01*
D02*
G37*
G36*
X121653Y112265D02*
X121567Y112142D01*
X121123Y110920D01*
X121009Y109625D01*
X121235Y108345D01*
X121784Y107167D01*
X122620Y106171D01*
X122743Y106085D01*
X125288Y109720D01*
X121653Y112265D01*
D02*
G37*
G36*
X126107Y109146D02*
X123562Y105512D01*
X123685Y105426D01*
X124907Y104981D01*
X126201Y104868D01*
X127482Y105093D01*
X128660Y105643D01*
X129656Y106478D01*
X129742Y106601D01*
X126107Y109146D01*
D02*
G37*
%LPD*%
G36*
X205906Y287008D02*
Y281496D01*
X201969Y277559D01*
Y270472D01*
X200394Y268898D01*
X197638D01*
X196850Y269685D01*
Y275984D01*
X194882Y277953D01*
Y286221D01*
X196692Y288218D01*
X197638Y289370D01*
X203543D01*
X205906Y287008D01*
D02*
G37*
G36*
X293307Y285827D02*
Y281496D01*
X287795Y275984D01*
Y271260D01*
X287795D01*
X287008Y270472D01*
X282283D01*
X281496Y271260D01*
Y272835D01*
X282677Y274016D01*
X283858D01*
Y276772D01*
X281102Y279528D01*
Y286221D01*
X283071Y288189D01*
X290945D01*
X293307Y285827D01*
D02*
G37*
%LPC*%
G36*
X36477Y325016D02*
X36327D01*
Y320579D01*
X40764D01*
Y320729D01*
X40427Y321984D01*
X39777Y323110D01*
X38858Y324029D01*
X37732Y324679D01*
X36477Y325016D01*
D02*
G37*
G36*
X35327D02*
X35177D01*
X33921Y324679D01*
X32795Y324029D01*
X31876Y323110D01*
X31226Y321984D01*
X30890Y320729D01*
Y320579D01*
X35327D01*
Y325016D01*
D02*
G37*
G36*
X40764Y319579D02*
X36327D01*
Y315142D01*
X36477D01*
X37732Y315478D01*
X38858Y316128D01*
X39777Y317047D01*
X40427Y318173D01*
X40764Y319429D01*
Y319579D01*
D02*
G37*
G36*
X35327D02*
X30890D01*
Y319429D01*
X31226Y318173D01*
X31876Y317047D01*
X32795Y316128D01*
X33921Y315478D01*
X35177Y315142D01*
X35327D01*
Y319579D01*
D02*
G37*
G36*
X37658Y276984D02*
X37508D01*
Y272547D01*
X41945D01*
Y272697D01*
X41608Y273953D01*
X40958Y275079D01*
X40039Y275998D01*
X38914Y276648D01*
X37658Y276984D01*
D02*
G37*
G36*
X36508D02*
X36358D01*
X35102Y276648D01*
X33977Y275998D01*
X33057Y275079D01*
X32407Y273953D01*
X32071Y272697D01*
Y272547D01*
X36508D01*
Y276984D01*
D02*
G37*
G36*
X41945Y271547D02*
X37508D01*
Y267110D01*
X37658D01*
X38914Y267447D01*
X40039Y268097D01*
X40958Y269016D01*
X41608Y270142D01*
X41945Y271397D01*
Y271547D01*
D02*
G37*
G36*
X36508D02*
X32071D01*
Y271397D01*
X32407Y270142D01*
X33057Y269016D01*
X33977Y268097D01*
X35102Y267447D01*
X36358Y267110D01*
X36508D01*
Y271547D01*
D02*
G37*
G36*
X201719Y182571D02*
X199319D01*
Y180521D01*
X201719D01*
Y182571D01*
D02*
G37*
G36*
X198319D02*
X195919D01*
Y180521D01*
X198319D01*
Y182571D01*
D02*
G37*
G36*
X193807Y175776D02*
Y174122D01*
X195461D01*
X195156Y174857D01*
X194543Y175471D01*
X193807Y175776D01*
D02*
G37*
G36*
X192807D02*
X192072Y175471D01*
X191458Y174857D01*
X191153Y174122D01*
X192807D01*
Y175776D01*
D02*
G37*
G36*
X195461Y173122D02*
X193807D01*
Y171468D01*
X194543Y171773D01*
X195156Y172387D01*
X195461Y173122D01*
D02*
G37*
G36*
X192807D02*
X191153D01*
X191458Y172387D01*
X192072Y171773D01*
X192807Y171468D01*
Y173122D01*
D02*
G37*
G36*
X214717Y174550D02*
X212137Y171969D01*
X214230Y169876D01*
X216811Y172457D01*
X214717Y174550D01*
D02*
G37*
G36*
X211524Y170658D02*
Y169004D01*
X213177D01*
X212873Y169739D01*
X212259Y170353D01*
X211524Y170658D01*
D02*
G37*
G36*
X210524D02*
X209788Y170353D01*
X209175Y169739D01*
X208870Y169004D01*
X210524D01*
Y170658D01*
D02*
G37*
G36*
X201580Y173662D02*
X199000Y171081D01*
X201093Y168988D01*
X203674Y171569D01*
X201580Y173662D01*
D02*
G37*
G36*
X188689Y169870D02*
Y168217D01*
X190343D01*
X190038Y168952D01*
X189425Y169566D01*
X188689Y169870D01*
D02*
G37*
G36*
X187689D02*
X186953Y169566D01*
X186340Y168952D01*
X186035Y168217D01*
X187689D01*
Y169870D01*
D02*
G37*
G36*
X213177Y168004D02*
X211524D01*
Y166350D01*
X212259Y166655D01*
X212873Y167269D01*
X213177Y168004D01*
D02*
G37*
G36*
X210524D02*
X208870D01*
X209175Y167269D01*
X209788Y166655D01*
X210524Y166350D01*
Y168004D01*
D02*
G37*
G36*
X204381Y170861D02*
X201800Y168281D01*
X203894Y166187D01*
X206474Y168768D01*
X204381Y170861D01*
D02*
G37*
G36*
X198293Y170374D02*
X195712Y167794D01*
X197805Y165700D01*
X200386Y168281D01*
X198293Y170374D01*
D02*
G37*
G36*
X190343Y167217D02*
X188689D01*
Y165563D01*
X189425Y165867D01*
X190038Y166481D01*
X190343Y167217D01*
D02*
G37*
G36*
X187689D02*
X186035D01*
X186340Y166481D01*
X186953Y165867D01*
X187689Y165563D01*
Y167217D01*
D02*
G37*
G36*
X193020Y165146D02*
Y163492D01*
X194673D01*
X194369Y164228D01*
X193755Y164841D01*
X193020Y165146D01*
D02*
G37*
G36*
X192020D02*
X191284Y164841D01*
X190671Y164228D01*
X190366Y163492D01*
X192020D01*
Y165146D01*
D02*
G37*
G36*
X201093Y167574D02*
X198512Y164993D01*
X200606Y162900D01*
X203186Y165480D01*
X201093Y167574D01*
D02*
G37*
G36*
X181209Y163177D02*
Y161524D01*
X182862D01*
X182558Y162259D01*
X181944Y162873D01*
X181209Y163177D01*
D02*
G37*
G36*
X180209D02*
X179473Y162873D01*
X178860Y162259D01*
X178555Y161524D01*
X180209D01*
Y163177D01*
D02*
G37*
G36*
X194673Y162492D02*
X193020D01*
Y160838D01*
X193755Y161143D01*
X194369Y161757D01*
X194673Y162492D01*
D02*
G37*
G36*
X192020D02*
X190366D01*
X190671Y161757D01*
X191284Y161143D01*
X192020Y160838D01*
Y162492D01*
D02*
G37*
G36*
X182862Y160524D02*
X181209D01*
Y158870D01*
X181944Y159175D01*
X182558Y159788D01*
X182862Y160524D01*
D02*
G37*
G36*
X180209D02*
X178555D01*
X178860Y159788D01*
X179473Y159175D01*
X180209Y158870D01*
Y160524D01*
D02*
G37*
G36*
X195419Y160030D02*
X193019D01*
Y157980D01*
X195419D01*
Y160030D01*
D02*
G37*
G36*
X192019D02*
X189619D01*
Y157980D01*
X192019D01*
Y160030D01*
D02*
G37*
G36*
X195419Y156980D02*
X193019D01*
Y154930D01*
X195419D01*
Y156980D01*
D02*
G37*
G36*
X192019D02*
X189619D01*
Y154930D01*
X192019D01*
Y156980D01*
D02*
G37*
G36*
X213529Y155700D02*
X211129D01*
Y153650D01*
X213529D01*
Y155700D01*
D02*
G37*
G36*
X210129D02*
X207729D01*
Y153650D01*
X210129D01*
Y155700D01*
D02*
G37*
G36*
X202862Y152941D02*
Y151287D01*
X204516D01*
X204211Y152023D01*
X203598Y152636D01*
X202862Y152941D01*
D02*
G37*
G36*
X201862D02*
X201127Y152636D01*
X200513Y152023D01*
X200208Y151287D01*
X201862D01*
Y152941D01*
D02*
G37*
G36*
X213529Y152650D02*
X211129D01*
Y150600D01*
X213529D01*
Y152650D01*
D02*
G37*
G36*
X210129D02*
X207729D01*
Y150600D01*
X210129D01*
Y152650D01*
D02*
G37*
G36*
X204516Y150287D02*
X202862D01*
Y148634D01*
X203598Y148938D01*
X204211Y149552D01*
X204516Y150287D01*
D02*
G37*
G36*
X201862D02*
X200208D01*
X200513Y149552D01*
X201127Y148938D01*
X201862Y148634D01*
Y150287D01*
D02*
G37*
G36*
X213447Y149326D02*
X211047D01*
Y147276D01*
X213447D01*
Y149326D01*
D02*
G37*
G36*
X210047D02*
X207647D01*
Y147276D01*
X210047D01*
Y149326D01*
D02*
G37*
G36*
X198441Y150157D02*
X194595D01*
Y146902D01*
X198441D01*
Y150157D01*
D02*
G37*
G36*
X193595D02*
X189748D01*
Y146902D01*
X193595D01*
Y150157D01*
D02*
G37*
G36*
X198441Y145902D02*
X194595D01*
Y142646D01*
X198441D01*
Y145902D01*
D02*
G37*
G36*
X205700Y144802D02*
X203650D01*
Y142402D01*
X205700D01*
Y144802D01*
D02*
G37*
G36*
X202650D02*
X200600D01*
Y142402D01*
X202650D01*
Y144802D01*
D02*
G37*
G36*
X210815Y142020D02*
X209161D01*
Y140366D01*
X209897Y140671D01*
X210510Y141284D01*
X210815Y142020D01*
D02*
G37*
G36*
X208161D02*
X206508D01*
X206812Y141284D01*
X207426Y140671D01*
X208161Y140366D01*
Y142020D01*
D02*
G37*
G36*
X205700Y141402D02*
X203650D01*
Y139002D01*
X205700D01*
Y141402D01*
D02*
G37*
G36*
X251287Y176957D02*
Y175303D01*
X252941D01*
X252637Y176039D01*
X252023Y176652D01*
X251287Y176957D01*
D02*
G37*
G36*
X250287D02*
X249552Y176652D01*
X248938Y176039D01*
X248634Y175303D01*
X250287D01*
Y176957D01*
D02*
G37*
G36*
X282865Y177309D02*
X280815D01*
Y174909D01*
X282865D01*
Y177309D01*
D02*
G37*
G36*
X279815D02*
X277765D01*
Y174909D01*
X279815D01*
Y177309D01*
D02*
G37*
G36*
X276566D02*
X274516D01*
Y174909D01*
X276566D01*
Y177309D01*
D02*
G37*
G36*
X239476Y176170D02*
Y174516D01*
X241130D01*
X240825Y175251D01*
X240212Y175865D01*
X239476Y176170D01*
D02*
G37*
G36*
X238476D02*
X237741Y175865D01*
X237127Y175251D01*
X236823Y174516D01*
X238476D01*
Y176170D01*
D02*
G37*
G36*
X252941Y174303D02*
X251287D01*
Y172650D01*
X252023Y172954D01*
X252637Y173568D01*
X252941Y174303D01*
D02*
G37*
G36*
X250287D02*
X248634D01*
X248938Y173568D01*
X249552Y172954D01*
X250287Y172650D01*
Y174303D01*
D02*
G37*
G36*
X241130Y173516D02*
X239476D01*
Y171862D01*
X240212Y172167D01*
X240825Y172780D01*
X241130Y173516D01*
D02*
G37*
G36*
X238476D02*
X236823D01*
X237127Y172780D01*
X237741Y172167D01*
X238476Y171862D01*
Y173516D01*
D02*
G37*
G36*
X282865Y173909D02*
X280815D01*
Y171509D01*
X282865D01*
Y173909D01*
D02*
G37*
G36*
X279815D02*
X277765D01*
Y171509D01*
X279815D01*
Y173909D01*
D02*
G37*
G36*
X276566Y173909D02*
X274516D01*
Y171509D01*
X276566D01*
Y173909D01*
D02*
G37*
G36*
X256012Y171051D02*
Y169398D01*
X257665D01*
X257361Y170133D01*
X256747Y170747D01*
X256012Y171051D01*
D02*
G37*
G36*
X255012D02*
X254276Y170747D01*
X253663Y170133D01*
X253358Y169398D01*
X255012D01*
Y171051D01*
D02*
G37*
G36*
X248138Y168689D02*
Y167035D01*
X249792D01*
X249487Y167771D01*
X248873Y168385D01*
X248138Y168689D01*
D02*
G37*
G36*
X247138D02*
X246402Y168385D01*
X245789Y167771D01*
X245484Y167035D01*
X247138D01*
Y168689D01*
D02*
G37*
G36*
X257665Y168398D02*
X256012D01*
Y166744D01*
X256747Y167049D01*
X257361Y167662D01*
X257665Y168398D01*
D02*
G37*
G36*
X255012D02*
X253358D01*
X253663Y167662D01*
X254276Y167049D01*
X255012Y166744D01*
Y168398D01*
D02*
G37*
G36*
X240657Y168295D02*
Y166642D01*
X242311D01*
X242006Y167377D01*
X241393Y167991D01*
X240657Y168295D01*
D02*
G37*
G36*
X239657D02*
X238922Y167991D01*
X238308Y167377D01*
X238004Y166642D01*
X239657D01*
Y168295D01*
D02*
G37*
G36*
X249792Y166035D02*
X248138D01*
Y164382D01*
X248873Y164686D01*
X249487Y165300D01*
X249792Y166035D01*
D02*
G37*
G36*
X247138D02*
X245484D01*
X245789Y165300D01*
X246402Y164686D01*
X247138Y164382D01*
Y166035D01*
D02*
G37*
G36*
X242311Y165642D02*
X240657D01*
Y163988D01*
X241393Y164293D01*
X242006Y164906D01*
X242311Y165642D01*
D02*
G37*
G36*
X239657D02*
X238004D01*
X238308Y164906D01*
X238922Y164293D01*
X239657Y163988D01*
Y165642D01*
D02*
G37*
G36*
X257193Y163571D02*
Y161917D01*
X258847D01*
X258542Y162653D01*
X257928Y163266D01*
X257193Y163571D01*
D02*
G37*
G36*
X256193D02*
X255457Y163266D01*
X254844Y162653D01*
X254539Y161917D01*
X256193D01*
Y163571D01*
D02*
G37*
G36*
X250106Y161209D02*
Y159555D01*
X251760D01*
X251455Y160291D01*
X250842Y160904D01*
X250106Y161209D01*
D02*
G37*
G36*
X249106D02*
X248371Y160904D01*
X247757Y160291D01*
X247453Y159555D01*
X249106D01*
Y161209D01*
D02*
G37*
G36*
X239870D02*
Y159555D01*
X241524D01*
X241219Y160291D01*
X240606Y160904D01*
X239870Y161209D01*
D02*
G37*
G36*
X238870D02*
X238135Y160904D01*
X237521Y160291D01*
X237216Y159555D01*
X238870D01*
Y161209D01*
D02*
G37*
G36*
X258847Y160917D02*
X257193D01*
Y159264D01*
X257928Y159568D01*
X258542Y160182D01*
X258847Y160917D01*
D02*
G37*
G36*
X256193D02*
X254539D01*
X254844Y160182D01*
X255457Y159568D01*
X256193Y159264D01*
Y160917D01*
D02*
G37*
G36*
X251760Y158555D02*
X250106D01*
Y156901D01*
X250842Y157206D01*
X251455Y157820D01*
X251760Y158555D01*
D02*
G37*
G36*
X249106D02*
X247453D01*
X247757Y157820D01*
X248371Y157206D01*
X249106Y156901D01*
Y158555D01*
D02*
G37*
G36*
X241524D02*
X239870D01*
Y156901D01*
X240606Y157206D01*
X241219Y157820D01*
X241524Y158555D01*
D02*
G37*
G36*
X238870D02*
X237216D01*
X237521Y157820D01*
X238135Y157206D01*
X238870Y156901D01*
Y158555D01*
D02*
G37*
G36*
X264068Y151812D02*
Y150159D01*
X265722D01*
X265417Y150894D01*
X264804Y151508D01*
X264068Y151812D01*
D02*
G37*
G36*
X263068D02*
X262333Y151508D01*
X261719Y150894D01*
X261415Y150159D01*
X263068D01*
Y151812D01*
D02*
G37*
G36*
X273022Y150932D02*
X270972D01*
Y148532D01*
X273022D01*
Y150932D01*
D02*
G37*
G36*
X269972D02*
X267922D01*
Y148532D01*
X269972D01*
Y150932D01*
D02*
G37*
G36*
X265722Y149159D02*
X264068D01*
Y147505D01*
X264804Y147810D01*
X265417Y148423D01*
X265722Y149159D01*
D02*
G37*
G36*
X263068D02*
X261415D01*
X261719Y148423D01*
X262333Y147810D01*
X263068Y147505D01*
Y149159D01*
D02*
G37*
G36*
X273022Y147532D02*
X270972D01*
Y145132D01*
X273022D01*
Y147532D01*
D02*
G37*
G36*
X269972D02*
X267922D01*
Y145132D01*
X269972D01*
Y147532D01*
D02*
G37*
G36*
X245975Y127209D02*
X245475Y127209D01*
X241139D01*
X240857Y127209D01*
X240357Y127209D01*
X236021D01*
X235739Y127209D01*
X235239Y127209D01*
X230621D01*
Y121609D01*
X231779D01*
Y117078D01*
X231340Y116639D01*
X231023Y115875D01*
Y115047D01*
X231340Y114282D01*
X231925Y113696D01*
X232690Y113379D01*
X233518D01*
X234283Y113696D01*
X234868Y114282D01*
X235185Y115047D01*
Y115875D01*
X234868Y116639D01*
X234430Y117078D01*
Y121256D01*
X234783Y121609D01*
X235521Y121609D01*
X236021Y121609D01*
X236711D01*
Y111513D01*
X236711Y111513D01*
X236689D01*
X236887Y110519D01*
X237451Y109675D01*
X237560Y109602D01*
X237563Y109598D01*
X240835Y106653D01*
X240838Y106650D01*
X240876Y106628D01*
X241565Y106167D01*
X242482Y105985D01*
X242482Y105987D01*
X242488Y105992D01*
X247280Y105865D01*
X247299Y105868D01*
X247319Y105864D01*
X247919D01*
Y105458D01*
X255624D01*
Y109227D01*
X247919D01*
Y108821D01*
X247339D01*
X242710Y108944D01*
X239667Y111682D01*
Y121256D01*
X240021Y121609D01*
X240639Y121609D01*
X241139Y121609D01*
X241829D01*
Y119685D01*
X241941Y119119D01*
X242262Y118640D01*
X244624Y116277D01*
X245104Y115957D01*
X245669Y115844D01*
X245768Y115864D01*
X247919D01*
Y115458D01*
X255624D01*
Y119227D01*
X247919D01*
Y118821D01*
X246262D01*
X244785Y120297D01*
Y121256D01*
X245139Y121609D01*
X245757Y121609D01*
X246257Y121609D01*
X250875D01*
Y122256D01*
X251375Y122471D01*
X251696Y122256D01*
X252262Y122144D01*
X254719D01*
X254838Y122025D01*
X255531Y121738D01*
X256280D01*
X256973Y122025D01*
X257503Y122555D01*
X257790Y123247D01*
Y123997D01*
X257503Y124689D01*
X256973Y125219D01*
X256280Y125506D01*
X255531D01*
X254838Y125219D01*
X254719Y125101D01*
X252875D01*
X252521Y125454D01*
X252041Y125775D01*
X251475Y125888D01*
X250875D01*
Y127209D01*
X246257D01*
X245975Y127209D01*
D02*
G37*
G36*
X207199Y126038D02*
X199494D01*
Y122269D01*
X207199D01*
Y126038D01*
D02*
G37*
G36*
X219379Y122485D02*
X214479D01*
Y121163D01*
X203878D01*
Y121174D01*
X203194Y121038D01*
X199494D01*
Y117269D01*
X207199D01*
Y118207D01*
X214479D01*
Y116885D01*
X219379D01*
Y118207D01*
X219979D01*
X219979Y118207D01*
X225307D01*
X225593Y117921D01*
X226358Y117604D01*
X227186D01*
X227951Y117921D01*
X228536Y118506D01*
X228853Y119271D01*
Y120099D01*
X228536Y120864D01*
X227951Y121449D01*
X227186Y121766D01*
X226358D01*
X225593Y121449D01*
X225307Y121163D01*
X219979D01*
X219979Y121163D01*
X219379D01*
Y122485D01*
D02*
G37*
G36*
X262311Y119870D02*
Y118217D01*
X263965D01*
X263660Y118952D01*
X263047Y119566D01*
X262311Y119870D01*
D02*
G37*
G36*
X261311D02*
X260576Y119566D01*
X259962Y118952D01*
X259657Y118217D01*
X261311D01*
Y119870D01*
D02*
G37*
G36*
X219379Y116186D02*
X214479D01*
Y115632D01*
X207199D01*
Y116038D01*
X199494D01*
Y112269D01*
X207199D01*
Y112675D01*
X214479D01*
Y110586D01*
X219379D01*
Y111705D01*
X219879Y111823D01*
X220081Y111622D01*
X220846Y111305D01*
X221674D01*
X222439Y111622D01*
X223024Y112207D01*
X223341Y112972D01*
Y113800D01*
X223024Y114565D01*
X222439Y115150D01*
X221674Y115467D01*
X220846D01*
X220081Y115150D01*
X219879Y114948D01*
X219379Y115067D01*
Y116186D01*
D02*
G37*
G36*
X263965Y117217D02*
X262311D01*
Y115563D01*
X263047Y115867D01*
X263660Y116481D01*
X263965Y117217D01*
D02*
G37*
G36*
X261311D02*
X259657D01*
X259962Y116481D01*
X260576Y115867D01*
X261311Y115563D01*
Y117217D01*
D02*
G37*
G36*
X259949Y113965D02*
Y112311D01*
X261602D01*
X261298Y113047D01*
X260684Y113660D01*
X259949Y113965D01*
D02*
G37*
G36*
X258949D02*
X258213Y113660D01*
X257600Y113047D01*
X257295Y112311D01*
X258949D01*
Y113965D01*
D02*
G37*
G36*
X227847D02*
X227111Y113660D01*
X226497Y113047D01*
X226193Y112311D01*
X227847D01*
Y113965D01*
D02*
G37*
G36*
X280602Y113136D02*
X278552D01*
Y110736D01*
X280602D01*
Y113136D01*
D02*
G37*
G36*
X243327Y115861D02*
X242499D01*
X241735Y115544D01*
X241149Y114958D01*
X240832Y114193D01*
Y113366D01*
X241149Y112601D01*
X241735Y112015D01*
X242499Y111698D01*
X243327D01*
X243480Y111761D01*
X243836Y111405D01*
X244266Y111118D01*
X244773Y111017D01*
X247919D01*
Y110458D01*
X255624D01*
Y114227D01*
X247919D01*
Y113668D01*
X245322D01*
X244994Y113996D01*
Y114193D01*
X244678Y114958D01*
X244092Y115544D01*
X243327Y115861D01*
D02*
G37*
G36*
X231996Y111602D02*
Y109949D01*
X233650D01*
X233345Y110684D01*
X232732Y111298D01*
X231996Y111602D01*
D02*
G37*
G36*
X261602Y111311D02*
X259949D01*
Y109657D01*
X260684Y109962D01*
X261298Y110575D01*
X261602Y111311D01*
D02*
G37*
G36*
X258949D02*
X257295D01*
X257600Y110575D01*
X258213Y109962D01*
X258949Y109657D01*
Y111311D01*
D02*
G37*
G36*
X227847D02*
X226193D01*
X226497Y110575D01*
X227111Y109962D01*
X227847Y109657D01*
Y111311D01*
D02*
G37*
G36*
X280602Y109736D02*
X278552D01*
Y107336D01*
X280602D01*
Y109736D01*
D02*
G37*
G36*
X283652Y113136D02*
X283564Y113136D01*
X281602D01*
Y110236D01*
Y107336D01*
X283564D01*
X284064Y107335D01*
X284152Y107335D01*
X286114D01*
Y110236D01*
Y113135D01*
X284152D01*
X283652Y113136D01*
D02*
G37*
G36*
X261130Y107272D02*
Y105618D01*
X262784D01*
X262479Y106354D01*
X261865Y106967D01*
X261130Y107272D01*
D02*
G37*
G36*
X260130D02*
X259394Y106967D01*
X258781Y106354D01*
X258476Y105618D01*
X260130D01*
Y107272D01*
D02*
G37*
G36*
X228847Y113965D02*
Y111811D01*
Y109657D01*
X228899Y109679D01*
X229315Y109401D01*
Y109015D01*
X229647Y108213D01*
X230261Y107600D01*
X230803Y107375D01*
X230817Y107352D01*
X230887Y106806D01*
X230434Y106354D01*
X230130Y105618D01*
X234437D01*
X234133Y106354D01*
X233519Y106967D01*
X232977Y107192D01*
X232963Y107215D01*
X232893Y107761D01*
X233345Y108213D01*
X233650Y108949D01*
X231496D01*
Y109449D01*
X230996D01*
Y111602D01*
X230943Y111581D01*
X230528Y111858D01*
Y112245D01*
X230195Y113047D01*
X229582Y113660D01*
X228847Y113965D01*
D02*
G37*
G36*
X276884Y109227D02*
X269179D01*
Y105458D01*
X276884D01*
Y109227D01*
D02*
G37*
G36*
X226878Y106878D02*
Y105224D01*
X228532D01*
X228227Y105960D01*
X227613Y106573D01*
X226878Y106878D01*
D02*
G37*
G36*
X225878D02*
X225143Y106573D01*
X224529Y105960D01*
X224224Y105224D01*
X225878D01*
Y106878D01*
D02*
G37*
G36*
X262784Y104618D02*
X261130D01*
Y102964D01*
X261865Y103269D01*
X262479Y103883D01*
X262784Y104618D01*
D02*
G37*
G36*
X260130D02*
X258476D01*
X258781Y103883D01*
X259394Y103269D01*
X260130Y102964D01*
Y104618D01*
D02*
G37*
G36*
X234437D02*
X232784D01*
Y102964D01*
X233519Y103269D01*
X234133Y103883D01*
X234437Y104618D01*
D02*
G37*
G36*
X231784D02*
X230130D01*
X230434Y103883D01*
X231048Y103269D01*
X231784Y102964D01*
Y104618D01*
D02*
G37*
G36*
X255724Y104327D02*
X252272D01*
Y102842D01*
X255724D01*
Y104327D01*
D02*
G37*
G36*
X251272D02*
X247819D01*
Y102842D01*
X251272D01*
Y104327D01*
D02*
G37*
G36*
X228532Y104224D02*
X226878D01*
Y102571D01*
X227613Y102875D01*
X228227Y103489D01*
X228532Y104224D01*
D02*
G37*
G36*
X225878D02*
X224224D01*
X224529Y103489D01*
X225143Y102875D01*
X225878Y102571D01*
Y104224D01*
D02*
G37*
G36*
X255724Y101842D02*
X252272D01*
Y100358D01*
X255724D01*
Y101842D01*
D02*
G37*
G36*
X251272D02*
X247819D01*
Y100358D01*
X251272D01*
Y101842D01*
D02*
G37*
G36*
X283902Y105206D02*
X278302D01*
Y104234D01*
X274029D01*
X273992Y104227D01*
X269179D01*
Y100458D01*
X276884D01*
Y101277D01*
X278302D01*
Y100306D01*
X283902D01*
Y105206D01*
D02*
G37*
G36*
X256315Y80827D02*
X252468D01*
Y77571D01*
X256315D01*
Y80827D01*
D02*
G37*
G36*
X251468D02*
X247622D01*
Y77571D01*
X251468D01*
Y80827D01*
D02*
G37*
G36*
X246079Y80827D02*
X242232D01*
Y77571D01*
X246079D01*
Y80827D01*
D02*
G37*
G36*
X241232D02*
X237386D01*
Y77571D01*
X241232D01*
Y80827D01*
D02*
G37*
G36*
X235842Y80827D02*
X231996D01*
Y77571D01*
X235842D01*
Y80827D01*
D02*
G37*
G36*
X230996D02*
X227150D01*
Y77571D01*
X230996D01*
Y80827D01*
D02*
G37*
G36*
X165270Y95979D02*
X150478D01*
Y83222D01*
X147441D01*
X146281Y83069D01*
X145200Y82621D01*
X144272Y81909D01*
X143560Y80981D01*
X143112Y79900D01*
X142959Y78740D01*
X143112Y77580D01*
X143560Y76499D01*
X144272Y75571D01*
X145200Y74859D01*
X146281Y74411D01*
X147441Y74259D01*
X154528D01*
X155687Y74411D01*
X156768Y74859D01*
X157697Y75571D01*
X158409Y76499D01*
X158556Y76856D01*
X165270D01*
Y95979D01*
D02*
G37*
G36*
X231996Y75776D02*
Y74122D01*
X233650D01*
X233345Y74857D01*
X232732Y75471D01*
X231996Y75776D01*
D02*
G37*
G36*
X230996D02*
X230261Y75471D01*
X229647Y74857D01*
X229342Y74122D01*
X230996D01*
Y75776D01*
D02*
G37*
G36*
X243020Y75382D02*
Y73728D01*
X244673D01*
X244369Y74464D01*
X243755Y75077D01*
X243020Y75382D01*
D02*
G37*
G36*
X242020D02*
X241284Y75077D01*
X240671Y74464D01*
X240366Y73728D01*
X242020D01*
Y75382D01*
D02*
G37*
G36*
X252468Y74595D02*
Y72941D01*
X254122D01*
X253818Y73676D01*
X253204Y74290D01*
X252468Y74595D01*
D02*
G37*
G36*
X251468D02*
X250733Y74290D01*
X250119Y73676D01*
X249815Y72941D01*
X251468D01*
Y74595D01*
D02*
G37*
G36*
X233650Y73122D02*
X231996D01*
Y71468D01*
X232732Y71773D01*
X233345Y72387D01*
X233650Y73122D01*
D02*
G37*
G36*
X230996D02*
X229342D01*
X229647Y72387D01*
X230261Y71773D01*
X230996Y71468D01*
Y73122D01*
D02*
G37*
G36*
X244673Y72728D02*
X243020D01*
Y71075D01*
X243755Y71379D01*
X244369Y71993D01*
X244673Y72728D01*
D02*
G37*
G36*
X242020D02*
X240366D01*
X240671Y71993D01*
X241284Y71379D01*
X242020Y71075D01*
Y72728D01*
D02*
G37*
G36*
X254122Y71941D02*
X252468D01*
Y70287D01*
X253204Y70592D01*
X253818Y71205D01*
X254122Y71941D01*
D02*
G37*
G36*
X251468D02*
X249815D01*
X250119Y71205D01*
X250733Y70592D01*
X251468Y70287D01*
Y71941D01*
D02*
G37*
G36*
X216354Y71689D02*
X214673D01*
Y68012D01*
X213673D01*
Y71689D01*
X211992D01*
Y71589D01*
X208352D01*
Y64435D01*
X208751D01*
Y62337D01*
X208352D01*
Y55183D01*
X208751D01*
Y49039D01*
X208879Y48396D01*
X209243Y47850D01*
X210357Y46736D01*
X210166Y46274D01*
X209268D01*
Y46374D01*
X207980D01*
Y42717D01*
Y39059D01*
X209268D01*
Y39159D01*
X219404D01*
X219769Y38834D01*
Y38185D01*
X229837D01*
Y46284D01*
X220953D01*
X220811Y46457D01*
X220811Y46457D01*
Y47666D01*
X225484Y52339D01*
X225814Y52832D01*
X225929Y53413D01*
X225929Y53413D01*
Y54513D01*
X226392D01*
Y60447D01*
X222427D01*
Y54513D01*
X222818D01*
X222860Y54013D01*
X220058Y51211D01*
X219596Y51402D01*
Y55183D01*
X219994D01*
Y62337D01*
X219596D01*
Y64435D01*
X219994D01*
Y71589D01*
X216354D01*
Y71689D01*
D02*
G37*
G36*
X174713Y75386D02*
Y67035D01*
X179192D01*
Y70472D01*
X179023Y71761D01*
X178525Y72962D01*
X177734Y73994D01*
X176702Y74785D01*
X175501Y75282D01*
X174713Y75386D01*
D02*
G37*
G36*
X173713D02*
X172924Y75282D01*
X171723Y74785D01*
X170692Y73994D01*
X169900Y72962D01*
X169403Y71761D01*
X169233Y70472D01*
Y67035D01*
X173713D01*
Y75386D01*
D02*
G37*
G36*
X224823Y76884D02*
X223995D01*
X223231Y76567D01*
X222645Y75982D01*
X222328Y75217D01*
Y74389D01*
X222370Y74288D01*
Y68504D01*
X222427Y68220D01*
Y65537D01*
X226392D01*
Y66150D01*
X226892Y66334D01*
X227570Y65657D01*
X228232Y65215D01*
X229012Y65059D01*
X229612D01*
Y63442D01*
X238105D01*
Y70754D01*
X229612D01*
Y70036D01*
X229150Y69844D01*
X229048Y69946D01*
X228387Y70388D01*
X227606Y70543D01*
X226449D01*
Y74288D01*
X226490Y74389D01*
Y75217D01*
X226174Y75982D01*
X225588Y76567D01*
X224823Y76884D01*
D02*
G37*
G36*
X238205Y61854D02*
X234358D01*
Y58598D01*
X238205D01*
Y61854D01*
D02*
G37*
G36*
X233358D02*
X229512D01*
Y58598D01*
X233358D01*
Y61854D01*
D02*
G37*
G36*
X253256Y59240D02*
Y57587D01*
X254910D01*
X254605Y58322D01*
X253991Y58936D01*
X253256Y59240D01*
D02*
G37*
G36*
X252256D02*
X251520Y58936D01*
X250907Y58322D01*
X250602Y57587D01*
X252256D01*
Y59240D01*
D02*
G37*
G36*
X243807Y58059D02*
Y56406D01*
X245461D01*
X245156Y57141D01*
X244543Y57755D01*
X243807Y58059D01*
D02*
G37*
G36*
X242807D02*
X242072Y57755D01*
X241458Y57141D01*
X241153Y56406D01*
X242807D01*
Y58059D01*
D02*
G37*
G36*
X254910Y56587D02*
X253256D01*
Y54933D01*
X253991Y55238D01*
X254605Y55851D01*
X254910Y56587D01*
D02*
G37*
G36*
X252256D02*
X250602D01*
X250907Y55851D01*
X251520Y55238D01*
X252256Y54933D01*
Y56587D01*
D02*
G37*
G36*
X159252Y58917D02*
X155815D01*
Y54437D01*
X164166D01*
X164062Y55226D01*
X163564Y56427D01*
X162773Y57458D01*
X161742Y58249D01*
X160541Y58747D01*
X159252Y58917D01*
D02*
G37*
G36*
X154815D02*
X151378D01*
X150089Y58747D01*
X148888Y58249D01*
X147857Y57458D01*
X147065Y56427D01*
X146568Y55226D01*
X146464Y54437D01*
X154815D01*
Y58917D01*
D02*
G37*
G36*
X238205Y57598D02*
X234358D01*
Y54343D01*
X238205D01*
Y57598D01*
D02*
G37*
G36*
X233358D02*
X229512D01*
Y54343D01*
X233358D01*
Y57598D01*
D02*
G37*
G36*
X245461Y55405D02*
X243807D01*
Y53752D01*
X244543Y54057D01*
X245156Y54670D01*
X245461Y55405D01*
D02*
G37*
G36*
X242807D02*
X241153D01*
X241458Y54670D01*
X242072Y54057D01*
X242807Y53752D01*
Y55405D01*
D02*
G37*
G36*
X138598Y64386D02*
X130421D01*
Y51681D01*
X138598D01*
Y64386D01*
D02*
G37*
G36*
X129421D02*
X121244D01*
Y51681D01*
X129421D01*
Y64386D01*
D02*
G37*
G36*
X189386D02*
X181209D01*
Y51681D01*
X189386D01*
Y64386D01*
D02*
G37*
G36*
X179192Y66035D02*
X174213D01*
X169233D01*
Y62598D01*
X169403Y61310D01*
X169900Y60109D01*
X170692Y59077D01*
X171723Y58286D01*
X172031Y58158D01*
Y51681D01*
X180209D01*
Y64386D01*
X179192D01*
Y66035D01*
D02*
G37*
G36*
X164166Y53437D02*
X155815D01*
Y48957D01*
X159252D01*
X160541Y49127D01*
X161742Y49624D01*
X162773Y50416D01*
X163564Y51447D01*
X164062Y52648D01*
X164166Y53437D01*
D02*
G37*
G36*
X154815D02*
X146464D01*
X146568Y52648D01*
X147065Y51447D01*
X147857Y50416D01*
X148888Y49624D01*
X150089Y49127D01*
X151378Y48957D01*
X154815D01*
Y53437D01*
D02*
G37*
G36*
X205693Y46374D02*
X205230Y46284D01*
X195360D01*
Y38185D01*
X205428D01*
Y38669D01*
X205693Y39059D01*
X205928Y39059D01*
X206980D01*
Y42717D01*
Y46374D01*
X205890D01*
X205693Y46374D01*
D02*
G37*
G36*
X189386Y50681D02*
X181209D01*
Y37976D01*
X189386D01*
Y50681D01*
D02*
G37*
G36*
X180209D02*
X172031D01*
Y37976D01*
X180209D01*
Y50681D01*
D02*
G37*
G36*
X138598Y50681D02*
X130421D01*
Y37976D01*
X138598D01*
Y50681D01*
D02*
G37*
G36*
X129421D02*
X121244D01*
Y37976D01*
X129421D01*
Y50681D01*
D02*
G37*
G36*
X155978Y41254D02*
X154652D01*
X153372Y40911D01*
X152224Y40249D01*
X151287Y39311D01*
X150624Y38164D01*
X150281Y36883D01*
Y35558D01*
X150624Y34277D01*
X151287Y33130D01*
X152224Y32192D01*
X153372Y31530D01*
X154652Y31187D01*
X155978D01*
X157258Y31530D01*
X158406Y32192D01*
X159343Y33130D01*
X160006Y34277D01*
X160349Y35558D01*
Y36883D01*
X160006Y38164D01*
X159343Y39311D01*
X158406Y40249D01*
X157258Y40911D01*
X155978Y41254D01*
D02*
G37*
G36*
X135146Y190736D02*
Y189083D01*
X136799D01*
X136495Y189818D01*
X135881Y190432D01*
X135146Y190736D01*
D02*
G37*
G36*
X134146D02*
X133410Y190432D01*
X132797Y189818D01*
X132492Y189083D01*
X134146D01*
Y190736D01*
D02*
G37*
G36*
X136799Y188083D02*
X135146D01*
Y186429D01*
X135881Y186734D01*
X136495Y187347D01*
X136799Y188083D01*
D02*
G37*
G36*
X134146D02*
X132492D01*
X132797Y187347D01*
X133410Y186734D01*
X134146Y186429D01*
Y188083D01*
D02*
G37*
G36*
X96995Y186114D02*
X94595D01*
Y184064D01*
X96995D01*
Y186114D01*
D02*
G37*
G36*
X95776Y179319D02*
Y177665D01*
X97429D01*
X97125Y178401D01*
X96511Y179014D01*
X95776Y179319D01*
D02*
G37*
G36*
X94776D02*
X94040Y179014D01*
X93427Y178401D01*
X93122Y177665D01*
X94776D01*
Y179319D01*
D02*
G37*
G36*
X97429Y176665D02*
X95776D01*
Y175012D01*
X96511Y175316D01*
X97125Y175930D01*
X97429Y176665D01*
D02*
G37*
G36*
X94776D02*
X93122D01*
X93427Y175930D01*
X94040Y175316D01*
X94776Y175012D01*
Y176665D01*
D02*
G37*
G36*
X89162Y172335D02*
X87508D01*
Y170681D01*
X88243Y170986D01*
X88857Y171599D01*
X89162Y172335D01*
D02*
G37*
G36*
X86508D02*
X84854D01*
X85159Y171599D01*
X85772Y170986D01*
X86508Y170681D01*
Y172335D01*
D02*
G37*
G36*
X74122Y171051D02*
Y169398D01*
X75776D01*
X75471Y170133D01*
X74857Y170747D01*
X74122Y171051D01*
D02*
G37*
G36*
X73122D02*
X72387Y170747D01*
X71773Y170133D01*
X71468Y169398D01*
X73122D01*
Y171051D01*
D02*
G37*
G36*
X90153Y169067D02*
X87252D01*
Y166766D01*
X90153D01*
Y169067D01*
D02*
G37*
G36*
X86252D02*
X83350D01*
Y166766D01*
X86252D01*
Y169067D01*
D02*
G37*
G36*
X75776Y168398D02*
X74122D01*
Y166744D01*
X74857Y167049D01*
X75471Y167662D01*
X75776Y168398D01*
D02*
G37*
G36*
X73122D02*
X71468D01*
X71773Y167662D01*
X72387Y167049D01*
X73122Y166744D01*
Y168398D01*
D02*
G37*
G36*
X90153Y165766D02*
X87252D01*
Y163465D01*
X90153D01*
Y165766D01*
D02*
G37*
G36*
X86252D02*
X83350D01*
Y163465D01*
X86252D01*
Y165766D01*
D02*
G37*
G36*
X292626Y152941D02*
Y151287D01*
X294280D01*
X293975Y152023D01*
X293361Y152636D01*
X292626Y152941D01*
D02*
G37*
G36*
X291626D02*
X290891Y152636D01*
X290277Y152023D01*
X289972Y151287D01*
X291626D01*
Y152941D01*
D02*
G37*
G36*
X294280Y150287D02*
X292626D01*
Y148634D01*
X293361Y148938D01*
X293975Y149552D01*
X294280Y150287D01*
D02*
G37*
G36*
X291626D02*
X289972D01*
X290277Y149552D01*
X290891Y148938D01*
X291626Y148634D01*
Y150287D01*
D02*
G37*
G36*
X292508Y146472D02*
X289252D01*
Y142626D01*
X292508D01*
Y146472D01*
D02*
G37*
G36*
X288252D02*
X284996D01*
Y142626D01*
X288252D01*
Y146472D01*
D02*
G37*
G36*
X292508Y141626D02*
X289252D01*
Y137779D01*
X292508D01*
Y141626D01*
D02*
G37*
G36*
X288252D02*
X284996D01*
Y137779D01*
X288252D01*
Y141626D01*
D02*
G37*
G36*
X58892Y94601D02*
Y94601D01*
X51856D01*
Y87565D01*
X51856D01*
Y87376D01*
X51856D01*
Y80340D01*
X51856D01*
Y80152D01*
X51856D01*
Y73116D01*
X58892D01*
Y73116D01*
X59080D01*
Y73116D01*
X66116D01*
Y73116D01*
X66305D01*
Y73116D01*
X73341D01*
Y80152D01*
X73341D01*
Y80340D01*
X73341D01*
Y87376D01*
X73341D01*
Y87565D01*
X73341D01*
Y94601D01*
X66602D01*
X66305Y94601D01*
Y94601D01*
X66116D01*
X66116Y94601D01*
X65819Y94601D01*
X59080D01*
Y94601D01*
X58892D01*
D02*
G37*
G36*
X32571Y59268D02*
X30299D01*
Y54831D01*
X32571D01*
Y59268D01*
D02*
G37*
G36*
X26720Y48835D02*
X23465D01*
Y44988D01*
X26720D01*
Y48835D01*
D02*
G37*
G36*
Y43988D02*
X23465D01*
Y40142D01*
X26720D01*
Y43988D01*
D02*
G37*
G36*
X391476Y174168D02*
Y171729D01*
X393915D01*
X393742Y172375D01*
X393351Y173052D01*
X392799Y173604D01*
X392122Y173995D01*
X391476Y174168D01*
D02*
G37*
G36*
X390476Y174168D02*
X389830Y173995D01*
X389153Y173604D01*
X388601Y173052D01*
X388210Y172375D01*
X388037Y171729D01*
X390476D01*
Y174168D01*
D02*
G37*
G36*
X405609Y173697D02*
X404627D01*
X403720Y173321D01*
X403025Y172627D01*
X402650Y171720D01*
Y170738D01*
X403025Y169831D01*
X403720Y169136D01*
X404627Y168760D01*
X405609D01*
X406516Y169136D01*
X407211Y169831D01*
X407587Y170738D01*
Y171720D01*
X407211Y172627D01*
X406516Y173321D01*
X405609Y173697D01*
D02*
G37*
G36*
X405609Y159555D02*
X404627D01*
X403720Y159179D01*
X403025Y158485D01*
X402650Y157578D01*
Y156596D01*
X403025Y155688D01*
X403720Y154994D01*
X404627Y154618D01*
X405609D01*
X406516Y154994D01*
X407211Y155688D01*
X407587Y156596D01*
Y157578D01*
X407211Y158485D01*
X406516Y159179D01*
X405609Y159555D01*
D02*
G37*
G36*
X393915Y170729D02*
X390976D01*
X388037D01*
X388210Y170083D01*
X388601Y169406D01*
X389153Y168853D01*
X389702Y168537D01*
Y164536D01*
Y146161D01*
X389280Y145972D01*
X385524D01*
Y139854D01*
X386521D01*
Y136696D01*
X385788D01*
Y132771D01*
X362992D01*
X362504Y132674D01*
X362091Y132397D01*
X321540Y91846D01*
X321264Y91433D01*
X321166Y90945D01*
Y79675D01*
X320866D01*
X320483Y79517D01*
X320483Y79517D01*
X317728Y76761D01*
X317569Y76378D01*
X317569Y76378D01*
Y73622D01*
X317728Y73239D01*
X317728Y73239D01*
X318311Y72656D01*
X318239Y72128D01*
X318216Y72076D01*
X318121Y72036D01*
Y72036D01*
X316940Y70855D01*
X316782Y70472D01*
X316782Y70472D01*
Y68110D01*
X316940Y67728D01*
X316940Y67728D01*
X318121Y66546D01*
X318504Y66388D01*
X318666Y65888D01*
X317728Y64950D01*
X317569Y64567D01*
X317569Y64567D01*
Y62205D01*
X317569Y62205D01*
X317727Y61822D01*
X317728Y61822D01*
X318909Y60641D01*
X319291Y60482D01*
X319370Y60392D01*
X319322Y59752D01*
X319022Y59522D01*
X318563Y58924D01*
X318274Y58227D01*
X318176Y57480D01*
X318274Y56733D01*
X318563Y56037D01*
X319022Y55439D01*
X319619Y54980D01*
X320059Y54798D01*
Y54257D01*
X319619Y54075D01*
X319022Y53616D01*
X318563Y53018D01*
X318274Y52322D01*
X318176Y51575D01*
X318274Y50828D01*
X318563Y50131D01*
X319022Y49533D01*
X319619Y49075D01*
X320059Y48893D01*
Y48351D01*
X319619Y48169D01*
X319022Y47711D01*
X318563Y47113D01*
X318274Y46417D01*
X318176Y45669D01*
X318274Y44922D01*
X318563Y44226D01*
X319022Y43628D01*
X319619Y43169D01*
X320316Y42881D01*
X321063Y42782D01*
X323031D01*
X323779Y42881D01*
X324475Y43169D01*
X325073Y43628D01*
X325532Y44226D01*
X325820Y44922D01*
X325918Y45669D01*
X325820Y46417D01*
X325532Y47113D01*
X325073Y47711D01*
X324475Y48169D01*
X324036Y48351D01*
Y48893D01*
X324475Y49075D01*
X325073Y49533D01*
X325532Y50131D01*
X325820Y50828D01*
X325918Y51575D01*
X325820Y52322D01*
X325532Y53018D01*
X325073Y53616D01*
X324475Y54075D01*
X324036Y54257D01*
Y54798D01*
X324475Y54980D01*
X325073Y55439D01*
X325532Y56037D01*
X325820Y56733D01*
X325918Y57480D01*
X325820Y58227D01*
X325532Y58924D01*
X325073Y59522D01*
X324779Y59747D01*
X324726Y60391D01*
X324803Y60482D01*
X325186Y60641D01*
X325186Y60641D01*
X326656Y62111D01*
X329528D01*
X330015Y62208D01*
X330429Y62485D01*
X339265Y71321D01*
X363864D01*
X364352Y71418D01*
X364765Y71694D01*
X389090Y96019D01*
X389366Y96433D01*
X389463Y96920D01*
Y114092D01*
X390589D01*
Y118192D01*
X385789D01*
Y114092D01*
X386914D01*
Y97448D01*
X369307Y79841D01*
X368807Y80048D01*
Y80216D01*
X368581Y80762D01*
X368164Y81179D01*
X367657Y81389D01*
X363916Y85130D01*
X364083Y85532D01*
Y86122D01*
X363857Y86668D01*
X363439Y87085D01*
X362894Y87311D01*
X362303D01*
X361758Y87085D01*
X361340Y86668D01*
X361114Y86122D01*
Y85532D01*
X361324Y85025D01*
Y84646D01*
X361421Y84158D01*
X361697Y83745D01*
X365855Y79587D01*
X366065Y79080D01*
X366482Y78663D01*
X367028Y78437D01*
X367196D01*
X367403Y77937D01*
X363336Y73870D01*
X338737D01*
X338249Y73773D01*
X337836Y73497D01*
X329000Y64660D01*
X326262D01*
X325035Y65888D01*
X325197Y66388D01*
X325197Y66388D01*
X325580Y66546D01*
X325580Y66546D01*
X327050Y68017D01*
X329528D01*
X330015Y68114D01*
X330429Y68390D01*
X345783Y83745D01*
X346059Y84158D01*
X346156Y84646D01*
Y103803D01*
X369301Y126947D01*
X384736D01*
Y123122D01*
X390067D01*
Y123922D01*
X391914D01*
X392177Y123531D01*
X392177Y123422D01*
Y119382D01*
X393568D01*
Y118192D01*
X392089D01*
Y114092D01*
X396889D01*
Y118192D01*
X396117D01*
Y119382D01*
X397508D01*
Y123422D01*
X397508Y123531D01*
X397771Y123922D01*
X400394D01*
X400881Y124019D01*
X401295Y124296D01*
X407594Y130595D01*
X407870Y131008D01*
X407967Y131496D01*
Y136129D01*
X407870Y136617D01*
X407594Y137030D01*
X400810Y143815D01*
X400396Y144091D01*
X399909Y144188D01*
X396760D01*
Y145972D01*
X393004D01*
Y141423D01*
X392524Y141211D01*
X392250Y141430D01*
Y160806D01*
X392712Y160997D01*
X408962Y144748D01*
Y109583D01*
X387902Y88523D01*
Y86721D01*
X389704D01*
X411137Y108154D01*
X411414Y108567D01*
X411511Y109055D01*
Y145276D01*
X411414Y145763D01*
X411137Y146177D01*
X392250Y165064D01*
Y168537D01*
X392799Y168853D01*
X393351Y169406D01*
X393742Y170083D01*
X393915Y170729D01*
D02*
G37*
G36*
X386902Y88161D02*
X386278Y87903D01*
X385719Y87344D01*
X385461Y86721D01*
X386902D01*
Y88161D01*
D02*
G37*
G36*
X389342Y85720D02*
X387902D01*
Y84280D01*
X388526Y84538D01*
X389084Y85097D01*
X389342Y85720D01*
D02*
G37*
G36*
X386902D02*
X385461D01*
X385719Y85097D01*
X386278Y84538D01*
X386902Y84280D01*
Y85720D01*
D02*
G37*
G36*
X379429Y54634D02*
X378839D01*
X378293Y54408D01*
X377876Y53990D01*
X377650Y53445D01*
Y53179D01*
X374046Y49576D01*
X373814Y49229D01*
X373733Y48819D01*
Y44729D01*
X373545Y44542D01*
X373319Y43996D01*
Y43406D01*
X373545Y42860D01*
X373962Y42443D01*
X374508Y42217D01*
X375098D01*
X375644Y42443D01*
X376061Y42860D01*
X376287Y43406D01*
Y43996D01*
X376061Y44542D01*
X375874Y44729D01*
Y48375D01*
X379164Y51665D01*
X379429D01*
X379975Y51891D01*
X380392Y52309D01*
X380618Y52854D01*
Y53445D01*
X380392Y53990D01*
X379975Y54408D01*
X379429Y54634D01*
D02*
G37*
G36*
X373524Y78650D02*
X372933D01*
X372388Y78424D01*
X371970Y78006D01*
X371760Y77500D01*
X352470Y58209D01*
X349061D01*
X348573Y58112D01*
X348159Y57836D01*
X328406Y38082D01*
X327899Y37872D01*
X327482Y37455D01*
X327256Y36909D01*
Y36319D01*
X327482Y35773D01*
X327899Y35356D01*
X328445Y35130D01*
X329035D01*
X329581Y35356D01*
X329998Y35773D01*
X330208Y36280D01*
X349588Y55660D01*
X352998D01*
X353485Y55757D01*
X353899Y56033D01*
X373563Y75697D01*
X374069Y75907D01*
X374487Y76325D01*
X374713Y76870D01*
Y77461D01*
X374487Y78006D01*
X374069Y78424D01*
X373524Y78650D01*
D02*
G37*
%LPD*%
G36*
X389798Y140344D02*
X390075Y139930D01*
X392326Y137680D01*
X392739Y137403D01*
X393227Y137306D01*
X397112D01*
X399513Y134905D01*
Y132851D01*
X398408Y131746D01*
X398008Y131512D01*
Y131512D01*
X398008Y131512D01*
X395342D01*
Y128937D01*
X394342D01*
Y131512D01*
X393460D01*
X393269Y131974D01*
X393891Y132596D01*
X396888D01*
Y136696D01*
X392088D01*
Y134398D01*
X391050Y133360D01*
X390588Y133551D01*
Y136696D01*
X389070D01*
Y139854D01*
X389280D01*
Y140390D01*
X389779Y140439D01*
X389798Y140344D01*
D02*
G37*
G36*
X326378Y77165D02*
Y74016D01*
X325197Y72835D01*
X318898D01*
X318110Y73622D01*
Y76378D01*
X320866Y79134D01*
Y79134D01*
X324410D01*
X326378Y77165D01*
D02*
G37*
G36*
X327165Y69685D02*
X327165Y68898D01*
X325197Y66929D01*
X318504D01*
X317323Y68110D01*
Y70472D01*
X318504Y71653D01*
X325197D01*
X327165Y69685D01*
D02*
G37*
G36*
X326772Y63386D02*
Y62992D01*
X324803Y61024D01*
X319291D01*
X318110Y62205D01*
Y64567D01*
X319291Y65748D01*
X324410D01*
X326772Y63386D01*
D02*
G37*
D11*
X254154Y260703D02*
G03*
X254331Y260275I605J0D01*
G01*
X257874Y265354D02*
G03*
X259521Y261384I5607J-0D01*
G01*
X257874Y271490D02*
G03*
X256299Y273059I-1575J-6D01*
G01*
X67579Y26772D02*
G03*
X70079Y29272I-0J2500D01*
G01*
X47811Y27166D02*
G03*
X49159Y26772I1348J2105D01*
G01*
X42913Y31680D02*
G03*
X44065Y29575I2500J0D01*
G01*
X51181Y35502D02*
G03*
X50394Y37402I-2687J0D01*
G01*
X254154Y260703D02*
Y265579D01*
X259521Y261384D02*
X260631Y260275D01*
X257874Y265354D02*
X257874Y271490D01*
X254154Y273059D02*
X256299D01*
X259521Y261384D02*
X259521Y261384D01*
X134646Y94095D02*
X134646D01*
X168602Y162303D02*
X193307Y187008D01*
X213713D01*
X75590Y159769D02*
X84325D01*
X86752Y157343D01*
Y153372D02*
Y157343D01*
X214173Y51181D02*
Y58760D01*
X223622Y186221D02*
Y191554D01*
X42913Y31680D02*
Y40157D01*
X47807Y27169D02*
X47811Y27166D01*
X44065Y29575D02*
X47807Y27169D01*
X49159Y26772D02*
X67579D01*
X69156Y37739D02*
X72835Y39764D01*
X221850Y184449D02*
X223622Y186221D01*
X216272Y184449D02*
X221850D01*
X213713Y187008D02*
X216272Y184449D01*
X66904Y37739D02*
X69156D01*
X70079Y29272D02*
Y36817D01*
X69156Y37739D02*
X70079Y36817D01*
X66142Y38502D02*
Y38582D01*
Y38502D02*
X66904Y37739D01*
X51181Y30315D02*
Y35502D01*
D13*
X291350Y114466D02*
G03*
X290982Y115296I-1181J-27D01*
G01*
X303543Y151628D02*
G03*
X303064Y152915I-1969J0D01*
G01*
X299014Y157588D02*
G03*
X297526Y158268I-1488J-1289D01*
G01*
X291150Y97676D02*
G03*
X291717Y98707I-614J1009D01*
G01*
X291149Y97675D02*
G03*
X291150Y97676I-613J1009D01*
G01*
X284297Y93707D02*
G03*
X284939Y93880I26J1181D01*
G01*
X290979Y115299D02*
X290982Y115296D01*
X289664Y116535D02*
X292126Y122441D01*
X271423Y142126D02*
X279752D01*
X303062Y152917D02*
X303064Y152915D01*
X303543Y142520D02*
Y151628D01*
X297526Y158268D02*
X297526D01*
X288976D02*
X297526D01*
X297526Y158268D02*
Y158268D01*
X299014Y157588D02*
X303062Y152917D01*
X134646Y94095D02*
X143096Y103435D01*
X113779Y94095D02*
X134646D01*
X134646D02*
X134646D01*
X97809Y153372D02*
X98839Y152342D01*
X86752Y153372D02*
X97809D01*
X98839Y152342D02*
X101772D01*
X62008Y159843D02*
X75590D01*
X160630Y104724D02*
X173228D01*
X144383D02*
X160630D01*
X143150Y103492D02*
X144383Y104724D01*
X143096Y103435D02*
X143150Y103492D01*
X291716Y98712D02*
X291717Y98707D01*
X291149Y97675D02*
X291150Y97676D01*
X284939Y93880D02*
X291149Y97675D01*
X262609Y94094D02*
X284297Y93707D01*
X285827Y180709D02*
X288976Y177559D01*
X280315Y180709D02*
X285827D01*
X288976Y158268D02*
Y177559D01*
X279752Y149043D02*
X288976Y158268D01*
X279752Y142126D02*
Y149043D01*
X291350Y114466D02*
X291716Y98712D01*
X289664Y116535D02*
X290979Y115299D01*
X286614Y116535D02*
X289664D01*
D14*
X217194Y133003D02*
G03*
X216929Y132258I917J-745D01*
G01*
X221780Y138648D02*
G03*
X222047Y139396I-914J748D01*
G01*
X271423Y142126D02*
G03*
X270472Y141732I0J-1344D01*
G01*
X262604Y94094D02*
G03*
X262588Y94095I-17J-1181D01*
G01*
X120771Y147638D02*
G03*
X121606Y147984I0J1181D01*
G01*
X76820Y147984D02*
G03*
X77654Y147638I835J836D01*
G01*
X216929Y125985D02*
Y132258D01*
X217194Y133003D02*
X221780Y138648D01*
X222047Y139396D02*
Y153543D01*
X222047Y139396D02*
X222047Y139396D01*
X258465Y144604D02*
Y150984D01*
Y144604D02*
X261132Y142721D01*
X261766Y142520D02*
X269685D01*
X261132Y142721D02*
X261417Y142520D01*
X261766Y142520D01*
X269685D02*
X270472Y141732D01*
X60039Y161812D02*
Y162992D01*
Y161812D02*
X62008Y159843D01*
X262604Y94094D02*
X262609Y94094D01*
X262205Y94095D02*
X262588Y94095D01*
X217913Y42913D02*
Y45079D01*
X219291Y48295D02*
X224410Y53413D01*
X219291Y46457D02*
Y48295D01*
X217717Y42717D02*
X217913Y42913D01*
Y45079D02*
X219291Y46457D01*
X224410Y53413D02*
Y57480D01*
X76819Y147984D02*
X76820Y147984D01*
X77654Y147638D02*
X120771D01*
X75590Y149213D02*
Y153543D01*
Y149213D02*
X76819Y147984D01*
X121606D02*
X123031Y149409D01*
Y152342D01*
D18*
X246657Y136275D02*
G03*
X246942Y135593I1000J17D01*
G01*
X246503Y144146D02*
G03*
X246504Y144011I4284J-51D01*
G01*
X273818Y160827D02*
G03*
X274015Y161024I0J197D01*
G01*
X238189Y130709D02*
G03*
X238583Y131659I-950J950D01*
G01*
X226772Y260236D02*
G03*
X227736Y261200I0J964D01*
G01*
X211393Y178581D02*
Y181126D01*
X279134Y156299D02*
X280315Y157480D01*
Y157973D02*
X280315Y157974D01*
X275590Y156299D02*
X279134D01*
X280315Y157480D02*
Y157973D01*
X280315Y157974D02*
Y161024D01*
X246942Y135593D02*
X246946Y135588D01*
X246504Y144011D02*
X246657Y136275D01*
X246503Y144146D02*
X246563Y149122D01*
X246654Y150984D01*
X246946Y135588D02*
X248425Y134109D01*
X205119Y183071D02*
X209449D01*
X211393Y181126D01*
X68404Y149607D02*
X73523Y144488D01*
X126772D01*
X65354Y149607D02*
X68404D01*
X264370Y160827D02*
X273818D01*
X248425Y130709D02*
Y134109D01*
X243307D02*
X244685Y135487D01*
X243307Y130709D02*
Y134109D01*
X244685Y135487D02*
Y150984D01*
X238583Y131659D02*
Y139764D01*
X240748Y141929D01*
Y150984D01*
X233071Y141413D02*
X238779Y147122D01*
Y150984D01*
X233071Y130709D02*
Y141413D01*
X211881Y179068D02*
X216861D01*
X227043Y170669D01*
X230906D01*
X226772Y254724D02*
Y260236D01*
X227736Y261200D02*
Y265551D01*
D95*
X155315Y36220D02*
D03*
X13780Y205118D02*
D03*
D103*
X394489Y116142D02*
G03*
X394843Y116996I-855J855D01*
G01*
X387795Y135594D02*
G03*
X388188Y134646I1342J0D01*
G01*
X362598Y84646D02*
X367323Y79921D01*
X362598Y84646D02*
Y85827D01*
X338737Y72595D02*
X363864D01*
X388189Y96920D02*
Y116142D01*
X363864Y72595D02*
X388189Y96920D01*
X352998Y56935D02*
X373228Y77165D01*
X328740Y36614D02*
X349061Y56935D01*
X352998D01*
X390976Y140832D02*
Y164536D01*
X410236Y145276D01*
X390976Y164536D02*
Y171229D01*
X410236Y109055D02*
Y145276D01*
X387402Y86221D02*
X410236Y109055D01*
X406693Y131496D02*
Y136129D01*
X400394Y125197D02*
X406693Y131496D01*
X399909Y142913D02*
X406693Y136129D01*
X397640Y138581D02*
X400787Y135433D01*
X397402Y128937D02*
X400787Y132323D01*
Y135433D01*
X394843Y128937D02*
X397402D01*
X393227Y138581D02*
X397640D01*
X390976Y140832D02*
X393227Y138581D01*
X394992Y142913D02*
X399909D01*
X387402Y125197D02*
X400394D01*
X329528Y63386D02*
X338737Y72595D01*
X322047Y63386D02*
X329528D01*
X394127Y128222D02*
X394843Y128937D01*
X368773Y128222D02*
X394127D01*
X344882Y84646D02*
Y104331D01*
X368773Y128222D01*
X329528Y69291D02*
X344882Y84646D01*
X322047Y69291D02*
X329528D01*
X390989Y131496D02*
X394138Y134646D01*
X322441Y90945D02*
X362992Y131496D01*
X390989D01*
X322047Y75197D02*
X322441Y75590D01*
Y90945D01*
X394138Y134646D02*
X394488D01*
X394843Y116996D02*
Y121457D01*
X387795Y135594D02*
Y140551D01*
X105512Y51136D02*
Y61024D01*
X116779Y51031D02*
X117323Y51575D01*
X102801Y48425D02*
X105512Y51136D01*
X57874Y37402D02*
Y43701D01*
X62598Y48425D01*
X102801D01*
X210433Y49039D02*
Y58760D01*
Y49039D02*
X212598Y46874D01*
X217913Y58760D02*
Y68012D01*
X215158Y47047D02*
X217913Y49803D01*
X210433Y58760D02*
Y68012D01*
X212598Y42717D02*
Y46874D01*
X215158Y42717D02*
Y47047D01*
X217913Y49803D02*
Y58760D01*
D104*
X226534Y166716D02*
G03*
X227026Y166853I-41J1099D01*
G01*
X291342Y81496D02*
G03*
X292035Y81742I0J1100D01*
G01*
X297620Y86280D02*
G03*
X298026Y87141I-694J854D01*
G01*
X297643Y125111D02*
G03*
X297284Y125912I-1100J-11D01*
G01*
X293633Y129231D02*
G03*
X292870Y129517I-740J-814D01*
G01*
X261197Y128836D02*
G03*
X261663Y128746I436J1010D01*
G01*
X252187Y132923D02*
G03*
X252640Y132556I894J642D01*
G01*
X248430Y138546D02*
G03*
X248638Y137891I1100J-11D01*
G01*
X292547Y77165D02*
G03*
X293207Y77385I0J1100D01*
G01*
X301911Y83913D02*
G03*
X302352Y84811I-659J881D01*
G01*
X301583Y126722D02*
G03*
X301264Y127476I-1100J-20D01*
G01*
X295997Y132743D02*
G03*
X295211Y133065I-778J-778D01*
G01*
X262662Y133038D02*
G03*
X263488Y132683I810J745D01*
G01*
X283932Y64579D02*
G03*
X284524Y64724I45J1099D01*
G01*
X304334Y129097D02*
G03*
X304039Y129838I-1100J-8D01*
G01*
X304169Y76058D02*
G03*
X304720Y77014I-550J953D01*
G01*
X298757Y135473D02*
G03*
X297945Y135821I-802J-752D01*
G01*
X267032Y135643D02*
G03*
X267683Y135438I641J894D01*
G01*
X238189Y111513D02*
G03*
X238552Y110697I1100J0D01*
G01*
X217251Y162921D02*
G03*
X216929Y162143I778J-778D01*
G01*
X221301Y166549D02*
G03*
X220558Y166228I35J-1099D01*
G01*
X287142Y99390D02*
G03*
X287402Y99706I-704J845D01*
G01*
X284651Y97634D02*
G03*
X285342Y97890I-14J1100D01*
G01*
X245380Y97451D02*
G03*
X246029Y97248I637J897D01*
G01*
X243200Y99008D02*
G03*
X242561Y99213I-639J-895D01*
G01*
X261000Y207815D02*
G03*
X260638Y206985I738J-816D01*
G01*
X262458Y219685D02*
G03*
X261498Y219122I0J-1100D01*
G01*
X258439Y213617D02*
G03*
X258303Y213087I964J-530D01*
G01*
X256814Y226106D02*
G03*
X256496Y225337I782J-774D01*
G01*
X260845Y229685D02*
G03*
X260074Y229365I5J-1100D01*
G01*
X274029Y102756D02*
G03*
X273031Y102342I0J-1411D01*
G01*
X241828Y107748D02*
G03*
X242527Y107470I732J821D01*
G01*
X203878Y119685D02*
G03*
X203346Y119153I0J-532D01*
G01*
X216929Y113386D02*
G03*
X216161Y114154I-768J0D01*
G01*
X182087Y124153D02*
G03*
X181469Y124409I-618J-618D01*
G01*
X181089Y128740D02*
G03*
X182087Y129154I0J1411D01*
G01*
X216847Y146776D02*
G03*
X216929Y146974I-199J199D01*
G01*
X374803Y48819D02*
X379134Y53150D01*
X374803Y43701D02*
Y48819D01*
X110236Y54681D02*
X112847Y57292D01*
X146120Y98379D01*
X228713Y166853D02*
X228794Y166773D01*
X227026Y166853D02*
X228713D01*
X230865Y166773D02*
X230906Y166732D01*
X221301Y166549D02*
X226343Y166710D01*
X226534Y166716D01*
X227026Y166853D02*
X227026Y166853D01*
X228794Y166773D02*
X230865D01*
X236811Y149213D02*
Y150984D01*
X235942Y148344D02*
X236811Y149213D01*
X231496Y144095D02*
X235942Y148344D01*
X183465Y133071D02*
X185039Y134646D01*
X56299Y133071D02*
X183465D01*
X53071Y129842D02*
X56299Y133071D01*
X48071Y130748D02*
X53543Y136221D01*
X174016D01*
X177953Y140157D01*
X53071Y121260D02*
Y129842D01*
X48071Y121260D02*
Y130748D01*
X225984Y155862D02*
X227012Y156890D01*
X225984Y137402D02*
Y155862D01*
X227012Y156890D02*
X230906D01*
X219685Y131102D02*
X225984Y137402D01*
X218898Y139764D02*
X219291D01*
X217323Y138189D02*
X218898Y139764D01*
X211024Y138189D02*
X217323D01*
X278346Y81496D02*
X291342D01*
X292035Y81742D02*
X297620Y86280D01*
X298026Y87145D02*
X298026Y87141D01*
X297283Y125913D02*
X297284Y125912D01*
X292866Y129517D02*
X292870Y129517D01*
X261194Y128837D02*
X261197Y128836D01*
X261663Y128746D02*
X292866Y129517D01*
X252640Y132556D02*
X261194Y128837D01*
X252185Y132925D02*
X252187Y132923D01*
X248430Y138546D02*
X248430Y138550D01*
X297643Y125111D02*
X298026Y87145D01*
X293633Y129231D02*
X297283Y125913D01*
X248638Y137891D02*
X252185Y132925D01*
X248430Y138550D02*
X248582Y149172D01*
X248622Y150984D01*
X250591Y138779D02*
Y150984D01*
Y138779D02*
X251969Y137402D01*
X254724D01*
X264173Y77165D02*
X292547D01*
X293207Y77385D02*
X301911Y83913D01*
X302352Y84815D02*
X302352Y84811D01*
X301261Y127479D02*
X301264Y127476D01*
X295206Y133065D02*
X295211Y133065D01*
X262660Y133042D02*
X262662Y133038D01*
X263488Y132683D02*
X295206Y133065D01*
X301583Y126722D02*
X302352Y84815D01*
X295997Y132743D02*
X301261Y127479D01*
X252559Y144108D02*
X262660Y133042D01*
X304036Y129841D02*
X304039Y129838D01*
X254528Y144685D02*
Y150984D01*
Y144685D02*
X267028Y135646D01*
X265158Y65354D02*
X283932Y64579D01*
X267028Y135646D02*
X267032Y135643D01*
X298757Y135473D02*
X304036Y129841D01*
X304334Y129097D02*
X304720Y77019D01*
X264173Y65354D02*
X265158D01*
X284524Y64724D02*
X284527Y64726D01*
X304169Y76058D01*
X304720Y77019D02*
X304720Y77014D01*
X297940Y135821D02*
X297945Y135821D01*
X267683Y135438D02*
X297940Y135821D01*
X139764Y125591D02*
X170646Y115748D01*
X173228D01*
X224185Y192913D02*
X228713D01*
X62992Y30315D02*
X65354Y32677D01*
X57481Y30315D02*
X62992D01*
X228713Y192913D02*
X231075Y190551D01*
X236811Y184449D02*
Y189173D01*
X231075Y190551D02*
X235433D01*
X236811Y189173D01*
X251475Y124409D02*
X252262Y123622D01*
X255906D01*
X248425Y124409D02*
X251475D01*
X252559Y144108D02*
Y144917D01*
X252559Y144917D02*
X252559Y144917D01*
X252559Y144917D02*
Y150984D01*
X238552Y110697D02*
X241825Y107752D01*
X238189Y111513D02*
Y124409D01*
X216929Y162143D02*
X216929Y156200D01*
X217251Y162921D02*
X220558Y166228D01*
X216929Y153150D02*
Y156200D01*
X287402Y99706D02*
Y102756D01*
Y99706D02*
Y99706D01*
X285342Y97890D02*
X287142Y99390D01*
X285342Y97890D02*
X285342D01*
X284647Y97634D02*
X284651Y97634D01*
X245377Y97452D02*
X245380Y97451D01*
X246029Y97248D02*
X284647Y97634D01*
X235827Y99213D02*
X242561Y99213D01*
X243200Y99008D02*
X245377Y97452D01*
X233465Y195276D02*
X240748Y188311D01*
Y184449D02*
Y188311D01*
X233465Y195276D02*
X233694Y195046D01*
X242717Y184449D02*
Y192717D01*
X220472Y214961D02*
X242717Y192717D01*
X243701Y204331D02*
X244685Y203331D01*
Y184449D02*
Y203331D01*
X220472Y214961D02*
Y254724D01*
X258661Y179779D02*
X261032Y182149D01*
X258661Y175251D02*
Y179779D01*
X259306Y174606D02*
X264370D01*
X258661Y175251D02*
X259306Y174606D01*
X260638Y206985D02*
X261032Y182149D01*
X261000Y207815D02*
X263067Y209685D01*
X268504D01*
X264370Y178543D02*
X268232D01*
X270966Y180709D02*
X274016D01*
X268232Y178543D02*
X270966Y180709D01*
X258439Y213617D02*
X261498Y219122D01*
X262458Y219685D02*
X268504D01*
X258303Y213080D02*
X258465Y188311D01*
X258303Y213087D02*
X258303Y213080D01*
X256496Y184449D02*
Y225337D01*
X256814Y226106D02*
X260074Y229365D01*
X258465Y184449D02*
Y188311D01*
X260849Y229685D02*
X268504D01*
X260845Y229685D02*
X260849Y229685D01*
X248622Y190071D02*
X251421Y192870D01*
Y198543D01*
X250590Y188311D02*
X254330Y192050D01*
X248622Y184449D02*
Y190071D01*
X250590Y184449D02*
Y188311D01*
X254330Y192050D02*
Y254724D01*
X274029Y102756D02*
X281102D01*
X241825Y107752D02*
X241828Y107748D01*
X242527Y107470D02*
X247319Y107343D01*
X251772D01*
X243307Y119685D02*
Y124409D01*
Y119685D02*
X245669Y117323D01*
Y117323D02*
X245689Y117342D01*
X251772D01*
X245669Y117323D02*
Y117323D01*
X146120Y98379D02*
X211024Y99606D01*
X110236Y54331D02*
Y54681D01*
X219010Y168701D02*
X230906D01*
X248031Y192026D02*
Y199606D01*
X246654Y190648D02*
X248031Y192026D01*
X246654Y184449D02*
Y190648D01*
X203878Y119685D02*
X216929D01*
Y113386D02*
X219979D01*
X203346Y114154D02*
X216161D01*
X219979Y113386D02*
X221260D01*
X219979Y113386D02*
X219979Y113386D01*
Y119685D02*
X226772D01*
X219979Y119685D02*
X219979Y119685D01*
X216929Y119685D02*
X219979D01*
X207705Y162643D02*
X212952D01*
X219010Y168701D01*
X207218Y162156D02*
X207705Y162643D01*
X261595Y269319D02*
X265260D01*
X270449Y272272D01*
X274016D01*
X261595Y269319D02*
Y272394D01*
X256693Y282835D02*
X261595Y272394D01*
X177634Y119153D02*
X182087D01*
X175811Y115748D02*
X177634Y119153D01*
X173228Y115748D02*
X175811D01*
X173622Y124409D02*
X181469D01*
X173622Y128740D02*
X181089D01*
X198819Y157480D02*
X202542D01*
X207218Y162156D01*
X216929Y146974D02*
Y153150D01*
D105*
X99579Y172482D02*
G03*
X100394Y174328I-1685J1846D01*
G01*
X216929Y106736D02*
X226772Y96893D01*
X216929Y106736D02*
Y107086D01*
X205117D02*
X216929D01*
X226772Y92126D02*
Y96893D01*
X161614Y169291D02*
X168602Y162303D01*
X193504Y137402D01*
X194095D01*
X85447Y199789D02*
X92631Y191220D01*
X98929D01*
X85447Y199789D02*
X86445Y200787D01*
X98929Y191220D02*
X100394Y189755D01*
Y174328D02*
Y189755D01*
X93701Y160236D02*
X96595Y157343D01*
X93701Y160236D02*
Y167093D01*
X96595Y157343D02*
X101772D01*
X93701Y167093D02*
X99579Y172482D01*
X100394Y174328D02*
X100394Y174328D01*
X173228Y104724D02*
X194095D01*
X194095Y104724D02*
Y137402D01*
X194095Y104724D02*
X202756D01*
X194095D02*
X194095Y104724D01*
X149213Y167886D02*
X150618Y169291D01*
X161614D01*
X131633Y155375D02*
Y160493D01*
X124784Y167342D02*
X131633Y160493D01*
Y155375D02*
X136221Y150787D01*
X123031Y167342D02*
X125000D01*
X202756Y104724D02*
X205117Y107086D01*
X226772Y92126D02*
X227953Y90945D01*
X227953D01*
X213879Y125985D02*
X216929D01*
X207799Y129154D02*
X213879Y125985D01*
X203346Y129154D02*
X207799D01*
X268504Y189620D02*
X274016Y184109D01*
X268504Y189620D02*
Y199685D01*
X274016Y180709D02*
Y184109D01*
X278052Y116536D02*
X281102D01*
X274016Y180709D02*
X280315D01*
X203150Y129350D02*
Y135602D01*
X200100D02*
Y136243D01*
X198941Y137402D02*
X200100Y136243D01*
Y135602D02*
X203150D01*
X194095Y137402D02*
X198941D01*
X36220Y40157D02*
X36221Y40157D01*
X42913D01*
X277484Y117104D02*
X278052Y116536D01*
X277484Y117104D02*
Y117342D01*
X273031D02*
X277484D01*
X284152Y116536D02*
X284153Y116535D01*
X285039D01*
X281102Y116536D02*
X284152D01*
X125000Y167342D02*
X137402Y179744D01*
Y187008D01*
D106*
X224185Y192913D02*
G03*
X223622Y191554I1359J-1359D01*
G01*
X49444Y46457D02*
X51299Y44602D01*
X53894D01*
X54134Y44842D01*
X43071Y46615D02*
Y54331D01*
X42913Y46457D02*
X43071Y46615D01*
X42913Y46457D02*
X49444D01*
X110236Y47681D02*
Y48031D01*
X97441Y43260D02*
X98669Y44488D01*
X106693D01*
X109025Y46820D02*
X109375D01*
X110236Y47681D01*
X106693Y44488D02*
X109025Y46820D01*
X97441Y39961D02*
Y43260D01*
X66142Y44882D02*
X82283D01*
X85630Y41535D01*
Y39961D02*
Y41535D01*
D107*
X198819Y183071D02*
D03*
X205119D02*
D03*
X394488Y134646D02*
D03*
X388188D02*
D03*
X388189Y116142D02*
D03*
X394489D02*
D03*
X287402Y102756D02*
D03*
X281102D02*
D03*
X51181Y30315D02*
D03*
X57481D02*
D03*
X274015Y161024D02*
D03*
X280315D02*
D03*
X243701Y204331D02*
D03*
X237401D02*
D03*
X210629Y153150D02*
D03*
X216929D02*
D03*
X226772Y254724D02*
D03*
X220472D02*
D03*
X226772Y260236D02*
D03*
X220472D02*
D03*
X254331Y260275D02*
D03*
X260631D02*
D03*
X260630Y254724D02*
D03*
X254330D02*
D03*
X87795Y186614D02*
D03*
X94095D02*
D03*
X26772Y26772D02*
D03*
X33072D02*
D03*
X210547Y146776D02*
D03*
X216847D02*
D03*
X192519Y157480D02*
D03*
X198819D02*
D03*
X142126Y140551D02*
D03*
X148426D02*
D03*
D108*
X66142Y44882D02*
D03*
Y38582D02*
D03*
X75590Y159843D02*
D03*
Y153543D02*
D03*
X286614Y110235D02*
D03*
Y116535D02*
D03*
X233071Y124409D02*
D03*
Y130709D02*
D03*
X238189Y124409D02*
D03*
Y130709D02*
D03*
X243307Y124409D02*
D03*
Y130709D02*
D03*
X65354Y143307D02*
D03*
Y149607D02*
D03*
X110236Y48031D02*
D03*
Y54331D02*
D03*
X42913Y40157D02*
D03*
Y46457D02*
D03*
X248425Y130709D02*
D03*
Y124409D02*
D03*
X216929Y107086D02*
D03*
Y113386D02*
D03*
Y125985D02*
D03*
Y119685D02*
D03*
X203150Y135602D02*
D03*
Y141902D02*
D03*
X281102Y110236D02*
D03*
Y116536D02*
D03*
X222047Y159843D02*
D03*
Y153543D02*
D03*
X270472Y148032D02*
D03*
Y141732D02*
D03*
X280315Y174409D02*
D03*
Y180709D02*
D03*
X274016Y174409D02*
D03*
Y180709D02*
D03*
D109*
X77953Y218110D02*
D03*
Y229134D02*
D03*
X173228Y104724D02*
D03*
Y115748D02*
D03*
X224410Y57480D02*
D03*
Y68504D02*
D03*
D110*
X173622Y124409D02*
D03*
Y128740D02*
D03*
D111*
X207218Y162156D02*
D03*
X217518Y172457D02*
D03*
X201093Y168281D02*
D03*
X211393Y178581D02*
D03*
D112*
X182087Y129154D02*
D03*
X203346Y129154D02*
D03*
Y114154D02*
D03*
Y119153D02*
D03*
Y124153D02*
D03*
X182087Y114154D02*
D03*
Y119153D02*
D03*
Y124153D02*
D03*
X251772Y112343D02*
D03*
Y107343D02*
D03*
Y102342D02*
D03*
X273031Y112343D02*
D03*
Y107343D02*
D03*
Y102342D02*
D03*
Y117342D02*
D03*
X251772Y117342D02*
D03*
X123031Y157343D02*
D03*
Y162343D02*
D03*
Y167342D02*
D03*
X101772Y157343D02*
D03*
Y162343D02*
D03*
Y167342D02*
D03*
Y152342D02*
D03*
X123031Y152342D02*
D03*
D113*
X33071Y54331D02*
D03*
X38071D02*
D03*
X43071D02*
D03*
X48071D02*
D03*
X53071D02*
D03*
X58071D02*
D03*
X63071D02*
D03*
X68071D02*
D03*
X73071D02*
D03*
X78071D02*
D03*
X83071D02*
D03*
X88071D02*
D03*
X93071D02*
D03*
X98071D02*
D03*
Y121260D02*
D03*
X93071D02*
D03*
X88071D02*
D03*
X83071D02*
D03*
X78071D02*
D03*
X73071D02*
D03*
X68071D02*
D03*
X63071D02*
D03*
X58071D02*
D03*
X53071D02*
D03*
X48071D02*
D03*
X43071D02*
D03*
X38071D02*
D03*
X33071D02*
D03*
D114*
X102008Y65295D02*
D03*
Y70295D02*
D03*
Y75295D02*
D03*
Y80295D02*
D03*
Y85295D02*
D03*
Y90295D02*
D03*
Y95295D02*
D03*
Y100295D02*
D03*
Y105295D02*
D03*
Y110295D02*
D03*
D115*
X55374Y76634D02*
D03*
Y83858D02*
D03*
Y91083D02*
D03*
X62598Y76634D02*
D03*
Y83858D02*
D03*
Y91083D02*
D03*
X69823Y76634D02*
D03*
Y83858D02*
D03*
Y91083D02*
D03*
D116*
X217913Y68012D02*
D03*
X214173D02*
D03*
X210433D02*
D03*
Y58760D02*
D03*
X214173D02*
D03*
X217913D02*
D03*
D117*
X230906Y178543D02*
D03*
Y158858D02*
D03*
Y160827D02*
D03*
Y162795D02*
D03*
Y164764D02*
D03*
Y166732D02*
D03*
Y168701D02*
D03*
Y170669D02*
D03*
Y172638D02*
D03*
Y174606D02*
D03*
Y176575D02*
D03*
Y156890D02*
D03*
X264370D02*
D03*
Y158858D02*
D03*
Y160827D02*
D03*
Y162795D02*
D03*
Y164764D02*
D03*
Y166732D02*
D03*
Y168701D02*
D03*
Y170669D02*
D03*
Y172638D02*
D03*
Y174606D02*
D03*
Y176575D02*
D03*
Y178543D02*
D03*
D118*
X236811Y150984D02*
D03*
X256496D02*
D03*
X254528D02*
D03*
X252559D02*
D03*
X250591D02*
D03*
X248622D02*
D03*
X246654D02*
D03*
X244685D02*
D03*
X242717D02*
D03*
X240748D02*
D03*
X238779D02*
D03*
X258465D02*
D03*
X258465Y184449D02*
D03*
X254528D02*
D03*
X252559D02*
D03*
X250590D02*
D03*
X248622D02*
D03*
X246654D02*
D03*
X244685D02*
D03*
X242717D02*
D03*
X240748D02*
D03*
X238779D02*
D03*
X256496D02*
D03*
X236811D02*
D03*
D119*
X176378Y188189D02*
D03*
D120*
X151181Y179528D02*
D03*
Y188189D02*
D03*
Y196850D02*
D03*
D121*
X108858Y28937D02*
D03*
Y37205D02*
D03*
X80118Y28937D02*
D03*
Y37205D02*
D03*
D122*
X103347Y39961D02*
D03*
X97441D02*
D03*
X85630D02*
D03*
D123*
X394843Y128937D02*
D03*
X387402Y125197D02*
D03*
X394843Y121457D02*
D03*
X59232Y143110D02*
D03*
X51791Y146850D02*
D03*
X59232Y150591D02*
D03*
X227736Y265551D02*
D03*
X220295Y269291D02*
D03*
X227736Y273031D02*
D03*
X254154Y273059D02*
D03*
X261595Y269319D02*
D03*
X254154Y265579D02*
D03*
D124*
X50394Y37402D02*
D03*
X54134Y44842D02*
D03*
X57874Y37402D02*
D03*
D125*
X227559Y31496D02*
D03*
X197638D02*
D03*
D126*
X224803Y42234D02*
D03*
X200394D02*
D03*
D127*
X207480Y42717D02*
D03*
X210039D02*
D03*
X212598D02*
D03*
X215158D02*
D03*
X217717D02*
D03*
D128*
X60039Y162992D02*
D03*
X51772D02*
D03*
D129*
X268504Y239685D02*
D03*
Y229685D02*
D03*
Y219685D02*
D03*
Y209685D02*
D03*
Y199685D02*
D03*
D130*
X157874Y86417D02*
D03*
D131*
X180709Y51181D02*
D03*
X129921D02*
D03*
D132*
X28740Y230512D02*
D03*
Y179724D02*
D03*
D133*
X63976Y202559D02*
D03*
D134*
X86221Y230315D02*
D03*
X100394Y230315D02*
D03*
D135*
X394882Y142913D02*
D03*
X387402D02*
D03*
D136*
X274016Y272272D02*
D03*
X285039D02*
D03*
X209842D02*
D03*
X198819D02*
D03*
D137*
X86752Y166266D02*
D03*
Y153372D02*
D03*
D138*
X194095Y146402D02*
D03*
Y137402D02*
D03*
X251969Y81327D02*
D03*
Y90327D02*
D03*
X231496Y81327D02*
D03*
Y90327D02*
D03*
X241732D02*
D03*
Y81327D02*
D03*
X233858Y67098D02*
D03*
Y58098D02*
D03*
X149213Y158886D02*
D03*
Y167886D02*
D03*
X138189Y158886D02*
D03*
Y167886D02*
D03*
D139*
X27220Y44488D02*
D03*
X36220D02*
D03*
X26433Y34252D02*
D03*
X35433D02*
D03*
X224185Y192913D02*
D03*
X215185D02*
D03*
X288752Y142126D02*
D03*
X279752D02*
D03*
X95445Y200787D02*
D03*
X86445D02*
D03*
X95051Y211417D02*
D03*
X86051D02*
D03*
X148425Y148819D02*
D03*
X139425D02*
D03*
D140*
X137402Y187008D02*
D03*
X112205D02*
D03*
D141*
X108661Y209823D02*
D03*
Y230335D02*
D03*
X143307Y209823D02*
D03*
Y230335D02*
D03*
D142*
X93028Y61324D02*
X106856D01*
X112855Y67323D01*
X83486Y70866D02*
X93028Y61324D01*
X69658Y70866D02*
X83486D01*
X112855Y67323D02*
X115748D01*
D143*
X115354Y66929D02*
X115748Y67323D01*
X269906Y176575D02*
X272072Y174409D01*
X264370Y176575D02*
X269906D01*
X272072Y174409D02*
X274016D01*
X222047Y160193D02*
X226618Y164764D01*
X230906D01*
X222047Y159843D02*
Y160193D01*
X224697Y159127D02*
X228175Y162605D01*
X230715D01*
X224697Y157406D02*
Y159127D01*
X230715Y162605D02*
X230906Y162795D01*
X223197Y155906D02*
X224697Y157406D01*
X222047Y153543D02*
X223197Y154693D01*
Y155906D01*
X244773Y112343D02*
X251772D01*
X242913Y113779D02*
X243336D01*
X244773Y112343D01*
X233071Y124409D02*
X233104Y124376D01*
Y115461D02*
Y124376D01*
D144*
X51772Y167126D02*
X71260Y186614D01*
X87795D01*
X50313Y160236D02*
X51772Y161695D01*
X14567Y160236D02*
X50313D01*
X51772Y161695D02*
Y167126D01*
X51181Y146850D02*
X51181Y146850D01*
X51791D01*
X224410Y68504D02*
Y74803D01*
Y68504D02*
X227606D01*
X229012Y67098D01*
X233858D01*
D145*
X213649Y272272D02*
X216630Y269291D01*
X220295D01*
X209842Y272272D02*
X213649D01*
X223521Y271927D02*
Y276513D01*
X229921Y282913D01*
X220886Y269291D02*
X223521Y271927D01*
X220295Y269291D02*
X220886D01*
D146*
X61417Y143307D02*
X65354D01*
X28486Y146317D02*
X29020Y146850D01*
X51181D02*
X51181Y146850D01*
X29020Y146850D02*
X51181D01*
D147*
X150394Y209842D02*
X158268Y217717D01*
X159449D01*
X149606Y255118D02*
X159449Y245276D01*
Y217717D02*
Y245276D01*
X139370Y255118D02*
X149606D01*
X111811D02*
X136614Y230315D01*
X99213Y255118D02*
X111811D01*
X159055Y333858D02*
Y346850D01*
X183465Y371260D01*
X57087Y357087D02*
X80315Y333858D01*
X24409Y357087D02*
X57087D01*
X24409Y377087D02*
X59528D01*
X65354Y371260D01*
D148*
X150374Y209823D02*
X150394Y209842D01*
X143307Y209823D02*
X150374D01*
X136614Y230315D02*
X136634Y230335D01*
X143307D01*
D149*
X281811Y357402D02*
Y369291D01*
X274016Y349606D02*
X281811Y357402D01*
X274016Y339921D02*
Y349606D01*
X257008Y322913D02*
X274016Y339921D01*
X199921Y322913D02*
X216929Y339921D01*
Y349606D01*
X224724Y357402D01*
Y369291D01*
D150*
X55374Y80246D02*
D03*
Y87471D02*
D03*
X58986Y76634D02*
D03*
Y83858D02*
D03*
Y91083D02*
D03*
X62598Y80246D02*
D03*
Y87471D02*
D03*
X66211Y76634D02*
D03*
Y83858D02*
D03*
Y91083D02*
D03*
X69823Y80246D02*
D03*
Y87471D02*
D03*
D151*
X99213Y255118D02*
D03*
X139370D02*
D03*
X80315Y333858D02*
D03*
X159055D02*
D03*
X65354Y371260D02*
D03*
X183465D02*
D03*
X125984Y109843D02*
D03*
X137275Y125968D02*
D03*
X16142Y320079D02*
D03*
X35827D02*
D03*
X17323Y272047D02*
D03*
X37008D02*
D03*
X14567Y160236D02*
D03*
X28486Y146317D02*
D03*
D152*
X100394Y33071D02*
D03*
X88583D02*
D03*
D153*
X390976Y171229D02*
D03*
X405118D02*
D03*
X405118Y157087D02*
D03*
D154*
X286693Y342835D02*
D03*
Y282835D02*
D03*
X256693Y352835D02*
D03*
Y322835D02*
D03*
Y282835D02*
D03*
X229921Y342913D02*
D03*
Y282913D02*
D03*
X199921Y352913D02*
D03*
Y322913D02*
D03*
Y282913D02*
D03*
D155*
X264173Y59449D02*
D03*
Y65354D02*
D03*
Y71260D02*
D03*
Y77165D02*
D03*
Y83071D02*
D03*
Y88976D02*
D03*
X322047Y75197D02*
D03*
Y69291D02*
D03*
Y63386D02*
D03*
Y57480D02*
D03*
Y51575D02*
D03*
Y45669D02*
D03*
D156*
X204724Y369291D02*
D03*
X224724D02*
D03*
X261811D02*
D03*
X281811D02*
D03*
X24409Y377087D02*
D03*
Y357087D02*
D03*
D157*
X155315Y53937D02*
D03*
X44094Y186221D02*
D03*
D158*
X174213Y66535D02*
D03*
X31496Y205118D02*
D03*
D159*
X150984Y78740D02*
D03*
D160*
X56299Y209449D02*
D03*
D161*
X226378Y104724D02*
D03*
X232283Y91732D02*
D03*
X137008Y148819D02*
D03*
X145669Y196457D02*
D03*
X256693Y91732D02*
D03*
X34646Y28346D02*
D03*
X35433Y34252D02*
D03*
Y41732D02*
D03*
X148819Y165748D02*
D03*
X144095Y166535D02*
D03*
X151575Y174016D02*
D03*
X143701Y170472D02*
D03*
X242126Y91339D02*
D03*
X77165Y197638D02*
D03*
Y216142D02*
D03*
Y203937D02*
D03*
X76772Y210236D02*
D03*
X121260Y194866D02*
D03*
X14173Y301969D02*
D03*
X246063Y254724D02*
D03*
X234252Y237008D02*
D03*
X212205Y253543D02*
D03*
X211417Y263779D02*
D03*
X112598Y152362D02*
D03*
X111024Y162992D02*
D03*
X112598Y174016D02*
D03*
X106693Y183858D02*
D03*
X120079Y201969D02*
D03*
X103937Y202756D02*
D03*
X104724Y196850D02*
D03*
X65748Y188583D02*
D03*
X60630Y184252D02*
D03*
X52756Y175984D02*
D03*
X95276Y177165D02*
D03*
X87008Y172835D02*
D03*
X73622Y168898D02*
D03*
X69685Y154724D02*
D03*
X46243Y151962D02*
D03*
X252756Y57087D02*
D03*
X243307Y55905D02*
D03*
X231496Y73622D02*
D03*
X242520Y73228D02*
D03*
X251969Y72441D02*
D03*
X261811Y117717D02*
D03*
X259449Y111811D02*
D03*
X260630Y105118D02*
D03*
X232283D02*
D03*
X231496Y109449D02*
D03*
X228346Y111811D02*
D03*
X192520Y162992D02*
D03*
X180709Y161024D02*
D03*
X188189Y167717D02*
D03*
X193307Y173622D02*
D03*
X202362Y150787D02*
D03*
X213779Y142126D02*
D03*
X208661Y142520D02*
D03*
X263568Y149659D02*
D03*
X292126Y150787D02*
D03*
X185433Y192913D02*
D03*
Y191732D02*
D03*
X205512Y193701D02*
D03*
X165748Y195669D02*
D03*
X165354Y186221D02*
D03*
X166142Y180315D02*
D03*
X159055Y144095D02*
D03*
X158268Y153150D02*
D03*
X157874Y160236D02*
D03*
X247638Y166535D02*
D03*
X256693Y161417D02*
D03*
X255512Y168898D02*
D03*
X249606Y159055D02*
D03*
X239370D02*
D03*
X240158Y166142D02*
D03*
X250787Y174803D02*
D03*
X238976Y174016D02*
D03*
X296063Y173622D02*
D03*
X289370Y188976D02*
D03*
X292913Y264173D02*
D03*
X279921Y195276D02*
D03*
X280709Y210236D02*
D03*
Y222047D02*
D03*
X269291Y250394D02*
D03*
X278740Y264173D02*
D03*
X280709Y229528D02*
D03*
X279921Y238976D02*
D03*
X280709Y248819D02*
D03*
X211024Y168504D02*
D03*
X65354Y32677D02*
D03*
X72835Y39764D02*
D03*
X242913Y113779D02*
D03*
X233104Y115461D02*
D03*
X235827Y99213D02*
D03*
X233465Y195276D02*
D03*
X251421Y198543D02*
D03*
X211024Y99606D02*
D03*
X248031Y199606D02*
D03*
X221260Y113386D02*
D03*
X226772Y119685D02*
D03*
X275590Y156299D02*
D03*
X126772Y144488D02*
D03*
X134646Y188583D02*
D03*
X141339Y143307D02*
D03*
X224410Y74803D02*
D03*
D162*
X362598Y85827D02*
D03*
X367323Y79921D02*
D03*
X373228Y77165D02*
D03*
X328740Y36614D02*
D03*
X387402Y86221D02*
D03*
X379134Y53150D02*
D03*
X374803Y43701D02*
D03*
X292126Y122441D02*
D03*
X303543Y142520D02*
D03*
X231496Y144095D02*
D03*
X177953Y140157D02*
D03*
X219685Y131102D02*
D03*
X219291Y139764D02*
D03*
X211024Y138189D02*
D03*
X185039Y134646D02*
D03*
X278346Y81496D02*
D03*
X87795Y180315D02*
D03*
X160630Y104724D02*
D03*
X214173Y51181D02*
D03*
X113779Y94095D02*
D03*
X255906Y123622D02*
D03*
X254724Y137402D02*
D03*
M02*
