G04*
G04 #@! TF.GenerationSoftware,Altium Limited,Altium Designer,22.8.2 (66)*
G04*
G04 Layer_Physical_Order=2*
G04 Layer_Color=32768*
%FSLAX25Y25*%
%MOIN*%
G70*
G04*
G04 #@! TF.SameCoordinates,CEF463C0-22AA-4E03-8404-DDFA2DAA14BC*
G04*
G04*
G04 #@! TF.FilePolarity,Negative*
G04*
G01*
G75*
%ADD163C,0.03937*%
%ADD164C,0.04000*%
%ADD165R,0.29134X0.74803*%
%ADD166R,3.06693X0.63386*%
%ADD167R,1.33465X1.47638*%
%ADD168C,0.06787*%
%ADD169C,0.09937*%
%ADD170C,0.09543*%
G04:AMPARAMS|DCode=171|XSize=23.685mil|YSize=23.685mil|CornerRadius=0mil|HoleSize=0mil|Usage=FLASHONLY|Rotation=0.000|XOffset=0mil|YOffset=0mil|HoleType=Round|Shape=Relief|Width=1mil|Gap=1mil|Entries=4|*
%AMTHD171*
7,0,0,0.02368,0.02169,0.00100,45*
%
%ADD171THD171*%
%ADD172C,0.07969*%
%ADD173C,0.11118*%
%ADD174C,0.10331*%
%ADD175C,0.09425*%
G04:AMPARAMS|DCode=176|XSize=38.252mil|YSize=38.252mil|CornerRadius=0mil|HoleSize=0mil|Usage=FLASHONLY|Rotation=0.000|XOffset=0mil|YOffset=0mil|HoleType=Round|Shape=Relief|Width=1mil|Gap=1mil|Entries=4|*
%AMTHD176*
7,0,0,0.03825,0.03625,0.00100,45*
%
%ADD176THD176*%
%ADD177C,0.12890*%
%ADD178C,0.14268*%
%AMTHOVALD179*
21,1,0.07874,0.04337,0,0,180.0*
1,1,0.04337,0.03937,0.00000*
1,1,0.04337,-0.03937,0.00000*
21,0,0.07874,0.04137,0,0,180.0*
1,0,0.04137,0.03937,0.00000*
1,0,0.04137,-0.03937,0.00000*
4,0,4,0.03902,0.00035,0.05435,0.01569,0.05506,0.01498,0.03972,-0.00035,0.03902,0.00035,0.0*
4,0,4,-0.03972,0.00035,-0.05506,-0.01498,-0.05435,-0.01569,-0.03902,-0.00035,-0.03972,0.00035,0.0*
4,0,4,0.03972,0.00035,0.05506,-0.01498,0.05435,-0.01569,0.03902,-0.00035,0.03972,0.00035,0.0*
4,0,4,-0.03902,0.00035,-0.05435,0.01569,-0.05506,0.01498,-0.03972,-0.00035,-0.03902,0.00035,0.0*
%
%ADD179THOVALD179*%

%AMTHOVALD180*
21,1,0.07087,0.05124,0,0,270.0*
1,1,0.05124,0.00000,0.03543*
1,1,0.05124,0.00000,-0.03543*
21,0,0.07087,0.04924,0,0,270.0*
1,0,0.04924,0.00000,0.03543*
1,0,0.04924,0.00000,-0.03543*
4,0,4,-0.00035,0.03508,-0.01847,0.05320,-0.01776,0.05390,0.00035,0.03579,-0.00035,0.03508,0.0*
4,0,4,-0.00035,-0.03579,0.01776,-0.05390,0.01847,-0.05320,0.00035,-0.03508,-0.00035,-0.03579,0.0*
4,0,4,-0.00035,0.03579,0.01776,0.05390,0.01847,0.05320,0.00035,0.03508,-0.00035,0.03579,0.0*
4,0,4,-0.00035,-0.03508,-0.01847,-0.05320,-0.01776,-0.05390,0.00035,-0.03579,-0.00035,-0.03508,0.0*
%
%ADD180THOVALD180*%

%ADD181O,0.11906X0.10724*%
%ADD182O,0.10724X0.11906*%
%AMTHOVALD183*
21,1,0.07087,0.05124,0,0,180.0*
1,1,0.05124,0.03543,0.00000*
1,1,0.05124,-0.03543,0.00000*
21,0,0.07087,0.04924,0,0,180.0*
1,0,0.04924,0.03543,0.00000*
1,0,0.04924,-0.03543,0.00000*
4,0,4,0.03508,0.00035,0.05320,0.01847,0.05390,0.01776,0.03579,-0.00035,0.03508,0.00035,0.0*
4,0,4,-0.03579,0.00035,-0.05390,-0.01776,-0.05320,-0.01847,-0.03508,-0.00035,-0.03579,0.00035,0.0*
4,0,4,0.03579,0.00035,0.05390,-0.01776,0.05320,-0.01847,0.03508,-0.00035,0.03579,0.00035,0.0*
4,0,4,-0.03508,0.00035,-0.05320,0.01847,-0.05390,0.01776,-0.03579,-0.00035,-0.03508,0.00035,0.0*
%
%ADD183THOVALD183*%

%AMTHOVALD184*
21,1,0.07874,0.04337,0,0,90.0*
1,1,0.04337,0.00000,-0.03937*
1,1,0.04337,0.00000,0.03937*
21,0,0.07874,0.04137,0,0,90.0*
1,0,0.04137,0.00000,-0.03937*
1,0,0.04137,0.00000,0.03937*
4,0,4,0.00035,-0.03902,0.01569,-0.05435,0.01498,-0.05506,-0.00035,-0.03972,0.00035,-0.03902,0.0*
4,0,4,0.00035,0.03972,-0.01498,0.05506,-0.01569,0.05435,-0.00035,0.03902,0.00035,0.03972,0.0*
4,0,4,0.00035,-0.03972,-0.01498,-0.05506,-0.01569,-0.05435,-0.00035,-0.03902,0.00035,-0.03972,0.0*
4,0,4,0.00035,0.03902,0.01569,0.05435,0.01498,0.05506,-0.00035,0.03972,0.00035,0.03902,0.0*
%
%ADD184THOVALD184*%

G04:AMPARAMS|DCode=185|XSize=43.37mil|YSize=43.37mil|CornerRadius=0mil|HoleSize=0mil|Usage=FLASHONLY|Rotation=0.000|XOffset=0mil|YOffset=0mil|HoleType=Round|Shape=Relief|Width=1mil|Gap=1mil|Entries=4|*
%AMTHD185*
7,0,0,0.04337,0.04137,0.00100,45*
%
%ADD185THD185*%
%ADD186C,0.09150*%
G04:AMPARAMS|DCode=187|XSize=17.779mil|YSize=17.779mil|CornerRadius=0mil|HoleSize=0mil|Usage=FLASHONLY|Rotation=0.000|XOffset=0mil|YOffset=0mil|HoleType=Round|Shape=Relief|Width=1mil|Gap=1mil|Entries=4|*
%AMTHD187*
7,0,0,0.01778,0.01578,0.00100,45*
%
%ADD187THD187*%
%ADD188C,0.07378*%
%ADD189C,0.07181*%
G04:AMPARAMS|DCode=190|XSize=15.811mil|YSize=15.811mil|CornerRadius=0mil|HoleSize=0mil|Usage=FLASHONLY|Rotation=0.000|XOffset=0mil|YOffset=0mil|HoleType=Round|Shape=Relief|Width=1mil|Gap=1mil|Entries=4|*
%AMTHD190*
7,0,0,0.01581,0.01381,0.00100,45*
%
%ADD190THD190*%
D163*
X309055Y393307D02*
X309842Y189764D01*
X311811Y23228D02*
X312205Y188189D01*
X309449Y24016D02*
X309842Y190551D01*
D164*
X-198Y393701D02*
X0Y23424D01*
X-198Y393701D02*
X0Y393899D01*
X311024D01*
X311222Y393701D01*
Y189175D02*
Y393701D01*
Y189175D02*
X421260D01*
X421458Y188974D01*
X421458Y31496D01*
Y23622D02*
Y31496D01*
X421260Y23424D02*
X421458Y23622D01*
X0Y23424D02*
X421260D01*
D165*
X16535Y88189D02*
D03*
D166*
X156102Y359252D02*
D03*
D03*
D167*
X119095Y312795D02*
D03*
D03*
D168*
X55374Y80246D02*
D03*
Y87471D02*
D03*
X58986Y76634D02*
D03*
Y83858D02*
D03*
Y91083D02*
D03*
X62598Y80246D02*
D03*
Y87471D02*
D03*
X66211Y76634D02*
D03*
Y83858D02*
D03*
Y91083D02*
D03*
X69823Y80246D02*
D03*
Y87471D02*
D03*
D169*
X99213Y255118D02*
D03*
X139370D02*
D03*
X80315Y333858D02*
D03*
X159055D02*
D03*
X137275Y125968D02*
D03*
X35827Y320079D02*
D03*
X37008Y272047D02*
D03*
D170*
X100394Y33071D02*
D03*
X88583D02*
D03*
D171*
X390976Y171229D02*
D03*
D172*
X405118D02*
D03*
X405118Y157087D02*
D03*
D173*
X286693Y342835D02*
D03*
Y282835D02*
D03*
X256693Y352835D02*
D03*
Y322835D02*
D03*
Y282835D02*
D03*
X229921Y342913D02*
D03*
Y282913D02*
D03*
X199921Y352913D02*
D03*
Y322913D02*
D03*
Y282913D02*
D03*
D174*
X65354Y371260D02*
D03*
X183465D02*
D03*
D175*
X264173Y59449D02*
D03*
Y65354D02*
D03*
Y71260D02*
D03*
Y77165D02*
D03*
Y88976D02*
D03*
X322047Y75197D02*
D03*
Y63386D02*
D03*
Y57480D02*
D03*
Y51575D02*
D03*
Y45669D02*
D03*
D176*
X264173Y83071D02*
D03*
X322047Y69291D02*
D03*
D177*
X204724Y369291D02*
D03*
X224724D02*
D03*
X261811D02*
D03*
X281811D02*
D03*
X24409Y377087D02*
D03*
Y357087D02*
D03*
D178*
X155315Y36220D02*
D03*
X13780Y205118D02*
D03*
D179*
X155315Y53937D02*
D03*
D180*
X174213Y66535D02*
D03*
D181*
X150984Y78740D02*
D03*
D182*
X56299Y209449D02*
D03*
D183*
X44094Y186221D02*
D03*
D184*
X31496Y205118D02*
D03*
D185*
X125984Y109843D02*
D03*
X16142Y320079D02*
D03*
X17323Y272047D02*
D03*
D186*
X14567Y160236D02*
D03*
X28486Y146317D02*
D03*
D187*
X226378Y104724D02*
D03*
X121260Y194866D02*
D03*
X14173Y301969D02*
D03*
X246063Y254724D02*
D03*
X234252Y237008D02*
D03*
X212205Y253543D02*
D03*
X211417Y263779D02*
D03*
X112598Y152362D02*
D03*
X111024Y162992D02*
D03*
X112598Y174016D02*
D03*
X106693Y183858D02*
D03*
X120079Y201969D02*
D03*
X103937Y202756D02*
D03*
X104724Y196850D02*
D03*
X65748Y188583D02*
D03*
X60630Y184252D02*
D03*
X52756Y175984D02*
D03*
X95276Y177165D02*
D03*
X87008Y172835D02*
D03*
X73622Y168898D02*
D03*
X69685Y154724D02*
D03*
X46243Y151962D02*
D03*
X252756Y57087D02*
D03*
X243307Y55905D02*
D03*
X231496Y73622D02*
D03*
X242520Y73228D02*
D03*
X251969Y72441D02*
D03*
X261811Y117717D02*
D03*
X259449Y111811D02*
D03*
X260630Y105118D02*
D03*
X232283D02*
D03*
X231496Y109449D02*
D03*
X228346Y111811D02*
D03*
X192520Y162992D02*
D03*
X180709Y161024D02*
D03*
X188189Y167717D02*
D03*
X193307Y173622D02*
D03*
X202362Y150787D02*
D03*
X213779Y142126D02*
D03*
X208661Y142520D02*
D03*
X263568Y149659D02*
D03*
X292126Y150787D02*
D03*
X185433Y192913D02*
D03*
Y191732D02*
D03*
X205512Y193701D02*
D03*
X165748Y195669D02*
D03*
X165354Y186221D02*
D03*
X166142Y180315D02*
D03*
X159055Y144095D02*
D03*
X158268Y153150D02*
D03*
X157874Y160236D02*
D03*
X247638Y166535D02*
D03*
X256693Y161417D02*
D03*
X255512Y168898D02*
D03*
X249606Y159055D02*
D03*
X239370D02*
D03*
X240158Y166142D02*
D03*
X250787Y174803D02*
D03*
X238976Y174016D02*
D03*
X296063Y173622D02*
D03*
X289370Y188976D02*
D03*
X292913Y264173D02*
D03*
X279921Y195276D02*
D03*
X280709Y210236D02*
D03*
Y222047D02*
D03*
X269291Y250394D02*
D03*
X278740Y264173D02*
D03*
X280709Y229528D02*
D03*
X279921Y238976D02*
D03*
X280709Y248819D02*
D03*
X211024Y168504D02*
D03*
D188*
X232283Y91732D02*
D03*
X137008Y148819D02*
D03*
X145669Y196457D02*
D03*
X256693Y91732D02*
D03*
X34646Y28346D02*
D03*
X35433Y34252D02*
D03*
Y41732D02*
D03*
X148819Y165748D02*
D03*
X144095Y166535D02*
D03*
X151575Y174016D02*
D03*
X143701Y170472D02*
D03*
X242126Y91339D02*
D03*
X77165Y197638D02*
D03*
Y216142D02*
D03*
Y203937D02*
D03*
X76772Y210236D02*
D03*
X65354Y32677D02*
D03*
X72835Y39764D02*
D03*
X242913Y113779D02*
D03*
X233104Y115461D02*
D03*
X235827Y99213D02*
D03*
X233465Y195276D02*
D03*
X251421Y198543D02*
D03*
X211024Y99606D02*
D03*
X248031Y199606D02*
D03*
X221260Y113386D02*
D03*
X226772Y119685D02*
D03*
X275590Y156299D02*
D03*
X126772Y144488D02*
D03*
X134646Y188583D02*
D03*
X141339Y143307D02*
D03*
X224410Y74803D02*
D03*
D189*
X362598Y85827D02*
D03*
X367323Y79921D02*
D03*
X373228Y77165D02*
D03*
X328740Y36614D02*
D03*
X379134Y53150D02*
D03*
X374803Y43701D02*
D03*
X292126Y122441D02*
D03*
X303543Y142520D02*
D03*
X231496Y144095D02*
D03*
X177953Y140157D02*
D03*
X219685Y131102D02*
D03*
X219291Y139764D02*
D03*
X211024Y138189D02*
D03*
X185039Y134646D02*
D03*
X278346Y81496D02*
D03*
X87795Y180315D02*
D03*
X160630Y104724D02*
D03*
X214173Y51181D02*
D03*
X113779Y94095D02*
D03*
X255906Y123622D02*
D03*
X254724Y137402D02*
D03*
D190*
X387402Y86221D02*
D03*
M02*
