G04*
G04 #@! TF.GenerationSoftware,Altium Limited,Altium Designer,22.8.2 (66)*
G04*
G04 Layer_Color=8388736*
%FSLAX25Y25*%
%MOIN*%
G70*
G04*
G04 #@! TF.SameCoordinates,CEF463C0-22AA-4E03-8404-DDFA2DAA14BC*
G04*
G04*
G04 #@! TF.FilePolarity,Negative*
G04*
G01*
G75*
%ADD55R,0.04194X0.03494*%
%ADD56R,0.03494X0.04194*%
%ADD57R,0.02559X0.04528*%
%ADD58R,0.04331X0.02362*%
G04:AMPARAMS|DCode=59|XSize=66.93mil|YSize=53.15mil|CornerRadius=0mil|HoleSize=0mil|Usage=FLASHONLY|Rotation=225.000|XOffset=0mil|YOffset=0mil|HoleType=Round|Shape=Rectangle|*
%AMROTATEDRECTD59*
4,1,4,0.00487,0.04245,0.04245,0.00487,-0.00487,-0.04245,-0.04245,-0.00487,0.00487,0.04245,0.0*
%
%ADD59ROTATEDRECTD59*%

%ADD60R,0.06299X0.02362*%
%ADD61R,0.03937X0.08268*%
%ADD62R,0.08268X0.03937*%
%ADD63R,0.05630X0.05630*%
%ADD64R,0.02756X0.05748*%
%ADD65R,0.05118X0.01575*%
%ADD66R,0.01575X0.05118*%
%ADD67R,0.07099X0.13792*%
%ADD68R,0.07099X0.05524*%
%ADD69R,0.04737X0.03950*%
%ADD70R,0.03556X0.06706*%
%ADD71R,0.04724X0.03543*%
%ADD72R,0.03543X0.04724*%
%ADD73R,0.07874X0.07480*%
%ADD74R,0.08661X0.06693*%
%ADD75R,0.01968X0.05709*%
%ADD76R,0.05512X0.13780*%
%ADD77R,0.08268X0.04724*%
%ADD78R,0.13792X0.18123*%
%ADD79R,0.16154X0.25210*%
%ADD80R,0.25210X0.16154*%
%ADD81R,0.18123X0.13792*%
%ADD82R,0.07099X0.07099*%
%ADD83R,0.03150X0.05512*%
%ADD84R,0.04528X0.02559*%
%ADD85R,0.05197X0.03996*%
%ADD86R,0.07493X0.06312*%
%ADD87R,0.06312X0.07493*%
%ADD88R,0.12205X0.08268*%
%ADD89R,0.06496X0.05118*%
%ADD90C,0.01575*%
%ADD91C,0.08674*%
%ADD92C,0.04343*%
%ADD93C,0.04737*%
%ADD94C,0.10642*%
%ADD95C,0.08268*%
%ADD96O,0.07087X0.05118*%
%ADD97C,0.12205*%
%ADD98C,0.09068*%
%ADD99O,0.16548X0.08674*%
%ADD100O,0.08674X0.16548*%
%ADD101O,0.14973X0.07887*%
%ADD102O,0.07887X0.14973*%
D55*
X198819Y183071D02*
D03*
X205119D02*
D03*
X394488Y134646D02*
D03*
X388188D02*
D03*
X388189Y116142D02*
D03*
X394489D02*
D03*
X287402Y102756D02*
D03*
X281102D02*
D03*
X51181Y30315D02*
D03*
X57481D02*
D03*
X274015Y161024D02*
D03*
X280315D02*
D03*
X243701Y204331D02*
D03*
X237401D02*
D03*
X210629Y153150D02*
D03*
X216929D02*
D03*
X226772Y254724D02*
D03*
X220472D02*
D03*
X226772Y260236D02*
D03*
X220472D02*
D03*
X254331Y260275D02*
D03*
X260631D02*
D03*
X260630Y254724D02*
D03*
X254330D02*
D03*
X87795Y186614D02*
D03*
X94095D02*
D03*
X26772Y26772D02*
D03*
X33072D02*
D03*
X210547Y146776D02*
D03*
X216847D02*
D03*
X192519Y157480D02*
D03*
X198819D02*
D03*
X142126Y140551D02*
D03*
X148426D02*
D03*
D56*
X66142Y44882D02*
D03*
Y38582D02*
D03*
X75590Y159843D02*
D03*
Y153543D02*
D03*
X286614Y110235D02*
D03*
Y116535D02*
D03*
X233071Y124409D02*
D03*
Y130709D02*
D03*
X238189Y124409D02*
D03*
Y130709D02*
D03*
X243307Y124409D02*
D03*
Y130709D02*
D03*
X65354Y143307D02*
D03*
Y149607D02*
D03*
X110236Y48031D02*
D03*
Y54331D02*
D03*
X42913Y40157D02*
D03*
Y46457D02*
D03*
X248425Y130709D02*
D03*
Y124409D02*
D03*
X216929Y107086D02*
D03*
Y113386D02*
D03*
Y125985D02*
D03*
Y119685D02*
D03*
X203150Y135602D02*
D03*
Y141902D02*
D03*
X281102Y110236D02*
D03*
Y116536D02*
D03*
X222047Y159843D02*
D03*
Y153543D02*
D03*
X270472Y148032D02*
D03*
Y141732D02*
D03*
X280315Y174409D02*
D03*
Y180709D02*
D03*
X274016Y174409D02*
D03*
Y180709D02*
D03*
D57*
X77953Y218110D02*
D03*
Y229134D02*
D03*
X173228Y104724D02*
D03*
Y115748D02*
D03*
X224410Y57480D02*
D03*
Y68504D02*
D03*
D58*
X173622Y124409D02*
D03*
Y128740D02*
D03*
D59*
X207218Y162156D02*
D03*
X217518Y172457D02*
D03*
X201093Y168281D02*
D03*
X211393Y178581D02*
D03*
D60*
X182087Y129154D02*
D03*
X203346Y129154D02*
D03*
Y114154D02*
D03*
Y119153D02*
D03*
Y124153D02*
D03*
X182087Y114154D02*
D03*
Y119153D02*
D03*
Y124153D02*
D03*
X251772Y112343D02*
D03*
Y107343D02*
D03*
Y102342D02*
D03*
X273031Y112343D02*
D03*
Y107343D02*
D03*
Y102342D02*
D03*
Y117342D02*
D03*
X251772Y117342D02*
D03*
X123031Y157343D02*
D03*
Y162343D02*
D03*
Y167342D02*
D03*
X101772Y157343D02*
D03*
Y162343D02*
D03*
Y167342D02*
D03*
Y152342D02*
D03*
X123031Y152342D02*
D03*
D61*
X33071Y54331D02*
D03*
X38071D02*
D03*
X43071D02*
D03*
X48071D02*
D03*
X53071D02*
D03*
X58071D02*
D03*
X63071D02*
D03*
X68071D02*
D03*
X73071D02*
D03*
X78071D02*
D03*
X83071D02*
D03*
X88071D02*
D03*
X93071D02*
D03*
X98071D02*
D03*
Y121260D02*
D03*
X93071D02*
D03*
X88071D02*
D03*
X83071D02*
D03*
X78071D02*
D03*
X73071D02*
D03*
X68071D02*
D03*
X63071D02*
D03*
X58071D02*
D03*
X53071D02*
D03*
X48071D02*
D03*
X43071D02*
D03*
X38071D02*
D03*
X33071D02*
D03*
D62*
X102008Y65295D02*
D03*
Y70295D02*
D03*
Y75295D02*
D03*
Y80295D02*
D03*
Y85295D02*
D03*
Y90295D02*
D03*
Y95295D02*
D03*
Y100295D02*
D03*
Y105295D02*
D03*
Y110295D02*
D03*
D63*
X55374Y76634D02*
D03*
Y83858D02*
D03*
Y91083D02*
D03*
X62598Y76634D02*
D03*
Y83858D02*
D03*
Y91083D02*
D03*
X69823Y76634D02*
D03*
Y83858D02*
D03*
Y91083D02*
D03*
D64*
X217913Y68012D02*
D03*
X214173D02*
D03*
X210433D02*
D03*
Y58760D02*
D03*
X214173D02*
D03*
X217913D02*
D03*
D65*
X230906Y178543D02*
D03*
Y158858D02*
D03*
Y160827D02*
D03*
Y162795D02*
D03*
Y164764D02*
D03*
Y166732D02*
D03*
Y168701D02*
D03*
Y170669D02*
D03*
Y172638D02*
D03*
Y174606D02*
D03*
Y176575D02*
D03*
Y156890D02*
D03*
X264370D02*
D03*
Y158858D02*
D03*
Y160827D02*
D03*
Y162795D02*
D03*
Y164764D02*
D03*
Y166732D02*
D03*
Y168701D02*
D03*
Y170669D02*
D03*
Y172638D02*
D03*
Y174606D02*
D03*
Y176575D02*
D03*
Y178543D02*
D03*
D66*
X236811Y150984D02*
D03*
X256496D02*
D03*
X254528D02*
D03*
X252559D02*
D03*
X250591D02*
D03*
X248622D02*
D03*
X246654D02*
D03*
X244685D02*
D03*
X242717D02*
D03*
X240748D02*
D03*
X238779D02*
D03*
X258465D02*
D03*
X258465Y184449D02*
D03*
X254528D02*
D03*
X252559D02*
D03*
X250590D02*
D03*
X248622D02*
D03*
X246654D02*
D03*
X244685D02*
D03*
X242717D02*
D03*
X240748D02*
D03*
X238779D02*
D03*
X256496D02*
D03*
X236811D02*
D03*
D67*
X176378Y188189D02*
D03*
D68*
X151181Y179528D02*
D03*
Y188189D02*
D03*
Y196850D02*
D03*
D69*
X108858Y28937D02*
D03*
Y37205D02*
D03*
X80118Y28937D02*
D03*
Y37205D02*
D03*
D70*
X103347Y39961D02*
D03*
X97441D02*
D03*
X85630D02*
D03*
D71*
X394843Y128937D02*
D03*
X387402Y125197D02*
D03*
X394843Y121457D02*
D03*
X59232Y143110D02*
D03*
X51791Y146850D02*
D03*
X59232Y150591D02*
D03*
X227736Y265551D02*
D03*
X220295Y269291D02*
D03*
X227736Y273031D02*
D03*
X254154Y273059D02*
D03*
X261595Y269319D02*
D03*
X254154Y265579D02*
D03*
D72*
X50394Y37402D02*
D03*
X54134Y44842D02*
D03*
X57874Y37402D02*
D03*
D73*
X227559Y31496D02*
D03*
X197638D02*
D03*
D74*
X224803Y42234D02*
D03*
X200394D02*
D03*
D75*
X207480Y42717D02*
D03*
X210039D02*
D03*
X212598D02*
D03*
X215158D02*
D03*
X217717D02*
D03*
D76*
X60039Y162992D02*
D03*
X51772D02*
D03*
D77*
X268504Y239685D02*
D03*
Y229685D02*
D03*
Y219685D02*
D03*
Y209685D02*
D03*
Y199685D02*
D03*
D78*
X157874Y86417D02*
D03*
D79*
X180709Y51181D02*
D03*
X129921D02*
D03*
D80*
X28740Y230512D02*
D03*
Y179724D02*
D03*
D81*
X63976Y202559D02*
D03*
D82*
X86221Y230315D02*
D03*
X100394Y230315D02*
D03*
D83*
X394882Y142913D02*
D03*
X387402D02*
D03*
D84*
X274016Y272272D02*
D03*
X285039D02*
D03*
X209842D02*
D03*
X198819D02*
D03*
D85*
X86752Y166266D02*
D03*
Y153372D02*
D03*
D86*
X194095Y146402D02*
D03*
Y137402D02*
D03*
X251969Y81327D02*
D03*
Y90327D02*
D03*
X231496Y81327D02*
D03*
Y90327D02*
D03*
X241732D02*
D03*
Y81327D02*
D03*
X233858Y67098D02*
D03*
Y58098D02*
D03*
X149213Y158886D02*
D03*
Y167886D02*
D03*
X138189Y158886D02*
D03*
Y167886D02*
D03*
D87*
X27220Y44488D02*
D03*
X36220D02*
D03*
X26433Y34252D02*
D03*
X35433D02*
D03*
X224185Y192913D02*
D03*
X215185D02*
D03*
X288752Y142126D02*
D03*
X279752D02*
D03*
X95445Y200787D02*
D03*
X86445D02*
D03*
X95051Y211417D02*
D03*
X86051D02*
D03*
X148425Y148819D02*
D03*
X139425D02*
D03*
D88*
X137402Y187008D02*
D03*
X112205D02*
D03*
D89*
X108661Y209823D02*
D03*
Y230335D02*
D03*
X143307Y209823D02*
D03*
Y230335D02*
D03*
D90*
X55374Y80246D02*
D03*
Y87471D02*
D03*
X58986Y76634D02*
D03*
Y83858D02*
D03*
Y91083D02*
D03*
X62598Y80246D02*
D03*
Y87471D02*
D03*
X66211Y76634D02*
D03*
Y83858D02*
D03*
Y91083D02*
D03*
X69823Y80246D02*
D03*
Y87471D02*
D03*
D91*
X99213Y255118D02*
D03*
X139370D02*
D03*
X80315Y333858D02*
D03*
X159055D02*
D03*
X125984Y109843D02*
D03*
X137275Y125968D02*
D03*
X16142Y320079D02*
D03*
X35827D02*
D03*
X17323Y272047D02*
D03*
X37008D02*
D03*
X14567Y160236D02*
D03*
X28486Y146317D02*
D03*
D92*
X100394Y33071D02*
D03*
X88583D02*
D03*
D93*
X390976Y171229D02*
D03*
X405118D02*
D03*
X405118Y157087D02*
D03*
D94*
X286693Y342835D02*
D03*
Y282835D02*
D03*
X256693Y352835D02*
D03*
Y322835D02*
D03*
Y282835D02*
D03*
X229921Y342913D02*
D03*
Y282913D02*
D03*
X199921Y352913D02*
D03*
Y322913D02*
D03*
Y282913D02*
D03*
D95*
X65354Y371260D02*
D03*
X183465D02*
D03*
D96*
X264173Y59449D02*
D03*
Y65354D02*
D03*
Y71260D02*
D03*
Y77165D02*
D03*
Y83071D02*
D03*
Y88976D02*
D03*
X322047Y75197D02*
D03*
Y69291D02*
D03*
Y63386D02*
D03*
Y57480D02*
D03*
Y51575D02*
D03*
Y45669D02*
D03*
D97*
X204724Y369291D02*
D03*
X224724D02*
D03*
X261811D02*
D03*
X281811D02*
D03*
X24409Y377087D02*
D03*
Y357087D02*
D03*
D98*
X155315Y36220D02*
D03*
X13780Y205118D02*
D03*
D99*
X155315Y53937D02*
D03*
X44094Y186221D02*
D03*
D100*
X174213Y66535D02*
D03*
X31496Y205118D02*
D03*
D101*
X150984Y78740D02*
D03*
D102*
X56299Y209449D02*
D03*
M02*
