G04*
G04 #@! TF.GenerationSoftware,Altium Limited,Altium Designer,22.8.2 (66)*
G04*
G04 Layer_Color=128*
%FSLAX25Y25*%
%MOIN*%
G70*
G04*
G04 #@! TF.SameCoordinates,CEF463C0-22AA-4E03-8404-DDFA2DAA14BC*
G04*
G04*
G04 #@! TF.FilePolarity,Positive*
G04*
G01*
G75*
%ADD10C,0.00394*%
%ADD212C,0.00200*%
D10*
X421260Y23622D02*
Y31496D01*
X413386Y23622D02*
X421260D01*
X0D02*
X240158D01*
X0D02*
Y393701D01*
X311024D01*
Y188976D02*
Y393701D01*
Y188976D02*
X421260D01*
X421260D02*
X421260Y27559D01*
X192913Y23622D02*
X413386D01*
D212*
X54980Y80246D02*
X55768D01*
X55374Y79852D02*
Y80640D01*
X54980Y87471D02*
X55768D01*
X55374Y87077D02*
Y87864D01*
X58592Y76634D02*
X59380D01*
X58986Y76240D02*
Y77028D01*
X58592Y83858D02*
X59380D01*
X58986Y83465D02*
Y84252D01*
X58592Y91083D02*
X59380D01*
X58986Y90689D02*
Y91476D01*
X62205Y80246D02*
X62992D01*
X62598Y79852D02*
Y80640D01*
X62205Y87471D02*
X62992D01*
X62598Y87077D02*
Y87864D01*
X65817Y76634D02*
X66604D01*
X66211Y76240D02*
Y77028D01*
X65817Y83858D02*
X66604D01*
X66211Y83465D02*
Y84252D01*
X65817Y91083D02*
X66604D01*
X66211Y90689D02*
Y91476D01*
X69429Y80246D02*
X70217D01*
X69823Y79852D02*
Y80640D01*
X69429Y87471D02*
X70217D01*
X69823Y87077D02*
Y87864D01*
X97244Y255118D02*
X101181D01*
X99213Y253150D02*
Y257087D01*
X137402Y255118D02*
X141339D01*
X139370Y253150D02*
Y257087D01*
X78347Y333858D02*
X82284D01*
X80315Y331890D02*
Y335827D01*
X157087Y333858D02*
X161024D01*
X159055Y331890D02*
Y335827D01*
X98622Y33071D02*
X102165D01*
X100394Y31299D02*
Y34843D01*
X86811Y33071D02*
X90354D01*
X88583Y31299D02*
Y34843D01*
X389992Y171229D02*
X391960D01*
X390976Y170245D02*
Y172213D01*
X404134Y171229D02*
X406102D01*
X405118Y170245D02*
Y172213D01*
X404134Y157087D02*
X406102D01*
X405118Y156102D02*
Y158071D01*
X284134Y342835D02*
X289252D01*
X286693Y340276D02*
Y345394D01*
X284134Y282835D02*
X289252D01*
X286693Y280276D02*
Y285394D01*
X254134Y352835D02*
X259252D01*
X256693Y350276D02*
Y355394D01*
X254134Y322835D02*
X259252D01*
X256693Y320276D02*
Y325394D01*
X254134Y282835D02*
X259252D01*
X256693Y280276D02*
Y285394D01*
X227362Y342913D02*
X232480D01*
X229921Y340354D02*
Y345472D01*
X227362Y282913D02*
X232480D01*
X229921Y280354D02*
Y285472D01*
X197362Y352913D02*
X202480D01*
X199921Y350354D02*
Y355472D01*
X197362Y322913D02*
X202480D01*
X199921Y320354D02*
Y325472D01*
X197362Y282913D02*
X202480D01*
X199921Y280354D02*
Y285472D01*
X63189Y371260D02*
X67520D01*
X65354Y369094D02*
Y373425D01*
X181299Y371260D02*
X185630D01*
X183465Y369094D02*
Y373425D01*
X262461Y59449D02*
X265886D01*
X264173Y57736D02*
Y61161D01*
X262461Y65354D02*
X265886D01*
X264173Y63642D02*
Y67067D01*
X262461Y71260D02*
X265886D01*
X264173Y69547D02*
Y72972D01*
X262461Y77165D02*
X265886D01*
X264173Y75453D02*
Y78878D01*
X262461Y83071D02*
X265886D01*
X264173Y81358D02*
Y84784D01*
X262461Y88976D02*
X265886D01*
X264173Y87264D02*
Y90689D01*
X201279Y369291D02*
X208169D01*
X204724Y365846D02*
Y372736D01*
X221280Y369291D02*
X228169D01*
X224724Y365846D02*
Y372736D01*
X151181Y36220D02*
X159449D01*
X155315Y32087D02*
Y40354D01*
X153347Y53937D02*
X157283D01*
X155315Y51968D02*
Y55905D01*
X171850Y66535D02*
X176575D01*
X174213Y64173D02*
Y68898D01*
X148622Y78740D02*
X153347D01*
X150984Y76378D02*
Y81102D01*
X258366Y369291D02*
X265256D01*
X261811Y365846D02*
Y372736D01*
X278366Y369291D02*
X285256D01*
X281811Y365846D02*
Y372736D01*
X20965Y377087D02*
X27854D01*
X24409Y373642D02*
Y380532D01*
X20965Y357087D02*
X27854D01*
X24409Y353642D02*
Y360531D01*
X53937Y209449D02*
X58661D01*
X56299Y207087D02*
Y211811D01*
X41732Y186221D02*
X46457D01*
X44094Y183858D02*
Y188583D01*
X29528Y205118D02*
X33465D01*
X31496Y203150D02*
Y207087D01*
X9646Y205118D02*
X17913D01*
X13780Y200984D02*
Y209252D01*
X124016Y109843D02*
X127953D01*
X125984Y107874D02*
Y111811D01*
X135307Y125968D02*
X139244D01*
X137275Y123999D02*
Y127936D01*
X14173Y320079D02*
X18110D01*
X16142Y318110D02*
Y322047D01*
X33858Y320079D02*
X37795D01*
X35827Y318110D02*
Y322047D01*
X15354Y272047D02*
X19291D01*
X17323Y270079D02*
Y274016D01*
X35039Y272047D02*
X38976D01*
X37008Y270079D02*
Y274016D01*
X12992Y160236D02*
X16142D01*
X14567Y158661D02*
Y161811D01*
X26912Y146317D02*
X30061D01*
X28486Y144742D02*
Y147892D01*
X320335Y75197D02*
X323760D01*
X322047Y73484D02*
Y76910D01*
X320335Y69291D02*
X323760D01*
X322047Y67579D02*
Y71004D01*
X320335Y63386D02*
X323760D01*
X322047Y61673D02*
Y65098D01*
X320335Y57480D02*
X323760D01*
X322047Y55768D02*
Y59193D01*
X320335Y51575D02*
X323760D01*
X322047Y49862D02*
Y53287D01*
X320335Y45669D02*
X323760D01*
X322047Y43957D02*
Y47382D01*
X225689Y104724D02*
X227067D01*
X226378Y104035D02*
Y105413D01*
X231594Y91732D02*
X232972D01*
X232283Y91043D02*
Y92421D01*
X136319Y148819D02*
X137697D01*
X137008Y148130D02*
Y149508D01*
X144980Y196457D02*
X146358D01*
X145669Y195768D02*
Y197146D01*
X256004Y91732D02*
X257382D01*
X256693Y91043D02*
Y92421D01*
X33957Y28346D02*
X35335D01*
X34646Y27657D02*
Y29035D01*
X34744Y34252D02*
X36122D01*
X35433Y33563D02*
Y34941D01*
X34744Y41732D02*
X36122D01*
X35433Y41043D02*
Y42421D01*
X148130Y165748D02*
X149508D01*
X148819Y165059D02*
Y166437D01*
X143405Y166535D02*
X144783D01*
X144095Y165847D02*
Y167224D01*
X150886Y174016D02*
X152264D01*
X151575Y173327D02*
Y174705D01*
X143012Y170472D02*
X144390D01*
X143701Y169783D02*
Y171161D01*
X241437Y91339D02*
X242815D01*
X242126Y90650D02*
Y92027D01*
X76476Y197638D02*
X77854D01*
X77165Y196949D02*
Y198327D01*
X76476Y216142D02*
X77854D01*
X77165Y215453D02*
Y216831D01*
X76476Y203937D02*
X77854D01*
X77165Y203248D02*
Y204626D01*
X76083Y210236D02*
X77461D01*
X76772Y209547D02*
Y210925D01*
X120571Y194866D02*
X121949D01*
X121260Y194177D02*
Y195555D01*
X13484Y301969D02*
X14862D01*
X14173Y301279D02*
Y302658D01*
X245374Y254724D02*
X246752D01*
X246063Y254035D02*
Y255413D01*
X233563Y237008D02*
X234941D01*
X234252Y236319D02*
Y237697D01*
X211516Y253543D02*
X212894D01*
X212205Y252854D02*
Y254232D01*
X210728Y263779D02*
X212106D01*
X211417Y263091D02*
Y264469D01*
X111909Y152362D02*
X113287D01*
X112598Y151673D02*
Y153051D01*
X110335Y162992D02*
X111713D01*
X111024Y162303D02*
Y163681D01*
X111909Y174016D02*
X113287D01*
X112598Y173327D02*
Y174705D01*
X106004Y183858D02*
X107382D01*
X106693Y183169D02*
Y184547D01*
X119390Y201969D02*
X120768D01*
X120079Y201279D02*
Y202658D01*
X103248Y202756D02*
X104626D01*
X103937Y202067D02*
Y203445D01*
X104035Y196850D02*
X105413D01*
X104724Y196161D02*
Y197539D01*
X65059Y188583D02*
X66437D01*
X65748Y187894D02*
Y189272D01*
X59941Y184252D02*
X61319D01*
X60630Y183563D02*
Y184941D01*
X52067Y175984D02*
X53445D01*
X52756Y175295D02*
Y176673D01*
X94587Y177165D02*
X95965D01*
X95276Y176476D02*
Y177854D01*
X86319Y172835D02*
X87697D01*
X87008Y172146D02*
Y173524D01*
X72933Y168898D02*
X74311D01*
X73622Y168209D02*
Y169587D01*
X68996Y154724D02*
X70374D01*
X69685Y154035D02*
Y155413D01*
X45554Y151962D02*
X46932D01*
X46243Y151273D02*
Y152651D01*
X252067Y57087D02*
X253445D01*
X252756Y56398D02*
Y57776D01*
X242618Y55905D02*
X243996D01*
X243307Y55216D02*
Y56595D01*
X230807Y73622D02*
X232185D01*
X231496Y72933D02*
Y74311D01*
X241831Y73228D02*
X243209D01*
X242520Y72539D02*
Y73917D01*
X251279Y72441D02*
X252658D01*
X251969Y71752D02*
Y73130D01*
X261122Y117717D02*
X262500D01*
X261811Y117028D02*
Y118405D01*
X258760Y111811D02*
X260138D01*
X259449Y111122D02*
Y112500D01*
X259941Y105118D02*
X261319D01*
X260630Y104429D02*
Y105807D01*
X231594Y105118D02*
X232972D01*
X232283Y104429D02*
Y105807D01*
X230807Y109449D02*
X232185D01*
X231496Y108760D02*
Y110138D01*
X227658Y111811D02*
X229035D01*
X228346Y111122D02*
Y112500D01*
X191831Y162992D02*
X193209D01*
X192520Y162303D02*
Y163681D01*
X180020Y161024D02*
X181398D01*
X180709Y160335D02*
Y161713D01*
X187500Y167717D02*
X188878D01*
X188189Y167028D02*
Y168405D01*
X192618Y173622D02*
X193996D01*
X193307Y172933D02*
Y174311D01*
X201673Y150787D02*
X203051D01*
X202362Y150098D02*
Y151476D01*
X213091Y142126D02*
X214469D01*
X213779Y141437D02*
Y142815D01*
X207972Y142520D02*
X209350D01*
X208661Y141831D02*
Y143209D01*
X262879Y149659D02*
X264257D01*
X263568Y148970D02*
Y150348D01*
X291437Y150787D02*
X292815D01*
X292126Y150098D02*
Y151476D01*
X184744Y192913D02*
X186122D01*
X185433Y192224D02*
Y193602D01*
X184744Y191732D02*
X186122D01*
X185433Y191043D02*
Y192421D01*
X204823Y193701D02*
X206201D01*
X205512Y193012D02*
Y194390D01*
X165059Y195669D02*
X166437D01*
X165748Y194980D02*
Y196358D01*
X164665Y186221D02*
X166043D01*
X165354Y185531D02*
Y186909D01*
X165453Y180315D02*
X166831D01*
X166142Y179626D02*
Y181004D01*
X158366Y144095D02*
X159744D01*
X159055Y143405D02*
Y144783D01*
X157579Y153150D02*
X158957D01*
X158268Y152461D02*
Y153839D01*
X157185Y160236D02*
X158563D01*
X157874Y159547D02*
Y160925D01*
X246949Y166535D02*
X248327D01*
X247638Y165847D02*
Y167224D01*
X256004Y161417D02*
X257382D01*
X256693Y160728D02*
Y162106D01*
X254823Y168898D02*
X256201D01*
X255512Y168209D02*
Y169587D01*
X248917Y159055D02*
X250295D01*
X249606Y158366D02*
Y159744D01*
X238681Y159055D02*
X240059D01*
X239370Y158366D02*
Y159744D01*
X239469Y166142D02*
X240846D01*
X240158Y165453D02*
Y166831D01*
X250098Y174803D02*
X251476D01*
X250787Y174114D02*
Y175492D01*
X238287Y174016D02*
X239665D01*
X238976Y173327D02*
Y174705D01*
X295374Y173622D02*
X296752D01*
X296063Y172933D02*
Y174311D01*
X288681Y188976D02*
X290059D01*
X289370Y188287D02*
Y189665D01*
X292224Y264173D02*
X293602D01*
X292913Y263484D02*
Y264862D01*
X279232Y195276D02*
X280610D01*
X279921Y194587D02*
Y195965D01*
X280020Y210236D02*
X281398D01*
X280709Y209547D02*
Y210925D01*
X280020Y222047D02*
X281398D01*
X280709Y221358D02*
Y222736D01*
X268602Y250394D02*
X269980D01*
X269291Y249705D02*
Y251083D01*
X278051Y264173D02*
X279429D01*
X278740Y263484D02*
Y264862D01*
X280020Y229528D02*
X281398D01*
X280709Y228839D02*
Y230217D01*
X279232Y238976D02*
X280610D01*
X279921Y238287D02*
Y239665D01*
X280020Y248819D02*
X281398D01*
X280709Y248130D02*
Y249508D01*
X210335Y168504D02*
X211713D01*
X211024Y167815D02*
Y169193D01*
X87205Y180315D02*
X88386D01*
X87795Y179724D02*
Y180905D01*
X64665Y32677D02*
X66043D01*
X65354Y31988D02*
Y33366D01*
X72146Y39764D02*
X73524D01*
X72835Y39075D02*
Y40453D01*
X242224Y113779D02*
X243602D01*
X242913Y113091D02*
Y114469D01*
X232415Y115461D02*
X233793D01*
X233104Y114771D02*
Y116149D01*
X235138Y99213D02*
X236516D01*
X235827Y98524D02*
Y99901D01*
X232776Y195276D02*
X234154D01*
X233465Y194587D02*
Y195965D01*
X250732Y198543D02*
X252110D01*
X251421Y197854D02*
Y199232D01*
X210335Y99606D02*
X211713D01*
X211024Y98917D02*
Y100295D01*
X247342Y199606D02*
X248721D01*
X248031Y198917D02*
Y200295D01*
X220571Y113386D02*
X221949D01*
X221260Y112697D02*
Y114075D01*
X226083Y119685D02*
X227461D01*
X226772Y118996D02*
Y120374D01*
X274902Y156299D02*
X276279D01*
X275590Y155610D02*
Y156988D01*
X126083Y144488D02*
X127461D01*
X126772Y143799D02*
Y145177D01*
X133957Y188583D02*
X135335D01*
X134646Y187894D02*
Y189272D01*
X140650Y143307D02*
X142027D01*
X141339Y142618D02*
Y143996D01*
X223721Y74803D02*
X225098D01*
X224410Y74114D02*
Y75492D01*
M02*
