G04*
G04 #@! TF.GenerationSoftware,Altium Limited,Altium Designer,22.8.2 (66)*
G04*
G04 Layer_Color=16711935*
%FSLAX25Y25*%
%MOIN*%
G70*
G04*
G04 #@! TF.SameCoordinates,CEF463C0-22AA-4E03-8404-DDFA2DAA14BC*
G04*
G04*
G04 #@! TF.FilePolarity,Negative*
G04*
G01*
G75*
%ADD55R,0.04194X0.03494*%
%ADD56R,0.03494X0.04194*%
%ADD83R,0.03150X0.05512*%
%ADD86R,0.07493X0.06312*%
%ADD87R,0.06312X0.07493*%
%ADD90C,0.01575*%
%ADD91C,0.08674*%
%ADD92C,0.04343*%
%ADD93C,0.04737*%
%ADD94C,0.10642*%
%ADD95C,0.08268*%
%ADD96O,0.07087X0.05118*%
%ADD97C,0.12205*%
%ADD98C,0.09068*%
%ADD99O,0.16548X0.08674*%
%ADD100O,0.08674X0.16548*%
%ADD101O,0.14973X0.07887*%
%ADD102O,0.07887X0.14973*%
%ADD204R,0.05039X0.02677*%
%ADD205R,0.04724X0.02756*%
%ADD206R,0.03937X0.06693*%
%ADD207R,0.06693X0.03937*%
D55*
X345669Y91732D02*
D03*
X351969D02*
D03*
X351575Y112598D02*
D03*
X345275D02*
D03*
X351575Y103543D02*
D03*
X345275D02*
D03*
X385826Y101969D02*
D03*
X392126D02*
D03*
X360236Y48031D02*
D03*
X366536D02*
D03*
X392914Y91339D02*
D03*
X386614D02*
D03*
X364568Y128740D02*
D03*
X358268D02*
D03*
X380709Y86614D02*
D03*
X374409D02*
D03*
X364173Y29921D02*
D03*
X370473D02*
D03*
X392127Y96457D02*
D03*
X385827D02*
D03*
D56*
X350394Y124410D02*
D03*
Y118110D02*
D03*
X346457Y57874D02*
D03*
Y51574D02*
D03*
X351575Y57874D02*
D03*
Y51574D02*
D03*
X353937Y41733D02*
D03*
Y35433D02*
D03*
X386614Y125198D02*
D03*
Y118898D02*
D03*
X397244Y118897D02*
D03*
Y125197D02*
D03*
X386614Y113780D02*
D03*
Y107480D02*
D03*
X345276Y117717D02*
D03*
Y124016D02*
D03*
X392126Y118898D02*
D03*
Y125198D02*
D03*
Y107086D02*
D03*
Y113386D02*
D03*
D83*
X352165Y98032D02*
D03*
X344685D02*
D03*
D86*
X335827Y67323D02*
D03*
Y76323D02*
D03*
X346457Y76153D02*
D03*
Y67154D02*
D03*
X357087D02*
D03*
Y76153D02*
D03*
X338189Y48087D02*
D03*
Y57087D02*
D03*
D87*
X358098Y136614D02*
D03*
X367098D02*
D03*
X346457Y38189D02*
D03*
X337457D02*
D03*
D90*
X55374Y80246D02*
D03*
Y87471D02*
D03*
X58986Y76634D02*
D03*
Y83858D02*
D03*
Y91083D02*
D03*
X62598Y80246D02*
D03*
Y87471D02*
D03*
X66211Y76634D02*
D03*
Y83858D02*
D03*
Y91083D02*
D03*
X69823Y80246D02*
D03*
Y87471D02*
D03*
D91*
X99213Y255118D02*
D03*
X139370D02*
D03*
X80315Y333858D02*
D03*
X159055D02*
D03*
X125984Y109843D02*
D03*
X137275Y125968D02*
D03*
X16142Y320079D02*
D03*
X35827D02*
D03*
X17323Y272047D02*
D03*
X37008D02*
D03*
X14567Y160236D02*
D03*
X28486Y146317D02*
D03*
D92*
X100394Y33071D02*
D03*
X88583D02*
D03*
D93*
X390976Y171229D02*
D03*
X405118D02*
D03*
X405118Y157087D02*
D03*
D94*
X286693Y342835D02*
D03*
Y282835D02*
D03*
X256693Y352835D02*
D03*
Y322835D02*
D03*
Y282835D02*
D03*
X229921Y342913D02*
D03*
Y282913D02*
D03*
X199921Y352913D02*
D03*
Y322913D02*
D03*
Y282913D02*
D03*
D95*
X65354Y371260D02*
D03*
X183465D02*
D03*
D96*
X264173Y59449D02*
D03*
Y65354D02*
D03*
Y71260D02*
D03*
Y77165D02*
D03*
Y83071D02*
D03*
Y88976D02*
D03*
X322047Y75197D02*
D03*
Y69291D02*
D03*
Y63386D02*
D03*
Y57480D02*
D03*
Y51575D02*
D03*
Y45669D02*
D03*
D97*
X204724Y369291D02*
D03*
X224724D02*
D03*
X261811D02*
D03*
X281811D02*
D03*
X24409Y377087D02*
D03*
Y357087D02*
D03*
D98*
X155315Y36220D02*
D03*
X13780Y205118D02*
D03*
D99*
X155315Y53937D02*
D03*
X44094Y186221D02*
D03*
D100*
X174213Y66535D02*
D03*
X31496Y205118D02*
D03*
D101*
X150984Y78740D02*
D03*
D102*
X56299Y209449D02*
D03*
D204*
X358425Y92874D02*
D03*
Y97874D02*
D03*
Y102874D02*
D03*
Y107874D02*
D03*
Y112874D02*
D03*
Y117874D02*
D03*
Y122874D02*
D03*
X379370Y92874D02*
D03*
Y97874D02*
D03*
Y102874D02*
D03*
Y107874D02*
D03*
Y112874D02*
D03*
Y117874D02*
D03*
Y122874D02*
D03*
D205*
X360236Y34843D02*
D03*
Y38583D02*
D03*
Y42323D02*
D03*
X370473D02*
D03*
Y34843D02*
D03*
D206*
X371457Y55118D02*
D03*
X360039Y55118D02*
D03*
X408502Y106961D02*
D03*
X397085D02*
D03*
D207*
X404205Y113545D02*
D03*
Y124962D02*
D03*
M02*
