G04*
G04 #@! TF.GenerationSoftware,Altium Limited,Altium Designer,22.8.2 (66)*
G04*
G04 Layer_Color=128*
%FSLAX25Y25*%
%MOIN*%
G70*
G04*
G04 #@! TF.SameCoordinates,CEF463C0-22AA-4E03-8404-DDFA2DAA14BC*
G04*
G04*
G04 #@! TF.FilePolarity,Positive*
G04*
G01*
G75*
%ADD10C,0.00394*%
%ADD212C,0.00200*%
D10*
X421260Y23622D02*
Y31496D01*
X413386Y23622D02*
X421260D01*
X0D02*
X240158D01*
X0D02*
Y393701D01*
X311024D01*
Y188976D02*
Y393701D01*
Y188976D02*
X421260D01*
X421260D02*
X421260Y27559D01*
X192913Y23622D02*
X413386D01*
D212*
X362008Y85827D02*
X363189D01*
X362598Y85236D02*
Y86417D01*
X366732Y79921D02*
X367913D01*
X367323Y79331D02*
Y80512D01*
X372638Y77165D02*
X373819D01*
X373228Y76575D02*
Y77756D01*
X328150Y36614D02*
X329331D01*
X328740Y36024D02*
Y37205D01*
X386811Y86221D02*
X387992D01*
X387402Y85630D02*
Y86811D01*
X378543Y53150D02*
X379724D01*
X379134Y52559D02*
Y53740D01*
X374213Y43701D02*
X375394D01*
X374803Y43110D02*
Y44291D01*
X291535Y122441D02*
X292717D01*
X292126Y121850D02*
Y123031D01*
X302953Y142520D02*
X304134D01*
X303543Y141929D02*
Y143110D01*
X230906Y144095D02*
X232087D01*
X231496Y143504D02*
Y144685D01*
X177362Y140157D02*
X178543D01*
X177953Y139567D02*
Y140748D01*
X219094Y131102D02*
X220276D01*
X219685Y130512D02*
Y131693D01*
X218701Y139764D02*
X219882D01*
X219291Y139173D02*
Y140354D01*
X210433Y138189D02*
X211614D01*
X211024Y137598D02*
Y138779D01*
X184449Y134646D02*
X185630D01*
X185039Y134055D02*
Y135236D01*
X277756Y81496D02*
X278937D01*
X278346Y80905D02*
Y82087D01*
X87205Y180315D02*
X88386D01*
X87795Y179724D02*
Y180905D01*
X160039Y104724D02*
X161221D01*
X160630Y104134D02*
Y105315D01*
X213583Y51181D02*
X214764D01*
X214173Y50591D02*
Y51772D01*
X113189Y94095D02*
X114370D01*
X113779Y93504D02*
Y94685D01*
X255315Y123622D02*
X256496D01*
X255906Y123031D02*
Y124213D01*
X254134Y137402D02*
X255315D01*
X254724Y136811D02*
Y137992D01*
M02*
