M48
;Layer_Color=9474304
;FILE_FORMAT=2:5
INCH,LZ
;TYPE=PLATED
T1F00S00C0.00787
T2F00S00C0.01181
T3F00S00C0.01378
T4F00S00C0.01968
T5F00S00C0.03150
T6F00S00C0.03425
T7F00S00C0.03937
T9F00S00C0.04331
T11F00S00C0.05118
T12F00S00C0.06890
;TYPE=NON_PLATED
T13F00S00C0.03543
T14F00S00C0.08268
%
T01
X0058986Y0076634
Y0083858
Y0091083
X0062598Y0087471
X0066211Y0091083
Y0083858
X0062598Y0080246
X0066211Y0076634
X0069823Y0080246
Y0087471
X0055374
Y0080246
T02
X0087795Y0180315
T03
X0034646Y0028346
X0035433Y0034252
Y0041732
X0065354Y0032677
X0072835Y0039764
X0243307Y0055905
X0252756Y0057087
X0251969Y0072441
X024252Y0073228
X0231496Y0073622
X022441Y0074803
X0232283Y0091732
X0242126Y0091339
X0235827Y0099213
X0232283Y0105118
X0231496Y0109449
X0228346Y0111811
X0233104Y0115461
X0226772Y0119685
X022126Y0113386
X0226378Y0104724
X0242913Y0113779
X0259449Y0111811
X026063Y0105118
X0261811Y0117717
X0256693Y0091732
X0263568Y0149659
X0256693Y0161417
X0255512Y0168898
X0247638Y0166535
X0240158Y0166142
X023937Y0159055
X0249606
X0250787Y0174803
X0238976Y0174016
X0233465Y0195276
X0248031Y0199606
X0251421Y0198543
X0279921Y0195276
X028937Y0188976
X0296063Y0173622
X0292126Y0150787
X027559Y0156299
X0280709Y0210236
X0213779Y0142126
X0208661Y014252
X0202362Y0150787
X019252Y0162992
X0188189Y0167717
X0193307Y0173622
X0211024Y0168504
X0205512Y0193701
X0185433Y0192913
Y0191732
X0165748Y0195669
X0165354Y0186221
X0166142Y0180315
X0151575Y0174016
X0148819Y0165748
X0144095Y0166535
X0143701Y0170472
X0157874Y0160236
X0158268Y015315
X0159055Y0144095
X0141339Y0143307
X0137008Y0148819
X0126772Y0144488
X0112598Y0152362
X0111024Y0162992
X0112598Y0174016
X0106693Y0183858
X0104724Y019685
X0103937Y0202756
X0120079Y0201969
X012126Y0194866
X0134646Y0188583
X0145669Y0196457
X0095276Y0177165
X0087008Y0172835
X0073622Y0168898
X0069685Y0154724
X0065748Y0188583
X006063Y0184252
X0077165Y0197638
Y0203937
X0076772Y0210236
X0180709Y0161024
X0211024Y0099606
X0046243Y0151962
X0052756Y0175984
X0014173Y0301969
X0077165Y0216142
X0212205Y0253543
X0211417Y0263779
X0246063Y0254724
X0269291Y0250394
X0280709Y0248819
X0279921Y0238976
X0280709Y0229528
Y0222047
X027874Y0264173
X0292913
X0234252Y0237008
T04
X0405118Y0157087
X0405118Y0171229
X0390976
T05
X0014567Y0160236
X0028486Y0146317
T06
X0322047Y0045669
Y0051575
Y005748
Y0063386
Y0069291
Y0075197
X0264173Y0077165
Y0083071
Y0088976
Y007126
Y0065354
Y0059449
T07
X0125984Y0109843
X0137275Y0125968
X0037008Y0272047
X0017323
X0016142Y0320079
X0035827
X0080315Y0333858
X0159055
X013937Y0255118
X0099213
T09
X0065354Y037126
X0183465
T11
X0199921Y0282913
Y0322913
Y0352913
X0229921Y0342913
X0256693Y0352835
Y0322835
Y0282835
X0229921Y0282913
X0286693Y0282835
Y0342835
T12
X0024409Y0357087
X0224724Y0369291
X0261811
X0281811
X0204724
X0024409Y0377087
T13
X0088583Y0033071
X0100394
T14
X0155315Y003622
X001378Y0205118
M30
