G04*
G04 #@! TF.GenerationSoftware,Altium Limited,Altium Designer,22.8.2 (66)*
G04*
G04 Layer_Physical_Order=4*
G04 Layer_Color=16711680*
%FSLAX25Y25*%
%MOIN*%
G70*
G04*
G04 #@! TF.SameCoordinates,CEF463C0-22AA-4E03-8404-DDFA2DAA14BC*
G04*
G04*
G04 #@! TF.FilePolarity,Positive*
G04*
G01*
G75*
%ADD11C,0.01575*%
%ADD13C,0.01968*%
%ADD14C,0.01181*%
%ADD18C,0.01000*%
%ADD58R,0.04331X0.02362*%
%ADD95C,0.08268*%
%ADD103C,0.01500*%
%ADD104C,0.01100*%
%ADD105C,0.02500*%
%ADD107R,0.03800X0.03100*%
%ADD108R,0.03100X0.03800*%
%ADD135R,0.02756X0.05118*%
%ADD138R,0.06693X0.05512*%
%ADD139R,0.05512X0.06693*%
%ADD143C,0.00800*%
%ADD144C,0.02200*%
%ADD146C,0.02000*%
%ADD149C,0.07000*%
%ADD150C,0.01181*%
%ADD151C,0.07874*%
%ADD152C,0.03543*%
%ADD153C,0.03937*%
%ADD154C,0.09843*%
%ADD155O,0.06693X0.04724*%
%ADD156C,0.11811*%
%ADD157O,0.15748X0.07874*%
%ADD158O,0.07874X0.15748*%
%ADD159O,0.14173X0.07087*%
%ADD160O,0.07087X0.14173*%
%ADD161C,0.02362*%
%ADD162C,0.01968*%
%ADD200R,0.04646X0.02284*%
%ADD201R,0.03543X0.06299*%
%ADD202R,0.06299X0.03543*%
%ADD203C,0.01300*%
G36*
X419291Y175591D02*
Y32677D01*
X414961Y28346D01*
X379235D01*
X378968Y28846D01*
X379019Y28923D01*
X379139Y29528D01*
Y45669D01*
X379019Y46274D01*
X378677Y46787D01*
X376314Y49149D01*
X375802Y49492D01*
X375197Y49612D01*
X369436D01*
Y50582D01*
X369436D01*
X369467Y51069D01*
X374128D01*
Y53181D01*
X376363D01*
X377764Y51780D01*
X377990Y51629D01*
X378066Y51552D01*
X378167Y51511D01*
X378393Y51360D01*
X378659Y51307D01*
X378759Y51265D01*
X378868D01*
X379134Y51212D01*
X379400Y51265D01*
X379509D01*
X379609Y51307D01*
X379875Y51360D01*
X380101Y51511D01*
X380201Y51552D01*
X380278Y51629D01*
X380504Y51780D01*
X380655Y52006D01*
X380731Y52082D01*
X380773Y52183D01*
X380924Y52408D01*
X380977Y52675D01*
X381018Y52775D01*
Y52883D01*
X381071Y53150D01*
X381018Y53416D01*
Y53524D01*
X380977Y53625D01*
X380924Y53891D01*
X380773Y54117D01*
X380731Y54217D01*
X380655Y54294D01*
X380504Y54519D01*
X378535Y56488D01*
X377907Y56908D01*
X377165Y57055D01*
X374128D01*
Y59168D01*
X373394D01*
Y64370D01*
X373247Y65111D01*
X372827Y65740D01*
X363910Y74657D01*
Y75894D01*
X364024Y76467D01*
Y76490D01*
X364032Y76512D01*
X364266Y78094D01*
X364289Y78110D01*
X364353Y78174D01*
X364428Y78224D01*
X364479Y78299D01*
X364543Y78363D01*
X364577Y78446D01*
X364627Y78521D01*
X364645Y78610D01*
X364680Y78694D01*
Y78764D01*
X365127Y79212D01*
X365617Y79115D01*
X365725Y78854D01*
X366255Y78324D01*
X366743Y78122D01*
X368889Y75976D01*
X368889Y75976D01*
X369435Y75611D01*
X370079Y75483D01*
X370079Y75483D01*
X372366D01*
X372853Y75281D01*
X373603D01*
X374296Y75568D01*
X374826Y76098D01*
X375113Y76790D01*
Y77540D01*
X374826Y78233D01*
X374296Y78763D01*
X373603Y79050D01*
X372853D01*
X372366Y78848D01*
X370776D01*
X369122Y80501D01*
X368920Y80989D01*
X368390Y81519D01*
X368129Y81627D01*
X368032Y82117D01*
X369327Y83412D01*
X369700Y83970D01*
X369831Y84628D01*
Y117323D01*
X369700Y117981D01*
X369327Y118539D01*
X363776Y124091D01*
X363217Y124463D01*
X362559Y124594D01*
X362335D01*
Y126190D01*
X364068D01*
Y128740D01*
X364568D01*
Y129240D01*
X367468D01*
Y130969D01*
X368199Y131602D01*
X368237Y131650D01*
X368288Y131684D01*
X368437Y131908D01*
X368602Y132120D01*
X368619Y132179D01*
X368653Y132230D01*
X368660Y132268D01*
X370569D01*
Y96842D01*
X370580Y96787D01*
X370569Y96732D01*
Y93701D01*
X370681Y93135D01*
X371002Y92655D01*
X371048Y92624D01*
X371080Y92578D01*
X372519Y91138D01*
Y90226D01*
X372631Y89660D01*
X372695Y89564D01*
X372428Y89064D01*
X371609D01*
Y84164D01*
X376080D01*
Y83715D01*
X376193Y83149D01*
X376513Y82670D01*
X377158Y82025D01*
X377637Y81705D01*
X378203Y81593D01*
X391339D01*
X391904Y81705D01*
X392384Y82025D01*
X414369Y104011D01*
X414690Y104490D01*
X414802Y105056D01*
Y126585D01*
X414690Y127150D01*
X414369Y127630D01*
X406597Y135403D01*
Y154628D01*
X406879Y154791D01*
X407413Y155325D01*
X407791Y155979D01*
X407987Y156709D01*
Y157464D01*
X407791Y158194D01*
X407413Y158848D01*
X406879Y159382D01*
X406225Y159760D01*
X405496Y159955D01*
X404740D01*
X404011Y159760D01*
X403357Y159382D01*
X402823Y158848D01*
X402445Y158194D01*
X402250Y157464D01*
Y156709D01*
X402445Y155979D01*
X402823Y155325D01*
X403357Y154791D01*
X403640Y154628D01*
Y134790D01*
X403752Y134225D01*
X404073Y133745D01*
X411845Y125972D01*
Y105902D01*
X411674Y105773D01*
X411174Y106023D01*
Y111010D01*
X408254D01*
Y116217D01*
X400155D01*
X400155Y116217D01*
Y116217D01*
X400155Y116217D01*
X399694Y116311D01*
Y121697D01*
X394794D01*
Y121697D01*
X394576Y121698D01*
Y121698D01*
X394294Y121698D01*
X389676D01*
Y120580D01*
X389064D01*
Y121698D01*
X384164D01*
Y119556D01*
X382593D01*
Y119916D01*
X376147D01*
Y115832D01*
X382593D01*
Y116192D01*
X384164D01*
Y114352D01*
X382593D01*
Y114916D01*
X376147D01*
Y110832D01*
X382593D01*
Y111396D01*
X384164D01*
Y110980D01*
X389064D01*
Y111907D01*
X389676D01*
Y110586D01*
X394413D01*
Y109886D01*
X389676D01*
Y108564D01*
X389064D01*
Y110280D01*
X384164D01*
Y109352D01*
X382593D01*
Y109916D01*
X376147D01*
Y105832D01*
X382593D01*
Y106396D01*
X384164D01*
Y104680D01*
X383772Y104419D01*
X383026D01*
X383026Y104419D01*
Y104419D01*
X383026Y104419D01*
X382593Y104579D01*
Y104916D01*
X376147D01*
Y102923D01*
X373988Y100763D01*
X373526Y100955D01*
Y144929D01*
X375454Y146857D01*
X375775Y147337D01*
X375887Y147903D01*
Y163560D01*
X389983Y177655D01*
X396601D01*
X402334Y171922D01*
X402250Y171606D01*
Y170851D01*
X402445Y170122D01*
X402823Y169467D01*
X403357Y168933D01*
X404011Y168556D01*
X404740Y168360D01*
X405496D01*
X406225Y168556D01*
X406879Y168933D01*
X407413Y169467D01*
X407791Y170122D01*
X407987Y170851D01*
Y171606D01*
X407791Y172336D01*
X407413Y172990D01*
X406879Y173524D01*
X406225Y173902D01*
X405496Y174097D01*
X404740D01*
X404425Y174013D01*
X398258Y180179D01*
X397779Y180500D01*
X397213Y180612D01*
X389370D01*
X388804Y180500D01*
X388325Y180179D01*
X373363Y165218D01*
X373043Y164738D01*
X372930Y164172D01*
Y148515D01*
X371002Y146587D01*
X370681Y146107D01*
X370569Y145541D01*
Y140961D01*
X369170D01*
X369124Y141193D01*
X368649Y141904D01*
X365908Y144645D01*
X365197Y145120D01*
X364358Y145287D01*
X349503D01*
X348664Y145120D01*
X347953Y144645D01*
X343725Y140417D01*
X343250Y139706D01*
X343084Y138867D01*
Y126917D01*
X342726D01*
Y125859D01*
X341228D01*
X340389Y125692D01*
X339678Y125217D01*
X338214Y123752D01*
X337738Y123041D01*
X337572Y122202D01*
Y115354D01*
X337738Y114515D01*
X338214Y113804D01*
X340970Y111048D01*
X341681Y110573D01*
X342375Y110435D01*
Y110048D01*
X343593D01*
Y106093D01*
X342375D01*
Y105226D01*
X340974D01*
X340974Y105226D01*
X340330Y105098D01*
X339784Y104733D01*
X316997Y81946D01*
X316535Y82138D01*
Y178347D01*
X316929D01*
X324016Y185433D01*
X409055Y185827D01*
X419291Y175591D01*
D02*
G37*
G36*
X361417Y139764D02*
Y122313D01*
X360739Y121757D01*
X359910Y121260D01*
X349213D01*
X348031Y122441D01*
Y138583D01*
X350394Y140945D01*
X360236D01*
X361417Y139764D01*
D02*
G37*
G36*
X366390Y116610D02*
Y85341D01*
X361798Y80749D01*
X361769Y80769D01*
X361417Y80839D01*
X354711D01*
X353690Y81860D01*
Y89282D01*
X354769D01*
Y90671D01*
X355202Y90832D01*
X355269Y90832D01*
X359269D01*
X360916Y89185D01*
Y86689D01*
X360714Y86202D01*
Y85452D01*
X361001Y84759D01*
X361531Y84229D01*
X362224Y83943D01*
X362973D01*
X363666Y84229D01*
X364196Y84759D01*
X364483Y85452D01*
Y86202D01*
X364281Y86689D01*
Y89882D01*
X364281Y89882D01*
X364153Y90526D01*
X363788Y91071D01*
X363788Y91071D01*
X361648Y93212D01*
Y94916D01*
X355202D01*
Y94344D01*
X354769Y94182D01*
X354709Y94182D01*
X354443Y94573D01*
X354443Y94682D01*
Y96553D01*
X355202D01*
Y95832D01*
X361648D01*
Y99916D01*
X355202D01*
Y99510D01*
X354443D01*
Y101396D01*
X355202D01*
Y100832D01*
X361648D01*
Y104916D01*
X355202D01*
Y104352D01*
X354375D01*
Y105993D01*
X348775D01*
Y101093D01*
X349887D01*
Y94682D01*
X349887Y94573D01*
X349622Y94182D01*
X349169D01*
Y89282D01*
X350249D01*
Y82255D01*
X348833Y80839D01*
X321302D01*
X321110Y81301D01*
X341670Y101861D01*
X342375D01*
Y100993D01*
X342407D01*
Y94573D01*
X342604D01*
X342869Y94182D01*
Y89282D01*
X348469D01*
Y94182D01*
X347228D01*
X346963Y94573D01*
Y100993D01*
X348175D01*
Y103043D01*
X345275D01*
Y104043D01*
X348175D01*
Y106093D01*
X346957D01*
Y110048D01*
X348175D01*
Y112098D01*
X345275D01*
Y113098D01*
X348175D01*
Y114802D01*
X348365Y114905D01*
X348775Y114631D01*
Y110148D01*
X354375D01*
Y111120D01*
X355202D01*
Y110832D01*
X361648D01*
Y114916D01*
X355202D01*
Y114077D01*
X354375D01*
Y115048D01*
X353235D01*
X352844Y115310D01*
X352844Y115548D01*
Y116192D01*
X355202D01*
Y115832D01*
X361648D01*
Y119916D01*
X360329D01*
X360261Y120412D01*
X360318Y120450D01*
X360382Y120473D01*
X360982Y120832D01*
X361648D01*
Y120832D01*
X362148Y120852D01*
X366390Y116610D01*
D02*
G37*
G36*
X405830Y105002D02*
X405431Y104602D01*
X395484Y95526D01*
X395027Y95728D01*
Y95957D01*
X392127D01*
Y96957D01*
X395027D01*
Y98919D01*
X395027Y99007D01*
X395027D01*
X395026Y99418D01*
X395026D01*
Y101469D01*
X392126D01*
Y102469D01*
X395026D01*
Y102911D01*
X399756D01*
Y110629D01*
X400155Y110873D01*
X400200Y110873D01*
X405830D01*
Y105002D01*
D02*
G37*
G36*
X25591Y275590D02*
Y240158D01*
X37402Y228346D01*
X151181D01*
X153543Y225984D01*
X194488Y266929D01*
X291944Y266929D01*
X292135Y266752D01*
X292086Y266395D01*
X292006Y266190D01*
X291341Y265746D01*
X290859Y265024D01*
X290789Y264673D01*
X295038D01*
X295006Y264830D01*
X295443Y265145D01*
X295964Y264813D01*
X296476Y264450D01*
X301387Y260965D01*
X301387Y260965D01*
Y260965D01*
X301388Y260965D01*
X301770Y260683D01*
X301920Y260568D01*
X302263Y260287D01*
X302595Y259995D01*
X302756Y259842D01*
X302756Y144260D01*
X302185Y143878D01*
X302185Y143878D01*
X290768Y132461D01*
X290351Y131838D01*
X290205Y131102D01*
X290205Y131102D01*
Y122441D01*
X290351Y121706D01*
X290768Y121082D01*
X291391Y120666D01*
X292126Y120520D01*
X292861Y120666D01*
X293484Y121082D01*
X293901Y121706D01*
X294047Y122441D01*
Y130307D01*
X302294Y138553D01*
X302756Y138362D01*
Y67323D01*
X262992Y27559D01*
X251957D01*
X251765Y28021D01*
X256532Y32788D01*
X256853Y33268D01*
X256965Y33834D01*
Y76876D01*
X256853Y77442D01*
X256532Y77921D01*
X255440Y79013D01*
Y89536D01*
X255769Y89712D01*
X255940Y89760D01*
X256693Y89610D01*
X257505Y89772D01*
X258193Y90232D01*
X258653Y90920D01*
X258815Y91732D01*
X258653Y92544D01*
X258193Y93233D01*
X257505Y93693D01*
X256693Y93854D01*
X255940Y93704D01*
X255769Y93753D01*
X255440Y93928D01*
Y121066D01*
X256117Y121743D01*
X256641Y121847D01*
X257264Y122264D01*
X257680Y122887D01*
X257827Y123622D01*
X257680Y124357D01*
X257264Y124980D01*
X256641Y125397D01*
X255906Y125543D01*
X255170Y125397D01*
X254547Y124980D01*
X254131Y124357D01*
X254027Y123834D01*
X252916Y122724D01*
X252596Y122244D01*
X252483Y121678D01*
Y78401D01*
X252596Y77835D01*
X252916Y77356D01*
X254009Y76263D01*
Y74155D01*
X253886Y74118D01*
X253509Y74035D01*
X252819Y74496D01*
X252468Y74565D01*
Y72441D01*
Y70317D01*
X252819Y70386D01*
X253509Y70847D01*
X253886Y70764D01*
X254009Y70727D01*
Y59428D01*
X253509Y59161D01*
X253256Y59211D01*
Y57087D01*
Y54962D01*
X253509Y55013D01*
X254009Y54745D01*
Y34446D01*
X248600Y29037D01*
X221945D01*
X221753Y29499D01*
X225851Y33597D01*
X225851Y33597D01*
X226293Y34259D01*
X226449Y35039D01*
Y74388D01*
X226531Y74803D01*
X226370Y75615D01*
X225910Y76303D01*
X225221Y76763D01*
X224410Y76925D01*
X223597Y76763D01*
X222909Y76303D01*
X222449Y75615D01*
X222288Y74803D01*
X222370Y74388D01*
Y35884D01*
X218840Y32354D01*
X199270D01*
X190622Y41002D01*
Y70472D01*
X190467Y71253D01*
X190025Y71914D01*
X184053Y77886D01*
X184377Y78267D01*
X195130Y70517D01*
Y58526D01*
X195144Y58453D01*
X195247Y57675D01*
X195576Y56881D01*
X196060Y56249D01*
X196098Y56194D01*
X201150Y51141D01*
X201498Y50794D01*
X201499Y50793D01*
X201499Y50792D01*
X201505Y50788D01*
X201505Y50789D01*
X201566Y50748D01*
X202180Y50277D01*
X202974Y49948D01*
X203513Y49877D01*
X203693Y49834D01*
X209970Y49581D01*
X209971Y49581D01*
X209971Y49581D01*
X211950Y49503D01*
X211984Y49508D01*
X212018Y49501D01*
X213296D01*
X213438Y49406D01*
X214173Y49260D01*
X214908Y49406D01*
X215532Y49823D01*
X215948Y50446D01*
X216094Y51181D01*
X215948Y51916D01*
X215532Y52540D01*
X214908Y52956D01*
X214173Y53102D01*
X213438Y52956D01*
X213417Y52942D01*
X212052D01*
X210109Y53019D01*
X203906Y53269D01*
X203876Y53281D01*
X198580Y58578D01*
X198571Y58600D01*
Y71397D01*
X198544Y71534D01*
X198549Y71673D01*
X198479Y71860D01*
X198440Y72056D01*
X198363Y72171D01*
X198314Y72302D01*
X198178Y72448D01*
X198067Y72614D01*
X197951Y72691D01*
X197856Y72793D01*
X162402Y98347D01*
X162350Y98399D01*
Y103908D01*
X162405Y103989D01*
X162551Y104724D01*
X162405Y105460D01*
X161988Y106083D01*
X161365Y106499D01*
X160630Y106646D01*
X159895Y106499D01*
X159272Y106083D01*
X158855Y105460D01*
X158709Y104724D01*
X158855Y103989D01*
X158909Y103908D01*
Y98310D01*
X158909Y97686D01*
X158981Y97329D01*
X159040Y97028D01*
X159040Y97028D01*
X159040Y97028D01*
X159228Y96747D01*
X159413Y96470D01*
X160067Y95816D01*
X160183Y95738D01*
X160278Y95636D01*
X180197Y81279D01*
X180036Y80779D01*
X158492D01*
X158409Y80981D01*
X157697Y81909D01*
X156768Y82621D01*
X155687Y83069D01*
X155471Y83098D01*
X153023Y85545D01*
Y134055D01*
X152868Y134836D01*
X152426Y135497D01*
X147816Y140108D01*
X147154Y140550D01*
X146937Y140593D01*
X143074Y144455D01*
X142839Y144808D01*
X142151Y145267D01*
X141339Y145429D01*
X140527Y145267D01*
X139838Y144808D01*
X139378Y144119D01*
X139217Y143307D01*
X139378Y142495D01*
X139838Y141807D01*
X140191Y141571D01*
X144538Y137224D01*
X145200Y136782D01*
X145417Y136738D01*
X148945Y133210D01*
Y85691D01*
X147418Y85059D01*
X147418Y85058D01*
X147417Y85058D01*
X147270Y84960D01*
X147120Y84860D01*
X147120Y84859D01*
X147120Y84859D01*
X144276Y82012D01*
X144225Y81937D01*
X144161Y81873D01*
X143725Y81218D01*
X143705Y81171D01*
X143560Y80981D01*
X143112Y79900D01*
X142959Y78740D01*
X143112Y77580D01*
X143560Y76499D01*
X144272Y75571D01*
X145200Y74859D01*
X146281Y74411D01*
X147441Y74259D01*
X154528D01*
X155687Y74411D01*
X156768Y74859D01*
X157697Y75571D01*
X158409Y76499D01*
X158492Y76701D01*
X179470D01*
X186544Y69628D01*
Y40157D01*
X186699Y39377D01*
X187141Y38716D01*
X196357Y29499D01*
X196166Y29037D01*
X76597D01*
X71912Y33723D01*
X71432Y34043D01*
X70866Y34156D01*
X66869D01*
X66855Y34178D01*
X66166Y34637D01*
X65354Y34799D01*
X64542Y34637D01*
X63854Y34178D01*
X63394Y33489D01*
X63232Y32677D01*
X63394Y31865D01*
X63854Y31177D01*
X64542Y30717D01*
X65354Y30555D01*
X66166Y30717D01*
X66855Y31177D01*
X66869Y31199D01*
X70254D01*
X73431Y28021D01*
X73240Y27559D01*
X57785D01*
X35942Y48719D01*
X35827Y52362D01*
X57087Y73622D01*
Y75981D01*
X57582Y76052D01*
X57912Y75559D01*
X58405Y75230D01*
X58986Y75114D01*
X59568Y75230D01*
X60061Y75559D01*
X60390Y76052D01*
X60506Y76634D01*
X60390Y77215D01*
X60061Y77709D01*
X59568Y78038D01*
X58986Y78154D01*
X58405Y78038D01*
X57912Y77709D01*
X57582Y77215D01*
X57087Y77287D01*
Y83205D01*
X57582Y83277D01*
X57912Y82784D01*
X58405Y82454D01*
X58986Y82339D01*
X59568Y82454D01*
X60061Y82784D01*
X60390Y83277D01*
X60506Y83858D01*
X60390Y84440D01*
X60061Y84933D01*
X59568Y85262D01*
X58986Y85378D01*
X58405Y85262D01*
X57912Y84933D01*
X57582Y84440D01*
X57087Y84512D01*
Y90429D01*
X57582Y90501D01*
X57912Y90008D01*
X58405Y89679D01*
X58986Y89563D01*
X59568Y89679D01*
X60061Y90008D01*
X60390Y90501D01*
X60506Y91083D01*
X60390Y91664D01*
X60061Y92157D01*
X59568Y92487D01*
X58986Y92602D01*
X58405Y92487D01*
X57912Y92157D01*
X57582Y91664D01*
X57087Y91736D01*
Y127953D01*
X14567Y170472D01*
Y200145D01*
X15094Y200214D01*
X16318Y200721D01*
X17370Y201528D01*
X18177Y202579D01*
X18684Y203804D01*
X18857Y205118D01*
X18684Y206432D01*
X18177Y207657D01*
X17370Y208708D01*
X16318Y209515D01*
X15094Y210022D01*
X14567Y210092D01*
Y221260D01*
X5906Y229921D01*
Y274410D01*
X12205Y280709D01*
X20472D01*
X25591Y275590D01*
D02*
G37*
G36*
X157176Y80095D02*
X156299Y80709D01*
X144488D01*
X144925Y81364D01*
X147769Y84211D01*
X150720Y85433D01*
X151838D01*
X157176Y80095D01*
D02*
G37*
G36*
X351969Y82284D02*
X354331Y79921D01*
X361417D01*
X361811Y79528D01*
X362992D01*
X363779Y79134D01*
X363779Y78873D01*
X363418Y78631D01*
X362205Y79134D01*
X362918Y78420D01*
X363418Y78631D01*
X363124Y76646D01*
X362992Y75984D01*
Y74213D01*
X364173Y72441D01*
X363386Y71653D01*
X361319Y72835D01*
X318602D01*
X317717Y74016D01*
Y77953D01*
X319685Y79921D01*
X349213D01*
X351969Y82677D01*
Y82284D01*
D02*
G37*
G36*
X326575Y63583D02*
Y63189D01*
X324606Y61221D01*
X319094D01*
X317913Y62402D01*
Y64764D01*
X319094Y65945D01*
X324213D01*
X326575Y63583D01*
D02*
G37*
G36*
X319685Y71653D02*
X325197D01*
X326378Y70472D01*
X359842D01*
X364764Y65551D01*
X360236Y61024D01*
X333521Y61024D01*
X328459Y66929D01*
X320079D01*
X318110Y68898D01*
Y70079D01*
X316535Y71653D01*
X319685D01*
X319685Y71653D01*
D02*
G37*
G36*
X363994Y62617D02*
Y50582D01*
X363636D01*
Y48531D01*
X366536D01*
Y47532D01*
X363636D01*
Y45482D01*
X364168D01*
Y41600D01*
X363802Y41233D01*
X363302Y41440D01*
Y44404D01*
X361715D01*
Y45581D01*
X363036D01*
Y50481D01*
X361124D01*
Y51069D01*
X362711D01*
Y59168D01*
X357368D01*
Y51069D01*
X358167D01*
Y50481D01*
X357436D01*
Y45581D01*
X358758D01*
Y44404D01*
X357171D01*
Y40764D01*
X357071D01*
Y39083D01*
X360236D01*
Y38083D01*
X357071D01*
Y36854D01*
X356571Y36598D01*
X356387Y36730D01*
Y38233D01*
X351487D01*
Y32633D01*
X356387D01*
Y33364D01*
X357171D01*
Y32761D01*
X360893D01*
X361273Y32471D01*
Y31604D01*
X342035D01*
X340258Y33381D01*
X340450Y33843D01*
X341213D01*
Y37689D01*
X333701D01*
Y33843D01*
X335774D01*
Y33803D01*
X335902Y33159D01*
X336267Y32614D01*
X340034Y28846D01*
X339887Y28393D01*
X339851Y28346D01*
X319685D01*
X316142Y31890D01*
X316535Y32283D01*
Y62153D01*
X317035Y62202D01*
X317066Y62050D01*
X317265Y61753D01*
X318446Y60572D01*
X318695Y60405D01*
X318767Y60138D01*
X318796Y59852D01*
X318736Y59807D01*
X318214Y59126D01*
X317885Y58332D01*
X317773Y57480D01*
X317885Y56629D01*
X318214Y55835D01*
X318736Y55154D01*
X319155Y54832D01*
Y54223D01*
X318736Y53901D01*
X318214Y53220D01*
X317885Y52426D01*
X317773Y51575D01*
X317885Y50723D01*
X318214Y49930D01*
X318736Y49248D01*
X319155Y48927D01*
Y48317D01*
X318736Y47996D01*
X318214Y47315D01*
X317885Y46521D01*
X317773Y45669D01*
X317885Y44818D01*
X318214Y44024D01*
X318736Y43343D01*
X319418Y42820D01*
X320211Y42491D01*
X321063Y42379D01*
X323031D01*
X323883Y42491D01*
X324677Y42820D01*
X325358Y43343D01*
X325881Y44024D01*
X326210Y44818D01*
X326252Y45139D01*
X326729Y45314D01*
X327058Y45048D01*
Y37476D01*
X326856Y36989D01*
Y36239D01*
X327143Y35547D01*
X327673Y35017D01*
X328365Y34730D01*
X329115D01*
X329807Y35017D01*
X330338Y35547D01*
X330624Y36239D01*
Y36989D01*
X330422Y37476D01*
Y45866D01*
X330294Y46510D01*
X329930Y47056D01*
X329930Y47056D01*
X326216Y50770D01*
X326322Y51575D01*
X326210Y52426D01*
X325881Y53220D01*
X325358Y53901D01*
X324939Y54223D01*
Y54832D01*
X325358Y55154D01*
X325852Y55798D01*
X333943D01*
Y53431D01*
X342435D01*
Y55404D01*
X344007D01*
Y55074D01*
X348907D01*
Y55074D01*
X349125D01*
Y55074D01*
X354025D01*
Y60106D01*
X360236D01*
X360587Y60176D01*
X360885Y60375D01*
X363419Y62908D01*
X363556Y62926D01*
X363994Y62617D01*
D02*
G37*
%LPC*%
G36*
X391476Y174168D02*
Y171729D01*
X393915D01*
X393742Y172375D01*
X393351Y173052D01*
X392799Y173604D01*
X392122Y173995D01*
X391476Y174168D01*
D02*
G37*
G36*
X390476Y174168D02*
X389830Y173995D01*
X389153Y173604D01*
X388601Y173052D01*
X388210Y172375D01*
X388037Y171729D01*
X390476D01*
Y174168D01*
D02*
G37*
G36*
X393915Y170729D02*
X391476D01*
Y168289D01*
X392122Y168463D01*
X392799Y168853D01*
X393351Y169406D01*
X393742Y170083D01*
X393915Y170729D01*
D02*
G37*
G36*
X390476D02*
X388037D01*
X388210Y170083D01*
X388601Y169406D01*
X389153Y168853D01*
X389830Y168463D01*
X390476Y168289D01*
Y170729D01*
D02*
G37*
G36*
X394576Y127998D02*
X394294Y127998D01*
X389676D01*
Y127329D01*
X389564Y127283D01*
X389064Y127617D01*
Y127998D01*
X384164D01*
Y126792D01*
X384110Y126784D01*
X384071Y126761D01*
X384027Y126752D01*
X383790Y126594D01*
X383545Y126449D01*
X381841Y124916D01*
X376147D01*
Y120832D01*
X382593D01*
Y121280D01*
X382647Y121288D01*
X382686Y121311D01*
X382730Y121320D01*
X382967Y121478D01*
X383211Y121623D01*
X383783Y122137D01*
X384164Y122398D01*
Y122398D01*
X384164Y122398D01*
X389064D01*
Y123067D01*
X389176Y123113D01*
X389676Y122779D01*
Y122398D01*
X394294D01*
X394794Y122397D01*
X395076Y122397D01*
X399694D01*
Y122397D01*
X400155Y122303D01*
Y122291D01*
X408254D01*
Y127634D01*
X400155D01*
Y127634D01*
X399694Y127728D01*
Y127997D01*
X395074D01*
X394576Y127998D01*
D02*
G37*
G36*
X367468Y128240D02*
X365068D01*
Y126190D01*
X367468D01*
Y128240D01*
D02*
G37*
G36*
X361648Y109916D02*
X355202D01*
Y105832D01*
X361648D01*
Y109916D01*
D02*
G37*
G36*
X17823Y276961D02*
Y272547D01*
X22237D01*
X22133Y273336D01*
X21635Y274537D01*
X20844Y275568D01*
X19813Y276360D01*
X18612Y276857D01*
X17823Y276961D01*
D02*
G37*
G36*
X16823D02*
X16034Y276857D01*
X14833Y276360D01*
X13802Y275568D01*
X13010Y274537D01*
X12513Y273336D01*
X12409Y272547D01*
X16823D01*
Y276961D01*
D02*
G37*
G36*
X22237Y271547D02*
X17823D01*
Y267133D01*
X18612Y267237D01*
X19813Y267735D01*
X20844Y268526D01*
X21635Y269557D01*
X22133Y270758D01*
X22237Y271547D01*
D02*
G37*
G36*
X16823D02*
X12409D01*
X12513Y270758D01*
X13010Y269557D01*
X13802Y268526D01*
X14833Y267735D01*
X16034Y267237D01*
X16823Y267133D01*
Y271547D01*
D02*
G37*
G36*
X279240Y266298D02*
Y264673D01*
X280865D01*
X280795Y265024D01*
X280313Y265746D01*
X279591Y266228D01*
X279240Y266298D01*
D02*
G37*
G36*
X278240D02*
X277889Y266228D01*
X277168Y265746D01*
X276686Y265024D01*
X276616Y264673D01*
X278240D01*
Y266298D01*
D02*
G37*
G36*
X211917Y265904D02*
Y264280D01*
X213542D01*
X213472Y264631D01*
X212990Y265352D01*
X212268Y265834D01*
X211917Y265904D01*
D02*
G37*
G36*
X210917D02*
X210566Y265834D01*
X209845Y265352D01*
X209363Y264631D01*
X209293Y264280D01*
X210917D01*
Y265904D01*
D02*
G37*
G36*
X295038Y263673D02*
X293413D01*
Y262049D01*
X293764Y262119D01*
X294486Y262601D01*
X294968Y263322D01*
X295038Y263673D01*
D02*
G37*
G36*
X292413D02*
X290789D01*
X290859Y263322D01*
X291341Y262601D01*
X292062Y262119D01*
X292413Y262049D01*
Y263673D01*
D02*
G37*
G36*
X280865D02*
X279240D01*
Y262049D01*
X279591Y262119D01*
X280313Y262601D01*
X280795Y263322D01*
X280865Y263673D01*
D02*
G37*
G36*
X278240D02*
X276616D01*
X276686Y263322D01*
X277168Y262601D01*
X277889Y262119D01*
X278240Y262049D01*
Y263673D01*
D02*
G37*
G36*
X213542Y263280D02*
X211917D01*
Y261655D01*
X212268Y261725D01*
X212990Y262207D01*
X213472Y262929D01*
X213542Y263280D01*
D02*
G37*
G36*
X210917D02*
X209293D01*
X209363Y262929D01*
X209845Y262207D01*
X210566Y261725D01*
X210917Y261655D01*
Y263280D01*
D02*
G37*
G36*
X246563Y256849D02*
Y255224D01*
X248187D01*
X248117Y255575D01*
X247636Y256297D01*
X246914Y256779D01*
X246563Y256849D01*
D02*
G37*
G36*
X245563D02*
X245212Y256779D01*
X244491Y256297D01*
X244008Y255575D01*
X243939Y255224D01*
X245563D01*
Y256849D01*
D02*
G37*
G36*
X212705Y255668D02*
Y254043D01*
X214329D01*
X214259Y254394D01*
X213777Y255116D01*
X213056Y255598D01*
X212705Y255668D01*
D02*
G37*
G36*
X211705D02*
X211354Y255598D01*
X210632Y255116D01*
X210150Y254394D01*
X210080Y254043D01*
X211705D01*
Y255668D01*
D02*
G37*
G36*
X248187Y254224D02*
X246563D01*
Y252600D01*
X246914Y252670D01*
X247636Y253152D01*
X248117Y253873D01*
X248187Y254224D01*
D02*
G37*
G36*
X245563D02*
X243939D01*
X244008Y253873D01*
X244491Y253152D01*
X245212Y252670D01*
X245563Y252600D01*
Y254224D01*
D02*
G37*
G36*
X214329Y253043D02*
X212705D01*
Y251419D01*
X213056Y251489D01*
X213777Y251971D01*
X214259Y252692D01*
X214329Y253043D01*
D02*
G37*
G36*
X211705D02*
X210080D01*
X210150Y252692D01*
X210632Y251971D01*
X211354Y251489D01*
X211705Y251419D01*
Y253043D01*
D02*
G37*
G36*
X269791Y252518D02*
Y250894D01*
X271416D01*
X271346Y251245D01*
X270864Y251966D01*
X270142Y252448D01*
X269791Y252518D01*
D02*
G37*
G36*
X268791D02*
X268440Y252448D01*
X267719Y251966D01*
X267237Y251245D01*
X267167Y250894D01*
X268791D01*
Y252518D01*
D02*
G37*
G36*
X281209Y250943D02*
Y249319D01*
X282833D01*
X282763Y249670D01*
X282281Y250391D01*
X281560Y250873D01*
X281209Y250943D01*
D02*
G37*
G36*
X280209D02*
X279858Y250873D01*
X279136Y250391D01*
X278654Y249670D01*
X278584Y249319D01*
X280209D01*
Y250943D01*
D02*
G37*
G36*
X271416Y249894D02*
X269791D01*
Y248269D01*
X270142Y248339D01*
X270864Y248821D01*
X271346Y249543D01*
X271416Y249894D01*
D02*
G37*
G36*
X268791D02*
X267167D01*
X267237Y249543D01*
X267719Y248821D01*
X268440Y248339D01*
X268791Y248269D01*
Y249894D01*
D02*
G37*
G36*
X282833Y248319D02*
X281209D01*
Y246694D01*
X281560Y246764D01*
X282281Y247246D01*
X282763Y247968D01*
X282833Y248319D01*
D02*
G37*
G36*
X280209D02*
X278584D01*
X278654Y247968D01*
X279136Y247246D01*
X279858Y246764D01*
X280209Y246694D01*
Y248319D01*
D02*
G37*
G36*
X280421Y241101D02*
Y239476D01*
X282046D01*
X281976Y239827D01*
X281494Y240549D01*
X280772Y241031D01*
X280421Y241101D01*
D02*
G37*
G36*
X279421D02*
X279070Y241031D01*
X278349Y240549D01*
X277867Y239827D01*
X277797Y239476D01*
X279421D01*
Y241101D01*
D02*
G37*
G36*
X234752Y239132D02*
Y237508D01*
X236376D01*
X236307Y237859D01*
X235824Y238580D01*
X235103Y239062D01*
X234752Y239132D01*
D02*
G37*
G36*
X233752D02*
X233401Y239062D01*
X232680Y238580D01*
X232197Y237859D01*
X232128Y237508D01*
X233752D01*
Y239132D01*
D02*
G37*
G36*
X282046Y238476D02*
X280421D01*
Y236852D01*
X280772Y236922D01*
X281494Y237404D01*
X281976Y238125D01*
X282046Y238476D01*
D02*
G37*
G36*
X279421D02*
X277797D01*
X277867Y238125D01*
X278349Y237404D01*
X279070Y236922D01*
X279421Y236852D01*
Y238476D01*
D02*
G37*
G36*
X236376Y236508D02*
X234752D01*
Y234883D01*
X235103Y234953D01*
X235824Y235435D01*
X236307Y236157D01*
X236376Y236508D01*
D02*
G37*
G36*
X233752D02*
X232128D01*
X232197Y236157D01*
X232680Y235435D01*
X233401Y234953D01*
X233752Y234883D01*
Y236508D01*
D02*
G37*
G36*
X281209Y231652D02*
Y230028D01*
X282833D01*
X282763Y230379D01*
X282281Y231100D01*
X281560Y231582D01*
X281209Y231652D01*
D02*
G37*
G36*
X280209D02*
X279858Y231582D01*
X279136Y231100D01*
X278654Y230379D01*
X278584Y230028D01*
X280209D01*
Y231652D01*
D02*
G37*
G36*
X282833Y229028D02*
X281209D01*
Y227403D01*
X281560Y227473D01*
X282281Y227955D01*
X282763Y228677D01*
X282833Y229028D01*
D02*
G37*
G36*
X280209D02*
X278584D01*
X278654Y228677D01*
X279136Y227955D01*
X279858Y227473D01*
X280209Y227403D01*
Y229028D01*
D02*
G37*
G36*
X281209Y224172D02*
Y222547D01*
X282833D01*
X282763Y222898D01*
X282281Y223620D01*
X281560Y224102D01*
X281209Y224172D01*
D02*
G37*
G36*
X280209D02*
X279858Y224102D01*
X279136Y223620D01*
X278654Y222898D01*
X278584Y222547D01*
X280209D01*
Y224172D01*
D02*
G37*
G36*
X282833Y221547D02*
X281209D01*
Y219923D01*
X281560Y219993D01*
X282281Y220475D01*
X282763Y221196D01*
X282833Y221547D01*
D02*
G37*
G36*
X280209D02*
X278584D01*
X278654Y221196D01*
X279136Y220475D01*
X279858Y219993D01*
X280209Y219923D01*
Y221547D01*
D02*
G37*
G36*
X77165Y218264D02*
X76353Y218102D01*
X75665Y217642D01*
X75205Y216954D01*
X75043Y216142D01*
X75205Y215330D01*
X75665Y214641D01*
X76353Y214181D01*
X77165Y214020D01*
X77977Y214181D01*
X78666Y214641D01*
X79126Y215330D01*
X79287Y216142D01*
X79126Y216954D01*
X78666Y217642D01*
X77977Y218102D01*
X77165Y218264D01*
D02*
G37*
G36*
X281209Y212361D02*
Y210736D01*
X282833D01*
X282763Y211087D01*
X282281Y211809D01*
X281560Y212291D01*
X281209Y212361D01*
D02*
G37*
G36*
X280209D02*
X279858Y212291D01*
X279136Y211809D01*
X278654Y211087D01*
X278584Y210736D01*
X280209D01*
Y212361D01*
D02*
G37*
G36*
X76772Y212358D02*
X75960Y212197D01*
X75271Y211737D01*
X74811Y211048D01*
X74650Y210236D01*
X74811Y209424D01*
X75271Y208736D01*
X75960Y208276D01*
X76772Y208114D01*
X77584Y208276D01*
X78272Y208736D01*
X78732Y209424D01*
X78894Y210236D01*
X78732Y211048D01*
X78272Y211737D01*
X77584Y212197D01*
X76772Y212358D01*
D02*
G37*
G36*
X282833Y209736D02*
X281209D01*
Y208112D01*
X281560Y208182D01*
X282281Y208664D01*
X282763Y209385D01*
X282833Y209736D01*
D02*
G37*
G36*
X280209D02*
X278584D01*
X278654Y209385D01*
X279136Y208664D01*
X279858Y208182D01*
X280209Y208112D01*
Y209736D01*
D02*
G37*
G36*
X31996Y213969D02*
Y205618D01*
X36476D01*
Y209055D01*
X36306Y210344D01*
X35809Y211545D01*
X35017Y212576D01*
X33986Y213368D01*
X32785Y213865D01*
X31996Y213969D01*
D02*
G37*
G36*
X30996D02*
X30207Y213865D01*
X29006Y213368D01*
X27975Y212576D01*
X27184Y211545D01*
X26686Y210344D01*
X26517Y209055D01*
Y205618D01*
X30996D01*
Y213969D01*
D02*
G37*
G36*
X104437Y204880D02*
Y203256D01*
X106061D01*
X105992Y203607D01*
X105509Y204328D01*
X104788Y204811D01*
X104437Y204880D01*
D02*
G37*
G36*
X103437D02*
X103086Y204811D01*
X102365Y204328D01*
X101883Y203607D01*
X101813Y203256D01*
X103437D01*
Y204880D01*
D02*
G37*
G36*
X120579Y204093D02*
Y202468D01*
X122203D01*
X122133Y202819D01*
X121651Y203541D01*
X120930Y204023D01*
X120579Y204093D01*
D02*
G37*
G36*
X119579D02*
X119228Y204023D01*
X118506Y203541D01*
X118024Y202819D01*
X117954Y202468D01*
X119579D01*
Y204093D01*
D02*
G37*
G36*
X77165Y206059D02*
X76353Y205897D01*
X75665Y205437D01*
X75205Y204749D01*
X75043Y203937D01*
X75205Y203125D01*
X75665Y202437D01*
X76353Y201977D01*
X77165Y201815D01*
X77977Y201977D01*
X78666Y202437D01*
X79126Y203125D01*
X79287Y203937D01*
X79126Y204749D01*
X78666Y205437D01*
X77977Y205897D01*
X77165Y206059D01*
D02*
G37*
G36*
X56299Y217474D02*
X55139Y217321D01*
X54058Y216873D01*
X53130Y216161D01*
X52418Y215233D01*
X51970Y214152D01*
X51818Y212992D01*
Y205906D01*
X51970Y204746D01*
X52418Y203665D01*
X53130Y202736D01*
X54058Y202024D01*
X55139Y201577D01*
X56299Y201424D01*
X57459Y201577D01*
X58540Y202024D01*
X59468Y202736D01*
X60180Y203665D01*
X60628Y204746D01*
X60781Y205906D01*
Y212992D01*
X60628Y214152D01*
X60180Y215233D01*
X59468Y216161D01*
X58540Y216873D01*
X57459Y217321D01*
X56299Y217474D01*
D02*
G37*
G36*
X106061Y202256D02*
X104437D01*
Y200631D01*
X104788Y200701D01*
X105509Y201183D01*
X105992Y201905D01*
X106061Y202256D01*
D02*
G37*
G36*
X103437D02*
X101813D01*
X101883Y201905D01*
X102365Y201183D01*
X103086Y200701D01*
X103437Y200631D01*
Y202256D01*
D02*
G37*
G36*
X122203Y201468D02*
X120579D01*
Y199844D01*
X120930Y199914D01*
X121651Y200396D01*
X122133Y201117D01*
X122203Y201468D01*
D02*
G37*
G36*
X119579D02*
X117954D01*
X118024Y201117D01*
X118506Y200396D01*
X119228Y199914D01*
X119579Y199844D01*
Y201468D01*
D02*
G37*
G36*
X105224Y198975D02*
Y197350D01*
X106849D01*
X106779Y197701D01*
X106297Y198423D01*
X105575Y198905D01*
X105224Y198975D01*
D02*
G37*
G36*
X104224D02*
X103873Y198905D01*
X103152Y198423D01*
X102670Y197701D01*
X102600Y197350D01*
X104224D01*
Y198975D01*
D02*
G37*
G36*
X36476Y204618D02*
X31996D01*
Y196267D01*
X32785Y196371D01*
X33986Y196869D01*
X35017Y197660D01*
X35809Y198691D01*
X36306Y199892D01*
X36476Y201181D01*
Y204618D01*
D02*
G37*
G36*
X30996D02*
X26517D01*
Y201181D01*
X26686Y199892D01*
X27184Y198691D01*
X27975Y197660D01*
X29006Y196869D01*
X30207Y196371D01*
X30996Y196267D01*
Y204618D01*
D02*
G37*
G36*
X166248Y197794D02*
Y196169D01*
X167872D01*
X167803Y196520D01*
X167321Y197242D01*
X166599Y197724D01*
X166248Y197794D01*
D02*
G37*
G36*
X165248D02*
X164897Y197724D01*
X164175Y197242D01*
X163693Y196520D01*
X163624Y196169D01*
X165248D01*
Y197794D01*
D02*
G37*
G36*
X280421Y197400D02*
Y195776D01*
X282046D01*
X281976Y196127D01*
X281494Y196848D01*
X280772Y197330D01*
X280421Y197400D01*
D02*
G37*
G36*
X279421D02*
X279070Y197330D01*
X278349Y196848D01*
X277867Y196127D01*
X277797Y195776D01*
X279421D01*
Y197400D01*
D02*
G37*
G36*
X77165Y199760D02*
X76353Y199598D01*
X75665Y199138D01*
X75205Y198450D01*
X75043Y197638D01*
X75205Y196826D01*
X75665Y196137D01*
X76353Y195677D01*
X77165Y195516D01*
X77977Y195677D01*
X78666Y196137D01*
X79126Y196826D01*
X79287Y197638D01*
X79126Y198450D01*
X78666Y199138D01*
X77977Y199598D01*
X77165Y199760D01*
D02*
G37*
G36*
X125591Y199158D02*
X125591Y199158D01*
X111417D01*
X110836Y199042D01*
X110343Y198712D01*
X110343Y198712D01*
X106878Y195248D01*
X106490Y195567D01*
X106779Y195999D01*
X106849Y196350D01*
X105224D01*
Y194726D01*
X105575Y194796D01*
X106008Y195085D01*
X106327Y194697D01*
X94252Y182622D01*
X88487D01*
X88487Y182622D01*
X87906Y182506D01*
X87413Y182177D01*
X87413Y182177D01*
X87391Y182156D01*
X87060Y182090D01*
X86437Y181673D01*
X86020Y181050D01*
X85874Y180315D01*
X86020Y179580D01*
X86437Y178956D01*
X87060Y178540D01*
X87795Y178394D01*
X88530Y178540D01*
X89154Y178956D01*
X89570Y179580D01*
X89571Y179583D01*
X94067D01*
X94219Y179083D01*
X93703Y178738D01*
X93221Y178016D01*
X93151Y177665D01*
X97400D01*
X97330Y178016D01*
X96848Y178738D01*
X96127Y179220D01*
X95757Y179293D01*
X95652Y179824D01*
X95956Y180028D01*
X112047Y196118D01*
X118918D01*
X119186Y195618D01*
X119135Y195366D01*
X123384D01*
X123334Y195618D01*
X123602Y196118D01*
X124961D01*
X132531Y188549D01*
X132685Y187771D01*
X133145Y187082D01*
X133834Y186622D01*
X134646Y186461D01*
X135458Y186622D01*
X136146Y187082D01*
X136606Y187771D01*
X136767Y188583D01*
X136606Y189395D01*
X136146Y190083D01*
X135458Y190543D01*
X134680Y190698D01*
X126665Y198712D01*
X126172Y199042D01*
X125591Y199158D01*
D02*
G37*
G36*
X104224Y196350D02*
X102600D01*
X102670Y195999D01*
X103152Y195278D01*
X103873Y194796D01*
X104224Y194726D01*
Y196350D01*
D02*
G37*
G36*
X145669Y198579D02*
X144857Y198417D01*
X144169Y197957D01*
X143709Y197269D01*
X143547Y196457D01*
X143709Y195645D01*
X144169Y194956D01*
X144857Y194496D01*
X145669Y194335D01*
X146481Y194496D01*
X147170Y194956D01*
X147630Y195645D01*
X147791Y196457D01*
X147630Y197269D01*
X147170Y197957D01*
X146481Y198417D01*
X145669Y198579D01*
D02*
G37*
G36*
X206012Y195825D02*
Y194201D01*
X207636D01*
X207566Y194552D01*
X207084Y195273D01*
X206363Y195755D01*
X206012Y195825D01*
D02*
G37*
G36*
X205012D02*
X204661Y195755D01*
X203939Y195273D01*
X203457Y194552D01*
X203387Y194201D01*
X205012D01*
Y195825D01*
D02*
G37*
G36*
X167872Y195169D02*
X166248D01*
Y193545D01*
X166599Y193615D01*
X167321Y194097D01*
X167803Y194818D01*
X167872Y195169D01*
D02*
G37*
G36*
X165248D02*
X163624D01*
X163693Y194818D01*
X164175Y194097D01*
X164897Y193615D01*
X165248Y193545D01*
Y195169D01*
D02*
G37*
G36*
X185933Y195038D02*
Y193413D01*
X187557D01*
X187488Y193764D01*
X187006Y194486D01*
X186284Y194968D01*
X185933Y195038D01*
D02*
G37*
G36*
X184933D02*
X184582Y194968D01*
X183861Y194486D01*
X183379Y193764D01*
X183309Y193413D01*
X184933D01*
Y195038D01*
D02*
G37*
G36*
X282046Y194776D02*
X280421D01*
Y193151D01*
X280772Y193221D01*
X281494Y193703D01*
X281976Y194425D01*
X282046Y194776D01*
D02*
G37*
G36*
X279421D02*
X277797D01*
X277867Y194425D01*
X278349Y193703D01*
X279070Y193221D01*
X279421Y193151D01*
Y194776D01*
D02*
G37*
G36*
X123384Y194366D02*
X121760D01*
Y192742D01*
X122111Y192812D01*
X122832Y193294D01*
X123314Y194015D01*
X123384Y194366D01*
D02*
G37*
G36*
X120760D02*
X119135D01*
X119205Y194015D01*
X119687Y193294D01*
X120409Y192812D01*
X120760Y192742D01*
Y194366D01*
D02*
G37*
G36*
X187557Y192413D02*
X183309D01*
X183327Y192323D01*
X183309Y192232D01*
X187557D01*
X187539Y192323D01*
X187557Y192413D01*
D02*
G37*
G36*
X207636Y193201D02*
X206012D01*
Y191576D01*
X206363Y191646D01*
X207084Y192128D01*
X207566Y192850D01*
X207636Y193201D01*
D02*
G37*
G36*
X205012D02*
X203387D01*
X203457Y192850D01*
X203939Y192128D01*
X204661Y191646D01*
X205012Y191576D01*
Y193201D01*
D02*
G37*
G36*
X187557Y191232D02*
X185933D01*
Y189608D01*
X186284Y189678D01*
X187006Y190160D01*
X187488Y190881D01*
X187557Y191232D01*
D02*
G37*
G36*
X184933D02*
X183309D01*
X183379Y190881D01*
X183861Y190160D01*
X184582Y189678D01*
X184933Y189608D01*
Y191232D01*
D02*
G37*
G36*
X289870Y191101D02*
Y189476D01*
X291494D01*
X291425Y189827D01*
X290943Y190549D01*
X290221Y191031D01*
X289870Y191101D01*
D02*
G37*
G36*
X288870D02*
X288519Y191031D01*
X287798Y190549D01*
X287316Y189827D01*
X287246Y189476D01*
X288870D01*
Y191101D01*
D02*
G37*
G36*
X66248Y190707D02*
Y189083D01*
X67872D01*
X67803Y189434D01*
X67321Y190155D01*
X66599Y190637D01*
X66248Y190707D01*
D02*
G37*
G36*
X65248D02*
X64897Y190637D01*
X64175Y190155D01*
X63693Y189434D01*
X63624Y189083D01*
X65248D01*
Y190707D01*
D02*
G37*
G36*
X291494Y188476D02*
X289870D01*
Y186852D01*
X290221Y186922D01*
X290943Y187404D01*
X291425Y188125D01*
X291494Y188476D01*
D02*
G37*
G36*
X288870D02*
X287246D01*
X287316Y188125D01*
X287798Y187404D01*
X288519Y186922D01*
X288870Y186852D01*
Y188476D01*
D02*
G37*
G36*
X48031Y191200D02*
X44594D01*
Y186721D01*
X52945D01*
X52841Y187509D01*
X52344Y188710D01*
X51553Y189742D01*
X50521Y190533D01*
X49320Y191030D01*
X48031Y191200D01*
D02*
G37*
G36*
X43595D02*
X40157D01*
X38869Y191030D01*
X37668Y190533D01*
X36636Y189742D01*
X35845Y188710D01*
X35348Y187509D01*
X35244Y186721D01*
X43595D01*
Y191200D01*
D02*
G37*
G36*
X165854Y188345D02*
Y186721D01*
X167479D01*
X167409Y187072D01*
X166927Y187793D01*
X166205Y188275D01*
X165854Y188345D01*
D02*
G37*
G36*
X164854D02*
X164503Y188275D01*
X163782Y187793D01*
X163300Y187072D01*
X163230Y186721D01*
X164854D01*
Y188345D01*
D02*
G37*
G36*
X67872Y188083D02*
X66248D01*
Y186458D01*
X66599Y186528D01*
X67321Y187010D01*
X67803Y187732D01*
X67872Y188083D01*
D02*
G37*
G36*
X65248D02*
X63624D01*
X63693Y187732D01*
X64175Y187010D01*
X64897Y186528D01*
X65248Y186458D01*
Y188083D01*
D02*
G37*
G36*
X61130Y186376D02*
Y184752D01*
X62754D01*
X62685Y185103D01*
X62202Y185825D01*
X61481Y186307D01*
X61130Y186376D01*
D02*
G37*
G36*
X60130D02*
X59779Y186307D01*
X59057Y185825D01*
X58575Y185103D01*
X58506Y184752D01*
X60130D01*
Y186376D01*
D02*
G37*
G36*
X107193Y185983D02*
Y184358D01*
X108817D01*
X108747Y184709D01*
X108265Y185431D01*
X107544Y185913D01*
X107193Y185983D01*
D02*
G37*
G36*
X106193D02*
X105842Y185913D01*
X105120Y185431D01*
X104638Y184709D01*
X104569Y184358D01*
X106193D01*
Y185983D01*
D02*
G37*
G36*
X167479Y185721D02*
X165854D01*
Y184096D01*
X166205Y184166D01*
X166927Y184648D01*
X167409Y185370D01*
X167479Y185721D01*
D02*
G37*
G36*
X164854D02*
X163230D01*
X163300Y185370D01*
X163782Y184648D01*
X164503Y184166D01*
X164854Y184096D01*
Y185721D01*
D02*
G37*
G36*
X62754Y183752D02*
X61130D01*
Y182128D01*
X61481Y182197D01*
X62202Y182679D01*
X62685Y183401D01*
X62754Y183752D01*
D02*
G37*
G36*
X60130D02*
X58506D01*
X58575Y183401D01*
X59057Y182679D01*
X59779Y182197D01*
X60130Y182128D01*
Y183752D01*
D02*
G37*
G36*
X108817Y183358D02*
X107193D01*
Y181734D01*
X107544Y181804D01*
X108265Y182286D01*
X108747Y183007D01*
X108817Y183358D01*
D02*
G37*
G36*
X106193D02*
X104569D01*
X104638Y183007D01*
X105120Y182286D01*
X105842Y181804D01*
X106193Y181734D01*
Y183358D01*
D02*
G37*
G36*
X52945Y185721D02*
X44594D01*
Y181241D01*
X48031D01*
X49320Y181411D01*
X50521Y181908D01*
X51553Y182699D01*
X52344Y183731D01*
X52841Y184932D01*
X52945Y185721D01*
D02*
G37*
G36*
X43595D02*
X35244D01*
X35348Y184932D01*
X35845Y183731D01*
X36636Y182699D01*
X37668Y181908D01*
X38869Y181411D01*
X40157Y181241D01*
X43595D01*
Y185721D01*
D02*
G37*
G36*
X166642Y182439D02*
Y180815D01*
X168266D01*
X168196Y181166D01*
X167714Y181887D01*
X166993Y182369D01*
X166642Y182439D01*
D02*
G37*
G36*
X165642D02*
X165291Y182369D01*
X164569Y181887D01*
X164087Y181166D01*
X164017Y180815D01*
X165642D01*
Y182439D01*
D02*
G37*
G36*
X168266Y179815D02*
X166642D01*
Y178191D01*
X166993Y178260D01*
X167714Y178743D01*
X168196Y179464D01*
X168266Y179815D01*
D02*
G37*
G36*
X165642D02*
X164017D01*
X164087Y179464D01*
X164569Y178743D01*
X165291Y178260D01*
X165642Y178191D01*
Y179815D01*
D02*
G37*
G36*
X53256Y178109D02*
Y176484D01*
X54880D01*
X54811Y176835D01*
X54328Y177557D01*
X53607Y178039D01*
X53256Y178109D01*
D02*
G37*
G36*
X52256D02*
X51905Y178039D01*
X51183Y177557D01*
X50701Y176835D01*
X50631Y176484D01*
X52256D01*
Y178109D01*
D02*
G37*
G36*
X251287Y176927D02*
Y175303D01*
X252912D01*
X252842Y175654D01*
X252360Y176376D01*
X251638Y176858D01*
X251287Y176927D01*
D02*
G37*
G36*
X250287D02*
X249936Y176858D01*
X249215Y176376D01*
X248733Y175654D01*
X248663Y175303D01*
X250287D01*
Y176927D01*
D02*
G37*
G36*
X97400Y176665D02*
X95776D01*
Y175041D01*
X96127Y175111D01*
X96848Y175593D01*
X97330Y176314D01*
X97400Y176665D01*
D02*
G37*
G36*
X94776D02*
X93151D01*
X93221Y176314D01*
X93703Y175593D01*
X94425Y175111D01*
X94776Y175041D01*
Y176665D01*
D02*
G37*
G36*
X239476Y176140D02*
Y174516D01*
X241101D01*
X241031Y174867D01*
X240549Y175588D01*
X239827Y176070D01*
X239476Y176140D01*
D02*
G37*
G36*
X238476D02*
X238125Y176070D01*
X237404Y175588D01*
X236922Y174867D01*
X236852Y174516D01*
X238476D01*
Y176140D01*
D02*
G37*
G36*
X113098D02*
Y174516D01*
X114723D01*
X114653Y174867D01*
X114171Y175588D01*
X113450Y176070D01*
X113098Y176140D01*
D02*
G37*
G36*
X112098D02*
X111747Y176070D01*
X111026Y175588D01*
X110544Y174867D01*
X110474Y174516D01*
X112098D01*
Y176140D01*
D02*
G37*
G36*
X296563Y175746D02*
Y174122D01*
X298187D01*
X298117Y174473D01*
X297636Y175195D01*
X296914Y175677D01*
X296563Y175746D01*
D02*
G37*
G36*
X295563D02*
X295212Y175677D01*
X294491Y175195D01*
X294008Y174473D01*
X293939Y174122D01*
X295563D01*
Y175746D01*
D02*
G37*
G36*
X193807D02*
Y174122D01*
X195431D01*
X195362Y174473D01*
X194880Y175195D01*
X194158Y175677D01*
X193807Y175746D01*
D02*
G37*
G36*
X192807D02*
X192456Y175677D01*
X191735Y175195D01*
X191253Y174473D01*
X191183Y174122D01*
X192807D01*
Y175746D01*
D02*
G37*
G36*
X54880Y175484D02*
X53256D01*
Y173860D01*
X53607Y173930D01*
X54328Y174412D01*
X54811Y175133D01*
X54880Y175484D01*
D02*
G37*
G36*
X52256D02*
X50631D01*
X50701Y175133D01*
X51183Y174412D01*
X51905Y173930D01*
X52256Y173860D01*
Y175484D01*
D02*
G37*
G36*
X87508Y174959D02*
Y173335D01*
X89132D01*
X89062Y173686D01*
X88580Y174407D01*
X87859Y174889D01*
X87508Y174959D01*
D02*
G37*
G36*
X86508D02*
X86157Y174889D01*
X85435Y174407D01*
X84953Y173686D01*
X84883Y173335D01*
X86508D01*
Y174959D01*
D02*
G37*
G36*
X252912Y174303D02*
X251287D01*
Y172679D01*
X251638Y172749D01*
X252360Y173231D01*
X252842Y173952D01*
X252912Y174303D01*
D02*
G37*
G36*
X250287D02*
X248663D01*
X248733Y173952D01*
X249215Y173231D01*
X249936Y172749D01*
X250287Y172679D01*
Y174303D01*
D02*
G37*
G36*
X151575Y176138D02*
X150763Y175976D01*
X150074Y175516D01*
X149615Y174828D01*
X149453Y174016D01*
X149615Y173204D01*
X150074Y172515D01*
X150763Y172055D01*
X151575Y171894D01*
X152387Y172055D01*
X153075Y172515D01*
X153535Y173204D01*
X153697Y174016D01*
X153535Y174828D01*
X153075Y175516D01*
X152387Y175976D01*
X151575Y176138D01*
D02*
G37*
G36*
X241101Y173516D02*
X239476D01*
Y171891D01*
X239827Y171961D01*
X240549Y172443D01*
X241031Y173165D01*
X241101Y173516D01*
D02*
G37*
G36*
X238476D02*
X236852D01*
X236922Y173165D01*
X237404Y172443D01*
X238125Y171961D01*
X238476Y171891D01*
Y173516D01*
D02*
G37*
G36*
X114723D02*
X113098D01*
Y171891D01*
X113450Y171961D01*
X114171Y172443D01*
X114653Y173165D01*
X114723Y173516D01*
D02*
G37*
G36*
X112098D02*
X110474D01*
X110544Y173165D01*
X111026Y172443D01*
X111747Y171961D01*
X112098Y171891D01*
Y173516D01*
D02*
G37*
G36*
X298187Y173122D02*
X296563D01*
Y171498D01*
X296914Y171567D01*
X297636Y172050D01*
X298117Y172771D01*
X298187Y173122D01*
D02*
G37*
G36*
X295563D02*
X293939D01*
X294008Y172771D01*
X294491Y172050D01*
X295212Y171567D01*
X295563Y171498D01*
Y173122D01*
D02*
G37*
G36*
X195431D02*
X193807D01*
Y171498D01*
X194158Y171567D01*
X194880Y172050D01*
X195362Y172771D01*
X195431Y173122D01*
D02*
G37*
G36*
X192807D02*
X191183D01*
X191253Y172771D01*
X191735Y172050D01*
X192456Y171567D01*
X192807Y171498D01*
Y173122D01*
D02*
G37*
G36*
X89132Y172335D02*
X87508D01*
Y170710D01*
X87859Y170780D01*
X88580Y171262D01*
X89062Y171984D01*
X89132Y172335D01*
D02*
G37*
G36*
X86508D02*
X84883D01*
X84953Y171984D01*
X85435Y171262D01*
X86157Y170780D01*
X86508Y170710D01*
Y172335D01*
D02*
G37*
G36*
X256012Y171022D02*
Y169398D01*
X257636D01*
X257566Y169749D01*
X257084Y170470D01*
X256363Y170952D01*
X256012Y171022D01*
D02*
G37*
G36*
X255012D02*
X254661Y170952D01*
X253939Y170470D01*
X253457Y169749D01*
X253387Y169398D01*
X255012D01*
Y171022D01*
D02*
G37*
G36*
X74122D02*
Y169398D01*
X75746D01*
X75677Y169749D01*
X75195Y170470D01*
X74473Y170952D01*
X74122Y171022D01*
D02*
G37*
G36*
X73122D02*
X72771Y170952D01*
X72050Y170470D01*
X71567Y169749D01*
X71498Y169398D01*
X73122D01*
Y171022D01*
D02*
G37*
G36*
X211524Y170628D02*
Y169004D01*
X213148D01*
X213078Y169355D01*
X212596Y170076D01*
X211875Y170559D01*
X211524Y170628D01*
D02*
G37*
G36*
X210524D02*
X210173Y170559D01*
X209451Y170076D01*
X208969Y169355D01*
X208899Y169004D01*
X210524D01*
Y170628D01*
D02*
G37*
G36*
X188689Y169841D02*
Y168217D01*
X190313D01*
X190243Y168568D01*
X189761Y169289D01*
X189040Y169771D01*
X188689Y169841D01*
D02*
G37*
G36*
X187689D02*
X187338Y169771D01*
X186617Y169289D01*
X186134Y168568D01*
X186065Y168217D01*
X187689D01*
Y169841D01*
D02*
G37*
G36*
X248138Y168660D02*
Y167035D01*
X249762D01*
X249692Y167386D01*
X249210Y168108D01*
X248489Y168590D01*
X248138Y168660D01*
D02*
G37*
G36*
X247138D02*
X246787Y168590D01*
X246065Y168108D01*
X245583Y167386D01*
X245513Y167035D01*
X247138D01*
Y168660D01*
D02*
G37*
G36*
X257636Y168398D02*
X256012D01*
Y166773D01*
X256363Y166843D01*
X257084Y167325D01*
X257566Y168047D01*
X257636Y168398D01*
D02*
G37*
G36*
X255012D02*
X253387D01*
X253457Y168047D01*
X253939Y167325D01*
X254661Y166843D01*
X255012Y166773D01*
Y168398D01*
D02*
G37*
G36*
X75746D02*
X74122D01*
Y166773D01*
X74473Y166843D01*
X75195Y167325D01*
X75677Y168047D01*
X75746Y168398D01*
D02*
G37*
G36*
X73122D02*
X71498D01*
X71567Y168047D01*
X72050Y167325D01*
X72771Y166843D01*
X73122Y166773D01*
Y168398D01*
D02*
G37*
G36*
X240657Y168266D02*
Y166642D01*
X242282D01*
X242212Y166993D01*
X241730Y167714D01*
X241008Y168196D01*
X240657Y168266D01*
D02*
G37*
G36*
X239657D02*
X239306Y168196D01*
X238585Y167714D01*
X238103Y166993D01*
X238033Y166642D01*
X239657D01*
Y168266D01*
D02*
G37*
G36*
X213148Y168004D02*
X211524D01*
Y166380D01*
X211875Y166449D01*
X212596Y166931D01*
X213078Y167653D01*
X213148Y168004D01*
D02*
G37*
G36*
X210524D02*
X208899D01*
X208969Y167653D01*
X209451Y166931D01*
X210173Y166449D01*
X210524Y166380D01*
Y168004D01*
D02*
G37*
G36*
X190313Y167217D02*
X188689D01*
Y165592D01*
X189040Y165662D01*
X189761Y166144D01*
X190243Y166866D01*
X190313Y167217D01*
D02*
G37*
G36*
X187689D02*
X186065D01*
X186134Y166866D01*
X186617Y166144D01*
X187338Y165662D01*
X187689Y165592D01*
Y167217D01*
D02*
G37*
G36*
X143701Y172594D02*
X142889Y172433D01*
X142200Y171973D01*
X141740Y171284D01*
X141579Y170472D01*
X141740Y169660D01*
X142200Y168972D01*
X142648Y168673D01*
X142668Y168085D01*
X142594Y168036D01*
X142134Y167347D01*
X141973Y166535D01*
X142134Y165723D01*
X142594Y165035D01*
X143282Y164575D01*
X144095Y164414D01*
X144906Y164575D01*
X145595Y165035D01*
X146055Y165723D01*
X146216Y166535D01*
X146055Y167347D01*
X145595Y168036D01*
X145147Y168335D01*
X145127Y168923D01*
X145201Y168972D01*
X145661Y169660D01*
X145823Y170472D01*
X145661Y171284D01*
X145201Y171973D01*
X144513Y172433D01*
X143701Y172594D01*
D02*
G37*
G36*
X249762Y166035D02*
X248138D01*
Y164411D01*
X248489Y164481D01*
X249210Y164963D01*
X249692Y165684D01*
X249762Y166035D01*
D02*
G37*
G36*
X247138D02*
X245513D01*
X245583Y165684D01*
X246065Y164963D01*
X246787Y164481D01*
X247138Y164411D01*
Y166035D01*
D02*
G37*
G36*
X242282Y165642D02*
X240657D01*
Y164017D01*
X241008Y164087D01*
X241730Y164569D01*
X242212Y165291D01*
X242282Y165642D01*
D02*
G37*
G36*
X239657D02*
X238033D01*
X238103Y165291D01*
X238585Y164569D01*
X239306Y164087D01*
X239657Y164017D01*
Y165642D01*
D02*
G37*
G36*
X148819Y167870D02*
X148007Y167708D01*
X147318Y167248D01*
X146859Y166560D01*
X146697Y165748D01*
X146859Y164936D01*
X147318Y164248D01*
X148007Y163788D01*
X148819Y163626D01*
X149631Y163788D01*
X150319Y164248D01*
X150779Y164936D01*
X150941Y165748D01*
X150779Y166560D01*
X150319Y167248D01*
X149631Y167708D01*
X148819Y167870D01*
D02*
G37*
G36*
X193020Y165117D02*
Y163492D01*
X194644D01*
X194574Y163843D01*
X194092Y164565D01*
X193371Y165047D01*
X193020Y165117D01*
D02*
G37*
G36*
X192020D02*
X191669Y165047D01*
X190947Y164565D01*
X190465Y163843D01*
X190395Y163492D01*
X192020D01*
Y165117D01*
D02*
G37*
G36*
X111524D02*
Y163492D01*
X113148D01*
X113078Y163843D01*
X112596Y164565D01*
X111875Y165047D01*
X111524Y165117D01*
D02*
G37*
G36*
X110524D02*
X110173Y165047D01*
X109451Y164565D01*
X108969Y163843D01*
X108899Y163492D01*
X110524D01*
Y165117D01*
D02*
G37*
G36*
X257193Y163542D02*
Y161917D01*
X258817D01*
X258748Y162268D01*
X258265Y162990D01*
X257544Y163472D01*
X257193Y163542D01*
D02*
G37*
G36*
X256193D02*
X255842Y163472D01*
X255120Y162990D01*
X254638Y162268D01*
X254569Y161917D01*
X256193D01*
Y163542D01*
D02*
G37*
G36*
X181209Y163148D02*
Y161524D01*
X182833D01*
X182763Y161875D01*
X182281Y162596D01*
X181560Y163078D01*
X181209Y163148D01*
D02*
G37*
G36*
X180209D02*
X179858Y163078D01*
X179136Y162596D01*
X178654Y161875D01*
X178584Y161524D01*
X180209D01*
Y163148D01*
D02*
G37*
G36*
X194644Y162492D02*
X193020D01*
Y160868D01*
X193371Y160938D01*
X194092Y161420D01*
X194574Y162141D01*
X194644Y162492D01*
D02*
G37*
G36*
X192020D02*
X190395D01*
X190465Y162141D01*
X190947Y161420D01*
X191669Y160938D01*
X192020Y160868D01*
Y162492D01*
D02*
G37*
G36*
X113148D02*
X111524D01*
Y160868D01*
X111875Y160938D01*
X112596Y161420D01*
X113078Y162141D01*
X113148Y162492D01*
D02*
G37*
G36*
X110524D02*
X108899D01*
X108969Y162141D01*
X109451Y161420D01*
X110173Y160938D01*
X110524Y160868D01*
Y162492D01*
D02*
G37*
G36*
X158374Y162361D02*
Y160736D01*
X159998D01*
X159929Y161087D01*
X159447Y161809D01*
X158725Y162291D01*
X158374Y162361D01*
D02*
G37*
G36*
X157374D02*
X157023Y162291D01*
X156301Y161809D01*
X155819Y161087D01*
X155750Y160736D01*
X157374D01*
Y162361D01*
D02*
G37*
G36*
X250106Y161179D02*
Y159555D01*
X251731D01*
X251661Y159906D01*
X251179Y160628D01*
X250457Y161110D01*
X250106Y161179D01*
D02*
G37*
G36*
X249106D02*
X248755Y161110D01*
X248034Y160628D01*
X247552Y159906D01*
X247482Y159555D01*
X249106D01*
Y161179D01*
D02*
G37*
G36*
X239870D02*
Y159555D01*
X241494D01*
X241425Y159906D01*
X240943Y160628D01*
X240221Y161110D01*
X239870Y161179D01*
D02*
G37*
G36*
X238870D02*
X238519Y161110D01*
X237798Y160628D01*
X237316Y159906D01*
X237246Y159555D01*
X238870D01*
Y161179D01*
D02*
G37*
G36*
X258817Y160917D02*
X257193D01*
Y159293D01*
X257544Y159363D01*
X258265Y159845D01*
X258748Y160566D01*
X258817Y160917D01*
D02*
G37*
G36*
X256193D02*
X254569D01*
X254638Y160566D01*
X255120Y159845D01*
X255842Y159363D01*
X256193Y159293D01*
Y160917D01*
D02*
G37*
G36*
X182833Y160524D02*
X181209D01*
Y158899D01*
X181560Y158969D01*
X182281Y159451D01*
X182763Y160173D01*
X182833Y160524D01*
D02*
G37*
G36*
X180209D02*
X178584D01*
X178654Y160173D01*
X179136Y159451D01*
X179858Y158969D01*
X180209Y158899D01*
Y160524D01*
D02*
G37*
G36*
X159998Y159736D02*
X158374D01*
Y158112D01*
X158725Y158182D01*
X159447Y158664D01*
X159929Y159385D01*
X159998Y159736D01*
D02*
G37*
G36*
X157374D02*
X155750D01*
X155819Y159385D01*
X156301Y158664D01*
X157023Y158182D01*
X157374Y158112D01*
Y159736D01*
D02*
G37*
G36*
X251731Y158555D02*
X250106D01*
Y156931D01*
X250457Y157001D01*
X251179Y157483D01*
X251661Y158204D01*
X251731Y158555D01*
D02*
G37*
G36*
X249106D02*
X247482D01*
X247552Y158204D01*
X248034Y157483D01*
X248755Y157001D01*
X249106Y156931D01*
Y158555D01*
D02*
G37*
G36*
X241494D02*
X239870D01*
Y156931D01*
X240221Y157001D01*
X240943Y157483D01*
X241425Y158204D01*
X241494Y158555D01*
D02*
G37*
G36*
X238870D02*
X237246D01*
X237316Y158204D01*
X237798Y157483D01*
X238519Y157001D01*
X238870Y156931D01*
Y158555D01*
D02*
G37*
G36*
X70185Y156849D02*
Y155224D01*
X71809D01*
X71740Y155575D01*
X71258Y156297D01*
X70536Y156779D01*
X70185Y156849D01*
D02*
G37*
G36*
X69185D02*
X68834Y156779D01*
X68112Y156297D01*
X67630Y155575D01*
X67561Y155224D01*
X69185D01*
Y156849D01*
D02*
G37*
G36*
X213699Y206956D02*
X213249Y206867D01*
X212763Y206770D01*
X212444Y206557D01*
X212301Y206494D01*
X136272Y152927D01*
X135897D01*
X135897Y152927D01*
X135351Y152819D01*
X134888Y152509D01*
X134888Y152509D01*
X133317Y150939D01*
X133255Y150845D01*
X133109Y150699D01*
X127188Y146527D01*
X126772Y146610D01*
X125960Y146449D01*
X125271Y145989D01*
X124811Y145300D01*
X124650Y144488D01*
X124811Y143676D01*
X125271Y142988D01*
X125960Y142528D01*
X126772Y142366D01*
X127584Y142528D01*
X128272Y142988D01*
X128732Y143676D01*
X128835Y144196D01*
X134502Y148188D01*
X135033Y148012D01*
X135068Y147976D01*
X135508Y147318D01*
X136196Y146859D01*
X137008Y146697D01*
X137820Y146859D01*
X138508Y147318D01*
X138968Y148007D01*
X139130Y148819D01*
X138968Y149631D01*
X138508Y150319D01*
X138372Y150410D01*
X138365Y150910D01*
X213822Y204073D01*
X213840Y204081D01*
X260937Y203698D01*
X273721Y178882D01*
X273717Y178876D01*
X273717Y178876D01*
X273727Y178851D01*
X273782Y178397D01*
X274136Y157831D01*
X274090Y157800D01*
X273630Y157111D01*
X273469Y156299D01*
X273630Y155487D01*
X274090Y154799D01*
X274779Y154339D01*
X275590Y154177D01*
X276403Y154339D01*
X277091Y154799D01*
X277551Y155487D01*
X277712Y156299D01*
X277551Y157111D01*
X277091Y157800D01*
X276991Y157866D01*
X276628Y178926D01*
X276639Y178926D01*
X276462Y179820D01*
X276374Y179952D01*
X276365Y179983D01*
X276363Y179987D01*
X276360Y179991D01*
X276359Y179995D01*
X263357Y205235D01*
X263268Y205347D01*
X262929Y205853D01*
X262135Y206384D01*
X261225Y206565D01*
X261218Y206550D01*
X213719Y206937D01*
X213719Y206952D01*
X213699Y206956D01*
D02*
G37*
G36*
X158768Y155274D02*
Y153650D01*
X160392D01*
X160322Y154001D01*
X159840Y154722D01*
X159119Y155204D01*
X158768Y155274D01*
D02*
G37*
G36*
X157768D02*
X157417Y155204D01*
X156695Y154722D01*
X156213Y154001D01*
X156143Y153650D01*
X157768D01*
Y155274D01*
D02*
G37*
G36*
X248031Y201728D02*
X247219Y201567D01*
X246531Y201107D01*
X246071Y200418D01*
X245910Y199606D01*
X245953Y199388D01*
X237510Y188959D01*
X237265Y188656D01*
X237166Y188468D01*
X237048Y188292D01*
X237033Y188215D01*
X236997Y188146D01*
X236977Y187934D01*
X236936Y187726D01*
X236936Y187337D01*
Y183001D01*
X220518Y166584D01*
X220518Y166584D01*
X220202Y166268D01*
X220047Y166035D01*
X219889Y165806D01*
X219887Y165796D01*
X219882Y165788D01*
X219828Y165515D01*
X219769Y165242D01*
X219763Y164795D01*
X219616Y153673D01*
X219610Y153210D01*
X219609Y153209D01*
X219595Y153210D01*
X219588Y153176D01*
X219610Y152712D01*
X219610Y152212D01*
Y141946D01*
X219291Y141685D01*
X218684Y141564D01*
X218177Y141841D01*
X217634Y165563D01*
X234215Y182898D01*
X234232Y182898D01*
X234232D01*
X234767Y183698D01*
X234964Y184693D01*
X234943Y184693D01*
Y193761D01*
X234965Y193775D01*
X235425Y194464D01*
X235586Y195276D01*
X235425Y196088D01*
X234965Y196776D01*
X234277Y197236D01*
X233465Y197397D01*
X232653Y197236D01*
X231964Y196776D01*
X231504Y196088D01*
X231343Y195276D01*
X231504Y194464D01*
X231964Y193775D01*
X231986Y193761D01*
Y184845D01*
X215734Y167854D01*
X215381Y167501D01*
X215381Y167501D01*
X214850Y166706D01*
X214735Y166131D01*
X214652Y165711D01*
X214662Y165658D01*
X214671Y165658D01*
X214674Y165655D01*
X215162Y144359D01*
X214723Y144118D01*
X214631Y144181D01*
X214280Y144250D01*
Y142126D01*
Y140002D01*
X214631Y140071D01*
X214819Y140197D01*
X215262Y139966D01*
X215819Y115646D01*
X204382Y104487D01*
X204013Y104149D01*
X203986Y104131D01*
X203737Y103758D01*
X203422Y103287D01*
X203224Y102292D01*
X203246D01*
Y96191D01*
X203246Y96191D01*
X203224D01*
X203422Y95196D01*
X203986Y94352D01*
X204155Y94239D01*
X204191Y94196D01*
X207816Y91230D01*
X207963Y91151D01*
X208453Y90824D01*
X209448Y90626D01*
Y90648D01*
X216474D01*
X216474Y90648D01*
Y90626D01*
X217469Y90824D01*
X218305Y91383D01*
X218294Y91395D01*
X218294Y91400D01*
X225001Y98107D01*
X234277Y97787D01*
X234326Y97712D01*
X235015Y97252D01*
X235827Y97091D01*
X236639Y97252D01*
X237327Y97712D01*
X237787Y98401D01*
X237949Y99213D01*
X237787Y100025D01*
X237327Y100713D01*
X236639Y101173D01*
X235827Y101335D01*
X235015Y101173D01*
X234370Y100742D01*
X225436Y101050D01*
X224938Y101073D01*
X224849Y101090D01*
X224467Y101014D01*
X223854Y100892D01*
X223011Y100329D01*
X223026Y100314D01*
X216317Y93604D01*
X209583D01*
X206203Y96370D01*
Y102133D01*
X218344Y113979D01*
X218359Y114001D01*
X218381Y114016D01*
X218522Y114238D01*
X218671Y114455D01*
X218676Y114481D01*
X218690Y114503D01*
X218736Y114762D01*
X218790Y115019D01*
X218786Y115045D01*
X218790Y115071D01*
X218468Y129115D01*
X218877Y129340D01*
X218964Y129325D01*
X219305Y129257D01*
X219697Y129120D01*
X219781Y128691D01*
Y114901D01*
X219759Y114886D01*
X219300Y114198D01*
X219138Y113386D01*
X219300Y112574D01*
X219759Y111885D01*
X220375Y111474D01*
X220540Y110936D01*
X211073Y101718D01*
X211024Y101728D01*
X210212Y101567D01*
X209523Y101107D01*
X209063Y100418D01*
X208902Y99606D01*
X209063Y98794D01*
X209523Y98106D01*
X210212Y97646D01*
X211024Y97484D01*
X211836Y97646D01*
X212524Y98106D01*
X212984Y98794D01*
X213145Y99606D01*
X213145Y99608D01*
X224197Y110370D01*
X224197Y110369D01*
X224242Y110404D01*
X224286Y110461D01*
X224353Y110530D01*
X224533Y110726D01*
X224535Y110727D01*
X224535Y110728D01*
X224536Y110729D01*
X225684Y111972D01*
X226139Y111728D01*
X226292Y110960D01*
X226774Y110239D01*
X227495Y109757D01*
X227847Y109687D01*
Y111811D01*
X228847D01*
Y109660D01*
X229267Y109451D01*
X229301Y109306D01*
X229441Y108598D01*
X229924Y107876D01*
X230645Y107394D01*
X230814Y107361D01*
X230919Y106830D01*
X230711Y106691D01*
X230229Y105969D01*
X230159Y105618D01*
X234408D01*
X234338Y105969D01*
X233856Y106691D01*
X233135Y107173D01*
X232966Y107206D01*
X232860Y107737D01*
X233069Y107876D01*
X233551Y108598D01*
X233620Y108949D01*
X231496D01*
Y109449D01*
X230996D01*
Y111600D01*
X230575Y111809D01*
X230542Y111954D01*
X230401Y112662D01*
X229919Y113383D01*
X229198Y113866D01*
X228346Y114035D01*
X228252Y114016D01*
X227995Y114475D01*
X250585Y138940D01*
X251085Y138950D01*
X252845Y137190D01*
X252950Y136666D01*
X253366Y136043D01*
X253989Y135627D01*
X254724Y135480D01*
X254731Y135482D01*
X254977Y135021D01*
X248955Y128998D01*
X248634Y128518D01*
X248522Y127953D01*
Y95494D01*
X244693Y91665D01*
X244150Y91830D01*
X244086Y92151D01*
X243626Y92839D01*
X242938Y93299D01*
X242126Y93461D01*
X241314Y93299D01*
X240626Y92839D01*
X240166Y92151D01*
X240004Y91339D01*
X240166Y90527D01*
X240626Y89838D01*
X241314Y89378D01*
X241635Y89314D01*
X241799Y88772D01*
X238758Y85730D01*
X205731D01*
X179431Y112030D01*
Y138979D01*
X179728Y139422D01*
X179874Y140157D01*
X179728Y140893D01*
X179311Y141516D01*
X178688Y141932D01*
X177953Y142079D01*
X177218Y141932D01*
X176594Y141516D01*
X176178Y140893D01*
X176032Y140157D01*
X176178Y139422D01*
X176474Y138979D01*
Y111417D01*
X176587Y110852D01*
X176907Y110372D01*
X204073Y83207D01*
X204552Y82886D01*
X205118Y82774D01*
X239370D01*
X239936Y82886D01*
X240416Y83207D01*
X251045Y93836D01*
X251366Y94316D01*
X251478Y94882D01*
Y127340D01*
X258093Y133955D01*
X258804D01*
X259370Y134067D01*
X259850Y134388D01*
X260494Y135032D01*
X260815Y135512D01*
X260927Y136077D01*
Y142126D01*
X260815Y142692D01*
X260494Y143171D01*
X258526Y145140D01*
X258046Y145460D01*
X257480Y145573D01*
X232675D01*
X232231Y145869D01*
X231496Y146016D01*
X230761Y145869D01*
X230138Y145453D01*
X229721Y144830D01*
X229575Y144095D01*
X229721Y143359D01*
X230138Y142736D01*
X230761Y142320D01*
X231496Y142173D01*
X232231Y142320D01*
X232675Y142616D01*
X249308D01*
X249374Y142533D01*
X249319Y141896D01*
X248966Y141543D01*
X248949Y141518D01*
X248925Y141500D01*
X229247Y120190D01*
X228766Y120326D01*
X228732Y120497D01*
X228272Y121185D01*
X228250Y121200D01*
Y166029D01*
X228253Y166035D01*
X233449Y172782D01*
X233479Y172817D01*
X241260Y180598D01*
X241580Y181077D01*
X241693Y181643D01*
Y183487D01*
X251695Y196476D01*
X252233Y196583D01*
X252922Y197043D01*
X253382Y197731D01*
X253543Y198543D01*
X253382Y199355D01*
X252922Y200044D01*
X252233Y200504D01*
X251421Y200665D01*
X250609Y200504D01*
X250294Y200293D01*
X249992Y200418D01*
X249532Y201107D01*
X248844Y201567D01*
X248031Y201728D01*
D02*
G37*
G36*
X113098Y154487D02*
Y152862D01*
X114723D01*
X114653Y153213D01*
X114171Y153935D01*
X113450Y154417D01*
X113098Y154487D01*
D02*
G37*
G36*
X112098D02*
X111747Y154417D01*
X111026Y153935D01*
X110544Y153213D01*
X110474Y152862D01*
X112098D01*
Y154487D01*
D02*
G37*
G36*
X71809Y154224D02*
X70185D01*
Y152600D01*
X70536Y152670D01*
X71258Y153152D01*
X71740Y153873D01*
X71809Y154224D01*
D02*
G37*
G36*
X69185D02*
X67561D01*
X67630Y153873D01*
X68112Y153152D01*
X68834Y152670D01*
X69185Y152600D01*
Y154224D01*
D02*
G37*
G36*
X46743Y154086D02*
Y152462D01*
X48367D01*
X48298Y152813D01*
X47815Y153534D01*
X47094Y154016D01*
X46743Y154086D01*
D02*
G37*
G36*
X45743D02*
X45392Y154016D01*
X44671Y153534D01*
X44188Y152813D01*
X44119Y152462D01*
X45743D01*
Y154086D01*
D02*
G37*
G36*
X292626Y152912D02*
Y151287D01*
X294250D01*
X294180Y151638D01*
X293699Y152360D01*
X292977Y152842D01*
X292626Y152912D01*
D02*
G37*
G36*
X291626D02*
X291275Y152842D01*
X290553Y152360D01*
X290071Y151638D01*
X290002Y151287D01*
X291626D01*
Y152912D01*
D02*
G37*
G36*
X202862D02*
Y151287D01*
X204487D01*
X204417Y151638D01*
X203935Y152360D01*
X203213Y152842D01*
X202862Y152912D01*
D02*
G37*
G36*
X201862D02*
X201511Y152842D01*
X200790Y152360D01*
X200308Y151638D01*
X200238Y151287D01*
X201862D01*
Y152912D01*
D02*
G37*
G36*
X160392Y152650D02*
X158768D01*
Y151025D01*
X159119Y151095D01*
X159840Y151577D01*
X160322Y152299D01*
X160392Y152650D01*
D02*
G37*
G36*
X157768D02*
X156143D01*
X156213Y152299D01*
X156695Y151577D01*
X157417Y151095D01*
X157768Y151025D01*
Y152650D01*
D02*
G37*
G36*
X114723Y151862D02*
X113098D01*
Y150238D01*
X113450Y150308D01*
X114171Y150790D01*
X114653Y151511D01*
X114723Y151862D01*
D02*
G37*
G36*
X112098D02*
X110474D01*
X110544Y151511D01*
X111026Y150790D01*
X111747Y150308D01*
X112098Y150238D01*
Y151862D01*
D02*
G37*
G36*
X264068Y151783D02*
Y150159D01*
X265693D01*
X265623Y150510D01*
X265141Y151231D01*
X264419Y151713D01*
X264068Y151783D01*
D02*
G37*
G36*
X263068D02*
X262717Y151713D01*
X261996Y151231D01*
X261514Y150510D01*
X261444Y150159D01*
X263068D01*
Y151783D01*
D02*
G37*
G36*
X48367Y151462D02*
X46743D01*
Y149837D01*
X47094Y149907D01*
X47815Y150389D01*
X48298Y151111D01*
X48367Y151462D01*
D02*
G37*
G36*
X45743D02*
X44119D01*
X44188Y151111D01*
X44671Y150389D01*
X45392Y149907D01*
X45743Y149837D01*
Y151462D01*
D02*
G37*
G36*
X294250Y150287D02*
X292626D01*
Y148663D01*
X292977Y148733D01*
X293699Y149215D01*
X294180Y149936D01*
X294250Y150287D01*
D02*
G37*
G36*
X291626D02*
X290002D01*
X290071Y149936D01*
X290553Y149215D01*
X291275Y148733D01*
X291626Y148663D01*
Y150287D01*
D02*
G37*
G36*
X204487D02*
X202862D01*
Y148663D01*
X203213Y148733D01*
X203935Y149215D01*
X204417Y149936D01*
X204487Y150287D01*
D02*
G37*
G36*
X201862D02*
X200238D01*
X200308Y149936D01*
X200790Y149215D01*
X201511Y148733D01*
X201862Y148663D01*
Y150287D01*
D02*
G37*
G36*
X265693Y149159D02*
X264068D01*
Y147534D01*
X264419Y147604D01*
X265141Y148086D01*
X265623Y148808D01*
X265693Y149159D01*
D02*
G37*
G36*
X263068D02*
X261444D01*
X261514Y148808D01*
X261996Y148086D01*
X262717Y147604D01*
X263068Y147534D01*
Y149159D01*
D02*
G37*
G36*
X159555Y146219D02*
Y144595D01*
X161179D01*
X161110Y144946D01*
X160628Y145667D01*
X159906Y146149D01*
X159555Y146219D01*
D02*
G37*
G36*
X158555D02*
X158204Y146149D01*
X157483Y145667D01*
X157001Y144946D01*
X156931Y144595D01*
X158555D01*
Y146219D01*
D02*
G37*
G36*
X209161Y144644D02*
Y143020D01*
X210786D01*
X210716Y143371D01*
X210234Y144092D01*
X209512Y144574D01*
X209161Y144644D01*
D02*
G37*
G36*
X208161D02*
X207810Y144574D01*
X207089Y144092D01*
X206607Y143371D01*
X206537Y143020D01*
X208161D01*
Y144644D01*
D02*
G37*
G36*
X213280Y144250D02*
X212929Y144181D01*
X212207Y143699D01*
X211725Y142977D01*
X211655Y142626D01*
X213280D01*
Y144250D01*
D02*
G37*
G36*
X161179Y143595D02*
X159555D01*
Y141970D01*
X159906Y142040D01*
X160628Y142522D01*
X161110Y143244D01*
X161179Y143595D01*
D02*
G37*
G36*
X158555D02*
X156931D01*
X157001Y143244D01*
X157483Y142522D01*
X158204Y142040D01*
X158555Y141970D01*
Y143595D01*
D02*
G37*
G36*
X210786Y142020D02*
X209161D01*
Y140395D01*
X209512Y140465D01*
X210234Y140947D01*
X210716Y141669D01*
X210786Y142020D01*
D02*
G37*
G36*
X208161D02*
X206537D01*
X206607Y141669D01*
X207089Y140947D01*
X207810Y140465D01*
X208161Y140395D01*
Y142020D01*
D02*
G37*
G36*
X213280Y141626D02*
X211655D01*
X211725Y141275D01*
X212207Y140553D01*
X212929Y140071D01*
X213280Y140002D01*
Y141626D01*
D02*
G37*
G36*
X211024Y140110D02*
X210288Y139964D01*
X209665Y139548D01*
X209249Y138924D01*
X209103Y138189D01*
X209140Y138002D01*
X207262Y136124D01*
X186218D01*
X185775Y136421D01*
X185039Y136567D01*
X184304Y136421D01*
X183681Y136004D01*
X183265Y135381D01*
X183118Y134646D01*
X183265Y133911D01*
X183681Y133287D01*
X184304Y132871D01*
X185039Y132724D01*
X185775Y132871D01*
X186218Y133167D01*
X207874D01*
X208440Y133280D01*
X208919Y133600D01*
X211727Y136408D01*
X211759Y136414D01*
X212382Y136830D01*
X212799Y137454D01*
X212945Y138189D01*
X212799Y138924D01*
X212382Y139548D01*
X211759Y139964D01*
X211024Y140110D01*
D02*
G37*
G36*
X137700Y130828D02*
X136428Y130772D01*
X135213Y130389D01*
X134139Y129705D01*
X133279Y128766D01*
X132691Y127636D01*
X132415Y126393D01*
X132471Y125120D01*
X132853Y123906D01*
X133538Y122832D01*
X134477Y121971D01*
X135607Y121383D01*
X136850Y121107D01*
X138122Y121163D01*
X139337Y121546D01*
X140411Y122230D01*
X141272Y123169D01*
X141860Y124299D01*
X142135Y125542D01*
X142080Y126815D01*
X141697Y128029D01*
X141013Y129104D01*
X140074Y129964D01*
X138944Y130552D01*
X137700Y130828D01*
D02*
G37*
G36*
X262311Y119841D02*
Y118217D01*
X263935D01*
X263866Y118568D01*
X263384Y119289D01*
X262662Y119771D01*
X262311Y119841D01*
D02*
G37*
G36*
X261311D02*
X260960Y119771D01*
X260239Y119289D01*
X259756Y118568D01*
X259687Y118217D01*
X261311D01*
Y119841D01*
D02*
G37*
G36*
X263935Y117217D02*
X262311D01*
Y115592D01*
X262662Y115662D01*
X263384Y116144D01*
X263866Y116866D01*
X263935Y117217D01*
D02*
G37*
G36*
X261311D02*
X259687D01*
X259756Y116866D01*
X260239Y116144D01*
X260960Y115662D01*
X261311Y115592D01*
Y117217D01*
D02*
G37*
G36*
X259949Y113935D02*
Y112311D01*
X261573D01*
X261503Y112662D01*
X261021Y113383D01*
X260300Y113866D01*
X259949Y113935D01*
D02*
G37*
G36*
X258949D02*
X258598Y113866D01*
X257876Y113383D01*
X257394Y112662D01*
X257324Y112311D01*
X258949D01*
Y113935D01*
D02*
G37*
G36*
X233104Y117582D02*
X232292Y117421D01*
X231604Y116961D01*
X231144Y116272D01*
X230982Y115461D01*
X231144Y114648D01*
X231604Y113960D01*
X232292Y113500D01*
X233104Y113339D01*
X233916Y113500D01*
X234605Y113960D01*
X234721Y114135D01*
X240261D01*
X240835Y113561D01*
X240953Y112968D01*
X241413Y112279D01*
X242101Y111819D01*
X242913Y111658D01*
X243725Y111819D01*
X244414Y112279D01*
X244874Y112968D01*
X245035Y113779D01*
X244874Y114592D01*
X244414Y115280D01*
X243725Y115740D01*
X242913Y115901D01*
X242354Y115790D01*
X241747Y116398D01*
X241317Y116685D01*
X240810Y116786D01*
X234721D01*
X234605Y116961D01*
X233916Y117421D01*
X233104Y117582D01*
D02*
G37*
G36*
X126418Y114803D02*
X125120Y114746D01*
X123880Y114356D01*
X122783Y113657D01*
X122246Y113070D01*
X125861Y110539D01*
X128393Y114154D01*
X127687Y114522D01*
X126418Y114803D01*
D02*
G37*
G36*
X231996Y111573D02*
Y109949D01*
X233620D01*
X233551Y110300D01*
X233069Y111021D01*
X232347Y111503D01*
X231996Y111573D01*
D02*
G37*
G36*
X261573Y111311D02*
X259949D01*
Y109687D01*
X260300Y109757D01*
X261021Y110239D01*
X261503Y110960D01*
X261573Y111311D01*
D02*
G37*
G36*
X258949D02*
X257324D01*
X257394Y110960D01*
X257876Y110239D01*
X258598Y109757D01*
X258949Y109687D01*
Y111311D01*
D02*
G37*
G36*
X129212Y113581D02*
X126681Y109965D01*
X130296Y107434D01*
X130664Y108139D01*
X130945Y109408D01*
X130888Y110707D01*
X130497Y111947D01*
X129799Y113043D01*
X129212Y113581D01*
D02*
G37*
G36*
X121672Y112251D02*
X121305Y111546D01*
X121024Y110276D01*
X121080Y108978D01*
X121471Y107738D01*
X122170Y106642D01*
X122756Y106104D01*
X125288Y109720D01*
X121672Y112251D01*
D02*
G37*
G36*
X261130Y107243D02*
Y105618D01*
X262754D01*
X262684Y105969D01*
X262202Y106691D01*
X261481Y107173D01*
X261130Y107243D01*
D02*
G37*
G36*
X260130D02*
X259779Y107173D01*
X259057Y106691D01*
X258575Y105969D01*
X258506Y105618D01*
X260130D01*
Y107243D01*
D02*
G37*
G36*
X226878Y106849D02*
Y105224D01*
X228502D01*
X228432Y105575D01*
X227950Y106297D01*
X227229Y106779D01*
X226878Y106849D01*
D02*
G37*
G36*
X225878D02*
X225527Y106779D01*
X224805Y106297D01*
X224323Y105575D01*
X224254Y105224D01*
X225878D01*
Y106849D01*
D02*
G37*
G36*
X126107Y109146D02*
X123575Y105531D01*
X124281Y105163D01*
X125550Y104882D01*
X126849Y104939D01*
X128089Y105330D01*
X129185Y106028D01*
X129723Y106614D01*
X126107Y109146D01*
D02*
G37*
G36*
X262754Y104618D02*
X261130D01*
Y102994D01*
X261481Y103064D01*
X262202Y103546D01*
X262684Y104267D01*
X262754Y104618D01*
D02*
G37*
G36*
X260130D02*
X258506D01*
X258575Y104267D01*
X259057Y103546D01*
X259779Y103064D01*
X260130Y102994D01*
Y104618D01*
D02*
G37*
G36*
X234408D02*
X232784D01*
Y102994D01*
X233135Y103064D01*
X233856Y103546D01*
X234338Y104267D01*
X234408Y104618D01*
D02*
G37*
G36*
X231784D02*
X230159D01*
X230229Y104267D01*
X230711Y103546D01*
X231432Y103064D01*
X231784Y102994D01*
Y104618D01*
D02*
G37*
G36*
X228502Y104224D02*
X226878D01*
Y102600D01*
X227229Y102670D01*
X227950Y103152D01*
X228432Y103873D01*
X228502Y104224D01*
D02*
G37*
G36*
X225878D02*
X224254D01*
X224323Y103873D01*
X224805Y103152D01*
X225527Y102670D01*
X225878Y102600D01*
Y104224D01*
D02*
G37*
G36*
X232283Y93854D02*
X231471Y93693D01*
X230783Y93233D01*
X230323Y92544D01*
X230162Y91732D01*
X230323Y90920D01*
X230783Y90232D01*
X231471Y89772D01*
X232283Y89610D01*
X233096Y89772D01*
X233784Y90232D01*
X234244Y90920D01*
X234405Y91732D01*
X234244Y92544D01*
X233784Y93233D01*
X233096Y93693D01*
X232283Y93854D01*
D02*
G37*
G36*
X66211Y92602D02*
X65629Y92487D01*
X65136Y92157D01*
X64807Y91664D01*
X64691Y91083D01*
X64807Y90501D01*
X65136Y90008D01*
X65629Y89679D01*
X66211Y89563D01*
X66792Y89679D01*
X67285Y90008D01*
X67615Y90501D01*
X67730Y91083D01*
X67615Y91664D01*
X67285Y92157D01*
X66792Y92487D01*
X66211Y92602D01*
D02*
G37*
G36*
X69823Y88990D02*
X69241Y88875D01*
X68748Y88545D01*
X68419Y88052D01*
X68303Y87471D01*
X68419Y86889D01*
X68748Y86396D01*
X69241Y86066D01*
X69823Y85951D01*
X70404Y86066D01*
X70898Y86396D01*
X71227Y86889D01*
X71343Y87471D01*
X71227Y88052D01*
X70898Y88545D01*
X70404Y88875D01*
X69823Y88990D01*
D02*
G37*
G36*
X62598D02*
X62017Y88875D01*
X61524Y88545D01*
X61194Y88052D01*
X61079Y87471D01*
X61194Y86889D01*
X61524Y86396D01*
X62017Y86066D01*
X62598Y85951D01*
X63180Y86066D01*
X63673Y86396D01*
X64003Y86889D01*
X64118Y87471D01*
X64003Y88052D01*
X63673Y88545D01*
X63180Y88875D01*
X62598Y88990D01*
D02*
G37*
G36*
X265158Y92267D02*
X263189D01*
X262337Y92155D01*
X261544Y91826D01*
X260862Y91303D01*
X260339Y90622D01*
X260011Y89828D01*
X259899Y88976D01*
X260011Y88125D01*
X260339Y87331D01*
X260862Y86650D01*
X261186Y86402D01*
Y85772D01*
X260791Y85469D01*
X260252Y84767D01*
X259913Y83949D01*
X259864Y83571D01*
X264173D01*
X268483D01*
X268433Y83949D01*
X268094Y84767D01*
X267555Y85469D01*
X267161Y85772D01*
Y86402D01*
X267484Y86650D01*
X268007Y87331D01*
X268336Y88125D01*
X268448Y88976D01*
X268336Y89828D01*
X268007Y90622D01*
X267484Y91303D01*
X266803Y91826D01*
X266009Y92155D01*
X265158Y92267D01*
D02*
G37*
G36*
X66211Y85378D02*
X65629Y85262D01*
X65136Y84933D01*
X64807Y84440D01*
X64691Y83858D01*
X64807Y83277D01*
X65136Y82784D01*
X65629Y82454D01*
X66211Y82339D01*
X66792Y82454D01*
X67285Y82784D01*
X67615Y83277D01*
X67730Y83858D01*
X67615Y84440D01*
X67285Y84933D01*
X66792Y85262D01*
X66211Y85378D01*
D02*
G37*
G36*
X69823Y81766D02*
X69241Y81650D01*
X68748Y81321D01*
X68419Y80828D01*
X68303Y80246D01*
X68419Y79664D01*
X68748Y79171D01*
X69241Y78842D01*
X69823Y78726D01*
X70404Y78842D01*
X70898Y79171D01*
X71227Y79664D01*
X71343Y80246D01*
X71227Y80828D01*
X70898Y81321D01*
X70404Y81650D01*
X69823Y81766D01*
D02*
G37*
G36*
X62598D02*
X62017Y81650D01*
X61524Y81321D01*
X61194Y80828D01*
X61079Y80246D01*
X61194Y79664D01*
X61524Y79171D01*
X62017Y78842D01*
X62598Y78726D01*
X63180Y78842D01*
X63673Y79171D01*
X64003Y79664D01*
X64118Y80246D01*
X64003Y80828D01*
X63673Y81321D01*
X63180Y81650D01*
X62598Y81766D01*
D02*
G37*
G36*
X66211Y78154D02*
X65629Y78038D01*
X65136Y77709D01*
X64807Y77215D01*
X64691Y76634D01*
X64807Y76052D01*
X65136Y75559D01*
X65629Y75230D01*
X66211Y75114D01*
X66792Y75230D01*
X67285Y75559D01*
X67615Y76052D01*
X67730Y76634D01*
X67615Y77215D01*
X67285Y77709D01*
X66792Y78038D01*
X66211Y78154D01*
D02*
G37*
G36*
X231996Y75746D02*
Y74122D01*
X233620D01*
X233551Y74473D01*
X233069Y75195D01*
X232347Y75677D01*
X231996Y75746D01*
D02*
G37*
G36*
X230996D02*
X230645Y75677D01*
X229924Y75195D01*
X229441Y74473D01*
X229372Y74122D01*
X230996D01*
Y75746D01*
D02*
G37*
G36*
X243020Y75353D02*
Y73728D01*
X244644D01*
X244574Y74079D01*
X244092Y74801D01*
X243371Y75283D01*
X243020Y75353D01*
D02*
G37*
G36*
X242020D02*
X241669Y75283D01*
X240947Y74801D01*
X240465Y74079D01*
X240395Y73728D01*
X242020D01*
Y75353D01*
D02*
G37*
G36*
X251468Y74565D02*
X251117Y74496D01*
X250396Y74013D01*
X249914Y73292D01*
X249844Y72941D01*
X251468D01*
Y74565D01*
D02*
G37*
G36*
X278346Y83417D02*
X277611Y83271D01*
X276988Y82854D01*
X276571Y82231D01*
X276425Y81496D01*
X276502Y81112D01*
X272315Y72738D01*
X268076D01*
X268007Y72905D01*
X267484Y73586D01*
X267065Y73908D01*
Y74517D01*
X267484Y74839D01*
X268007Y75520D01*
X268336Y76314D01*
X268448Y77165D01*
X268336Y78017D01*
X268007Y78811D01*
X267484Y79492D01*
X267161Y79740D01*
Y80370D01*
X267555Y80673D01*
X268094Y81375D01*
X268433Y82193D01*
X268483Y82571D01*
X264173D01*
X259864D01*
X259913Y82193D01*
X260252Y81375D01*
X260791Y80673D01*
X261186Y80370D01*
Y79740D01*
X260862Y79492D01*
X260339Y78811D01*
X260011Y78017D01*
X259899Y77165D01*
X260011Y76314D01*
X260339Y75520D01*
X260862Y74839D01*
X261281Y74517D01*
Y73908D01*
X260862Y73586D01*
X260339Y72905D01*
X260011Y72111D01*
X259899Y71260D01*
X260011Y70408D01*
X260339Y69615D01*
X260862Y68933D01*
X261281Y68612D01*
Y68002D01*
X260862Y67681D01*
X260339Y67000D01*
X260011Y66206D01*
X259899Y65354D01*
X260011Y64503D01*
X260339Y63709D01*
X260862Y63028D01*
X261281Y62706D01*
Y62097D01*
X260862Y61775D01*
X260339Y61094D01*
X260011Y60300D01*
X259899Y59449D01*
X260011Y58597D01*
X260339Y57804D01*
X260862Y57122D01*
X261544Y56599D01*
X262337Y56271D01*
X263189Y56159D01*
X265158D01*
X266009Y56271D01*
X266803Y56599D01*
X267484Y57122D01*
X268007Y57804D01*
X268336Y58597D01*
X268448Y59449D01*
X268336Y60300D01*
X268007Y61094D01*
X267484Y61775D01*
X267065Y62097D01*
Y62706D01*
X267484Y63028D01*
X268007Y63709D01*
X268336Y64503D01*
X268448Y65354D01*
X268336Y66206D01*
X268007Y67000D01*
X267484Y67681D01*
X267065Y68002D01*
Y68612D01*
X267484Y68933D01*
X268007Y69615D01*
X268076Y69781D01*
X272553D01*
X272559Y69776D01*
X272559Y69762D01*
X273543Y69958D01*
X274387Y70521D01*
X274784Y71116D01*
X274855Y71207D01*
X279127Y79751D01*
X279705Y80138D01*
X280121Y80761D01*
X280268Y81496D01*
X280121Y82231D01*
X279705Y82854D01*
X279082Y83271D01*
X278346Y83417D01*
D02*
G37*
G36*
X233620Y73122D02*
X231996D01*
Y71498D01*
X232347Y71567D01*
X233069Y72050D01*
X233551Y72771D01*
X233620Y73122D01*
D02*
G37*
G36*
X230996D02*
X229372D01*
X229441Y72771D01*
X229924Y72050D01*
X230645Y71567D01*
X230996Y71498D01*
Y73122D01*
D02*
G37*
G36*
X244644Y72728D02*
X243020D01*
Y71104D01*
X243371Y71174D01*
X244092Y71656D01*
X244574Y72377D01*
X244644Y72728D01*
D02*
G37*
G36*
X242020D02*
X240395D01*
X240465Y72377D01*
X240947Y71656D01*
X241669Y71174D01*
X242020Y71104D01*
Y72728D01*
D02*
G37*
G36*
X251468Y71941D02*
X249844D01*
X249914Y71590D01*
X250396Y70868D01*
X251117Y70386D01*
X251468Y70317D01*
Y71941D01*
D02*
G37*
G36*
X174713Y75386D02*
Y67035D01*
X179192D01*
Y70472D01*
X179023Y71761D01*
X178525Y72962D01*
X177734Y73994D01*
X176702Y74785D01*
X175501Y75282D01*
X174713Y75386D01*
D02*
G37*
G36*
X173713D02*
X172924Y75282D01*
X171723Y74785D01*
X170692Y73994D01*
X169900Y72962D01*
X169403Y71761D01*
X169233Y70472D01*
Y67035D01*
X173713D01*
Y75386D01*
D02*
G37*
G36*
X179192Y66035D02*
X174713D01*
Y57685D01*
X175501Y57788D01*
X176702Y58286D01*
X177734Y59077D01*
X178525Y60109D01*
X179023Y61310D01*
X179192Y62598D01*
Y66035D01*
D02*
G37*
G36*
X173713D02*
X169233D01*
Y62598D01*
X169403Y61310D01*
X169900Y60109D01*
X170692Y59077D01*
X171723Y58286D01*
X172924Y57788D01*
X173713Y57685D01*
Y66035D01*
D02*
G37*
G36*
X252256Y59211D02*
X251905Y59141D01*
X251183Y58659D01*
X250701Y57938D01*
X250631Y57587D01*
X252256D01*
Y59211D01*
D02*
G37*
G36*
X243807Y58030D02*
Y56406D01*
X245431D01*
X245362Y56757D01*
X244880Y57478D01*
X244158Y57960D01*
X243807Y58030D01*
D02*
G37*
G36*
X242807D02*
X242456Y57960D01*
X241735Y57478D01*
X241252Y56757D01*
X241183Y56406D01*
X242807D01*
Y58030D01*
D02*
G37*
G36*
X252256Y56587D02*
X250631D01*
X250701Y56236D01*
X251183Y55514D01*
X251905Y55032D01*
X252256Y54962D01*
Y56587D01*
D02*
G37*
G36*
X159252Y58917D02*
X155815D01*
Y54437D01*
X164166D01*
X164062Y55226D01*
X163564Y56427D01*
X162773Y57458D01*
X161742Y58249D01*
X160541Y58747D01*
X159252Y58917D01*
D02*
G37*
G36*
X154815D02*
X151378D01*
X150089Y58747D01*
X148888Y58249D01*
X147857Y57458D01*
X147065Y56427D01*
X146568Y55226D01*
X146464Y54437D01*
X154815D01*
Y58917D01*
D02*
G37*
G36*
X245431Y55405D02*
X243807D01*
Y53781D01*
X244158Y53851D01*
X244880Y54333D01*
X245362Y55054D01*
X245431Y55405D01*
D02*
G37*
G36*
X242807D02*
X241183D01*
X241252Y55054D01*
X241735Y54333D01*
X242456Y53851D01*
X242807Y53781D01*
Y55405D01*
D02*
G37*
G36*
X164166Y53437D02*
X155815D01*
Y48957D01*
X159252D01*
X160541Y49127D01*
X161742Y49624D01*
X162773Y50416D01*
X163564Y51447D01*
X164062Y52648D01*
X164166Y53437D01*
D02*
G37*
G36*
X154815D02*
X146464D01*
X146568Y52648D01*
X147065Y51447D01*
X147857Y50416D01*
X148888Y49624D01*
X150089Y49127D01*
X151378Y48957D01*
X154815D01*
Y53437D01*
D02*
G37*
G36*
X113779Y96016D02*
X113044Y95869D01*
X112421Y95453D01*
X112005Y94830D01*
X111858Y94095D01*
X112005Y93359D01*
X112063Y93273D01*
X112231Y53925D01*
X96533Y41945D01*
X73972Y41507D01*
X73647Y41724D01*
X72835Y41886D01*
X72023Y41724D01*
X71334Y41264D01*
X70874Y40576D01*
X70713Y39764D01*
X70874Y38952D01*
X71334Y38263D01*
X72023Y37803D01*
X72835Y37642D01*
X73647Y37803D01*
X74040Y38066D01*
X97163Y38515D01*
X97364Y38560D01*
X97570Y38572D01*
X97689Y38631D01*
X97818Y38659D01*
X97988Y38777D01*
X98173Y38868D01*
X114999Y51709D01*
X115078Y51798D01*
X115177Y51865D01*
X115298Y52048D01*
X115443Y52212D01*
X115482Y52325D01*
X115548Y52425D01*
X115589Y52640D01*
X115660Y52847D01*
X115653Y52967D01*
X115676Y53084D01*
X115504Y93283D01*
X115554Y93359D01*
X115701Y94095D01*
X115554Y94830D01*
X115138Y95453D01*
X114515Y95869D01*
X113779Y96016D01*
D02*
G37*
G36*
X155315Y41298D02*
X154001Y41125D01*
X152776Y40617D01*
X151725Y39811D01*
X150918Y38759D01*
X150411Y37535D01*
X150238Y36220D01*
X150411Y34906D01*
X150918Y33682D01*
X151725Y32630D01*
X152776Y31823D01*
X154001Y31316D01*
X155315Y31143D01*
X156629Y31316D01*
X157854Y31823D01*
X158905Y32630D01*
X159712Y33682D01*
X160219Y34906D01*
X160392Y36220D01*
X160219Y37535D01*
X159712Y38759D01*
X158905Y39811D01*
X157854Y40617D01*
X156629Y41125D01*
X155315Y41298D01*
D02*
G37*
G36*
X100394Y35766D02*
X99696Y35674D01*
X99046Y35405D01*
X98488Y34976D01*
X98060Y34418D01*
X97791Y33768D01*
X97699Y33071D01*
X97791Y32373D01*
X98060Y31723D01*
X98488Y31165D01*
X99046Y30737D01*
X99696Y30468D01*
X100394Y30376D01*
X101091Y30468D01*
X101741Y30737D01*
X102299Y31165D01*
X102727Y31723D01*
X102997Y32373D01*
X103088Y33071D01*
X102997Y33768D01*
X102727Y34418D01*
X102299Y34976D01*
X101741Y35405D01*
X101091Y35674D01*
X100394Y35766D01*
D02*
G37*
G36*
X88583D02*
X87885Y35674D01*
X87235Y35405D01*
X86677Y34976D01*
X86249Y34418D01*
X85980Y33768D01*
X85888Y33071D01*
X85980Y32373D01*
X86249Y31723D01*
X86677Y31165D01*
X87235Y30737D01*
X87885Y30468D01*
X88583Y30376D01*
X89280Y30468D01*
X89930Y30737D01*
X90488Y31165D01*
X90916Y31723D01*
X91186Y32373D01*
X91277Y33071D01*
X91186Y33768D01*
X90916Y34418D01*
X90488Y34976D01*
X89930Y35405D01*
X89280Y35674D01*
X88583Y35766D01*
D02*
G37*
%LPD*%
G36*
X225343Y166520D02*
X225272Y166161D01*
X225293D01*
X225293Y166161D01*
Y121200D01*
X225271Y121185D01*
X224811Y120497D01*
X224650Y119685D01*
X224811Y118873D01*
X225271Y118185D01*
X225960Y117725D01*
X226239Y117669D01*
X226416Y117124D01*
X223695Y114177D01*
X223142Y114315D01*
X222760Y114886D01*
X222738Y114901D01*
Y128478D01*
X223265Y129004D01*
X223585Y129484D01*
X223698Y130050D01*
Y140420D01*
X223585Y140986D01*
X223265Y141465D01*
X222566Y142163D01*
Y152698D01*
X222618Y153148D01*
Y153148D01*
X222621Y153176D01*
X222572Y153617D01*
X222579Y154117D01*
X222718Y164602D01*
X224882Y166766D01*
X225343Y166520D01*
D02*
G37*
%LPC*%
G36*
X342535Y51842D02*
X338689D01*
Y48587D01*
X342535D01*
Y51842D01*
D02*
G37*
G36*
X337689D02*
X333842D01*
Y48587D01*
X337689D01*
Y51842D01*
D02*
G37*
G36*
X348907Y54374D02*
Y54374D01*
X348639Y54374D01*
X344007D01*
Y48774D01*
X348907D01*
Y48774D01*
X349125D01*
Y48774D01*
X349892D01*
Y46987D01*
X349897Y46962D01*
X349893Y46937D01*
X349961Y46641D01*
X350021Y46343D01*
X350035Y46322D01*
X350040Y46297D01*
X351487Y43079D01*
Y42030D01*
X350113D01*
Y42435D01*
X342801D01*
Y33942D01*
X350113D01*
Y39073D01*
X351487D01*
Y38933D01*
X356387D01*
Y44533D01*
X354523D01*
X353257Y47347D01*
Y48774D01*
X354025D01*
Y54374D01*
X349392D01*
X349125Y54374D01*
Y54374D01*
X348907D01*
D02*
G37*
G36*
X342535Y47587D02*
X338189D01*
X333842D01*
Y44331D01*
X336507D01*
Y42535D01*
X333701D01*
Y38689D01*
X341213D01*
Y42535D01*
X339871D01*
Y44331D01*
X342535D01*
Y47587D01*
D02*
G37*
%LPD*%
D11*
X196850Y58526D02*
G03*
X197314Y57410I1575J0D01*
G01*
X202716Y52008D02*
G03*
X203762Y51553I1109J1118D01*
G01*
X361024Y77542D02*
X368110Y84628D01*
X361024Y77165D02*
Y77542D01*
X368110Y84628D02*
Y117323D01*
X362559Y122874D02*
X368110Y117323D01*
X358425Y122874D02*
X362559D01*
X351969Y78347D02*
X351969Y78347D01*
Y91732D01*
X161284Y97032D02*
X196850Y71397D01*
X160630Y98310D02*
X160630Y97686D01*
X160630Y98310D02*
Y104724D01*
X160630Y97686D02*
X161284Y97032D01*
X196850Y58526D02*
Y71397D01*
Y58526D02*
Y58526D01*
X197314Y57410D02*
X202714Y52010D01*
X212018Y51222D02*
X214133D01*
X210039Y51300D02*
X212018Y51222D01*
X214133D02*
X214173Y51181D01*
X203762Y51553D02*
X210039Y51300D01*
X202714Y52010D02*
X202716Y52008D01*
X113779Y94095D02*
X113955Y53076D01*
X97129Y40235D02*
X113955Y53076D01*
X72835Y39764D02*
X97129Y40235D01*
D13*
X292126Y122441D02*
Y131102D01*
X303543Y142520D01*
D14*
X125591Y197638D02*
X134646Y188583D01*
X94882Y181102D02*
X111417Y197638D01*
X125591D01*
X87795Y180315D02*
Y180411D01*
X88487Y181102D01*
X94882D01*
D18*
X275201Y178901D02*
G03*
X275092Y179337I-1000J-17D01*
G01*
X262088Y204581D02*
G03*
X261209Y205123I-889J-458D01*
G01*
X213707Y205509D02*
G03*
X213123Y205327I-8J-1000D01*
G01*
X134327Y149898D02*
Y149929D01*
X136724Y151500D02*
X136983Y151682D01*
X136407Y151500D02*
X136724Y151500D01*
X134327Y149929D02*
X135897Y151500D01*
X134032Y149603D02*
X134327Y149898D01*
X135897Y151500D02*
X136407D01*
X126772Y144488D02*
X134032Y149603D01*
X136983Y151682D02*
X213123Y205327D01*
X275090Y179341D02*
X275092Y179337D01*
X261207Y205123D02*
X261209Y205123D01*
X275201Y178901D02*
X275590Y156299D01*
X262088Y204581D02*
X275090Y179341D01*
X213707Y205509D02*
X261207Y205123D01*
D58*
X360236Y34843D02*
D03*
Y38583D02*
D03*
Y42323D02*
D03*
X370473D02*
D03*
Y34843D02*
D03*
D95*
X155315Y36220D02*
D03*
X13780Y205118D02*
D03*
D103*
X380709Y86614D02*
G03*
X383322Y87697I0J3696D01*
G01*
X346225Y118110D02*
G03*
X345276Y117717I0J-1343D01*
G01*
X350394Y118110D02*
G03*
X350963Y117874I569J569D01*
G01*
X404205Y124962D02*
G03*
X403638Y125197I-567J-567D01*
G01*
X338189Y57087D02*
G03*
X337239Y57480I-950J-950D01*
G01*
X318898Y69291D02*
X322047D01*
X316067Y72122D02*
Y78636D01*
Y72122D02*
X318898Y69291D01*
X383322Y87697D02*
X386964Y91339D01*
X380709Y86614D02*
X383002D01*
X316067Y78636D02*
X340974Y103543D01*
X345275D01*
X362598Y85827D02*
Y89882D01*
X358425Y92874D02*
X359606D01*
X362598Y89882D01*
X367323Y79921D02*
X370079Y77165D01*
X373228D01*
X328740Y36614D02*
Y45866D01*
X322047Y51575D02*
X323031D01*
X328740Y45866D01*
X337457Y33803D02*
Y38189D01*
X338189Y38921D02*
Y48087D01*
X337457Y38189D02*
X338189Y38921D01*
X341339Y29921D02*
X364173D01*
X337457Y33803D02*
X341339Y29921D01*
X383002Y86614D02*
X383396Y86221D01*
X387402D01*
X345485Y91732D02*
X345669D01*
X344685Y92532D02*
X345485Y91732D01*
X344685Y92532D02*
Y98032D01*
X345275Y103543D02*
Y112598D01*
X350963Y117874D02*
X358425D01*
X346225Y118110D02*
X350394D01*
X367098Y132874D02*
Y136614D01*
X364568Y130684D02*
X367098Y132874D01*
X364568Y128740D02*
Y130684D01*
X397244Y125197D02*
X403638D01*
X390182Y125198D02*
X392126D01*
X388558Y125198D02*
X390182Y125198D01*
X386614Y125198D02*
X388558D01*
X384670D02*
X386614D01*
X382087Y122874D02*
X384670Y125198D01*
X379370Y122874D02*
X382087D01*
X397243Y118898D02*
X397244Y118897D01*
X392126Y118898D02*
X397243D01*
X386615D02*
X392126D01*
X386614Y118898D02*
X386615Y118898D01*
X379370Y117874D02*
X385814D01*
X386614Y118674D01*
Y118898D01*
X386614Y91339D02*
X386964D01*
X384320D02*
X386614D01*
X386964D02*
X390977Y95351D01*
Y95657D01*
X391777Y96457D01*
X392127D01*
X392126Y100025D02*
Y101969D01*
Y100025D02*
X392127Y98400D01*
Y96457D02*
Y98400D01*
X382087Y92874D02*
X384320Y91339D01*
X379370Y92874D02*
X382087D01*
X351575Y46987D02*
X353937Y41733D01*
X351575Y46987D02*
Y51574D01*
X346457D02*
X351575D01*
X338189Y57087D02*
X345669D01*
X346457Y57874D01*
X351575D01*
X322047Y57480D02*
X337239D01*
D104*
X357760Y112598D02*
G03*
X358425Y112874I0J941D01*
G01*
Y97874D02*
G03*
X358045Y98032I-380J-380D01*
G01*
X386614Y113780D02*
G03*
X387566Y113386I951J951D01*
G01*
X384427Y112874D02*
G03*
X386614Y113780I0J3093D01*
G01*
X216457Y166471D02*
G03*
X216152Y165689I795J-760D01*
G01*
X221088Y153191D02*
G03*
X221088Y153176I1100J-14D01*
G01*
X272553Y71260D02*
G03*
X273532Y71868I-5J1100D01*
G01*
X223165Y111429D02*
G03*
X223266Y111533I-1905J1957D01*
G01*
X216474Y92126D02*
G03*
X217249Y92446I-0J1100D01*
G01*
X208753Y92373D02*
G03*
X209448Y92126I694J853D01*
G01*
X204724Y96191D02*
G03*
X205127Y95340I1100J0D01*
G01*
X205056Y103080D02*
G03*
X204724Y102292I768J-787D01*
G01*
X224887Y99590D02*
G03*
X224071Y99268I-38J-1099D01*
G01*
X233157Y183931D02*
G03*
X233465Y184693I-793J762D01*
G01*
X226999Y166831D02*
G03*
X226772Y166161I872J-670D01*
G01*
X346457Y38189D02*
Y38345D01*
X348663Y40551D01*
X352937D01*
X353937Y41551D02*
Y41733D01*
X352937Y40551D02*
X353937Y41551D01*
X377559Y83715D02*
Y89210D01*
X373997Y90226D02*
X374409Y89814D01*
X391339Y83071D02*
X413324Y105056D01*
X373997Y90226D02*
Y91751D01*
X377559Y83715D02*
X378203Y83071D01*
X391339D01*
X374409Y86614D02*
Y89814D01*
X375797Y90971D02*
X377559Y89210D01*
X413324Y105056D02*
Y126585D01*
X372125Y93623D02*
X373997Y91751D01*
X405118Y134790D02*
X413324Y126585D01*
X405118Y134790D02*
Y157087D01*
X375797Y90971D02*
Y95482D01*
X378189Y97874D01*
X379370D01*
X378189Y102874D02*
X382087D01*
X372047Y96732D02*
X378189Y102874D01*
X372047Y96842D02*
Y145541D01*
Y93701D02*
Y96732D01*
X374409Y147903D02*
Y164172D01*
X372047Y145541D02*
X374409Y147903D01*
X389370Y179134D02*
X397213D01*
X405118Y171229D01*
X374409Y164172D02*
X389370Y179134D01*
X361024Y76772D02*
Y77165D01*
X355709Y122874D02*
X358425D01*
X351575Y112598D02*
X357760D01*
X351575Y103543D02*
X352244Y102874D01*
X358425D01*
X352165Y98032D02*
X358045D01*
X355974Y128740D02*
X358268D01*
X351989Y128806D02*
X355974Y128740D01*
X350394Y127035D02*
X351989Y128806D01*
X350394Y124410D02*
Y127035D01*
X352337Y124410D02*
X355709Y122874D01*
X350394Y124410D02*
X352337D01*
X392914Y91339D02*
X393264D01*
X395093Y93167D01*
X406452Y103533D01*
X408502Y105583D01*
Y106961D01*
X379370Y112874D02*
X384427D01*
X387566Y113386D02*
X392126D01*
X394070D01*
X400662Y113545D01*
X404205D01*
X379370Y107874D02*
X386220D01*
X387008Y107086D01*
X392126D01*
X392251Y106961D02*
X397085D01*
X392126Y107086D02*
X392251Y106961D01*
X383533Y101969D02*
X385826D01*
X382087Y102874D02*
X383533Y101969D01*
X383533Y96457D02*
X385827D01*
X382087Y97874D02*
X383533Y96457D01*
X379370Y97874D02*
X382087D01*
X374803Y38189D02*
Y43701D01*
X371457Y34843D02*
X374803Y38189D01*
X370473Y34843D02*
X371457D01*
X364395D02*
X368857Y39304D01*
Y41692D01*
X360236Y34843D02*
X364395D01*
X368857Y41692D02*
X369488Y42323D01*
X370473D01*
X354527Y34843D02*
X360236D01*
X359645Y54724D02*
X360039Y55118D01*
X359645Y48622D02*
X360236Y48031D01*
X359645Y48622D02*
Y54724D01*
X360236Y46088D02*
Y48031D01*
X360236Y42323D02*
Y46087D01*
X360236Y46088D02*
X360236Y46087D01*
X370473Y33268D02*
X370473Y33267D01*
X370473Y33268D02*
Y34843D01*
X370473Y29921D02*
Y33267D01*
X353937Y35433D02*
X354527Y34843D01*
X249213Y27559D02*
X255487Y33834D01*
Y76876D01*
X253962Y78401D02*
X255487Y76876D01*
X253962Y78401D02*
Y121678D01*
X255906Y123622D01*
X231496Y144095D02*
X257480D01*
X257480Y135433D02*
X258804D01*
X259449Y136077D01*
Y142126D01*
X257480Y144095D02*
X259449Y142126D01*
X250000Y127953D02*
X257480Y135433D01*
X239370Y84252D02*
X250000Y94882D01*
Y127953D01*
X205118Y84252D02*
X239370D01*
X177953Y111417D02*
Y140157D01*
Y111417D02*
X205118Y84252D01*
X221260Y113386D02*
Y129090D01*
X222219Y130050D01*
Y140420D01*
X221088Y141551D02*
X222219Y140420D01*
X219291Y131496D02*
X219685Y131102D01*
X216457Y166471D02*
X233157Y183931D01*
X216152Y165689D02*
X217312Y115037D01*
X219291Y131496D02*
Y139764D01*
X221088Y141551D02*
Y153176D01*
X221088Y153191D02*
X221242Y164775D01*
X211024Y137795D02*
Y138189D01*
X207874Y134646D02*
X211024Y137795D01*
X185039Y134646D02*
X207874D01*
X273532Y71868D02*
X278346Y81496D01*
X264173Y71260D02*
X272553D01*
X65354Y32677D02*
X70866D01*
X75984Y27559D02*
X249213D01*
X70866Y32677D02*
X75984Y27559D01*
X251275Y140851D02*
X254724Y137402D01*
X250011Y140498D02*
X250364Y140851D01*
X251275D01*
X223266Y111533D02*
X250011Y140498D01*
X217249Y92446D02*
X224071Y99268D01*
X216474Y92126D02*
X216474D01*
X209448D02*
X216474D01*
X208751Y92375D02*
X208753Y92373D01*
X205127Y95340D02*
X208751Y92375D01*
X204724Y96191D02*
Y102292D01*
X205056Y103080D02*
X217312Y115037D01*
X224887Y99590D02*
X235827Y99213D01*
X233465Y184693D02*
X233465Y184693D01*
Y195276D01*
X232400Y173829D02*
X240214Y181643D01*
X221564Y165538D02*
X238414Y182389D01*
X232306Y173722D02*
X232400Y173829D01*
X221248Y165222D02*
X221564Y165538D01*
X240214Y181643D02*
Y183616D01*
X238414Y182389D02*
Y187337D01*
X221242Y164775D02*
X221248Y165222D01*
X240214Y183991D02*
X240443Y184287D01*
X251421Y198543D01*
X240214Y183616D02*
X240214Y183991D01*
X238659Y188029D02*
X248031Y199606D01*
X238414Y187337D02*
X238414Y187726D01*
X227000Y166832D02*
X232306Y173722D01*
X238414Y187726D02*
X238659Y188029D01*
X211024Y99606D02*
X223165Y111429D01*
X226999Y166831D02*
X227000Y166832D01*
X226772Y166161D02*
Y166161D01*
Y119685D02*
Y166161D01*
D105*
X345276Y124016D02*
Y138867D01*
Y123967D02*
Y124016D01*
X339764Y122202D02*
X341228Y123667D01*
X344976D01*
X345276Y123967D01*
X339764Y115354D02*
Y122202D01*
Y115354D02*
X342520Y112598D01*
X345275D01*
X364358Y143095D02*
X367098Y140354D01*
Y136614D02*
Y140354D01*
X349503Y143095D02*
X364358D01*
X345276Y138867D02*
X349503Y143095D01*
X357087Y67154D02*
X358593Y65648D01*
X360354D02*
X360648Y65354D01*
X364721D02*
X366186Y63890D01*
Y48331D02*
Y63890D01*
X358593Y65648D02*
X360354D01*
X360648Y65354D02*
X364721D01*
X366486Y48031D02*
X366536D01*
X366186Y48331D02*
X366486Y48031D01*
D107*
X345669Y91732D02*
D03*
X351969D02*
D03*
X351575Y112598D02*
D03*
X345275D02*
D03*
X351575Y103543D02*
D03*
X345275D02*
D03*
X385826Y101969D02*
D03*
X392126D02*
D03*
X360236Y48031D02*
D03*
X366536D02*
D03*
X392914Y91339D02*
D03*
X386614D02*
D03*
X364568Y128740D02*
D03*
X358268D02*
D03*
X380709Y86614D02*
D03*
X374409D02*
D03*
X364173Y29921D02*
D03*
X370473D02*
D03*
X392127Y96457D02*
D03*
X385827D02*
D03*
D108*
X350394Y124410D02*
D03*
Y118110D02*
D03*
X346457Y57874D02*
D03*
Y51574D02*
D03*
X351575Y57874D02*
D03*
Y51574D02*
D03*
X353937Y41733D02*
D03*
Y35433D02*
D03*
X386614Y125198D02*
D03*
Y118898D02*
D03*
X397244Y118897D02*
D03*
Y125197D02*
D03*
X386614Y113780D02*
D03*
Y107480D02*
D03*
X345276Y117717D02*
D03*
Y124016D02*
D03*
X392126Y118898D02*
D03*
Y125198D02*
D03*
Y107086D02*
D03*
Y113386D02*
D03*
D135*
X352165Y98032D02*
D03*
X344685D02*
D03*
D138*
X335827Y67323D02*
D03*
Y76323D02*
D03*
X346457Y76153D02*
D03*
Y67154D02*
D03*
X357087D02*
D03*
Y76153D02*
D03*
X338189Y48087D02*
D03*
Y57087D02*
D03*
D139*
X358098Y136614D02*
D03*
X367098D02*
D03*
X346457Y38189D02*
D03*
X337457D02*
D03*
D143*
X240810Y115461D02*
X242491Y113779D01*
X242913D01*
X233104Y115461D02*
X240810D01*
D144*
X180315Y78740D02*
X188583Y70472D01*
X150984Y78740D02*
X180315D01*
X188583Y40157D02*
Y70472D01*
X150984Y78740D02*
Y134055D01*
X146374Y138666D02*
X150984Y134055D01*
X188583Y40157D02*
X198425Y30315D01*
X224410Y35039D02*
Y74803D01*
X219685Y30315D02*
X224410Y35039D01*
X198425Y30315D02*
X219685D01*
X141339Y143307D02*
X145980Y138666D01*
X146374D01*
D146*
X359883Y74388D02*
X361439D01*
X371457Y64370D01*
X359531Y74740D02*
X359883Y74388D01*
X371457Y55118D02*
Y64370D01*
X358098Y128910D02*
X358268Y128740D01*
X358098Y128910D02*
Y136614D01*
X377165Y55118D02*
X379134Y53150D01*
X371457Y55118D02*
X377165D01*
D149*
X261811Y357716D02*
Y369291D01*
X257008Y352913D02*
X261811Y357716D01*
X199921Y352913D02*
X204724Y357716D01*
Y369291D01*
D150*
X55374Y80246D02*
D03*
Y87471D02*
D03*
X58986Y76634D02*
D03*
Y83858D02*
D03*
Y91083D02*
D03*
X62598Y80246D02*
D03*
Y87471D02*
D03*
X66211Y76634D02*
D03*
Y83858D02*
D03*
Y91083D02*
D03*
X69823Y80246D02*
D03*
Y87471D02*
D03*
D151*
X99213Y255118D02*
D03*
X139370D02*
D03*
X80315Y333858D02*
D03*
X159055D02*
D03*
X65354Y371260D02*
D03*
X183465D02*
D03*
X125984Y109843D02*
D03*
X137275Y125968D02*
D03*
X16142Y320079D02*
D03*
X35827D02*
D03*
X17323Y272047D02*
D03*
X37008D02*
D03*
X14567Y160236D02*
D03*
X28486Y146317D02*
D03*
D152*
X100394Y33071D02*
D03*
X88583D02*
D03*
D153*
X390976Y171229D02*
D03*
X405118D02*
D03*
X405118Y157087D02*
D03*
D154*
X286693Y342835D02*
D03*
Y282835D02*
D03*
X256693Y352835D02*
D03*
Y322835D02*
D03*
Y282835D02*
D03*
X229921Y342913D02*
D03*
Y282913D02*
D03*
X199921Y352913D02*
D03*
Y322913D02*
D03*
Y282913D02*
D03*
D155*
X264173Y59449D02*
D03*
Y65354D02*
D03*
Y71260D02*
D03*
Y77165D02*
D03*
Y83071D02*
D03*
Y88976D02*
D03*
X322047Y75197D02*
D03*
Y69291D02*
D03*
Y63386D02*
D03*
Y57480D02*
D03*
Y51575D02*
D03*
Y45669D02*
D03*
D156*
X204724Y369291D02*
D03*
X224724D02*
D03*
X261811D02*
D03*
X281811D02*
D03*
X24409Y377087D02*
D03*
Y357087D02*
D03*
D157*
X155315Y53937D02*
D03*
X44094Y186221D02*
D03*
D158*
X174213Y66535D02*
D03*
X31496Y205118D02*
D03*
D159*
X150984Y78740D02*
D03*
D160*
X56299Y209449D02*
D03*
D161*
X226378Y104724D02*
D03*
X232283Y91732D02*
D03*
X137008Y148819D02*
D03*
X145669Y196457D02*
D03*
X256693Y91732D02*
D03*
X34646Y28346D02*
D03*
X35433Y34252D02*
D03*
Y41732D02*
D03*
X148819Y165748D02*
D03*
X144095Y166535D02*
D03*
X151575Y174016D02*
D03*
X143701Y170472D02*
D03*
X242126Y91339D02*
D03*
X77165Y197638D02*
D03*
Y216142D02*
D03*
Y203937D02*
D03*
X76772Y210236D02*
D03*
X121260Y194866D02*
D03*
X14173Y301969D02*
D03*
X246063Y254724D02*
D03*
X234252Y237008D02*
D03*
X212205Y253543D02*
D03*
X211417Y263779D02*
D03*
X112598Y152362D02*
D03*
X111024Y162992D02*
D03*
X112598Y174016D02*
D03*
X106693Y183858D02*
D03*
X120079Y201969D02*
D03*
X103937Y202756D02*
D03*
X104724Y196850D02*
D03*
X65748Y188583D02*
D03*
X60630Y184252D02*
D03*
X52756Y175984D02*
D03*
X95276Y177165D02*
D03*
X87008Y172835D02*
D03*
X73622Y168898D02*
D03*
X69685Y154724D02*
D03*
X46243Y151962D02*
D03*
X252756Y57087D02*
D03*
X243307Y55905D02*
D03*
X231496Y73622D02*
D03*
X242520Y73228D02*
D03*
X251969Y72441D02*
D03*
X261811Y117717D02*
D03*
X259449Y111811D02*
D03*
X260630Y105118D02*
D03*
X232283D02*
D03*
X231496Y109449D02*
D03*
X228346Y111811D02*
D03*
X192520Y162992D02*
D03*
X180709Y161024D02*
D03*
X188189Y167717D02*
D03*
X193307Y173622D02*
D03*
X202362Y150787D02*
D03*
X213779Y142126D02*
D03*
X208661Y142520D02*
D03*
X263568Y149659D02*
D03*
X292126Y150787D02*
D03*
X185433Y192913D02*
D03*
Y191732D02*
D03*
X205512Y193701D02*
D03*
X165748Y195669D02*
D03*
X165354Y186221D02*
D03*
X166142Y180315D02*
D03*
X159055Y144095D02*
D03*
X158268Y153150D02*
D03*
X157874Y160236D02*
D03*
X247638Y166535D02*
D03*
X256693Y161417D02*
D03*
X255512Y168898D02*
D03*
X249606Y159055D02*
D03*
X239370D02*
D03*
X240158Y166142D02*
D03*
X250787Y174803D02*
D03*
X238976Y174016D02*
D03*
X296063Y173622D02*
D03*
X289370Y188976D02*
D03*
X292913Y264173D02*
D03*
X279921Y195276D02*
D03*
X280709Y210236D02*
D03*
Y222047D02*
D03*
X269291Y250394D02*
D03*
X278740Y264173D02*
D03*
X280709Y229528D02*
D03*
X279921Y238976D02*
D03*
X280709Y248819D02*
D03*
X211024Y168504D02*
D03*
X65354Y32677D02*
D03*
X72835Y39764D02*
D03*
X242913Y113779D02*
D03*
X233104Y115461D02*
D03*
X235827Y99213D02*
D03*
X233465Y195276D02*
D03*
X251421Y198543D02*
D03*
X211024Y99606D02*
D03*
X248031Y199606D02*
D03*
X221260Y113386D02*
D03*
X226772Y119685D02*
D03*
X275590Y156299D02*
D03*
X126772Y144488D02*
D03*
X134646Y188583D02*
D03*
X141339Y143307D02*
D03*
X224410Y74803D02*
D03*
D162*
X362598Y85827D02*
D03*
X367323Y79921D02*
D03*
X373228Y77165D02*
D03*
X328740Y36614D02*
D03*
X387402Y86221D02*
D03*
X379134Y53150D02*
D03*
X374803Y43701D02*
D03*
X292126Y122441D02*
D03*
X303543Y142520D02*
D03*
X231496Y144095D02*
D03*
X177953Y140157D02*
D03*
X219685Y131102D02*
D03*
X219291Y139764D02*
D03*
X211024Y138189D02*
D03*
X185039Y134646D02*
D03*
X278346Y81496D02*
D03*
X87795Y180315D02*
D03*
D03*
X160630Y104724D02*
D03*
X214173Y51181D02*
D03*
X113779Y94095D02*
D03*
X255906Y123622D02*
D03*
X254724Y137402D02*
D03*
D200*
X358425Y92874D02*
D03*
Y97874D02*
D03*
Y102874D02*
D03*
Y107874D02*
D03*
Y112874D02*
D03*
Y117874D02*
D03*
Y122874D02*
D03*
X379370Y92874D02*
D03*
Y97874D02*
D03*
Y102874D02*
D03*
Y107874D02*
D03*
Y112874D02*
D03*
Y117874D02*
D03*
Y122874D02*
D03*
D201*
X371457Y55118D02*
D03*
X360039Y55118D02*
D03*
X408502Y106961D02*
D03*
X397085D02*
D03*
D202*
X404205Y113545D02*
D03*
Y124962D02*
D03*
D203*
X363386Y38583D02*
X365748Y40945D01*
Y47244D01*
X360236Y38583D02*
X363386D01*
X365748Y47244D02*
X366536Y48031D01*
X375197D01*
X377559Y45669D01*
Y29528D02*
Y45669D01*
X374803Y26772D02*
X377559Y29528D01*
X367673Y26772D02*
X374803D01*
X364523Y29921D02*
X367673Y26772D01*
X364173Y29921D02*
X364523D01*
M02*
