G04*
G04 #@! TF.GenerationSoftware,Altium Limited,Altium Designer,22.8.2 (66)*
G04*
G04 Layer_Color=16776960*
%FSLAX25Y25*%
%MOIN*%
G70*
G04*
G04 #@! TF.SameCoordinates,CEF463C0-22AA-4E03-8404-DDFA2DAA14BC*
G04*
G04*
G04 #@! TF.FilePolarity,Positive*
G04*
G01*
G75*
%ADD10C,0.00394*%
%ADD11C,0.01575*%
%ADD12C,0.00787*%
%ADD13C,0.01968*%
%ADD14C,0.01181*%
%ADD15C,0.00500*%
%ADD16C,0.00197*%
%ADD17C,0.00984*%
%ADD18C,0.01000*%
%ADD19C,0.00591*%
G36*
X392323Y142913D02*
X389961Y140551D01*
Y145276D01*
X392323Y142913D01*
D02*
G37*
D10*
X190945Y131496D02*
G03*
X194095Y131496I1575J0D01*
G01*
X260630Y119685D02*
G03*
X263779Y119685I1575J0D01*
G01*
X114173Y150000D02*
G03*
X111024Y150000I-1575J0D01*
G01*
X207179Y181301D02*
Y184721D01*
X207099Y184801D02*
X207179Y184721D01*
X196799Y184801D02*
X207099D01*
X196799Y181441D02*
Y184801D01*
X196939Y181301D02*
X207179D01*
X284844Y108175D02*
Y118415D01*
X284984Y118555D02*
X288344D01*
Y108255D02*
Y118555D01*
X288264Y108175D02*
X288344Y108255D01*
X284844Y108175D02*
X288264D01*
X187008Y131496D02*
X190945D01*
X194095D02*
X198819D01*
Y111811D02*
Y131496D01*
X187008Y111811D02*
X198819D01*
X187008D02*
Y131496D01*
X256693Y100000D02*
Y119685D01*
Y100000D02*
X268504D01*
Y119685D01*
X263779D02*
X268504D01*
X256693D02*
X260630D01*
X208268Y68898D02*
X208815D01*
X208268Y68504D02*
Y68898D01*
Y57874D02*
X208764D01*
X208268D02*
Y68504D01*
X219532Y68898D02*
X220079D01*
Y68504D02*
Y68898D01*
X219582Y57874D02*
X220079D01*
Y68504D01*
X235827Y155905D02*
Y176575D01*
X238779Y179528D01*
X235827Y155905D02*
X259449D01*
Y179528D01*
X238779D02*
X259449D01*
X118110Y150000D02*
Y169685D01*
X106299D02*
X118110D01*
X106299Y150000D02*
Y169685D01*
Y150000D02*
X111024D01*
X114173D02*
X118110D01*
X155905Y201181D02*
X170472D01*
X155905Y175197D02*
Y201181D01*
Y175197D02*
X170472D01*
Y201181D01*
X386308Y132876D02*
X396548D01*
X386168Y133016D02*
Y136376D01*
X396468D01*
X396548Y136296D01*
Y132876D02*
Y136296D01*
X386129Y117912D02*
X396369D01*
X396509Y114412D02*
Y117772D01*
X386209Y114412D02*
X396509D01*
X386129Y114492D02*
X386209Y114412D01*
X386129Y114492D02*
Y117912D01*
X64492Y46942D02*
X67912D01*
X64412Y46862D02*
X64492Y46942D01*
X64412Y36562D02*
Y46862D01*
Y36562D02*
X67772D01*
X67912Y36702D02*
Y46942D01*
X231301Y122349D02*
Y132589D01*
X231441Y132729D02*
X234801D01*
Y122429D02*
Y132729D01*
X234721Y122349D02*
X234801Y122429D01*
X231301Y122349D02*
X234721D01*
X236419D02*
Y132589D01*
X236559Y132729D02*
X239919D01*
Y122429D02*
Y132729D01*
X239839Y122349D02*
X239919Y122429D01*
X236419Y122349D02*
X239839D01*
X241537D02*
Y132589D01*
X241677Y132729D02*
X245037D01*
Y122429D02*
Y132729D01*
X244957Y122349D02*
X245037Y122429D01*
X241537Y122349D02*
X244957D01*
X279042Y101106D02*
Y104526D01*
Y101106D02*
X279122Y101026D01*
X289422D01*
Y104386D01*
X279042Y104526D02*
X289282D01*
X63704Y151667D02*
X67124D01*
X63624Y151587D02*
X63704Y151667D01*
X63624Y141287D02*
Y151587D01*
Y141287D02*
X66984D01*
X67124Y141427D02*
Y151667D01*
X108586Y56391D02*
X112006D01*
X108506Y56311D02*
X108586Y56391D01*
X108506Y46011D02*
Y56311D01*
Y46011D02*
X111866D01*
X112006Y46151D02*
Y56391D01*
X41263Y48517D02*
X44683D01*
X41183Y48437D02*
X41263Y48517D01*
X41183Y38137D02*
Y48437D01*
Y38137D02*
X44543D01*
X44683Y38277D02*
Y48517D01*
X59541Y28545D02*
Y31965D01*
X59461Y32045D02*
X59541Y31965D01*
X49161Y32045D02*
X59461D01*
X49161Y28685D02*
Y32045D01*
X49301Y28545D02*
X59541D01*
X271955Y162794D02*
X282195D01*
X282335Y159294D02*
Y162654D01*
X272035Y159294D02*
X282335D01*
X271955Y159374D02*
X272035Y159294D01*
X271955Y159374D02*
Y162794D01*
X250195Y122529D02*
Y132769D01*
X246695Y122389D02*
X250055D01*
X246695D02*
Y132689D01*
X246775Y132769D01*
X250195D01*
X235341Y202681D02*
Y206101D01*
Y202681D02*
X235421Y202601D01*
X245721D01*
Y205961D01*
X235341Y206101D02*
X245581D01*
X208569Y154920D02*
X218809D01*
X218949Y151420D02*
Y154780D01*
X208649Y151420D02*
X218949D01*
X208569Y151500D02*
X208649Y151420D01*
X208569Y151500D02*
Y154920D01*
X215279Y115446D02*
X218699D01*
X215199Y115366D02*
X215279Y115446D01*
X215199Y105066D02*
Y115366D01*
Y105066D02*
X218559D01*
X218699Y105206D02*
Y115446D01*
X215159Y117625D02*
X218579D01*
X218659Y117705D01*
Y128005D01*
X215299D02*
X218659D01*
X215159Y117625D02*
Y127865D01*
X218412Y253074D02*
Y256494D01*
Y253074D02*
X218493Y252994D01*
X228793D01*
Y256354D01*
X218412Y256494D02*
X228652D01*
X218412Y258586D02*
Y262006D01*
Y258586D02*
X218493Y258506D01*
X228793D01*
Y261866D01*
X218412Y262006D02*
X228652D01*
X262691Y258505D02*
Y261925D01*
X262611Y262005D02*
X262691Y261925D01*
X252311Y262005D02*
X262611D01*
X252311Y258645D02*
Y262005D01*
X252451Y258505D02*
X262691D01*
X252270Y253074D02*
Y256494D01*
Y253074D02*
X252350Y252994D01*
X262650D01*
Y256354D01*
X252270Y256494D02*
X262510D01*
X387719Y119291D02*
X391910D01*
X387719D02*
Y123228D01*
X387678Y131130D02*
X391868D01*
X387678Y127193D02*
Y131130D01*
X52067Y148847D02*
Y152784D01*
X56258D01*
X52109Y140945D02*
Y144882D01*
Y140945D02*
X56299D01*
X56130Y44567D02*
X60067D01*
Y40376D02*
Y44567D01*
X48228Y44525D02*
X52165D01*
X48228Y40335D02*
Y44525D01*
X220571Y271288D02*
Y275225D01*
X224762D01*
X220613Y263386D02*
Y267323D01*
Y263386D02*
X224803D01*
X261318D02*
Y267323D01*
X257128Y263386D02*
X261318D01*
X261277Y271288D02*
Y275225D01*
X257087D02*
X261277D01*
X90551Y233071D02*
X96457D01*
X90158Y227559D02*
X96457D01*
X392323Y140945D02*
Y144882D01*
X96155Y184844D02*
Y188264D01*
X96075Y188344D02*
X96155Y188264D01*
X85775Y188344D02*
X96075D01*
X85775Y184984D02*
Y188344D01*
X85915Y184844D02*
X96155D01*
X201500Y143962D02*
X204920D01*
X201420Y143882D02*
X201500Y143962D01*
X201420Y133582D02*
Y143882D01*
Y133582D02*
X204780D01*
X204920Y133722D02*
Y143962D01*
X279332Y108176D02*
Y118416D01*
X279472Y118556D02*
X282832D01*
Y108256D02*
Y118556D01*
X282752Y108176D02*
X282832Y108256D01*
X279332Y108176D02*
X282752D01*
X144048Y121225D02*
X147661Y126385D01*
X143823Y125709D02*
X148660Y122321D01*
X137180Y136127D02*
X137406Y136450D01*
X24712Y28542D02*
X34952D01*
X35092Y25042D02*
Y28402D01*
X24792Y25042D02*
X35092D01*
X24712Y25122D02*
X24792Y25042D01*
X24712Y25122D02*
Y28542D01*
X223817Y151663D02*
Y161903D01*
X220317Y151523D02*
X223677D01*
X220317D02*
Y161823D01*
X220397Y161903D01*
X223817D01*
X272242Y139852D02*
Y150092D01*
X268742Y139712D02*
X272102D01*
X268742D02*
Y150012D01*
X268822Y150092D01*
X272242D01*
X278545Y172349D02*
Y182589D01*
X278685Y182729D02*
X282045D01*
Y172429D02*
Y182729D01*
X281965Y172349D02*
X282045Y172429D01*
X278545Y172349D02*
X281965D01*
X272246D02*
Y182589D01*
X272386Y182729D02*
X275746D01*
Y172429D02*
Y182729D01*
X275666Y172349D02*
X275746Y172429D01*
X272246Y172349D02*
X275666D01*
X218907Y145006D02*
Y148426D01*
X218827Y148506D02*
X218907Y148426D01*
X208527Y148506D02*
X218827D01*
X208527Y145146D02*
Y148506D01*
X208667Y145006D02*
X218907D01*
X200879Y155710D02*
Y159130D01*
X200799Y159210D02*
X200879Y159130D01*
X190499Y159210D02*
X200799D01*
X190499Y155850D02*
Y159210D01*
X190639Y155710D02*
X200879D01*
X35827Y311811D02*
X42126D01*
X39370Y308661D02*
Y314567D01*
X44094Y325984D02*
X44488D01*
X37008Y263779D02*
X43307D01*
X40551Y260630D02*
Y266535D01*
X45276Y277953D02*
X45669D01*
X73821Y151483D02*
Y161723D01*
X73961Y161863D02*
X77321D01*
Y151563D02*
Y161863D01*
X77241Y151483D02*
X77321Y151563D01*
X73821Y151483D02*
X77241D01*
X140551Y175197D02*
X144488D01*
X142520Y173228D02*
Y177165D01*
X150486Y138781D02*
Y142201D01*
X150406Y142281D02*
X150486Y142201D01*
X140106Y142281D02*
X150406D01*
X140106Y138921D02*
Y142281D01*
X140246Y138781D02*
X150486D01*
D11*
X189370Y129528D02*
G03*
X189370Y129528I-394J0D01*
G01*
X259055Y117717D02*
G03*
X259055Y117717I-394J0D01*
G01*
X116535Y151969D02*
G03*
X116535Y151969I-394J0D01*
G01*
X179646Y239370D02*
G03*
X184646Y244370I0J5000D01*
G01*
Y344606D02*
G03*
X179646Y349606I-5000J0D01*
G01*
X59724D02*
G03*
X54724Y344606I0J-5000D01*
G01*
Y239370D02*
X179646D01*
X184646Y244370D02*
Y344606D01*
X59724Y349606D02*
X179646D01*
X54724Y239370D02*
Y344606D01*
D12*
X221260Y70079D02*
G03*
X221260Y70079I-394J0D01*
G01*
X85713Y45161D02*
G03*
X85713Y45161I-394J0D01*
G01*
X416153Y164535D02*
G03*
X416157Y164158I-18106J-377D01*
G01*
X87146Y149386D02*
G03*
X87146Y149386I-394J0D01*
G01*
X152102Y117905D02*
G03*
X152102Y117905I-20472J0D01*
G01*
X46457Y320079D02*
G03*
X46457Y320079I-20472J0D01*
G01*
X47638Y272047D02*
G03*
X47638Y272047I-20472J0D01*
G01*
X41449Y151805D02*
G03*
X41449Y151805I-19685J0D01*
G01*
X75197Y220866D02*
Y226378D01*
X80709Y220866D02*
Y226378D01*
X75197Y221654D02*
X80315D01*
X202346Y172874D02*
X206800Y177328D01*
X211533Y163131D02*
X216265Y167863D01*
X392929Y144473D02*
Y146441D01*
X400409Y144473D02*
Y145654D01*
X392929Y144473D02*
X400409D01*
X251220Y277284D02*
Y358780D01*
X281535D01*
X292559Y347756D01*
Y277284D02*
Y347756D01*
X292165Y276890D02*
X292559Y277284D01*
X251614Y276890D02*
X292165D01*
X194449Y277362D02*
Y358858D01*
X224764D01*
X235787Y347835D01*
Y277362D02*
Y347835D01*
X235394Y276969D02*
X235787Y277362D01*
X194843Y276969D02*
X235394D01*
X193307Y24213D02*
X197638D01*
X193307D02*
Y46260D01*
X231890D01*
Y24213D02*
Y46260D01*
X197638Y24213D02*
X231890D01*
X266535Y243307D02*
Y246063D01*
X314173D01*
Y193307D02*
Y246063D01*
X266535Y193307D02*
X314173D01*
X266535D02*
Y196063D01*
X191102Y361024D02*
X238347D01*
X191102D02*
Y377953D01*
Y390551D01*
X238347D01*
Y361024D02*
Y390551D01*
X123819Y65256D02*
Y92815D01*
X147441D01*
X167126D02*
X186811D01*
Y65256D02*
Y92815D01*
X248189Y361024D02*
X295433D01*
X248189D02*
Y377953D01*
Y390551D01*
X295433D01*
Y361024D02*
Y390551D01*
X3150Y390709D02*
X32677D01*
X3150Y343465D02*
Y390709D01*
Y343465D02*
X15748D01*
X32677D01*
Y390709D01*
X42815Y173622D02*
X70374D01*
Y193307D01*
Y212992D02*
Y236614D01*
X42815D02*
X70374D01*
X170866Y112205D02*
X175984D01*
X170472Y107480D02*
Y112992D01*
X175984Y107480D02*
Y112992D01*
X281496Y269516D02*
Y274634D01*
X276772Y275028D02*
X282283D01*
X276772Y269516D02*
X282283D01*
X202362Y269910D02*
Y275028D01*
X201575Y269516D02*
X207087D01*
X201575Y275028D02*
X207087D01*
X222047Y64961D02*
X227165D01*
X221654Y60236D02*
Y65748D01*
X227165Y60236D02*
Y65748D01*
X113080Y203751D02*
Y236428D01*
X139064D01*
Y204145D02*
Y236428D01*
X138670Y203751D02*
X139064Y204145D01*
X113080Y203751D02*
X138670D01*
X114961Y207480D02*
Y211811D01*
X115354Y227953D02*
Y233465D01*
X113779Y230709D02*
X116929D01*
X299739Y125591D02*
X303675D01*
X302363Y126902D01*
X303675Y128214D01*
X299739D01*
X303675Y129526D02*
Y130838D01*
Y130182D01*
X301051D01*
Y129526D01*
X299739Y135430D02*
Y132806D01*
X301707D01*
Y134118D01*
Y132806D01*
X303675D01*
Y136742D02*
Y138054D01*
Y137398D01*
X301051D01*
Y136742D01*
X304331Y140022D02*
Y142645D01*
X303675Y143957D02*
Y145925D01*
X303019Y146581D01*
X302363Y145925D01*
Y144613D01*
X301707Y143957D01*
X301051Y144613D01*
Y146581D01*
X303675Y149861D02*
Y148549D01*
X303019Y147893D01*
X301707D01*
X301051Y148549D01*
Y149861D01*
X301707Y150517D01*
X302363D01*
Y147893D01*
X301051Y154453D02*
Y152485D01*
X301707Y151829D01*
X303019D01*
X303675Y152485D01*
Y154453D01*
Y155764D02*
X303019D01*
Y156421D01*
X303675D01*
Y155764D01*
X304331Y159044D02*
Y161668D01*
X299739Y165604D02*
X303675D01*
Y163636D01*
X303019Y162980D01*
X301707D01*
X301051Y163636D01*
Y165604D01*
X303675Y168884D02*
Y167572D01*
X303019Y166916D01*
X301707D01*
X301051Y167572D01*
Y168884D01*
X301707Y169540D01*
X302363D01*
Y166916D01*
X300395Y171508D02*
X301051D01*
Y170852D01*
Y172163D01*
Y171508D01*
X303019D01*
X303675Y172163D01*
Y174131D02*
X303019D01*
Y174787D01*
X303675D01*
Y174131D01*
X304331Y177411D02*
Y180035D01*
X301051Y181347D02*
X303675Y182659D01*
X301051Y183971D01*
X300395Y185283D02*
X299739Y185939D01*
Y187250D01*
X300395Y187906D01*
X303019D01*
X303675Y187250D01*
Y185939D01*
X303019Y185283D01*
X300395D01*
X303675Y189218D02*
Y190530D01*
Y189874D01*
X299739D01*
X300395Y189218D01*
D13*
X233661Y182480D02*
G03*
X233661Y182480I-787J0D01*
G01*
D14*
X2725Y52085D02*
Y122951D01*
X30284D01*
X2725Y52085D02*
X30284D01*
X109055Y173228D02*
Y181890D01*
Y173228D02*
X130709D01*
X132677D01*
X138583Y179134D01*
X140551D01*
X109055Y192126D02*
Y200787D01*
X130709D01*
X132677D01*
X138583Y194882D01*
X140551D01*
X18186Y131005D02*
X20970Y133789D01*
X17908Y134068D02*
X21248Y130727D01*
D15*
X107677Y32071D02*
Y34071D01*
X81299Y32071D02*
Y34071D01*
X88583Y38189D02*
X94488D01*
X83346Y27953D02*
X105630D01*
X90388Y154524D02*
Y165114D01*
X83116Y154524D02*
Y165114D01*
D16*
X392929Y144473D02*
Y146441D01*
D17*
X272835Y52953D02*
Y95472D01*
X258268Y52953D02*
X272835D01*
X258268D02*
Y95472D01*
X272835D01*
D18*
X162417Y236563D02*
X161105D01*
X160449Y235907D01*
Y233283D01*
X161105Y232627D01*
X162417D01*
X163073Y233283D01*
Y235907D01*
X162417Y236563D01*
X164385Y235251D02*
Y233283D01*
X165041Y232627D01*
X167008D01*
Y235251D01*
X168976Y235907D02*
Y235251D01*
X168320D01*
X169632D01*
X168976D01*
Y233283D01*
X169632Y232627D01*
X171600Y231315D02*
Y235251D01*
X173568D01*
X174224Y234595D01*
Y233283D01*
X173568Y232627D01*
X171600D01*
X175536Y235251D02*
Y233283D01*
X176192Y232627D01*
X178160D01*
Y235251D01*
X180128Y235907D02*
Y235251D01*
X179472D01*
X180783D01*
X180128D01*
Y233283D01*
X180783Y232627D01*
X62417Y355854D02*
X63729D01*
X63073D01*
Y351918D01*
X62417D01*
X63729D01*
X65697D02*
Y354542D01*
X67665D01*
X68321Y353886D01*
Y351918D01*
X69633Y350606D02*
Y354542D01*
X71601D01*
X72257Y353886D01*
Y352574D01*
X71601Y351918D01*
X69633D01*
X73569Y354542D02*
Y352574D01*
X74225Y351918D01*
X76192D01*
Y354542D01*
X78160Y355198D02*
Y354542D01*
X77504D01*
X78816D01*
X78160D01*
Y352574D01*
X78816Y351918D01*
X387891Y168044D02*
X387235Y168700D01*
X385924D01*
X385267Y168044D01*
Y165420D01*
X385924Y164764D01*
X387235D01*
X387891Y165420D01*
Y166732D01*
X386579D01*
X411120Y168831D02*
X410464Y169487D01*
X409152D01*
X408496Y168831D01*
Y168175D01*
X409152Y167519D01*
X410464D01*
X411120Y166863D01*
Y166207D01*
X410464Y165551D01*
X409152D01*
X408496Y166207D01*
X398260Y158464D02*
Y154528D01*
X400227D01*
X400883Y155184D01*
Y157808D01*
X400227Y158464D01*
X398260D01*
X272228Y97653D02*
Y99653D01*
Y98653D01*
X266230D01*
X267230Y97653D01*
D19*
X288058Y123491D02*
X287534Y124015D01*
X286484D01*
X285959Y123491D01*
Y121391D01*
X286484Y120867D01*
X287534D01*
X288058Y121391D01*
X291207Y120867D02*
X289108D01*
X291207Y122966D01*
Y123491D01*
X290682Y124015D01*
X289633D01*
X289108Y123491D01*
X292256D02*
X292781Y124015D01*
X293831D01*
X294356Y123491D01*
Y122966D01*
X293831Y122441D01*
X294356Y121916D01*
Y121391D01*
X293831Y120867D01*
X292781D01*
X292256Y121391D01*
Y121916D01*
X292781Y122441D01*
X292256Y122966D01*
Y123491D01*
X292781Y122441D02*
X293831D01*
X81890Y219030D02*
X85039D01*
Y220604D01*
X84514Y221129D01*
X82415D01*
X81890Y220604D01*
Y219030D01*
X82415Y222178D02*
X81890Y222703D01*
Y223753D01*
X82415Y224277D01*
X82940D01*
X83465Y223753D01*
X83989Y224277D01*
X84514D01*
X85039Y223753D01*
Y222703D01*
X84514Y222178D01*
X83989D01*
X83465Y222703D01*
X82940Y222178D01*
X82415D01*
X83465Y222703D02*
Y223753D01*
X166536Y124541D02*
X169685Y126641D01*
X166536D02*
X169685Y124541D01*
Y129789D02*
Y127690D01*
X167586Y129789D01*
X167061D01*
X166536Y129264D01*
Y128215D01*
X167061Y127690D01*
X195040Y174038D02*
X198751Y173296D01*
X196525Y175523D02*
X197267Y171812D01*
X199493Y174038D02*
X200235Y174780D01*
X199864Y174409D01*
X197638Y176636D01*
X197638Y175894D01*
X194620Y109842D02*
Y107218D01*
X195145Y106693D01*
X196195D01*
X196719Y107218D01*
Y109842D01*
X197769D02*
X199868D01*
Y109317D01*
X197769Y107218D01*
Y106693D01*
X263518Y123621D02*
Y120998D01*
X264043Y120473D01*
X265092D01*
X265617Y120998D01*
Y123621D01*
X268766D02*
X267716Y123097D01*
X266667Y122047D01*
Y120998D01*
X267191Y120473D01*
X268241D01*
X268766Y120998D01*
Y121522D01*
X268241Y122047D01*
X266667D01*
X2101Y48818D02*
Y46195D01*
X2625Y45670D01*
X3675D01*
X4200Y46195D01*
Y48818D01*
X7348D02*
X5249D01*
Y47244D01*
X6299Y47769D01*
X6824D01*
X7348Y47244D01*
Y46195D01*
X6824Y45670D01*
X5774D01*
X5249Y46195D01*
X212731Y75590D02*
Y72966D01*
X213255Y72442D01*
X214305D01*
X214830Y72966D01*
Y75590D01*
X217453Y72442D02*
Y75590D01*
X215879Y74016D01*
X217978D01*
X261549Y153543D02*
Y150919D01*
X262074Y150394D01*
X263124D01*
X263649Y150919D01*
Y153543D01*
X264698Y153018D02*
X265223Y153543D01*
X266272D01*
X266797Y153018D01*
Y152493D01*
X266272Y151969D01*
X265747D01*
X266272D01*
X266797Y151444D01*
Y150919D01*
X266272Y150394D01*
X265223D01*
X264698Y150919D01*
X114699Y149212D02*
Y146588D01*
X115224Y146063D01*
X116273D01*
X116798Y146588D01*
Y149212D01*
X119947Y146063D02*
X117848D01*
X119947Y148163D01*
Y148687D01*
X119422Y149212D01*
X118372D01*
X117848Y148687D01*
X185826Y195012D02*
X183202D01*
X182678Y194488D01*
Y193438D01*
X183202Y192913D01*
X185826D01*
X182678Y191864D02*
Y190814D01*
Y191339D01*
X185826D01*
X185301Y191864D01*
X83334Y355511D02*
X85433D01*
X84383D01*
Y352363D01*
X86483D02*
X87532D01*
X87007D01*
Y355511D01*
X86483Y354987D01*
X112730Y30316D02*
X112205Y29791D01*
Y28741D01*
X112730Y28216D01*
X113255D01*
X113779Y28741D01*
Y29791D01*
X114304Y30316D01*
X114829D01*
X115354Y29791D01*
Y28741D01*
X114829Y28216D01*
X112205Y31365D02*
X115354D01*
X114304Y32414D01*
X115354Y33464D01*
X112205D01*
X115354Y34514D02*
Y35563D01*
Y35038D01*
X112205D01*
X112730Y34514D01*
X382677Y181365D02*
X382152Y181889D01*
X381103D01*
X380578Y181365D01*
Y180840D01*
X381103Y180315D01*
X382152D01*
X382677Y179790D01*
Y179265D01*
X382152Y178741D01*
X381103D01*
X380578Y179265D01*
X383727Y178741D02*
X384776D01*
X384251D01*
Y181889D01*
X383727Y181365D01*
X301181Y380054D02*
X298032D01*
Y381628D01*
X298557Y382153D01*
X299606D01*
X300131Y381628D01*
Y380054D01*
Y381103D02*
X301181Y382153D01*
X298032Y383202D02*
X301181D01*
Y385301D01*
Y388450D02*
Y386351D01*
X299081Y388450D01*
X298557D01*
X298032Y387925D01*
Y386876D01*
X298557Y386351D01*
X243700Y381366D02*
X240552D01*
Y382940D01*
X241076Y383465D01*
X242126D01*
X242651Y382940D01*
Y381366D01*
Y382416D02*
X243700Y383465D01*
X240552Y384515D02*
X243700D01*
Y386614D01*
Y387663D02*
Y388713D01*
Y388188D01*
X240552D01*
X241076Y387663D01*
X383070Y130841D02*
X379922D01*
Y132416D01*
X380447Y132940D01*
X381496D01*
X382021Y132416D01*
Y130841D01*
Y131891D02*
X383070Y132940D01*
X380447Y133990D02*
X379922Y134515D01*
Y135564D01*
X380447Y136089D01*
X380971D01*
X381496Y135564D01*
Y135039D01*
Y135564D01*
X382021Y136089D01*
X382546D01*
X383070Y135564D01*
Y134515D01*
X382546Y133990D01*
X379922Y137138D02*
Y139237D01*
X380447D01*
X382546Y137138D01*
X383070D01*
X401968Y111156D02*
X398819D01*
Y112731D01*
X399344Y113255D01*
X400394D01*
X400918Y112731D01*
Y111156D01*
Y112206D02*
X401968Y113255D01*
X399344Y114305D02*
X398819Y114830D01*
Y115879D01*
X399344Y116404D01*
X399869D01*
X400394Y115879D01*
Y115354D01*
Y115879D01*
X400918Y116404D01*
X401443D01*
X401968Y115879D01*
Y114830D01*
X401443Y114305D01*
X398819Y119552D02*
X399344Y118503D01*
X400394Y117453D01*
X401443D01*
X401968Y117978D01*
Y119028D01*
X401443Y119552D01*
X400918D01*
X400394Y119028D01*
Y117453D01*
X72834Y37141D02*
X69686D01*
Y38715D01*
X70210Y39239D01*
X71260D01*
X71785Y38715D01*
Y37141D01*
Y38190D02*
X72834Y39239D01*
Y42388D02*
Y40289D01*
X70735Y42388D01*
X70210D01*
X69686Y41863D01*
Y40814D01*
X70210Y40289D01*
X72834Y45537D02*
Y43438D01*
X70735Y45537D01*
X70210D01*
X69686Y45012D01*
Y43962D01*
X70210Y43438D01*
X229527Y123492D02*
X226378D01*
Y125066D01*
X226903Y125591D01*
X227953D01*
X228478Y125066D01*
Y123492D01*
Y124541D02*
X229527Y125591D01*
Y128740D02*
Y126641D01*
X227428Y128740D01*
X226903D01*
X226378Y128215D01*
Y127165D01*
X226903Y126641D01*
X229527Y129789D02*
Y130839D01*
Y130314D01*
X226378D01*
X226903Y129789D01*
X232416Y134646D02*
Y137795D01*
X233990D01*
X234515Y137270D01*
Y136221D01*
X233990Y135696D01*
X232416D01*
X233466D02*
X234515Y134646D01*
X237664D02*
X235565D01*
X237664Y136745D01*
Y137270D01*
X237139Y137795D01*
X236089D01*
X235565Y137270D01*
X238713D02*
X239238Y137795D01*
X240287D01*
X240812Y137270D01*
Y135171D01*
X240287Y134646D01*
X239238D01*
X238713Y135171D01*
Y137270D01*
X242521Y134646D02*
Y137795D01*
X244095D01*
X244620Y137270D01*
Y136221D01*
X244095Y135696D01*
X242521D01*
X243570D02*
X244620Y134646D01*
X245670D02*
X246719D01*
X246194D01*
Y137795D01*
X245670Y137270D01*
X248293Y135171D02*
X248818Y134646D01*
X249868D01*
X250392Y135171D01*
Y137270D01*
X249868Y137795D01*
X248818D01*
X248293Y137270D01*
Y136745D01*
X248818Y136221D01*
X250392D01*
X294094Y98427D02*
X290945D01*
Y100001D01*
X291470Y100525D01*
X292520D01*
X293044Y100001D01*
Y98427D01*
Y99476D02*
X294094Y100525D01*
Y101575D02*
Y102625D01*
Y102100D01*
X290945D01*
X291470Y101575D01*
Y104199D02*
X290945Y104724D01*
Y105773D01*
X291470Y106298D01*
X291995D01*
X292520Y105773D01*
X293044Y106298D01*
X293569D01*
X294094Y105773D01*
Y104724D01*
X293569Y104199D01*
X293044D01*
X292520Y104724D01*
X291995Y104199D01*
X291470D01*
X292520Y104724D02*
Y105773D01*
X62993Y137008D02*
Y140157D01*
X64568D01*
X65092Y139632D01*
Y138583D01*
X64568Y138058D01*
X62993D01*
X64043D02*
X65092Y137008D01*
X66142D02*
X67191D01*
X66667D01*
Y140157D01*
X66142Y139632D01*
X68766Y140157D02*
X70865D01*
Y139632D01*
X68766Y137533D01*
Y137008D01*
X116535Y46458D02*
X113386D01*
Y48032D01*
X113911Y48557D01*
X114961D01*
X115485Y48032D01*
Y46458D01*
Y47508D02*
X116535Y48557D01*
Y49606D02*
Y50656D01*
Y50131D01*
X113386D01*
X113911Y49606D01*
X113386Y54329D02*
X113911Y53280D01*
X114961Y52230D01*
X116010D01*
X116535Y52755D01*
Y53805D01*
X116010Y54329D01*
X115485D01*
X114961Y53805D01*
Y52230D01*
X38584Y33071D02*
Y36220D01*
X40158D01*
X40683Y35695D01*
Y34646D01*
X40158Y34121D01*
X38584D01*
X39634D02*
X40683Y33071D01*
X41732D02*
X42782D01*
X42257D01*
Y36220D01*
X41732Y35695D01*
X46455Y36220D02*
X44356D01*
Y34646D01*
X45406Y35170D01*
X45931D01*
X46455Y34646D01*
Y33596D01*
X45931Y33071D01*
X44881D01*
X44356Y33596D01*
X50789Y24410D02*
Y27559D01*
X52363D01*
X52888Y27034D01*
Y25984D01*
X52363Y25460D01*
X50789D01*
X51838D02*
X52888Y24410D01*
X53937D02*
X54987D01*
X54462D01*
Y27559D01*
X53937Y27034D01*
X58135Y24410D02*
Y27559D01*
X56561Y25984D01*
X58660D01*
X274804Y164567D02*
Y167716D01*
X276379D01*
X276904Y167191D01*
Y166142D01*
X276379Y165617D01*
X274804D01*
X275854D02*
X276904Y164567D01*
X277953D02*
X279002D01*
X278478D01*
Y167716D01*
X277953Y167191D01*
X280577D02*
X281102Y167716D01*
X282151D01*
X282676Y167191D01*
Y166666D01*
X282151Y166142D01*
X281626D01*
X282151D01*
X282676Y165617D01*
Y165092D01*
X282151Y164567D01*
X281102D01*
X280577Y165092D01*
X254330Y123230D02*
X251182D01*
Y124804D01*
X251706Y125329D01*
X252756D01*
X253281Y124804D01*
Y123230D01*
Y124279D02*
X254330Y125329D01*
Y126378D02*
Y127428D01*
Y126903D01*
X251182D01*
X251706Y126378D01*
X254330Y131101D02*
Y129002D01*
X252231Y131101D01*
X251706D01*
X251182Y130576D01*
Y129527D01*
X251706Y129002D01*
X237927Y207875D02*
X237927Y211023D01*
X239502Y211023D01*
X240026Y210498D01*
X240026Y209449D01*
X239502Y208924D01*
X237927Y208924D01*
X238977Y208924D02*
X240026Y207874D01*
X241076Y208399D02*
X241601Y207874D01*
X242650Y207874D01*
X243175Y208399D01*
X243175Y210498D01*
X242650Y211023D01*
X241601Y211023D01*
X241076Y210498D01*
X241076Y209974D01*
X241601Y209449D01*
X243175Y209449D01*
X211156Y156300D02*
Y159448D01*
X212730D01*
X213255Y158924D01*
Y157874D01*
X212730Y157349D01*
X211156D01*
X212205D02*
X213255Y156300D01*
X214304Y158924D02*
X214829Y159448D01*
X215879D01*
X216403Y158924D01*
Y158399D01*
X215879Y157874D01*
X216403Y157349D01*
Y156825D01*
X215879Y156300D01*
X214829D01*
X214304Y156825D01*
Y157349D01*
X214829Y157874D01*
X214304Y158399D01*
Y158924D01*
X214829Y157874D02*
X215879D01*
X223228Y105250D02*
X220079D01*
Y106825D01*
X220604Y107349D01*
X221654D01*
X222178Y106825D01*
Y105250D01*
Y106300D02*
X223228Y107349D01*
X220079Y108399D02*
Y110498D01*
X220604D01*
X222703Y108399D01*
X223228D01*
Y115880D02*
X220079D01*
Y117454D01*
X220604Y117979D01*
X221654D01*
X222178Y117454D01*
Y115880D01*
Y116930D02*
X223228Y117979D01*
X220079Y121128D02*
X220604Y120078D01*
X221654Y119029D01*
X222703D01*
X223228Y119553D01*
Y120603D01*
X222703Y121128D01*
X222178D01*
X221654Y120603D01*
Y119029D01*
X210762Y252363D02*
Y255511D01*
X212336D01*
X212861Y254987D01*
Y253937D01*
X212336Y253412D01*
X210762D01*
X211811D02*
X212861Y252363D01*
X216010Y255511D02*
X213911D01*
Y253937D01*
X214960Y254462D01*
X215485D01*
X216010Y253937D01*
Y252888D01*
X215485Y252363D01*
X214435D01*
X213911Y252888D01*
X210762Y258662D02*
Y261810D01*
X212336D01*
X212861Y261286D01*
Y260236D01*
X212336Y259712D01*
X210762D01*
X211811D02*
X212861Y258662D01*
X215485D02*
Y261810D01*
X213911Y260236D01*
X216010D01*
X267716Y256431D02*
X264567D01*
Y258006D01*
X265092Y258530D01*
X266142D01*
X266667Y258006D01*
Y256431D01*
Y257481D02*
X267716Y258530D01*
X265092Y259580D02*
X264567Y260105D01*
Y261154D01*
X265092Y261679D01*
X265617D01*
X266142Y261154D01*
Y260629D01*
Y261154D01*
X266667Y261679D01*
X267191D01*
X267716Y261154D01*
Y260105D01*
X267191Y259580D01*
X267716Y249345D02*
X264567D01*
Y250919D01*
X265092Y251444D01*
X266142D01*
X266667Y250919D01*
Y249345D01*
Y250394D02*
X267716Y251444D01*
Y254592D02*
Y252493D01*
X265617Y254592D01*
X265092D01*
X264567Y254068D01*
Y253018D01*
X265092Y252493D01*
X71259Y386877D02*
X68111D01*
Y388452D01*
X68635Y388976D01*
X69685D01*
X70210Y388452D01*
Y386877D01*
Y387927D02*
X71259Y388976D01*
Y390026D02*
Y391075D01*
Y390551D01*
X68111D01*
X68635Y390026D01*
X382939Y122704D02*
X380840D01*
X380315Y122179D01*
Y121129D01*
X380840Y120605D01*
X382939D01*
X383464Y121129D01*
Y122179D01*
X382415Y121654D02*
X383464Y122704D01*
Y122179D02*
X382939Y122704D01*
X380315Y125852D02*
X380840Y124803D01*
X381890Y123753D01*
X382939D01*
X383464Y124278D01*
Y125327D01*
X382939Y125852D01*
X382415D01*
X381890Y125327D01*
Y123753D01*
X47507Y140683D02*
Y142782D01*
X46982Y143307D01*
X45932D01*
X45408Y142782D01*
Y140683D01*
X45932Y140158D01*
X46982D01*
X46457Y141208D02*
X47507Y140158D01*
X46982D02*
X47507Y140683D01*
X50655Y143307D02*
X48556D01*
Y141732D01*
X49606Y142257D01*
X50131D01*
X50655Y141732D01*
Y140683D01*
X50131Y140158D01*
X49081D01*
X48556Y140683D01*
X60499Y46195D02*
Y48294D01*
X59974Y48818D01*
X58925D01*
X58400Y48294D01*
Y46195D01*
X58925Y45670D01*
X59974D01*
X59449Y46719D02*
X60499Y45670D01*
X59974D02*
X60499Y46195D01*
X63123Y45670D02*
Y48818D01*
X61548Y47244D01*
X63648D01*
X235695Y269160D02*
X233596D01*
X233071Y268636D01*
Y267586D01*
X233596Y267061D01*
X235695D01*
X236220Y267586D01*
Y268636D01*
X235170Y268111D02*
X236220Y269160D01*
Y268636D02*
X235695Y269160D01*
X233596Y270210D02*
X233071Y270735D01*
Y271784D01*
X233596Y272309D01*
X234121D01*
X234646Y271784D01*
Y271259D01*
Y271784D01*
X235170Y272309D01*
X235695D01*
X236220Y271784D01*
Y270735D01*
X235695Y270210D01*
X269553Y265617D02*
X267454D01*
X266930Y265092D01*
Y264043D01*
X267454Y263518D01*
X269553D01*
X270078Y264043D01*
Y265092D01*
X269029Y264567D02*
X270078Y265617D01*
Y265092D02*
X269553Y265617D01*
X270078Y268766D02*
Y266667D01*
X267979Y268766D01*
X267454D01*
X266930Y268241D01*
Y267191D01*
X267454Y266667D01*
X230315Y48557D02*
Y50656D01*
X229790Y51181D01*
X228741D01*
X228216Y50656D01*
Y48557D01*
X228741Y48032D01*
X229790D01*
X229265Y49082D02*
X230315Y48032D01*
X229790D02*
X230315Y48557D01*
X231364Y48032D02*
X232414D01*
X231889D01*
Y51181D01*
X231364Y50656D01*
X64174Y164043D02*
X67322D01*
Y166142D01*
Y167191D02*
Y168241D01*
Y167716D01*
X64174D01*
X64698Y167191D01*
X268373Y50787D02*
X267323D01*
X267848D01*
Y48163D01*
X267323Y47638D01*
X266799D01*
X266274Y48163D01*
X269422Y50787D02*
X271521D01*
Y50262D01*
X269422Y48163D01*
Y47638D01*
X301050Y249999D02*
X300001D01*
X300525D01*
Y247376D01*
X300001Y246851D01*
X299476D01*
X298951Y247376D01*
X304199Y249999D02*
X303149Y249475D01*
X302100Y248425D01*
Y247376D01*
X302624Y246851D01*
X303674D01*
X304199Y247376D01*
Y247900D01*
X303674Y248425D01*
X302100D01*
X235388Y356209D02*
X234646Y356951D01*
X235017Y356580D01*
X233161Y354724D01*
X232419D01*
X232048Y355096D01*
Y355838D01*
X237614Y353982D02*
X236130Y355467D01*
X235017Y354353D01*
X236130Y353982D01*
X236501Y353611D01*
Y352869D01*
X235759Y352127D01*
X235017Y352127D01*
X234275Y352869D01*
Y353611D01*
X130184Y35039D02*
X129134D01*
X129659D01*
Y32415D01*
X129134Y31890D01*
X128610D01*
X128085Y32415D01*
X132808Y31890D02*
Y35039D01*
X131233Y33465D01*
X133333D01*
X291687Y355815D02*
X290945Y356557D01*
X291316Y356186D01*
X289461Y354331D01*
X288719D01*
X288347Y354702D01*
Y355444D01*
X292058Y354702D02*
X292800Y354702D01*
X293542Y353960D01*
Y353218D01*
X293171Y352847D01*
X292429D01*
X292058Y353218D01*
X292429Y352847D01*
X292429Y352104D01*
X292058Y351733D01*
X291316Y351733D01*
X290574Y352475D01*
Y353218D01*
X39370Y386745D02*
Y387795D01*
Y387270D01*
X36746D01*
X36221Y387795D01*
Y388319D01*
X36746Y388844D01*
X36221Y383597D02*
Y385696D01*
X38320Y383597D01*
X38845D01*
X39370Y384121D01*
Y385171D01*
X38845Y385696D01*
X14567Y243700D02*
X13517D01*
X14042D01*
Y241076D01*
X13517Y240552D01*
X12993D01*
X12468Y241076D01*
X15617Y240552D02*
X16666D01*
X16141D01*
Y243700D01*
X15617Y243176D01*
X86221Y237401D02*
X84121D01*
Y235827D01*
X85171D01*
X84121D01*
Y234253D01*
X87270D02*
X88319D01*
X87795D01*
Y237401D01*
X87270Y236876D01*
X380315Y141077D02*
X383464D01*
Y142651D01*
X382939Y143176D01*
X380840D01*
X380315Y142651D01*
Y141077D01*
Y144226D02*
Y146325D01*
X380840D01*
X382939Y144226D01*
X383464D01*
X179921Y105773D02*
X176772D01*
Y104199D01*
X177297Y103674D01*
X179396D01*
X179921Y104199D01*
Y105773D01*
Y100526D02*
X179396Y101575D01*
X178347Y102625D01*
X177297D01*
X176772Y102100D01*
Y101050D01*
X177297Y100526D01*
X177822D01*
X178347Y101050D01*
Y102625D01*
X288977Y269030D02*
X292126D01*
Y270604D01*
X291601Y271129D01*
X289502D01*
X288977Y270604D01*
Y269030D01*
X292126Y273753D02*
X288977D01*
X290551Y272178D01*
Y274277D01*
X202101Y267322D02*
Y264174D01*
X203675D01*
X204200Y264699D01*
Y266798D01*
X203675Y267322D01*
X202101D01*
X205249Y266798D02*
X205774Y267322D01*
X206823D01*
X207348Y266798D01*
Y266273D01*
X206823Y265748D01*
X206299D01*
X206823D01*
X207348Y265223D01*
Y264699D01*
X206823Y264174D01*
X205774D01*
X205249Y264699D01*
X222967Y76377D02*
Y73229D01*
X224541D01*
X225066Y73754D01*
Y75853D01*
X224541Y76377D01*
X222967D01*
X228214Y73229D02*
X226115D01*
X228214Y75328D01*
Y75853D01*
X227690Y76377D01*
X226640D01*
X226115Y75853D01*
X79134Y150657D02*
X82283D01*
Y152231D01*
X81758Y152756D01*
X79659D01*
X79134Y152231D01*
Y150657D01*
X82283Y153805D02*
Y154855D01*
Y154330D01*
X79134D01*
X79659Y153805D01*
X89240Y182546D02*
X88715Y183070D01*
X87665D01*
X87141Y182546D01*
Y180447D01*
X87665Y179922D01*
X88715D01*
X89240Y180447D01*
X90289Y182546D02*
X90814Y183070D01*
X91863D01*
X92388Y182546D01*
Y182021D01*
X91863Y181496D01*
X91339D01*
X91863D01*
X92388Y180971D01*
Y180447D01*
X91863Y179922D01*
X90814D01*
X90289Y180447D01*
X95537Y179922D02*
X93438D01*
X95537Y182021D01*
Y182546D01*
X95012Y183070D01*
X93962D01*
X93438Y182546D01*
X182196Y140475D02*
X181671Y139950D01*
Y138900D01*
X182196Y138376D01*
X184295D01*
X184820Y138900D01*
Y139950D01*
X184295Y140475D01*
X182196Y141524D02*
X181671Y142049D01*
Y143098D01*
X182196Y143623D01*
X182721D01*
X183246Y143098D01*
Y142574D01*
Y143098D01*
X183770Y143623D01*
X184295D01*
X184820Y143098D01*
Y142049D01*
X184295Y141524D01*
X184820Y144673D02*
Y145722D01*
Y145198D01*
X181671D01*
X182196Y144673D01*
X208924Y135957D02*
X209448Y136482D01*
Y137532D01*
X208924Y138056D01*
X206824D01*
X206300Y137532D01*
Y136482D01*
X206824Y135957D01*
X208924Y134908D02*
X209448Y134383D01*
Y133334D01*
X208924Y132809D01*
X208399D01*
X207874Y133334D01*
Y133858D01*
Y133334D01*
X207349Y132809D01*
X206824D01*
X206300Y133334D01*
Y134383D01*
X206824Y134908D01*
X208924Y131759D02*
X209448Y131234D01*
Y130185D01*
X208924Y129660D01*
X206824D01*
X206300Y130185D01*
Y131234D01*
X206824Y131759D01*
X208924D01*
X277822Y123491D02*
X277297Y124015D01*
X276248D01*
X275723Y123491D01*
Y121391D01*
X276248Y120867D01*
X277297D01*
X277822Y121391D01*
X280971Y120867D02*
X278872D01*
X280971Y122966D01*
Y123491D01*
X280446Y124015D01*
X279397D01*
X278872Y123491D01*
X282020Y121391D02*
X282545Y120867D01*
X283595D01*
X284119Y121391D01*
Y123491D01*
X283595Y124015D01*
X282545D01*
X282020Y123491D01*
Y122966D01*
X282545Y122441D01*
X284119D01*
X152820Y130410D02*
X152691Y131141D01*
X151831Y131743D01*
X151100Y131614D01*
X149896Y129895D01*
X150025Y129164D01*
X150885Y128562D01*
X151616Y128691D01*
X153894Y126455D02*
X152174Y127659D01*
X155098Y128174D01*
X155399Y128604D01*
X155270Y129335D01*
X154410Y129937D01*
X153679Y129808D01*
X156559Y128432D02*
X158279Y127228D01*
X157978Y126798D01*
X155054Y126283D01*
X154753Y125853D01*
X18242Y42783D02*
X17717Y42258D01*
Y41208D01*
X18242Y40684D01*
X20341D01*
X20866Y41208D01*
Y42258D01*
X20341Y42783D01*
X20866Y45931D02*
Y43832D01*
X18767Y45931D01*
X18242D01*
X17717Y45407D01*
Y44357D01*
X18242Y43832D01*
X17717Y49080D02*
X18242Y48030D01*
X19291Y46981D01*
X20341D01*
X20866Y47506D01*
Y48555D01*
X20341Y49080D01*
X19816D01*
X19291Y48555D01*
Y46981D01*
X40421Y27034D02*
X39896Y27559D01*
X38846D01*
X38322Y27034D01*
Y24935D01*
X38846Y24410D01*
X39896D01*
X40421Y24935D01*
X43569Y24410D02*
X41470D01*
X43569Y26509D01*
Y27034D01*
X43044Y27559D01*
X41995D01*
X41470Y27034D01*
X46718Y27559D02*
X44619D01*
Y25984D01*
X45668Y26509D01*
X46193D01*
X46718Y25984D01*
Y24935D01*
X46193Y24410D01*
X45143D01*
X44619Y24935D01*
X19423Y32547D02*
X18898Y32022D01*
Y30972D01*
X19423Y30448D01*
X21522D01*
X22047Y30972D01*
Y32022D01*
X21522Y32547D01*
X22047Y35695D02*
Y33596D01*
X19948Y35695D01*
X19423D01*
X18898Y35170D01*
Y34121D01*
X19423Y33596D01*
X22047Y38319D02*
X18898D01*
X20472Y36745D01*
Y38844D01*
X224935Y148688D02*
X224410Y148164D01*
Y147114D01*
X224935Y146589D01*
X227034D01*
X227558Y147114D01*
Y148164D01*
X227034Y148688D01*
X227558Y151837D02*
Y149738D01*
X225460Y151837D01*
X224935D01*
X224410Y151312D01*
Y150263D01*
X224935Y149738D01*
Y152886D02*
X224410Y153411D01*
Y154461D01*
X224935Y154985D01*
X225460D01*
X225984Y154461D01*
Y153936D01*
Y154461D01*
X226509Y154985D01*
X227034D01*
X227558Y154461D01*
Y153411D01*
X227034Y152886D01*
X268767Y136089D02*
X268242Y136614D01*
X267193D01*
X266668Y136089D01*
Y133990D01*
X267193Y133465D01*
X268242D01*
X268767Y133990D01*
X271916Y133465D02*
X269817D01*
X271916Y135564D01*
Y136089D01*
X271391Y136614D01*
X270341D01*
X269817Y136089D01*
X275064Y133465D02*
X272965D01*
X275064Y135564D01*
Y136089D01*
X274539Y136614D01*
X273490D01*
X272965Y136089D01*
X281497Y187270D02*
X280972Y187795D01*
X279922D01*
X279398Y187270D01*
Y185171D01*
X279922Y184646D01*
X280972D01*
X281497Y185171D01*
X284645Y184646D02*
X282546D01*
X284645Y186745D01*
Y187270D01*
X284120Y187795D01*
X283071D01*
X282546Y187270D01*
X285695Y184646D02*
X286744D01*
X286220D01*
Y187795D01*
X285695Y187270D01*
X271129D02*
X270604Y187795D01*
X269555D01*
X269030Y187270D01*
Y185171D01*
X269555Y184646D01*
X270604D01*
X271129Y185171D01*
X274278Y184646D02*
X272179D01*
X274278Y186745D01*
Y187270D01*
X273753Y187795D01*
X272704D01*
X272179Y187270D01*
X275327D02*
X275852Y187795D01*
X276902D01*
X277427Y187270D01*
Y185171D01*
X276902Y184646D01*
X275852D01*
X275327Y185171D01*
Y187270D01*
X218242Y201837D02*
X217717Y202362D01*
X216668D01*
X216143Y201837D01*
Y199738D01*
X216668Y199213D01*
X217717D01*
X218242Y199738D01*
X219292Y199213D02*
X220341D01*
X219816D01*
Y202362D01*
X219292Y201837D01*
X221915Y199738D02*
X222440Y199213D01*
X223490D01*
X224014Y199738D01*
Y201837D01*
X223490Y202362D01*
X222440D01*
X221915Y201837D01*
Y201312D01*
X222440Y200787D01*
X224014D01*
X287927Y149868D02*
X287402Y150393D01*
X286353D01*
X285828Y149868D01*
Y147769D01*
X286353Y147245D01*
X287402D01*
X287927Y147769D01*
X288977Y147245D02*
X290026D01*
X289501D01*
Y150393D01*
X288977Y149868D01*
X291600D02*
X292125Y150393D01*
X293175D01*
X293700Y149868D01*
Y149344D01*
X293175Y148819D01*
X293700Y148294D01*
Y147769D01*
X293175Y147245D01*
X292125D01*
X291600Y147769D01*
Y148294D01*
X292125Y148819D01*
X291600Y149344D01*
Y149868D01*
X292125Y148819D02*
X293175D01*
X212730Y143175D02*
X212206Y143700D01*
X211156D01*
X210631Y143175D01*
Y141077D01*
X211156Y140552D01*
X212206D01*
X212730Y141077D01*
X213780Y140552D02*
X214829D01*
X214305D01*
Y143700D01*
X213780Y143175D01*
X216404Y143700D02*
X218503D01*
Y143175D01*
X216404Y141077D01*
Y140552D01*
X183146Y161991D02*
X182621Y161467D01*
Y160417D01*
X183146Y159892D01*
X185245D01*
X185770Y160417D01*
Y161467D01*
X185245Y161991D01*
X185770Y163041D02*
Y164090D01*
Y163566D01*
X182621D01*
X183146Y163041D01*
X182621Y167764D02*
X183146Y166714D01*
X184195Y165665D01*
X185245D01*
X185770Y166189D01*
Y167239D01*
X185245Y167764D01*
X184720D01*
X184195Y167239D01*
Y165665D01*
X193045Y180053D02*
X192520Y179528D01*
Y178479D01*
X193045Y177954D01*
X195144D01*
X195669Y178479D01*
Y179528D01*
X195144Y180053D01*
X195669Y181103D02*
Y182152D01*
Y181627D01*
X192520D01*
X193045Y181103D01*
X192520Y185826D02*
Y183726D01*
X194095D01*
X193570Y184776D01*
Y185301D01*
X194095Y185826D01*
X195144D01*
X195669Y185301D01*
Y184251D01*
X195144Y183726D01*
X250919Y75853D02*
X250395Y76377D01*
X249345D01*
X248820Y75853D01*
Y73754D01*
X249345Y73229D01*
X250395D01*
X250919Y73754D01*
X251969Y73229D02*
X253018D01*
X252494D01*
Y76377D01*
X251969Y75853D01*
X256167Y73229D02*
Y76377D01*
X254593Y74803D01*
X256692D01*
X222572Y82022D02*
X222048Y81497D01*
Y80447D01*
X222572Y79922D01*
X224672D01*
X225196Y80447D01*
Y81497D01*
X224672Y82022D01*
X225196Y83071D02*
Y84121D01*
Y83596D01*
X222048D01*
X222572Y83071D01*
Y85695D02*
X222048Y86220D01*
Y87269D01*
X222572Y87794D01*
X223097D01*
X223622Y87269D01*
Y86744D01*
Y87269D01*
X224147Y87794D01*
X224672D01*
X225196Y87269D01*
Y86220D01*
X224672Y85695D01*
X239896Y76246D02*
X239371Y76771D01*
X238321D01*
X237796Y76246D01*
Y74147D01*
X238321Y73623D01*
X239371D01*
X239896Y74147D01*
X240945Y73623D02*
X241995D01*
X241470D01*
Y76771D01*
X240945Y76246D01*
X245668Y73623D02*
X243569D01*
X245668Y75722D01*
Y76246D01*
X245143Y76771D01*
X244094D01*
X243569Y76246D01*
X240289Y62468D02*
X239764Y61943D01*
Y60893D01*
X240289Y60369D01*
X242388D01*
X242913Y60893D01*
Y61943D01*
X242388Y62468D01*
X242913Y63517D02*
Y64567D01*
Y64042D01*
X239764D01*
X240289Y63517D01*
X242913Y66141D02*
Y67190D01*
Y66666D01*
X239764D01*
X240289Y66141D01*
X41864Y340026D02*
X41339Y340551D01*
X40290D01*
X39765Y340026D01*
Y337927D01*
X40290Y337402D01*
X41339D01*
X41864Y337927D01*
X42914Y337402D02*
X43963D01*
X43438D01*
Y340551D01*
X42914Y340026D01*
X45537D02*
X46062Y340551D01*
X47112D01*
X47637Y340026D01*
Y337927D01*
X47112Y337402D01*
X46062D01*
X45537Y337927D01*
Y340026D01*
X41995Y295144D02*
X41470Y295669D01*
X40421D01*
X39896Y295144D01*
Y293045D01*
X40421Y292520D01*
X41470D01*
X41995Y293045D01*
X43044D02*
X43569Y292520D01*
X44619D01*
X45143Y293045D01*
Y295144D01*
X44619Y295669D01*
X43569D01*
X43044Y295144D01*
Y294619D01*
X43569Y294094D01*
X45143D01*
X69423Y153412D02*
X68898Y152887D01*
Y151838D01*
X69423Y151313D01*
X71522D01*
X72047Y151838D01*
Y152887D01*
X71522Y153412D01*
X69423Y154462D02*
X68898Y154987D01*
Y156036D01*
X69423Y156561D01*
X69948D01*
X70472Y156036D01*
X70997Y156561D01*
X71522D01*
X72047Y156036D01*
Y154987D01*
X71522Y154462D01*
X70997D01*
X70472Y154987D01*
X69948Y154462D01*
X69423D01*
X70472Y154987D02*
Y156036D01*
X142257Y167192D02*
X141733Y166667D01*
Y165618D01*
X142257Y165093D01*
X144357D01*
X144881Y165618D01*
Y166667D01*
X144357Y167192D01*
X141733Y168241D02*
Y170340D01*
X142257D01*
X144357Y168241D01*
X144881D01*
X101706Y186089D02*
X101182Y185565D01*
Y184515D01*
X101706Y183990D01*
X103805D01*
X104330Y184515D01*
Y185565D01*
X103805Y186089D01*
X101182Y189238D02*
X101706Y188189D01*
X102756Y187139D01*
X103805D01*
X104330Y187664D01*
Y188713D01*
X103805Y189238D01*
X103281D01*
X102756Y188713D01*
Y187139D01*
X130840Y166404D02*
X130315Y165880D01*
Y164830D01*
X130840Y164305D01*
X132939D01*
X133464Y164830D01*
Y165880D01*
X132939Y166404D01*
X130315Y169553D02*
Y167454D01*
X131890D01*
X131365Y168503D01*
Y169028D01*
X131890Y169553D01*
X132939D01*
X133464Y169028D01*
Y167979D01*
X132939Y167454D01*
X100919Y199869D02*
X100394Y199344D01*
Y198295D01*
X100919Y197770D01*
X103018D01*
X103543Y198295D01*
Y199344D01*
X103018Y199869D01*
X103543Y202493D02*
X100394D01*
X101969Y200919D01*
Y203017D01*
X79265Y211286D02*
X78741Y210761D01*
Y209712D01*
X79265Y209187D01*
X81365D01*
X81889Y209712D01*
Y210761D01*
X81365Y211286D01*
X79265Y212336D02*
X78741Y212861D01*
Y213910D01*
X79265Y214435D01*
X79790D01*
X80315Y213910D01*
Y213385D01*
Y213910D01*
X80840Y214435D01*
X81365D01*
X81889Y213910D01*
Y212861D01*
X81365Y212336D01*
X152887Y139239D02*
X152363Y138714D01*
Y137665D01*
X152887Y137140D01*
X154987D01*
X155511Y137665D01*
Y138714D01*
X154987Y139239D01*
X155511Y142388D02*
Y140289D01*
X153412Y142388D01*
X152887D01*
X152363Y141863D01*
Y140813D01*
X152887Y140289D01*
X153281Y148819D02*
X152756Y148294D01*
Y147245D01*
X153281Y146720D01*
X155380D01*
X155905Y147245D01*
Y148294D01*
X155380Y148819D01*
X155905Y149868D02*
Y150918D01*
Y150393D01*
X152756D01*
X153281Y149868D01*
X620Y166626D02*
X2847Y164400D01*
X3960Y165513D01*
X3960Y166255D01*
X3589Y166626D01*
X2847Y166626D01*
X1733Y165513D01*
X2847Y166626D01*
Y167368D01*
X2475Y167739D01*
X1733D01*
X620Y166626D01*
X2847Y168852D02*
X4331Y170337D01*
X4702Y169966D01*
Y166997D01*
X5073Y166626D01*
X6557Y168110D01*
X7299Y168852D02*
X8041Y169595D01*
X7670Y169223D01*
X5444Y171450D01*
X5444Y170708D01*
X140945Y216405D02*
X144094D01*
Y217980D01*
X143569Y218504D01*
X143044D01*
X142520Y217980D01*
Y216405D01*
Y217980D01*
X141995Y218504D01*
X141470D01*
X140945Y217980D01*
Y216405D01*
X144094Y219554D02*
X140945D01*
Y221128D01*
X141470Y221653D01*
X142520D01*
X143044Y221128D01*
Y219554D01*
Y220603D02*
X144094Y221653D01*
Y222703D02*
Y223752D01*
Y223227D01*
X140945D01*
X141470Y222703D01*
M02*
