M48
;Layer_Color=9474304
;FILE_FORMAT=2:5
INCH,LZ
;TYPE=PLATED
T2F00S00C0.01181
;TYPE=NON_PLATED
%
T02
X0214173Y0051181
X032874Y0036614
X0374803Y0043701
X0379134Y005315
X0373228Y0077165
X0387402Y0086221
X0362598Y0085827
X0367323Y0079921
X0278346Y0081496
X0292126Y0122441
X0303543Y014252
X0254724Y0137402
X0255906Y0123622
X0219685Y0131102
X0219291Y0139764
X0231496Y0144095
X0211024Y0138189
X0185039Y0134646
X0177953Y0140157
X016063Y0104724
X0113779Y0094095
M30
